<svg xmlns="http://www.w3.org/2000/svg" width="213" height="1241.648" viewBox="0 0 213 1241.648">
  <path id="vertical-txt_wholesale" d="M79.236-28.968c-15.9-47.712-37.488-120.7-47.712-161.6-7.384.852-10.224,1.136-13.632,1.136-2.84,0-4.26,0-13.916-1.136l1.42,4.828,9.372,28.116c5.4,16.756,6.248,19.312,19.88,62.2,3.408,10.508,6.816,20.732,9.94,31.24,4.544,14.768,5.964,19.6,9.656,32.66L63.9,1.136C68.444.284,70.148,0,72.42,0c1.988,0,3.976.284,9.088,1.136C86.336-13.348,89.46-22.72,95.424-38.908c4.828-14.484,9.94-28.684,15.052-43.168,1.988-5.112,7.952-22.72,13.348-38.34,6.816-19.88,8.52-24.708,12.212-34.648l1.42,4.26C165-69.58,178.636-27.264,186.588,1.136,193.12,0,193.688,0,195.676,0s3.692.284,8.52,1.136c1.42-5.112,8.8-26.7,21.868-65.036L236.572-94c15.336-45.724,20.448-59.924,35.5-96.56-7.952,1.136-9.088,1.136-11.076,1.136a41.263,41.263,0,0,1-9.088-1.136C243.672-157.9,224.36-95.708,201.924-30.1l-1.7-4.26c-4.26-13.064-8.52-25.844-13.064-38.908-21.3-63.048-31.808-95.708-37.488-117.292-5.112.852-6.532,1.136-8.52,1.136s-3.692-.284-8.236-1.136c-3.976,15.9-13.632,46.292-39.76,121.552L80.94-33.8Zm218.68-75.26c0,57.652-.568,84.064-1.988,105.364C302.744.284,305.016,0,307.856,0s4.828.284,12.212,1.136c-.852-13.064-1.42-35.5-1.42-61.912,0-23.288,1.136-32.376,5.4-40.612,5.964-11.36,17.608-18.176,30.956-18.176,10.224,0,19.88,4.544,25.56,11.644,5.112,6.816,7.668,16.472,7.668,30.672,0,25.56-1.136,66.74-2.272,78.384A77.467,77.467,0,0,1,397.316,0c2.556,0,3.692,0,12.78,1.136-.852-11.076-1.42-24.708-1.42-42.884,0-7.668.284-17.04.568-26.7.284-7.668.568-14.768.568-19.028,0-15.62-3.976-25.844-13.064-34.08-8.52-7.668-20.164-11.928-32.944-11.928-20.732,0-37.488,10.508-45.156,28.116v-5.964c0-51.688.284-72.7,1.42-96.844a44.912,44.912,0,0,1-10.792,1.136,70.624,70.624,0,0,1-13.348-1.136c1.136,17.04,1.988,50.836,1.988,77.532ZM513.188-133.48c-43.168,0-69.864,26.412-69.864,69.3,0,42.032,26.7,69.012,67.876,69.012,40.9,0,68.16-27.264,68.16-67.592C579.36-107.352,554.936-133.48,513.188-133.48Zm-1.7,8.8c28.116,0,43.168,21.584,43.168,61.344,0,36.352-16.756,59.356-43.168,59.356-26.98,0-43.452-22.72-43.452-60.492C468.032-101.956,484.22-124.676,511.484-124.676Zm99.4-83.212c1.136,19.6,1.7,44.02,1.7,95.708,0,70.432,0,79.236-1.7,113.316A86.4,86.4,0,0,1,623.1,0a83.352,83.352,0,0,1,11.928,1.136c-.852-15.052-1.7-59.356-1.7-106.5,0-33.512.852-87.756,1.7-102.524a77.469,77.469,0,0,1-11.644.852A95.6,95.6,0,0,1,610.884-207.888ZM782.42-26.412c-11.644,13.064-26.412,19.88-43.736,19.88-28.4,0-47.144-21.016-47.144-52.824V-65.6c19.312-.568,33.228-.852,50.836-.852,23.856,0,37.2.284,46.292.852.284-3.408.284-6.816.284-8.8,0-37.488-20.732-59.072-56.8-59.072-21.016,0-36.068,5.68-47.428,18.176-11.928,12.78-17.892,30.388-17.892,51.972,0,41.748,25.844,68.16,66.74,68.16,19.028,0,30.672-3.976,48.28-16.472a30.44,30.44,0,0,1,1.7-11.644l.568-2.556Zm-15.9-50.836c-9.656,1.136-12.5,1.136-31.24,1.136-21.868,0-34.932-.284-43.452-.568,1.988-29.252,17.608-48,39.76-48,14.484,0,24.992,7.384,30.388,21.3C764.528-97.128,765.664-90.028,766.516-77.248Zm51.4,52.256c-1.988,8.236-3.976,15.62-5.964,20.448,9.372,5.964,22.436,9.372,35.5,9.372,29.252,0,51.12-18.744,51.12-44.02,0-18.46-9.088-28.116-33.228-34.648-15.336-4.26-19.6-5.964-24.424-9.372-5.4-3.692-8.8-10.508-8.8-17.892,0-13.632,10.508-23.288,25.276-23.288s24.708,7.1,27.832,19.6h2.84c2.272-8.8,2.272-9.372,7.384-21.868-13.064-5.112-21.584-6.816-33.512-6.816-29.82,0-48.564,15.336-48.564,39.76,0,10.792,4.544,21.3,11.928,26.98,5.68,4.544,11.36,7.1,27.832,11.928,19.88,5.68,26.7,12.212,26.7,24.992,0,13.916-11.644,24.708-26.98,24.708-13.916,0-23.856-6.248-32.66-19.88ZM938.336-102.24c7.1-12.78,19.88-19.88,34.648-19.88,14.2,0,25.56,7.384,29.536,19.6,2.272,6.532,2.272,7.384,2.272,22.72v.568c-7.384,4.828-13.632,6.816-34.08,10.224-19.6,3.124-27.832,5.964-35.216,11.36-7.952,5.68-12.5,15.9-12.5,27.832,0,21.3,14.768,34.648,38.34,34.648,16.472,0,30.388-6.532,42.884-20.164,1.7,11.36,7.952,16.756,19.312,16.756,5.964,0,11.076-1.136,18.744-4.26v-5.4c-2.84.284-4.26.568-5.964.568-4.828,0-8.236-2.556-9.656-7.384-1.136-3.408-1.42-9.94-1.42-27.264,0-10.792.284-18.176.568-28.968.284-7.384.568-13.632.568-18.744,0-27.264-17.04-43.452-45.44-43.452-15.9,0-29.252,4.544-45.44,15.336a54.2,54.2,0,0,1,.852,7.952,54.2,54.2,0,0,1-.852,7.952Zm66.74,34.364v2.556l-.568,17.04v6.816c-.284,5.68-.284,7.384-.284,14.768C996.84-14.768,984.06-7.1,971.564-7.1,956.512-7.1,946-17.608,946-32.66c0-10.792,4.26-18.46,13.064-23.288,5.68-3.124,6.816-3.408,42.884-11.36Zm62.48-140.012c1.136,19.6,1.7,44.02,1.7,95.708,0,70.432,0,79.236-1.7,113.316A86.4,86.4,0,0,1,1079.768,0,83.351,83.351,0,0,1,1091.7,1.136c-.852-15.052-1.7-59.356-1.7-106.5,0-33.512.852-87.756,1.7-102.524a77.467,77.467,0,0,1-11.644.852A95.6,95.6,0,0,1,1067.556-207.888ZM1239.092-26.412c-11.644,13.064-26.412,19.88-43.736,19.88-28.4,0-47.144-21.016-47.144-52.824V-65.6c19.312-.568,33.228-.852,50.836-.852,23.856,0,37.2.284,46.292.852.284-3.408.284-6.816.284-8.8,0-37.488-20.732-59.072-56.8-59.072-21.016,0-36.068,5.68-47.428,18.176-11.928,12.78-17.892,30.388-17.892,51.972,0,41.748,25.844,68.16,66.74,68.16,19.028,0,30.672-3.976,48.28-16.472a30.44,30.44,0,0,1,1.7-11.644l.568-2.556Zm-15.9-50.836c-9.656,1.136-12.5,1.136-31.24,1.136-21.868,0-34.932-.284-43.452-.568,1.988-29.252,17.608-48,39.76-48,14.484,0,24.992,7.384,30.388,21.3C1221.2-97.128,1222.336-90.028,1223.188-77.248Z" transform="translate(4.828 -3.976) rotate(90)" fill="#ddb763" opacity="0.607"/>
</svg>
