<svg xmlns="http://www.w3.org/2000/svg" width="199.084" height="1152.472" viewBox="0 0 199.084 1152.472">
  <path id="vertical-txt_overview" d="M120.132-194.256c-64.468,0-104.8,38.056-104.8,99.4,0,61.628,40.044,99.684,105.08,99.684,64.468,0,105.364-38.056,105.364-97.98C225.78-156.484,186.3-194.256,120.132-194.256Zm.284,9.088c25.844,0,48.564,11.076,61.628,30.388,10.792,15.62,15.62,34.932,15.62,61.344,0,55.1-29.252,89.176-77.248,89.176-25.844,0-48.28-11.076-61.344-30.388C48.564-49.7,43.452-69.58,43.452-94.856c0-24.992,5.112-45.156,15.62-59.924C72.7-174.376,94.572-185.168,120.416-185.168ZM312.968-30.1C295.644-69.3,283.716-99.4,272.924-131.492a99.265,99.265,0,0,1-13.632,1.136,74.877,74.877,0,0,1-12.5-1.136c5.4,9.94,7.668,15.62,29.252,67.024,15.052,36.352,21.584,52.824,25.844,65.6A35.437,35.437,0,0,1,309.276,0c1.7,0,3.124.284,7.668,1.136,6.248-21.3,35.784-90.6,56.232-132.628a38.9,38.9,0,0,1-8.52,1.136c-1.988,0-3.692-.284-9.088-1.136-4.544,15.9-28.968,78.384-40.9,105.648Zm186.588,3.692c-11.644,13.064-26.412,19.88-43.736,19.88-28.4,0-47.144-21.016-47.144-52.824V-65.6c19.312-.568,33.228-.852,50.836-.852,23.856,0,37.2.284,46.292.852.284-3.408.284-6.816.284-8.8,0-37.488-20.732-59.072-56.8-59.072-21.016,0-36.068,5.68-47.428,18.176-11.928,12.78-17.892,30.388-17.892,51.972,0,41.748,25.844,68.16,66.74,68.16,19.028,0,30.672-3.976,48.28-16.472a30.44,30.44,0,0,1,1.7-11.644l.568-2.556Zm-15.9-50.836c-9.656,1.136-12.5,1.136-31.24,1.136-21.868,0-34.932-.284-43.452-.568,1.988-29.252,17.608-48,39.76-48,14.484,0,24.992,7.384,30.388,21.3C481.664-97.128,482.8-90.028,483.652-77.248Zm120.132-32.376c-.284-2.556-.568-4.544-.568-5.68a71.326,71.326,0,0,1,2.272-16.188,17.9,17.9,0,0,0-8.52-1.988c-14.484,0-28.4,11.644-38.056,31.24,0-7.668,0-8.52.284-14.768l.284-11.36v-3.124a65.583,65.583,0,0,1-10.792,1.136c-3.124,0-5.4-.284-11.928-1.136,2.272,38.624,2.272,42.316,2.272,63.332,0,33.228-.852,58.5-2.272,69.3A86.4,86.4,0,0,1,548.972,0,76.98,76.98,0,0,1,560.9,1.136c-.852-9.656-1.7-31.24-1.7-46.576,0-29.82.568-40.328,2.556-46.576,3.976-12.5,14.768-21.016,26.412-21.016,5.112,0,9.088,1.42,13.632,4.544ZM688.416-30.1C671.092-69.3,659.164-99.4,648.372-131.492a99.264,99.264,0,0,1-13.632,1.136,74.877,74.877,0,0,1-12.5-1.136c5.4,9.94,7.668,15.62,29.252,67.024,15.052,36.352,21.584,52.824,25.844,65.6A35.437,35.437,0,0,1,684.724,0c1.7,0,3.124.284,7.668,1.136,6.248-21.3,35.784-90.6,56.232-132.628a38.9,38.9,0,0,1-8.52,1.136c-1.988,0-3.692-.284-9.088-1.136-4.544,15.9-28.968,78.384-40.9,105.648Zm83.5-101.388c1.42,16.188,2.272,39.476,2.272,71.284,0,29.252-.568,45.44-2.272,61.344A83.289,83.289,0,0,1,784.692,0a59.553,59.553,0,0,1,11.644,1.136c-.852-12.5-1.7-45.724-1.7-63.9,0-23.572.852-57.652,1.7-68.728a53.138,53.138,0,0,1-11.36,1.136A73.9,73.9,0,0,1,771.912-131.492ZM785.26-193.12a14.128,14.128,0,0,0-14.484,14.2,14.062,14.062,0,0,0,14.2,14.2,14.062,14.062,0,0,0,14.2-14.2C799.176-186.588,792.644-193.12,785.26-193.12ZM944.3-26.412c-11.644,13.064-26.412,19.88-43.736,19.88-28.4,0-47.144-21.016-47.144-52.824V-65.6c19.312-.568,33.228-.852,50.836-.852,23.856,0,37.2.284,46.292.852.284-3.408.284-6.816.284-8.8,0-37.488-20.732-59.072-56.8-59.072-21.016,0-36.068,5.68-47.428,18.176-11.928,12.78-17.892,30.388-17.892,51.972,0,41.748,25.844,68.16,66.74,68.16,19.028,0,30.672-3.976,48.28-16.472a30.44,30.44,0,0,1,1.7-11.644L946-25.844ZM928.4-77.248c-9.656,1.136-12.5,1.136-31.24,1.136-21.868,0-34.932-.284-43.452-.568,1.988-29.252,17.608-48,39.76-48,14.484,0,24.992,7.384,30.388,21.3C926.408-97.128,927.544-90.028,928.4-77.248Zm61.912-54.244c-7.668.852-12.212,1.136-13.916,1.136a76.978,76.978,0,0,1-11.928-1.136c26.128,64.468,36.92,94,48.564,132.628a21.016,21.016,0,0,1,13.632,0c13.916-42.032,31.524-90.6,36.92-102.808,12.212,30.1,28.684,77.532,35.5,102.808A18.26,18.26,0,0,1,1105.328,0a19.76,19.76,0,0,1,6.532,1.136c9.372-29.252,34.932-89.176,55.948-132.628a69.055,69.055,0,0,1-8.8,1.136c-1.988,0-3.408-.284-8.236-1.136-1.7,5.112-2.556,7.1-8.52,23-2.84,7.952-5.964,16.188-8.8,23.856-8.52,22.72-12.78,33.512-21.584,54.812-14.484-35.216-30.672-83.5-34.648-101.672a36.82,36.82,0,0,1-8.236,1.136,41.048,41.048,0,0,1-8.52-1.136c-7.1,26.7-25.844,80.088-35.216,101.672-14.484-36.352-23.288-61.344-33.8-98.264Z" transform="translate(4.828 -15.336) rotate(90)" fill="#ddb763" opacity="0.6"/>
</svg>
