<svg xmlns="http://www.w3.org/2000/svg" xmlns:xlink="http://www.w3.org/1999/xlink" width="1123.053" height="421.235" viewBox="0 0 1123.053 421.235">
  <defs>
    <clipPath id="clip-path">
      <rect id="長方形_28517" data-name="長方形 28517" width="1123.053" height="421.235" fill="#d1c2a9"/>
    </clipPath>
  </defs>
  <g id="ashirai_logo-mark" transform="translate(0 -0.001)" opacity="0.172">
    <g id="グループ_405058" data-name="グループ 405058" transform="translate(0 0.001)" clip-path="url(#clip-path)">
      <path id="パス_5260" data-name="パス 5260" d="M1106.569,91.566C1042.531,194.979,930.474,250.259,823.97,294.5c-90.132,37.444-239.488,37.557-308.6,20.412-29.491-7.486-52.721-18.658-70.46-32.228a383.612,383.612,0,0,0,45.718-49.71c78.864-104.347,55.956-201.434-9.739-226.836C415.2-19.43,325.918,36.945,324.083,137.3c-.579,37.122,4.25,77.85,18.657,115.068C237.074,279.348,81.761,266.776,0,253.624L80.184,421.236c60.126-8.4,196.362-22.795,309.772-96.169,31.149,30.731,75.612,53.8,138.072,63.378,309.611,47.3,474.791-91.919,595.026-292.1ZM425.177,213.653a138.669,138.669,0,0,1-23.149,16.066c-13.909-30.151-16.307-61.945-15.068-87.09,2.576-58.387,52.624-80.119,71.861-67.386,22.07,14.488,48.294,64.456-33.645,138.41" transform="translate(0 -0.006)" fill="#d1c2a9"/>
    </g>
  </g>
</svg>
