<svg xmlns="http://www.w3.org/2000/svg" width="28.75" height="29.239" viewBox="0 0 28.75 29.239">
  <g id="インスタグラムのシンプルなロゴのアイコン_1" data-name="インスタグラムのシンプルなロゴのアイコン 1" transform="translate(-4.281)">
    <path id="パス_23919" data-name="パス 23919" d="M24.768,0H12.544A8.263,8.263,0,0,0,4.281,8.263V20.976a8.263,8.263,0,0,0,8.263,8.263H24.768a8.263,8.263,0,0,0,8.263-8.263V8.263A8.263,8.263,0,0,0,24.768,0ZM7.215,8.263a5.335,5.335,0,0,1,5.33-5.33H24.768a5.335,5.335,0,0,1,5.33,5.33V20.976a5.335,5.335,0,0,1-5.33,5.33H12.544a5.335,5.335,0,0,1-5.33-5.33Z" transform="translate(0)" fill="#d87159"/>
    <path id="パス_23920" data-name="パス 23920" d="M131.679,139.2a7.53,7.53,0,1,0-7.53-7.53A7.538,7.538,0,0,0,131.679,139.2Zm0-12.713a5.183,5.183,0,1,1-5.183,5.183A5.189,5.189,0,0,1,131.679,126.492Z" transform="translate(-113.023 -117.055)" fill="#d87159"/>
    <ellipse id="楕円形_117" data-name="楕円形 117" cx="1.687" cy="1.687" rx="1.687" ry="1.687" transform="translate(24.719 5.183)" fill="#d87159"/>
  </g>
</svg>
