<svg xmlns="http://www.w3.org/2000/svg" xmlns:xlink="http://www.w3.org/1999/xlink" width="132.985" height="91.114" viewBox="0 0 132.985 91.114">
  <defs>
    <clipPath id="clip-path">
      <rect id="長方形_28553" data-name="長方形 28553" width="132.985" height="91.114" fill="none"/>
    </clipPath>
  </defs>
  <g id="logo_pigsty-az" transform="translate(0 0)">
    <g id="グループ_405089" data-name="グループ 405089" transform="translate(0 0)" clip-path="url(#clip-path)">
      <path id="パス_5277" data-name="パス 5277" d="M21.276,42.253l-4.068-5.511,1.208-.891a29.431,29.431,0,0,0,3.919-3.3,8.054,8.054,0,0,0,1.738-2.9,7.324,7.324,0,0,0,.094-3.816,10.788,10.788,0,0,0-1.955-4.223,10.514,10.514,0,0,0-4.418-3.6,6.529,6.529,0,0,0-4.686-.329,22.147,22.147,0,0,0-5.4,3.165L0,26.534l2.5,3.381,2.632-1.943L17.644,44.934l-2.633,1.942,2.5,3.381,8.972-6.62-2.5-3.381Zm-6.488-8.792L8.759,25.293l1.719-1.269a14.636,14.636,0,0,1,3.247-1.973,3.237,3.237,0,0,1,2.33.161,5.882,5.882,0,0,1,2.43,2.044c1.157,1.568,1.6,2.941,1.31,4.082-.293,1.163-1.45,2.5-3.44,3.966Z" transform="translate(0 -7.439)" fill="#fff"/>
      <path id="パス_5278" data-name="パス 5278" d="M53.057,20.2l2.608-1.03,4.592,11.625-2.608,1.031,1.506,3.812,9.067-3.581-1.506-3.812-2.608,1.03-6.1-15.437-6.458,2.551Z" transform="translate(-22.064 -5.921)" fill="#fff"/>
      <path id="パス_5279" data-name="パス 5279" d="M52.275,5.026a2.367,2.367,0,0,0,1.08.273,2.306,2.306,0,0,0,2.157-1.536,2.714,2.714,0,0,0-.033-2.02A2.676,2.676,0,0,0,54.125.253a2.3,2.3,0,0,0-1.9-.089,2.231,2.231,0,0,0-1.344,1.4,2.761,2.761,0,0,0,.049,1.973,2.745,2.745,0,0,0,1.341,1.488" transform="translate(-21.71 0)" fill="#fff"/>
      <path id="パス_5280" data-name="パス 5280" d="M86.315,23.155a8.127,8.127,0,0,0,6.885,2.3,7.908,7.908,0,0,0,3.917-1.576A10.084,10.084,0,0,0,99.1,21.95l.12,1.007a14.679,14.679,0,0,1,.15,2.774,4.894,4.894,0,0,1-.584,1.755,4.778,4.778,0,0,1-1.653,1.7,6.006,6.006,0,0,1-2.618.94,7.425,7.425,0,0,1-5.129-1.367l-.252-.17-2.276,3.62.238.159a11.077,11.077,0,0,0,6.236,1.945,11.581,11.581,0,0,0,1.371-.082,11.258,11.258,0,0,0,4.772-1.644,8.508,8.508,0,0,0,3-3.038A8.114,8.114,0,0,0,103.5,26.3a26.589,26.589,0,0,0-.256-4.555L101.5,7.164l3.23-.385-.485-4.069-7.341.876.286,2.4A8.431,8.431,0,0,0,90.811,4a8.586,8.586,0,0,0-6.066,3.779,11.287,11.287,0,0,0-1.822,8.189,11.554,11.554,0,0,0,3.391,7.189m2.01-12.766A5.063,5.063,0,0,1,95.977,9.5a6.733,6.733,0,0,1,2.231,4.542A6.907,6.907,0,0,1,97.107,19a5.14,5.14,0,0,1-3.724,2.3,4.753,4.753,0,0,1-4.048-1.356,7.314,7.314,0,0,1-2.088-4.584,6.8,6.8,0,0,1,1.078-4.978" transform="translate(-35.443 -1.16)" fill="#fff"/>
      <path id="パス_5281" data-name="パス 5281" d="M132.985,24.441a7.954,7.954,0,0,0,4.214,1.822,10.276,10.276,0,0,0,1.514.117,7.209,7.209,0,0,0,3.894-1.054,5.863,5.863,0,0,0,2.7-4.33,6.454,6.454,0,0,0-.411-3.569,5.456,5.456,0,0,0-2.02-2.472,17.514,17.514,0,0,0-3.848-1.675A15.125,15.125,0,0,1,135.7,11.9a1.319,1.319,0,0,1-.473-1.392,1.836,1.836,0,0,1,1.011-1.428,3.488,3.488,0,0,1,2.2-.3,4.257,4.257,0,0,1,3.52,2.806l-.212,1.424,3.706.551,1.069-7.176-3.707-.552-.095.636a8.622,8.622,0,0,0-3.933-1.551,6.593,6.593,0,0,0-5,1.055,5.939,5.939,0,0,0-2.457,4.1,5.745,5.745,0,0,0,1.038,4.474,10.6,10.6,0,0,0,5.086,3.133,10.545,10.545,0,0,1,3.094,1.424,1.564,1.564,0,0,1,.5,1.525,1.8,1.8,0,0,1-1.121,1.453,4.762,4.762,0,0,1-2.651.23,4.322,4.322,0,0,1-2.519-1.239,3.006,3.006,0,0,1-.936-2.255l.141-.948-3.724-.554-1.1,7.4,3.724.554Z" transform="translate(-55.268 -2.065)" fill="#fff"/>
      <path id="パス_5282" data-name="パス 5282" d="M169.7,30.757a7.684,7.684,0,0,0,2.837.521h.208l1.558-3.945-.448.015a4.542,4.542,0,0,1-1.843-.307c-.689-.273-.7-.576-.7-.676a9.481,9.481,0,0,1,.827-2.666l3.477-8.808,3.113,1.229,1.5-3.812-3.113-1.228,2.62-6.636-5.4,2.4L173.272,9.56l-2.191-.865-1.506,3.811,2.191.865-3.554,9a22.4,22.4,0,0,0-1.3,4.021,3.722,3.722,0,0,0,.483,2.526,4.414,4.414,0,0,0,2.3,1.838" transform="translate(-71.415 -1.902)" fill="#fff"/>
      <path id="パス_5283" data-name="パス 5283" d="M200.766,30.665l-2.445,3.29,1.825,1.357-8.683,5.939L194.6,31.185l1.642,1.223,2.445-3.29-7.658-5.694-2.444,3.288,2.486,1.849-4.833,16.283-5.011,3.285-2.907-2.16-2.408,3.238,5.218,3.881L203.6,37.879l2.229,1.657,2.445-3.288Z" transform="translate(-75.288 -10.025)" fill="#fff"/>
      <path id="パス_5284" data-name="パス 5284" d="M90.133,88.963a1.637,1.637,0,0,0-.578,1.3,1.678,1.678,0,0,0,.507,1.242,1.873,1.873,0,0,0,1.378.5,4.1,4.1,0,0,0,2.844-1.265V89.509a4.389,4.389,0,0,0-2.713-1.046,2.116,2.116,0,0,0-1.439.5" transform="translate(-38.328 -37.861)" fill="#fff"/>
      <path id="パス_5285" data-name="パス 5285" d="M112.043,69.06H82.075A10.687,10.687,0,0,0,71.42,79.715h0A10.687,10.687,0,0,0,82.075,90.371h29.968A10.686,10.686,0,0,0,122.7,79.716h0A10.687,10.687,0,0,0,112.043,69.06M90.348,85.127H86.731V83.842a4.712,4.712,0,0,1-3.357,1.46,3.656,3.656,0,0,1-2.5-.938,3.051,3.051,0,0,1-1.063-2.4,3.084,3.084,0,0,1,1.128-2.442,4.031,4.031,0,0,1,2.719-.97,5.209,5.209,0,0,1,2.866.894V78.4a3.907,3.907,0,0,0-.153-1.242,1.586,1.586,0,0,0-.714-.785,2.746,2.746,0,0,0-1.465-.349,2.39,2.39,0,0,0-2.255,1.243l-1.983-.524a4.73,4.73,0,0,1,4.554-2.463,5.917,5.917,0,0,1,2.055.321,3.008,3.008,0,0,1,1.291.828,2.722,2.722,0,0,1,.573,1.1,8.539,8.539,0,0,1,.147,1.874v4.882h1.776Zm13.129-3.155h-8.21L98.4,85.148l-2.243,0-4.744-4.788h12.064ZM91.414,78.91V77.295h8.21L96.49,74.119l2.243,0,4.744,4.788Zm23.163-2.489-6.638,6.985h4.828V81.248h1.809v3.879H105.5V83.406l6.612-7.116h-4.335v2.027h-1.765V74.578h8.566Z" transform="translate(-30.567 -29.557)" fill="#fff"/>
      <path id="パス_5286" data-name="パス 5286" d="M85.684,121.686H75.2v5.957h3.569v-2.389h1.641v14.371h-1.7v3.569h6.975v-3.569h-1.7V125.254h1.7v2.389h3.569v-5.957H85.684Z" transform="translate(-32.186 -52.08)" fill="#fff"/>
      <path id="パス_5287" data-name="パス 5287" d="M168.491,121.686h-5.042v3.569h1.474v14.371h-1.474v3.569h10.719v-5.982H170.6v2.413h-2.108v-6.582h3.345v-3.569h-3.345v-4.22H170.6v2.389h3.569v-5.957h-5.677Z" transform="translate(-69.954 -52.08)" fill="#fff"/>
      <path id="パス_5288" data-name="パス 5288" d="M114.785,121.686h-5.268a2.391,2.391,0,0,0-2.392,2.389V140.72a2.392,2.392,0,0,0,2.392,2.389h5.268a2.392,2.392,0,0,0,2.392-2.389V124.075a2.391,2.391,0,0,0-2.392-2.389m-1.177,6.813V139.54h-2.914V125.255h2.914Z" transform="translate(-45.848 -52.08)" fill="#fff"/>
      <path id="パス_5289" data-name="パス 5289" d="M143.677,133.493a2.376,2.376,0,0,0-.812-1.783,2.376,2.376,0,0,0,.812-1.783v-5.851a2.392,2.392,0,0,0-2.392-2.392h-8.993v3.569h1.769v14.371h-1.769v3.569h6.368v-3.569h-1.03V133.5h2.478v9.7h5.614v-3.569h-2.045Zm-3.569-3.566H137.63v-4.673h2.478Z" transform="translate(-56.62 -52.08)" fill="#fff"/>
      <path id="パス_5290" data-name="パス 5290" d="M60.109,132.887a2.39,2.39,0,0,0-1.443-2.194h0l-4.8-2.253v-3.185H56.54v2.389h3.569v-5.958H52.69a2.391,2.391,0,0,0-2.391,2.389v5.088a2.38,2.38,0,0,0,1.27,2.1l-.008.009.18.085.027.013,4.772,2.241v5.236h0v.78H53.87v-3.577H50.3V140.8h0a2.391,2.391,0,0,0,2.391,2.392h5.029a2.391,2.391,0,0,0,2.391-2.389v-5.089c0-.006,0-.011,0-.017Z" transform="translate(-21.527 -52.08)" fill="#fff"/>
    </g>
  </g>
</svg>
