<svg xmlns="http://www.w3.org/2000/svg" xmlns:xlink="http://www.w3.org/1999/xlink" width="144.683" height="72.51" viewBox="0 0 144.683 72.51">
  <defs>
    <clipPath id="clip-path">
      <rect id="長方形_28548" data-name="長方形 28548" width="144.683" height="72.51" fill="none"/>
    </clipPath>
  </defs>
  <g id="logo_pigsty" transform="translate(0 0)">
    <g id="グループ_405087" data-name="グループ 405087" transform="translate(0 0)" clip-path="url(#clip-path)">
      <path id="パス_5262" data-name="パス 5262" d="M226.33,119.035c-1.577,2.561-8.5,8.049-13.943,10.388-2.214.95-6.022,1.618-7.728,1.189a4.687,4.687,0,0,1-1.739-.792,9.518,9.518,0,0,0,1.127-1.229c1.939-2.572,1.375-4.971-.245-5.6s-3.824.761-3.867,3.236a7.559,7.559,0,0,0,.458,2.847,24.413,24.413,0,0,1-8.464.029l1.978,4.138a18.416,18.416,0,0,0,7.65-2.371,6.007,6.007,0,0,0,3.415,1.561c7.642,1.17,19.065-7.823,22.035-12.769Zm-24.844,7.329c.064-1.441,1.3-1.978,1.778-1.665.539.36,1.192,1.6-.835,3.419a3.242,3.242,0,0,1-.571.393,4.635,4.635,0,0,1-.372-2.148" transform="translate(-123.311 -76.478)" fill="#f7f7f7"/>
      <path id="パス_5263" data-name="パス 5263" d="M35.868,18.976c3.956-1.485,9.607-6.145,8.618-11.694S34.475-1.439,25.655.643,9.6,9.124,13.661,13.924c3.273,3.865,7.633.6,8.82-1.388-6.242.2-2.806-6.768,1.785-8.624C29.421,1.83,33.683,2.128,36.457,5.2s1.092,8.526-3.074,11.2a12.241,12.241,0,0,1-6.5,1.5c2.1-4.348,4.476-8.254,7.888-9.63l-1.192-1.19c-4.43,2.469-7.689,6.382-10.652,10.526-1.106-.154-2.22-.36-3.32-.615l-.3,1.583c.771.208,1.627.407,2.521.6-.119.162-.226.331-.343.494-3.067,4.459-6.094,8.608-11.036,7.71-4.023-.73-2.378-7.675,2.644-6.158-2.11-3.172-5.711-3.443-9.408-1.336s-5.851,8.876-.364,12.8a12.6,12.6,0,0,0,16.083-1.556c2.409-2.6,4.55-6.844,6.585-11.3a22.432,22.432,0,0,0,9.874-.855" transform="translate(0 0)" fill="#f7f7f7"/>
      <path id="パス_5264" data-name="パス 5264" d="M141.257,14.281a2.777,2.777,0,1,0-2.775-2.776,2.775,2.775,0,0,0,2.775,2.776" transform="translate(-88.972 -5.606)" fill="#f7f7f7"/>
      <path id="パス_5265" data-name="パス 5265" d="M196.686,34.734c-1.326.662-13.221,6.248-15.808,7.623,2.931-6.2,8.573-17.861,9.687-19.967h-1.415c-1.462,4.021-6.809,11.194-9,13.66-3.769,4.241-7.06,4-6.268,2.41s3.372-5.948,4.165-9.317-2.58-4.56-4.562-4.163a14.935,14.935,0,0,0-8.075,5.485c-2.416,3.16-6.624,7.4-8.281,6.805-1.174-.425-.458-2.179.335-4.36l6.5-13.086h14.842l.261-.594c-1.585-.529-6.472-2.512-7.4-4.1a8.568,8.568,0,0,1-5.551,2.774h-1.2l4.1-8.257c-2.111,1.188-5.612,1.651-8.589,1.651a4.875,4.875,0,0,1-.53,3.372s-.627,1.306-1.542,3.234h-5.518l-.935,1.916h5.535c-1.1,2.321-2.658,5.734-3.8,8.184-1.735,2.48-5.576,6.669-7.86,7.95,2.469-5.619-1.415-11.926-6.063-14.083,3.277-4.283-.493-6.153-2.342-4.833-1.164.831-2.443,3.777-.73,5.757a58.219,58.219,0,0,1-7.772,10.777c-2.562,2.971-4.875,5.555-7.672,7.134.74-3.549,1.453-7.543,1.859-10.24a9.505,9.505,0,0,0,.269-1.789h-1.988l-.771,2.664c-1.936,5.09-5.4,5.573-7.594,4.751-2.872-1.077-1.246-6.182.137-8.363,2.72-4.274,6.114-4.54,7.677-2.741,1.879,2.181,2.539.22,1.279-1.231-2.51-2.909-8.357-3.4-12.52,1.947a17.561,17.561,0,0,0-3.52,10.615c-6.715,4.387-9.046,1.279-7.224-2.422,1.334-2.708,5.95-11.7,8.131-16.85h-5.02C97.759,27.36,94.34,34.224,82.917,39.159l.639,1.186c1.524-.607,8.826-4.844,10.51-7.128-1.645,3.657-.158,7.467,2.923,7.86,2.584.325,6.184-1.353,9.457-3.513a6.289,6.289,0,0,0,1.885,2.453c3.341,2.638,8.39.1,11.094-2.278a13.774,13.774,0,0,1-1.053,4.891c-5.9,2.983-15.4,6.624-15.53,12.486-.138,6.156,6.957,8.148,12.424,3.322,3.105-2.741,5.07-11.587,5.666-15.353,7.859-5.666,14.249-15.4,16.63-19.373,5.257,4.661,3.656,10.693.549,10.693-1.645,0-2.615-1.894-.9-3.676-2.381-.134-4.49,2.3-4.49,4.681A5.707,5.707,0,0,0,138.3,40.8c4.63.181,9.186-3.993,13.388-8.516-.117.272-.218.514-.3.722-.985,2.479-2.078,6.741,1.585,8.228s8.279-2.9,11.4-6.443c2.181-2.478,4.134-4.844,5.559-5.75,1.084-.693,2.591-.191,1.384,1.984-1.984,3.569-3.666,7.332-3.97,9.118s.5,3.565,2.775,3.666,6.445-1.262,10.312-6.209c-.677,1.817-2.237,3.826-2.9,5.481-1.85.985-3.542,1.871-4.726,2.447-3.67,1.784-8.232,5.549-9.517,9.215s-.121,4.986,1.589,5.946c2.284,1.289,5.672-.5,7.928-3.17,1.577-1.871,4.8-8.076,7.447-13.522,3.016-1.554,13.764-6.488,16.721-8.263,1.371-.824,1.371-1.827-.274-1m-82.8,19.39c-1.456,2.247-4.168,4.032-6.01,2.578-2.214-1.741.446-5.617,2.245-7.138a55.357,55.357,0,0,1,7.619-4.558,42.057,42.057,0,0,1-3.853,9.118m55.666,2.487c-2.374,1.848-4.576-.2-2.1-3.563,1.447-1.984,5.849-5.3,9.6-7.494-2.56,4.2-5.364,9.4-7.492,11.057" transform="translate(-53.273 -6.201)" fill="#f7f7f7"/>
      <path id="パス_5266" data-name="パス 5266" d="M41.086,171.243h1.92v5.109c0,1.18.092,2.543,2.578,2.543s2.58-1.363,2.58-2.543v-5.109h1.92v5.613c0,2.247-1.8,3.365-4.5,3.365s-4.5-1.118-4.5-3.365Z" transform="translate(-26.397 -110.02)" fill="#f7f7f7"/>
      <path id="パス_5267" data-name="パス 5267" d="M72.294,182.014c.092.81.861,1.105,1.8,1.105.662,0,1.813-.11,1.766-.836s-1.32-.823-2.593-1.056c-1.291-.221-2.549-.589-2.549-1.879,0-1.387,1.873-1.817,3.316-1.817,1.628,0,3.1.54,3.316,1.953H75.519c-.154-.663-.845-.848-1.612-.848-.506,0-1.443.1-1.443.651,0,.688,1.289.785,2.578,1.019s2.564.6,2.564,1.854c0,1.511-1.9,2.064-3.546,2.064-2,0-3.485-.713-3.517-2.211Z" transform="translate(-45.323 -114.06)" fill="#f7f7f7"/>
      <path id="パス_5268" data-name="パス 5268" d="M94.71,181.24a1.882,1.882,0,0,0,2.134,1.879,1.863,1.863,0,0,0,1.933-1.056h1.659c-.383,1.388-1.857,2.162-3.592,2.162-2.488,0-3.884-1.388-3.884-3.341,0-1.8,1.474-3.353,3.838-3.353,2.5,0,4.038,1.806,3.746,3.709Zm4.083-.921a1.878,1.878,0,0,0-2-1.683,1.9,1.9,0,0,0-2.087,1.683Z" transform="translate(-59.725 -114.06)" fill="#f7f7f7"/>
      <path id="パス_5269" data-name="パス 5269" d="M124.7,180.013h-1.659v-.859h-.029a2.858,2.858,0,0,1-2.457,1.032c-2.5,0-3.715-1.487-3.715-3.39a3.183,3.183,0,0,1,3.439-3.3,3.391,3.391,0,0,1,2.64,1h.031v-3.243h1.75Zm-3.916-.933a2.112,2.112,0,0,0,2.227-2.248,2.047,2.047,0,0,0-2.2-2.235,2.1,2.1,0,0,0-2.226,2.309,2.063,2.063,0,0,0,2.194,2.174" transform="translate(-75.064 -110.021)" fill="#f7f7f7"/>
      <path id="パス_5270" data-name="パス 5270" d="M187,173.657a2.542,2.542,0,0,0-2.732-1.744,3.341,3.341,0,0,0,0,6.681,2.572,2.572,0,0,0,2.794-2.3h1.873c-.154,2.1-2.011,3.549-4.667,3.549-3.287,0-5.251-2.087-5.251-4.593s1.965-4.593,5.251-4.593c2.471.012,4.42,1.105,4.652,3Z" transform="translate(-115.012 -109.646)" fill="#f7f7f7"/>
      <rect id="長方形_28547" data-name="長方形 28547" width="1.75" height="8.77" transform="translate(75.468 61.223)" fill="#f7f7f7"/>
      <path id="パス_5271" data-name="パス 5271" d="M220.276,180.87c0-1.94,1.458-3.34,4.007-3.34s4.007,1.4,4.007,3.34-1.458,3.354-4.007,3.354-4.007-1.4-4.007-3.354m6.264,0a2.256,2.256,0,1,0-2.257,2.248,2.135,2.135,0,0,0,2.257-2.248" transform="translate(-141.523 -114.06)" fill="#f7f7f7"/>
      <path id="パス_5272" data-name="パス 5272" d="M244.539,174.591h1.32v-1.9h1.75v1.9h1.581v1.044h-1.581v3.39c0,.577.06.872.845.872a3.7,3.7,0,0,0,.736-.049v1.08c-.384.025-.752.074-1.135.074-1.828,0-2.165-.565-2.2-1.621v-3.746h-1.32Z" transform="translate(-157.112 -110.948)" fill="#f7f7f7"/>
      <path id="パス_5273" data-name="パス 5273" d="M261.073,171.243h1.749V174.5h.031a3.006,3.006,0,0,1,2.379-1.008c1.719,0,2.809.737,2.809,2.162v4.36h-1.75v-3.992c-.029-.995-.522-1.425-1.55-1.425a1.738,1.738,0,0,0-1.92,1.671v3.746h-1.749Z" transform="translate(-167.735 -110.02)" fill="#f7f7f7"/>
      <path id="パス_5274" data-name="パス 5274" d="M285.847,171.243h1.75v1.327h-1.75Zm0,2.42h1.75v6.349h-1.75Z" transform="translate(-183.651 -110.02)" fill="#f7f7f7"/>
      <path id="パス_5275" data-name="パス 5275" d="M296.069,177.7h1.657v.933l.031.025a3.037,3.037,0,0,1,2.471-1.13c1.719,0,2.809.737,2.809,2.161v4.36h-1.75v-3.991c-.029-.995-.522-1.425-1.55-1.425a1.738,1.738,0,0,0-1.92,1.67v3.746h-1.749Z" transform="translate(-190.219 -114.06)" fill="#f7f7f7"/>
      <path id="パス_5276" data-name="パス 5276" d="M327.361,183.721c0,1.9-1.4,2.849-3.9,2.849-1.6,0-3.394-.491-3.548-1.977h1.75c.214.8,1.012.934,1.9.934,1.411,0,2.04-.577,2.04-1.621v-.97h-.029a2.892,2.892,0,0,1-2.379,1.118c-2.519,0-3.563-1.523-3.563-3.341a3.272,3.272,0,0,1,3.592-3.18,2.675,2.675,0,0,1,2.35,1.044h.029V177.7h1.75Zm-1.75-2.984a1.959,1.959,0,0,0-2.134-2.1,2.005,2.005,0,0,0-2.087,2.211,1.977,1.977,0,0,0,2.087,2.1,2.03,2.03,0,0,0,2.134-2.211" transform="translate(-205.362 -114.06)" fill="#f7f7f7"/>
    </g>
  </g>
</svg>
