<svg xmlns="http://www.w3.org/2000/svg" xmlns:xlink="http://www.w3.org/1999/xlink" width="179.442" height="98.084" viewBox="0 0 179.442 98.084">
  <defs>
    <clipPath id="clip-path">
      <rect id="長方形_28517" data-name="長方形 28517" width="179.442" height="67.305" fill="#fff"/>
    </clipPath>
  </defs>
  <g id="logo_pig" transform="translate(14492.221 1234.679)">
    <g id="グループ_405263" data-name="グループ 405263" transform="translate(-14492.221 -1234.68)">
      <g id="グループ_405058" data-name="グループ 405058" transform="translate(0 0.001)" clip-path="url(#clip-path)">
        <path id="パス_5260" data-name="パス 5260" d="M176.809,14.63c-10.232,16.523-28.137,25.356-45.154,32.424-14.4,5.983-38.266,6-49.308,3.261a30.805,30.805,0,0,1-11.258-5.149,61.294,61.294,0,0,0,7.3-7.943C90.994,20.551,87.334,5.039,76.837.98,66.34-3.1,52.075,5.9,51.782,21.938a49.4,49.4,0,0,0,2.981,18.386c-16.883,4.311-41.7,2.3-54.763.2L12.812,67.305c9.607-1.343,31.375-3.642,49.5-15.366,4.977,4.91,12.081,8.6,22.061,10.127,49.47,7.557,75.863-14.687,95.074-46.672ZM67.935,34.138a22.156,22.156,0,0,1-3.7,2.567,29.869,29.869,0,0,1-2.408-13.915c.412-9.329,8.408-12.8,11.482-10.767,3.526,2.315,7.716,10.3-5.376,22.115" transform="translate(0 -0.001)" fill="#fff"/>
      </g>
    </g>
    <path id="パス_23907" data-name="パス 23907" d="M6.325,5.06H.506V4.416q1.081,0,1.38-.357a2.133,2.133,0,0,0,.3-1.322V-8.648a1.973,1.973,0,0,0-.149-.92q-.15-.253-.725-.253-.23,0-.483.023l-.253.023v-.667l2.9-.644h.575v1.932h.069a7.049,7.049,0,0,1,1.69-1.483,3.578,3.578,0,0,1,1.874-.518,3.233,3.233,0,0,1,2.013.656,4.371,4.371,0,0,1,1.357,1.817A6.791,6.791,0,0,1,11.546-6a7.573,7.573,0,0,1-.678,3.347A5.189,5.189,0,0,1,9.039-.518,4.547,4.547,0,0,1,6.509.23,4.964,4.964,0,0,1,5.279.08,3.429,3.429,0,0,1,4.186-.414H4.094V2.6a2.729,2.729,0,0,0,.184,1.127.99.99,0,0,0,.667.529,5.3,5.3,0,0,0,1.38.138Zm.3-5.727a2.4,2.4,0,0,0,2.024-1.15,6.234,6.234,0,0,0,.805-3.542A5.7,5.7,0,0,0,8.74-8.568a2.3,2.3,0,0,0-2-1.023,2.789,2.789,0,0,0-1.622.483,4.287,4.287,0,0,0-1.023.92v6q.23.23.575.6A3.514,3.514,0,0,0,5.5-.943,2.232,2.232,0,0,0,6.624-.667ZM18.262,0H13.087V-.644A2.968,2.968,0,0,0,14.2-.794a.7.7,0,0,0,.414-.517,4.97,4.97,0,0,0,.08-1.012V-8.74q0-.736-.253-.908a1.355,1.355,0,0,0-.759-.173,3.085,3.085,0,0,0-.4.023l-.173.023v-.667l2.9-.644h.6v8.763A4.5,4.5,0,0,0,16.7-1.288a.7.7,0,0,0,.448.506,3.316,3.316,0,0,0,1.115.138ZM15.686-12.88a1.238,1.238,0,0,1-.943-.391,1.3,1.3,0,0,1-.368-.92,1.281,1.281,0,0,1,.356-.908,1.247,1.247,0,0,1,.955-.379,1.247,1.247,0,0,1,.954.379,1.281,1.281,0,0,1,.357.908,1.321,1.321,0,0,1-.357.92A1.229,1.229,0,0,1,15.686-12.88ZM23.3,5.405a6.145,6.145,0,0,1-2.358-.368,2.45,2.45,0,0,1-1.208-.954,2.352,2.352,0,0,1-.345-1.207,2.047,2.047,0,0,1,.472-1.208A13.723,13.723,0,0,1,21.252.138V-.115l.69.138a6.879,6.879,0,0,0-.6,1.207,2.69,2.69,0,0,0-.161.862,1.634,1.634,0,0,0,.851,1.5,5.219,5.219,0,0,0,2.6.506,5.861,5.861,0,0,0,2.2-.345A2.82,2.82,0,0,0,28.049,2.9a1.656,1.656,0,0,0,.38-.989,1.169,1.169,0,0,0-.4-.954A2.388,2.388,0,0,0,27,.483,7.843,7.843,0,0,0,25.691.31Q25,.276,24.426.276,23.391.253,22.862.253T22.1.241Q21.873.23,21.689.23l-.23-.115a2.522,2.522,0,0,1-.69-.368,2.289,2.289,0,0,1-.575-.61,1.358,1.358,0,0,1-.23-.748,1.819,1.819,0,0,1,.241-.863,4.065,4.065,0,0,1,.679-.9,9.645,9.645,0,0,1,.966-.862v-.207l.6.437a1.886,1.886,0,0,0-.276.414,4.262,4.262,0,0,0-.276.633,1.789,1.789,0,0,0-.115.563.657.657,0,0,0,.241.54,1.8,1.8,0,0,0,.828.287,11.262,11.262,0,0,0,1.645.092,22.29,22.29,0,0,1,2.61.138,3.337,3.337,0,0,1,1.829.713A2.369,2.369,0,0,1,29.6,1.265a3.27,3.27,0,0,1-.563,1.944,4.125,4.125,0,0,1-1.5,1.276,7.591,7.591,0,0,1-2.047.7A11.408,11.408,0,0,1,23.3,5.405Zm1.058-8.993A5.137,5.137,0,0,1,23.242-3.7a10.069,10.069,0,0,1-1-.276l-.253-.23a4.182,4.182,0,0,1-1.024-.759,3,3,0,0,1-.656-1.047,3.923,3.923,0,0,1-.23-1.391A3.654,3.654,0,0,1,20.608-9.4a3.521,3.521,0,0,1,1.472-1.3,4.871,4.871,0,0,1,2.162-.46,6.387,6.387,0,0,1,1.3.127,4.967,4.967,0,0,1,1.139.379,3.967,3.967,0,0,1,.92.6v.6a6.505,6.505,0,0,1,.54.92,3.23,3.23,0,0,1,.288,1.449,3.313,3.313,0,0,1-.518,1.852,3.363,3.363,0,0,1-1.426,1.219A4.97,4.97,0,0,1,24.357-3.588Zm.023-.805a1.889,1.889,0,0,0,1.438-.6,3.3,3.3,0,0,0,.563-2.231,3.845,3.845,0,0,0-.6-2.254,1.956,1.956,0,0,0-1.7-.851,1.735,1.735,0,0,0-1.437.69A3.456,3.456,0,0,0,22.1-7.5a3.929,3.929,0,0,0,.575,2.288A1.947,1.947,0,0,0,24.38-4.393Zm5.382-6.348V-9.5l-2.484-.069-.805-.989ZM44.827-3.4l.437.322a10.016,10.016,0,0,1-1,1.679,4.093,4.093,0,0,1-1.391,1.2A4.4,4.4,0,0,1,40.8.23a4.333,4.333,0,0,1-2.461-.69,4.418,4.418,0,0,1-1.587-1.921A6.818,6.818,0,0,1,36.2-5.2a7.526,7.526,0,0,1,.61-3.151,4.691,4.691,0,0,1,1.771-2.07,5.158,5.158,0,0,1,2.818-.736,4.127,4.127,0,0,1,2.564.713A2.115,2.115,0,0,1,44.9-8.717a1.105,1.105,0,0,1-.241.771.933.933,0,0,1-.725.265,1.044,1.044,0,0,1-.771-.265,1.979,1.979,0,0,1-.425-.656q-.161-.391-.333-.782a1.8,1.8,0,0,0-.483-.656,1.366,1.366,0,0,0-.908-.264,2.624,2.624,0,0,0-2.2,1.024,4.832,4.832,0,0,0-.793,3,6.266,6.266,0,0,0,.862,3.439,2.912,2.912,0,0,0,2.633,1.345,3.281,3.281,0,0,0,1.829-.46A6.644,6.644,0,0,0,44.827-3.4ZM51.635.23a4.853,4.853,0,0,1-3.783-1.506,6.159,6.159,0,0,1-1.368-4.289A6.335,6.335,0,0,1,47.127-8.5a4.786,4.786,0,0,1,1.806-1.955,5.125,5.125,0,0,1,2.7-.7,4.854,4.854,0,0,1,3.738,1.472,5.679,5.679,0,0,1,1.368,4.025,7.209,7.209,0,0,1-.656,3.243A4.583,4.583,0,0,1,54.28-.437,5.175,5.175,0,0,1,51.635.23Zm.092-.92a2.761,2.761,0,0,0,1.587-.437,2.711,2.711,0,0,0,.978-1.5,10.108,10.108,0,0,0,.333-2.921,6.712,6.712,0,0,0-.771-3.427,2.512,2.512,0,0,0-2.312-1.311,2.5,2.5,0,0,0-2.116,1.1,5.611,5.611,0,0,0-.805,3.312A7.386,7.386,0,0,0,49.438-1.9,2.543,2.543,0,0,0,51.727-.69Zm8.119.874a1.272,1.272,0,0,1-1.024-.391,1.437,1.437,0,0,1-.333-.966A1.512,1.512,0,0,1,58.857-2.2a1.268,1.268,0,0,1,1.012-.425,1.279,1.279,0,0,1,1.035.437,1.556,1.556,0,0,1,.368,1.035,1.339,1.339,0,0,1-.368.931A1.361,1.361,0,0,1,59.846.184Zm4.462,2.852-.276-.575a5.421,5.421,0,0,0,.874-.472,2.27,2.27,0,0,0,.736-.839,3.1,3.1,0,0,0,.3-1.472,2.025,2.025,0,0,1-.713.138,1.174,1.174,0,0,1-.966-.368,1.343,1.343,0,0,1-.3-.874,1.367,1.367,0,0,1,.368-.955,1.361,1.361,0,0,1,1.058-.4,1.806,1.806,0,0,1,.966.241,1.552,1.552,0,0,1,.6.69A2.6,2.6,0,0,1,67.16-.759,3.855,3.855,0,0,1,66.85.874a3.308,3.308,0,0,1-.771,1.081,4.623,4.623,0,0,1-.943.667Q64.653,2.875,64.308,3.036ZM74.313,0h-5.29V-.667a2.98,2.98,0,0,0,1.1-.15.693.693,0,0,0,.425-.506,4.8,4.8,0,0,0,.081-1V-13.869q0-.713-.265-.851a1.521,1.521,0,0,0-.7-.138,5.027,5.027,0,0,0-.518.023l-.218.023v-.621l3.036-.8h.575V-2.323a3.877,3.877,0,0,0,.1,1.024.725.725,0,0,0,.471.494,3.715,3.715,0,0,0,1.2.138Zm7.268-2.07.437.368A11.708,11.708,0,0,1,81.2-.655a2.809,2.809,0,0,1-.84.655,2.68,2.68,0,0,1-1.2.23,2,2,0,0,1-1.679-.678,3.647,3.647,0,0,1-.529-2.219V-9.8H75.693v-.529A4.723,4.723,0,0,0,77.085-11.7a13.726,13.726,0,0,0,1.207-2.335h.575v3.266h2.6V-9.8h-2.6v6.486a4.586,4.586,0,0,0,.218,1.7.872.872,0,0,0,.885.483,1.423,1.423,0,0,0,.863-.23A5.491,5.491,0,0,0,81.581-2.07ZM86.664.184a3.429,3.429,0,0,1-2.174-.69,4.116,4.116,0,0,1-1.323-1.875,7.632,7.632,0,0,1-.437-2.656,7.011,7.011,0,0,1,.713-3.278,5.223,5.223,0,0,1,1.921-2.1,5.007,5.007,0,0,1,2.657-.736,4.4,4.4,0,0,1,1.092.138,4.508,4.508,0,0,1,1.047.414h.092v-3.013a1.853,1.853,0,0,0-.173-.989q-.172-.23-.84-.23a3.691,3.691,0,0,0-.38.023l-.218.023v-.644l2.9-.8h.621V-2.461A1.8,1.8,0,0,0,92.414-1.3a1.217,1.217,0,0,0,.9.264h.483v.621L90.85.115h-.529V-1.472h-.092A10.528,10.528,0,0,1,88.7-.356,3.828,3.828,0,0,1,86.664.184Zm1.081-1.656A3.7,3.7,0,0,0,89.1-1.691a5.779,5.779,0,0,0,1.15-.633V-8.4a2.546,2.546,0,0,0-.667-1.276,2.108,2.108,0,0,0-1.61-.563,2.928,2.928,0,0,0-2.346,1.058,4.932,4.932,0,0,0-.9,3.243A5.865,5.865,0,0,0,85.5-2.518,2.612,2.612,0,0,0,87.745-1.472Z" transform="translate(-14467.389 -1142)" fill="#fff"/>
  </g>
</svg>
