<svg xmlns="http://www.w3.org/2000/svg" xmlns:xlink="http://www.w3.org/1999/xlink" width="185.754" height="93.243" viewBox="0 0 185.754 93.243">
  <defs>
    <clipPath id="clip-path">
      <rect id="長方形_28557" data-name="長方形 28557" width="185.754" height="93.243" fill="none"/>
    </clipPath>
  </defs>
  <g id="logo_nerver-chamges" transform="translate(0 0)">
    <g id="グループ_405094" data-name="グループ 405094" transform="translate(0 0)" clip-path="url(#clip-path)">
      <path id="パス_5316" data-name="パス 5316" d="M46.986,55.16a4.087,4.087,0,0,0,3.333-1.576.642.642,0,0,0,.119-.384.663.663,0,0,0-1.2-.387,2.7,2.7,0,0,1-2.252,1.052c-2.187,0-3.163-1.173-3.163-3.8,0-2.533,1.064-3.818,3.163-3.818a2.839,2.839,0,0,1,2.252,1.08.637.637,0,0,0,.539.273.654.654,0,0,0,.661-.661.714.714,0,0,0-.137-.419,4.053,4.053,0,0,0-3.314-1.568c-2.946,0-4.569,1.816-4.569,5.113,0,3.336,1.579,5.1,4.569,5.1" transform="translate(-20.426 -21.645)" fill="#fff"/>
      <path id="パス_5317" data-name="パス 5317" d="M70.368,46.621a.633.633,0,0,0,.647-.647.64.64,0,0,0-.647-.648H68.386a.641.641,0,0,0-.648.648.633.633,0,0,0,.648.647h.3v2.85H64.261v-2.85h.3a.633.633,0,0,0,.648-.647.641.641,0,0,0-.648-.648H62.581a.64.64,0,0,0-.647.648.633.633,0,0,0,.647.647h.3v7.231h-.3a.64.64,0,0,0-.647.648.633.633,0,0,0,.647.647h1.982a.633.633,0,0,0,.648-.647.641.641,0,0,0-.648-.648h-.3V50.765h4.427v3.087h-.3a.641.641,0,0,0-.648.648.633.633,0,0,0,.648.647h1.982a.633.633,0,0,0,.647-.647.64.64,0,0,0-.647-.648h-.3V46.621Z" transform="translate(-29.824 -21.827)" fill="#fff"/>
      <path id="パス_5318" data-name="パス 5318" d="M84.21,55.147h1.981a.633.633,0,0,0,.647-.647.641.641,0,0,0-.647-.648H86l.563-1.482h3.553l.553,1.482h-.18a.641.641,0,0,0-.647.648.633.633,0,0,0,.647.647H92.47a.633.633,0,0,0,.647-.647.641.641,0,0,0-.647-.648h-.313l-3.114-8.067a.66.66,0,0,0-.62-.459H86.832a.641.641,0,0,0-.647.648.633.633,0,0,0,.647.647h.482l-2.8,7.231h-.3a.641.641,0,0,0-.648.648.633.633,0,0,0,.648.647m2.808-4.071,1.323-3.491,1.322,3.491Z" transform="translate(-40.239 -21.827)" fill="#fff"/>
      <path id="パス_5319" data-name="パス 5319" d="M114.441,45.326H112.46a.641.641,0,0,0-.648.647.633.633,0,0,0,.648.648h.315v5.719l-4.462-6.694a.648.648,0,0,0-.569-.319H106.7a.641.641,0,0,0-.648.647.633.633,0,0,0,.648.648h.3v7.231h-.3a.641.641,0,0,0-.648.648.633.633,0,0,0,.648.647h1.982a.633.633,0,0,0,.648-.647.641.641,0,0,0-.648-.648h-.33v-5.7l4.513,6.808a.626.626,0,0,0,.575.3.682.682,0,0,0,.689-.69V46.621h.316a.633.633,0,0,0,.647-.648.64.64,0,0,0-.647-.647" transform="translate(-51.067 -21.827)" fill="#fff"/>
      <path id="パス_5320" data-name="パス 5320" d="M132.151,55.16a4.318,4.318,0,0,0,3.5-1.614.9.9,0,0,0,.23-.6V50.508a.657.657,0,0,0-.648-.648h-2.819a.648.648,0,1,0,0,1.3h2.116v1.731a3.006,3.006,0,0,1-2.381.979c-2.187,0-3.163-1.173-3.163-3.8,0-2.533,1.064-3.818,3.163-3.818a2.8,2.8,0,0,1,2.252,1.08.637.637,0,0,0,.539.273.654.654,0,0,0,.661-.661.714.714,0,0,0-.137-.419,4.053,4.053,0,0,0-3.314-1.568c-2.946,0-4.569,1.816-4.569,5.113,0,3.336,1.579,5.1,4.569,5.1" transform="translate(-61.437 -21.645)" fill="#fff"/>
      <path id="パス_5321" data-name="パス 5321" d="M154.887,54.582l0-1.143a.633.633,0,0,0-.647-.648.641.641,0,0,0-.647.648v.413h-3.3v-3h2.855a.647.647,0,1,0,0-1.295H150.3V46.621h3.143v.414a.641.641,0,0,0,.648.647.633.633,0,0,0,.647-.647V45.974a.633.633,0,0,0-.647-.648h-5.457a.641.641,0,0,0-.647.648.633.633,0,0,0,.647.647h.288v7.231h-.288a.641.641,0,0,0-.647.648.633.633,0,0,0,.647.647h5.61a.641.641,0,0,0,.645-.565" transform="translate(-71.261 -21.827)" fill="#fff"/>
      <path id="パス_5322" data-name="パス 5322" d="M175.646,53.852A.64.64,0,0,0,175,54.5a.633.633,0,0,0,.647.648h2.316a.633.633,0,0,0,.648-.648.641.641,0,0,0-.648-.647h-.636V50.96h2.856a.647.647,0,0,0,0-1.295h-2.856V46.621h3.143v.413a.641.641,0,0,0,.648.648.633.633,0,0,0,.647-.648V45.973a.632.632,0,0,0-.647-.647h-5.471a.64.64,0,0,0-.647.647.633.633,0,0,0,.647.648h.3v7.231Z" transform="translate(-84.27 -21.827)" fill="#fff"/>
      <path id="パス_5323" data-name="パス 5323" d="M196.541,55.161c2.946,0,4.568-1.811,4.568-5.1s-1.622-5.112-4.568-5.112-4.57,1.816-4.57,5.112,1.622,5.1,4.57,5.1m0-1.3c-2.1,0-3.163-1.28-3.163-3.8s1.064-3.817,3.163-3.817,3.162,1.284,3.162,3.817-1.063,3.8-3.162,3.8" transform="translate(-92.443 -21.645)" fill="#fff"/>
      <path id="パス_5324" data-name="パス 5324" d="M214.558,53.852a.641.641,0,0,0-.647.648.633.633,0,0,0,.647.647h1.982a.633.633,0,0,0,.648-.647.641.641,0,0,0-.648-.648h-.3V51.086h1.079l2.445,3.736a.667.667,0,0,0,.6.325h.907a.633.633,0,0,0,.646-.647.641.641,0,0,0-.646-.648h-.527l-1.874-2.8a2.786,2.786,0,0,0,2.336-2.841,2.817,2.817,0,0,0-2.88-2.88h-3.768a.641.641,0,0,0-.647.648.633.633,0,0,0,.647.647h.3v7.231Zm3.8-4.061h-2.115V46.621h2.073a1.589,1.589,0,0,1,.042,3.171" transform="translate(-103.008 -21.827)" fill="#fff"/>
      <path id="パス_5325" data-name="パス 5325" d="M232.422,46.621h.327l2.326,8.13a.691.691,0,0,0,1.335-.011l1.8-6.373,1.8,6.367a.667.667,0,0,0,.668.525.691.691,0,0,0,.668-.5l2.313-8.133h.423a.633.633,0,0,0,.648-.647.641.641,0,0,0-.648-.648h-1.953a.641.641,0,0,0-.648.648.633.633,0,0,0,.648.647h.149L240.7,52.308l-1.818-6.482a.691.691,0,0,0-.666-.5.673.673,0,0,0-.667.507l-1.776,6.417-1.585-5.629h.218a.633.633,0,0,0,.648-.647.641.641,0,0,0-.648-.648h-1.981a.641.641,0,0,0-.648.648.633.633,0,0,0,.648.647" transform="translate(-111.61 -21.827)" fill="#fff"/>
      <path id="パス_5326" data-name="パス 5326" d="M267.362,54.5a.641.641,0,0,0-.648-.648H266.4l-3.115-8.067a.659.659,0,0,0-.619-.459h-1.59a.641.641,0,0,0-.648.648.633.633,0,0,0,.648.647h.481l-2.806,7.231h-.3a.641.641,0,0,0-.648.648.633.633,0,0,0,.648.647h1.98a.633.633,0,0,0,.648-.647.641.641,0,0,0-.648-.648h-.191l.563-1.482h3.554l.551,1.482h-.179a.641.641,0,0,0-.648.648.633.633,0,0,0,.648.647h1.981a.633.633,0,0,0,.648-.647m-3.457-3.424h-2.643l1.322-3.491Z" transform="translate(-124.145 -21.827)" fill="#fff"/>
      <path id="パス_5327" data-name="パス 5327" d="M280.941,53.852a.641.641,0,0,0-.647.648.633.633,0,0,0,.647.647h1.982a.633.633,0,0,0,.648-.647.641.641,0,0,0-.648-.648h-.3V51.086H283.7l2.445,3.736a.667.667,0,0,0,.6.325h.907a.633.633,0,0,0,.646-.647.641.641,0,0,0-.646-.648h-.527l-1.874-2.8a2.786,2.786,0,0,0,2.336-2.841,2.817,2.817,0,0,0-2.88-2.88h-3.768a.641.641,0,0,0-.647.648.633.633,0,0,0,.647.647h.3v7.231Zm3.8-4.061h-2.115V46.621h2.073a1.589,1.589,0,0,1,.042,3.171" transform="translate(-134.974 -21.827)" fill="#fff"/>
      <path id="パス_5328" data-name="パス 5328" d="M300.662,53.852a.641.641,0,0,0-.647.647.633.633,0,0,0,.647.648h2.945c3.046,0,4.526-1.6,4.526-4.9s-1.48-4.917-4.526-4.917h-2.945a.641.641,0,0,0-.647.647.633.633,0,0,0,.647.648h.288v7.231Zm2.945,0h-1.278V46.621h1.278c2.167,0,3.134,1.117,3.134,3.622,0,2.53-.937,3.609-3.134,3.609" transform="translate(-144.471 -21.827)" fill="#fff"/>
      <path id="パス_5329" data-name="パス 5329" d="M46.007,88.993a2.58,2.58,0,0,1-2.3-1.222.664.664,0,0,0-1.235.334.7.7,0,0,0,.094.351,3.8,3.8,0,0,0,3.441,1.832c2.265,0,3.564-1.065,3.564-2.922,0-1.991-1.673-2.562-3.149-3.067-1.14-.389-2.125-.725-2.125-1.622,0-.83.659-1.306,1.808-1.306A2.54,2.54,0,0,1,48.2,82.392a.663.663,0,0,0,1.191-.4.678.678,0,0,0-.119-.384,3.689,3.689,0,0,0-3.165-1.534c-2.352,0-3.187,1.4-3.187,2.6,0,1.907,1.6,2.428,3.019,2.886,1.21.392,2.255.731,2.255,1.8s-.736,1.627-2.186,1.627" transform="translate(-20.452 -38.56)" fill="#fff"/>
      <path id="パス_5330" data-name="パス 5330" d="M69.185,85.188c0-3.3-1.622-5.112-4.568-5.112s-4.569,1.816-4.569,5.112,1.623,5.1,4.569,5.1,4.568-1.811,4.568-5.1m-4.568,3.8c-2.1,0-3.163-1.28-3.163-3.8s1.064-3.817,3.163-3.817,3.162,1.284,3.162,3.817-1.064,3.8-3.162,3.8" transform="translate(-28.916 -38.56)" fill="#fff"/>
      <path id="パス_5331" data-name="パス 5331" d="M91.559,81.748a.633.633,0,0,0,.647-.647.64.64,0,0,0-.647-.648H90.513a.623.623,0,0,0-.562.316l-3.164,5.418-3.162-5.414a.628.628,0,0,0-.55-.32H82.029a.641.641,0,0,0-.648.648.633.633,0,0,0,.648.647h.288v7.231h-.288a.641.641,0,0,0-.648.648.633.633,0,0,0,.648.647H84.01a.633.633,0,0,0,.648-.647.641.641,0,0,0-.648-.648h-.344V83.6l2.519,4.23a.727.727,0,0,0,.6.368.689.689,0,0,0,.6-.37l2.531-4.231v5.386h-.343a.641.641,0,0,0-.648.648.633.633,0,0,0,.648.647h1.982a.633.633,0,0,0,.647-.647.64.64,0,0,0-.647-.648h-.288V81.748Z" transform="translate(-39.189 -38.742)" fill="#fff"/>
      <path id="パス_5332" data-name="パス 5332" d="M107.077,88.979a.641.641,0,0,0-.647.647.633.633,0,0,0,.647.648h5.61a.641.641,0,0,0,.645-.565l0-1.143a.633.633,0,0,0-.648-.647.64.64,0,0,0-.647.647v.413h-3.3v-3H111.6a.647.647,0,0,0,0-1.295h-2.855V81.748h3.143v.413a.64.64,0,0,0,.647.648.633.633,0,0,0,.647-.648V81.1a.633.633,0,0,0-.647-.647h-5.456a.641.641,0,0,0-.647.647.633.633,0,0,0,.647.648h.288v7.231Z" transform="translate(-51.251 -38.742)" fill="#fff"/>
      <path id="パス_5333" data-name="パス 5333" d="M138.38,80.453h-5.959a.641.641,0,0,0-.648.647v1.717a.641.641,0,0,0,.648.647.633.633,0,0,0,.647-.647V81.734h1.649v7.245h-.384a.641.641,0,0,0-.648.648.633.633,0,0,0,.648.647h2.12a.633.633,0,0,0,.647-.647.64.64,0,0,0-.647-.648H136.1V81.734h1.636v1.083a.641.641,0,0,0,.648.647.633.633,0,0,0,.647-.647V81.1a.633.633,0,0,0-.647-.647" transform="translate(-63.455 -38.742)" fill="#fff"/>
      <path id="パス_5334" data-name="パス 5334" d="M152.284,88.979h-.3V85.892h4.427v3.087h-.3a.641.641,0,0,0-.647.647.633.633,0,0,0,.647.648h1.982a.634.634,0,0,0,.647-.648.641.641,0,0,0-.647-.647h-.3V81.748h.3a.634.634,0,0,0,.647-.648.641.641,0,0,0-.647-.647h-1.982a.641.641,0,0,0-.647.647.633.633,0,0,0,.647.648h.3V84.6h-4.427V81.748h.3a.633.633,0,0,0,.647-.648.641.641,0,0,0-.647-.647H150.3a.641.641,0,0,0-.648.647.634.634,0,0,0,.648.648h.3v7.231h-.3a.641.641,0,0,0-.648.647.634.634,0,0,0,.648.648h1.982a.633.633,0,0,0,.647-.648.641.641,0,0,0-.647-.647" transform="translate(-72.066 -38.742)" fill="#fff"/>
      <path id="パス_5335" data-name="パス 5335" d="M173.925,81.748a.633.633,0,0,0,.647-.647.64.64,0,0,0-.647-.648h-1.982a.641.641,0,0,0-.648.648.633.633,0,0,0,.648.647h.3v7.231h-.3a.641.641,0,0,0-.648.648.633.633,0,0,0,.648.647h1.982a.633.633,0,0,0,.647-.647.64.64,0,0,0-.647-.648h-.3V81.748Z" transform="translate(-82.487 -38.742)" fill="#fff"/>
      <path id="パス_5336" data-name="パス 5336" d="M188.508,90.086a.627.627,0,0,0,.574.3.683.683,0,0,0,.69-.689V81.749h.315a.633.633,0,0,0,.648-.648.641.641,0,0,0-.648-.647h-1.982a.641.641,0,0,0-.647.647.633.633,0,0,0,.647.648h.316v5.718l-4.462-6.693a.65.65,0,0,0-.569-.319h-1.047a.641.641,0,0,0-.648.647.633.633,0,0,0,.648.648h.3V88.98h-.3a.641.641,0,0,0-.648.647.633.633,0,0,0,.648.648h1.982a.633.633,0,0,0,.646-.648.64.64,0,0,0-.646-.647h-.33v-5.7Z" transform="translate(-87.494 -38.742)" fill="#fff"/>
      <path id="パス_5337" data-name="パス 5337" d="M207.178,90.288a4.319,4.319,0,0,0,3.5-1.614.9.9,0,0,0,.23-.6V85.636a.658.658,0,0,0-.648-.648h-2.819a.648.648,0,0,0,0,1.3h2.116v1.731a3.006,3.006,0,0,1-2.381.979c-2.187,0-3.163-1.173-3.163-3.8,0-2.533,1.064-3.818,3.163-3.818a2.8,2.8,0,0,1,2.252,1.08.635.635,0,0,0,.538.273.654.654,0,0,0,.662-.661.713.713,0,0,0-.138-.419,4.05,4.05,0,0,0-3.313-1.568c-2.947,0-4.57,1.816-4.57,5.113,0,3.336,1.58,5.1,4.57,5.1" transform="translate(-97.565 -38.56)" fill="#fff"/>
      <path id="パス_5338" data-name="パス 5338" d="M229.58,87.366c0-1.991-1.673-2.562-3.149-3.067-1.141-.389-2.126-.725-2.126-1.622,0-.83.659-1.306,1.808-1.306a2.542,2.542,0,0,1,2.094,1.021.663.663,0,0,0,1.192-.4.674.674,0,0,0-.12-.384,3.687,3.687,0,0,0-3.166-1.534c-2.351,0-3.186,1.4-3.186,2.6,0,1.907,1.6,2.427,3.019,2.886,1.21.392,2.255.731,2.255,1.8s-.735,1.627-2.186,1.627a2.582,2.582,0,0,1-2.3-1.222.664.664,0,0,0-1.236.334.693.693,0,0,0,.094.35,3.805,3.805,0,0,0,3.441,1.832c2.265,0,3.565-1.065,3.565-2.922" transform="translate(-107.134 -38.56)" fill="#fff"/>
      <path id="パス_5339" data-name="パス 5339" d="M253.617,83.493l1.8,6.367a.665.665,0,0,0,.668.525.69.69,0,0,0,.668-.5l2.313-8.133h.423a.633.633,0,0,0,.648-.647.641.641,0,0,0-.648-.648h-1.952a.641.641,0,0,0-.648.648.633.633,0,0,0,.648.647h.149L256.1,87.435l-1.818-6.482a.692.692,0,0,0-.666-.5.673.673,0,0,0-.667.507l-1.776,6.417-1.585-5.629h.219a.633.633,0,0,0,.648-.647.641.641,0,0,0-.648-.648h-1.98a.641.641,0,0,0-.648.648.633.633,0,0,0,.648.647h.326l2.326,8.13a.691.691,0,0,0,1.335-.011Z" transform="translate(-119.028 -38.742)" fill="#fff"/>
      <path id="パス_5340" data-name="パス 5340" d="M278.989,89.627a.64.64,0,0,0-.647-.647h-.3V81.748h.3a.633.633,0,0,0,.647-.647.641.641,0,0,0-.647-.648h-1.982a.641.641,0,0,0-.648.648.633.633,0,0,0,.648.647h.3v7.232h-.3a.64.64,0,0,0-.648.647.633.633,0,0,0,.648.647h1.982a.633.633,0,0,0,.647-.647" transform="translate(-132.768 -38.742)" fill="#fff"/>
      <path id="パス_5341" data-name="パス 5341" d="M292.061,87.64a.641.641,0,0,0-.647.647v.665h-2.975v-7.2h.4a.633.633,0,0,0,.648-.648.641.641,0,0,0-.648-.647h-2.066a.641.641,0,0,0-.647.647.633.633,0,0,0,.647.648h.289V88.98h-.289a.641.641,0,0,0-.647.647.633.633,0,0,0,.647.648H292.1a.6.6,0,0,0,.606-.606V88.287a.633.633,0,0,0-.648-.647" transform="translate(-137.783 -38.742)" fill="#fff"/>
      <path id="パス_5342" data-name="パス 5342" d="M303.3,88.979a.641.641,0,0,0-.648.647.634.634,0,0,0,.648.648h5.33a.6.6,0,0,0,.606-.606V88.287a.633.633,0,0,0-.648-.648.641.641,0,0,0-.648.648v.664h-2.975v-7.2h.4a.633.633,0,0,0,.646-.648.641.641,0,0,0-.646-.647H303.3a.641.641,0,0,0-.648.647.634.634,0,0,0,.648.648h.287v7.231Z" transform="translate(-145.743 -38.742)" fill="#fff"/>
      <path id="パス_5343" data-name="パス 5343" d="M51.629,116.963H49.648a.641.641,0,0,0-.648.647.633.633,0,0,0,.648.648h.315v5.719L45.5,117.282a.648.648,0,0,0-.569-.319H43.885a.641.641,0,0,0-.648.647.633.633,0,0,0,.648.648h.3v7.231h-.3a.641.641,0,0,0-.648.648.633.633,0,0,0,.648.647h1.982a.633.633,0,0,0,.648-.647.641.641,0,0,0-.648-.648h-.33v-5.7l4.513,6.808a.626.626,0,0,0,.575.3.682.682,0,0,0,.689-.69v-7.948h.316a.633.633,0,0,0,.647-.648.64.64,0,0,0-.647-.647" transform="translate(-20.821 -56.323)" fill="#fff"/>
      <path id="パス_5344" data-name="パス 5344" d="M72.68,124.428a.64.64,0,0,0-.647.647v.414h-3.3v-3h2.855a.647.647,0,1,0,0-1.295H68.736v-2.934h3.143v.413a.641.641,0,0,0,.648.648.633.633,0,0,0,.647-.648V117.61a.633.633,0,0,0-.647-.647H67.071a.641.641,0,0,0-.648.647.633.633,0,0,0,.648.648h.288v7.231h-.288a.641.641,0,0,0-.648.647.633.633,0,0,0,.648.648h5.61a.641.641,0,0,0,.645-.565l0-1.144a.633.633,0,0,0-.647-.647" transform="translate(-31.986 -56.323)" fill="#fff"/>
      <path id="パス_5345" data-name="パス 5345" d="M93.134,116.963H91.083a.64.64,0,0,0-.647.647.633.633,0,0,0,.647.648h.458l-2.272,6.08L87,118.258h.374a.633.633,0,0,0,.648-.648.641.641,0,0,0-.648-.647H85.32a.641.641,0,0,0-.647.647.633.633,0,0,0,.647.648h.2l3.1,8.174a.685.685,0,0,0,1.3,0l3.1-8.178h.117a.633.633,0,0,0,.647-.648.64.64,0,0,0-.647-.647" transform="translate(-40.774 -56.323)" fill="#fff"/>
      <path id="パス_5346" data-name="パス 5346" d="M113.823,124.428a.64.64,0,0,0-.647.647v.414h-3.3v-3h2.855a.647.647,0,1,0,0-1.295h-2.855v-2.934h3.143v.413a.641.641,0,0,0,.648.648.633.633,0,0,0,.647-.648V117.61a.633.633,0,0,0-.647-.647h-5.456a.641.641,0,0,0-.648.647.633.633,0,0,0,.648.648h.288v7.231h-.288a.641.641,0,0,0-.648.647.633.633,0,0,0,.648.648h5.61a.641.641,0,0,0,.645-.565l0-1.144a.633.633,0,0,0-.647-.647" transform="translate(-51.798 -56.323)" fill="#fff"/>
      <path id="パス_5347" data-name="パス 5347" d="M133.952,125.489h-.527l-1.874-2.8a2.786,2.786,0,0,0,2.337-2.841,2.817,2.817,0,0,0-2.88-2.88h-3.768a.641.641,0,0,0-.648.648.633.633,0,0,0,.648.647h.3v7.232h-.3a.641.641,0,0,0-.648.648.633.633,0,0,0,.648.647h1.982a.633.633,0,0,0,.647-.647.64.64,0,0,0-.647-.648h-.3v-2.766H130l2.446,3.735a.666.666,0,0,0,.6.325h.907a.633.633,0,0,0,.647-.647.641.641,0,0,0-.647-.648m-2.916-4.061H128.92v-3.171h2.074a1.59,1.59,0,0,1,.042,3.171" transform="translate(-60.96 -56.323)" fill="#fff"/>
      <path id="パス_5348" data-name="パス 5348" d="M164.415,115.633c-3.788,0-6.048,2.63-6.048,7.034,0,2.717,1.452,4.153,4.2,4.153a5.322,5.322,0,0,0,3.919-1.621.7.7,0,0,0-.484-1.187.7.7,0,0,0-.545.263,3.685,3.685,0,0,1-2.721,1.2c-2,0-2.886-.908-2.886-2.947,0-3.475,1.654-5.55,4.427-5.55a2.565,2.565,0,0,1,2.377,1.2.625.625,0,0,0,.565.29.68.68,0,0,0,.687-.687.67.67,0,0,0-.086-.342,3.769,3.769,0,0,0-3.405-1.81" transform="translate(-76.261 -55.683)" fill="#fff"/>
      <path id="パス_5349" data-name="パス 5349" d="M190.558,116.05h-2.11a.75.75,0,0,0-.766.75.576.576,0,0,0,.6.6h.292l-.563,3.229h-4.965l.563-3.229h.376a.75.75,0,0,0,.765-.75.576.576,0,0,0-.6-.6h-2.11a.749.749,0,0,0-.765.75.575.575,0,0,0,.595.6h.292l-1.426,8.067h-.329a.749.749,0,0,0-.765.749.576.576,0,0,0,.6.6H182.3a.75.75,0,0,0,.766-.75.577.577,0,0,0-.6-.6h-.291l.625-3.492h4.963l-.624,3.492h-.329a.75.75,0,0,0-.766.749.576.576,0,0,0,.6.6h2.065a.75.75,0,0,0,.766-.75.577.577,0,0,0-.6-.6h-.291l1.425-8.067h.376a.75.75,0,0,0,.765-.75.576.576,0,0,0-.6-.6" transform="translate(-86.506 -55.883)" fill="#fff"/>
      <path id="パス_5350" data-name="パス 5350" d="M214.11,125.462h-.335l-1.922-8.9a.628.628,0,0,0-.654-.512h-1.464a.75.75,0,0,0-.766.749.577.577,0,0,0,.6.6h.292l-4.686,8.067h-.4a.75.75,0,0,0-.766.749.576.576,0,0,0,.6.6h2.326a.75.75,0,0,0,.766-.749.576.576,0,0,0-.6-.6h-.247l.992-1.721h4.028l.39,1.721h-.48a.749.749,0,0,0-.766.749.576.576,0,0,0,.6.6h2.326a.75.75,0,0,0,.766-.749.576.576,0,0,0-.6-.6m-2.476-3.066h-3.075l2.232-3.972Z" transform="translate(-98.24 -55.883)" fill="#fff"/>
      <path id="パス_5351" data-name="パス 5351" d="M240.879,116.05h-2.064a.75.75,0,0,0-.766.75.577.577,0,0,0,.6.6h.307l-1.152,6.741-3.664-7.733a.632.632,0,0,0-.591-.353h-1.094a.75.75,0,0,0-.765.75.576.576,0,0,0,.6.6h.291l-1.425,8.067h-.329a.75.75,0,0,0-.766.749.577.577,0,0,0,.6.6h2.063a.75.75,0,0,0,.766-.75.576.576,0,0,0-.6-.6h-.321l1.206-6.743,3.674,7.9a.6.6,0,0,0,.555.315.831.831,0,0,0,.808-.685l1.559-8.849h.344a.75.75,0,0,0,.766-.75.576.576,0,0,0-.6-.6" transform="translate(-110.782 -55.883)" fill="#fff"/>
      <path id="パス_5352" data-name="パス 5352" d="M262.118,115.633c-3.788,0-6.049,2.63-6.049,7.034,0,2.717,1.453,4.153,4.2,4.153a5.584,5.584,0,0,0,4.141-1.7,1.093,1.093,0,0,0,.331-.66l.462-2.694a.605.605,0,0,0-.127-.5.582.582,0,0,0-.45-.208h-3.111a.761.761,0,0,0-.766.734.584.584,0,0,0,.6.612h2.339l-.348,1.944a4.039,4.039,0,0,1-2.9,1.131c-2,0-2.885-.908-2.885-2.947,0-3.475,1.654-5.55,4.426-5.55a2.566,2.566,0,0,1,2.377,1.2.627.627,0,0,0,.564.29.68.68,0,0,0,.689-.687.67.67,0,0,0-.086-.342,3.77,3.77,0,0,0-3.4-1.81" transform="translate(-123.309 -55.683)" fill="#fff"/>
      <path id="パス_5353" data-name="パス 5353" d="M286.806,116.05h-6.084a.75.75,0,0,0-.766.75.576.576,0,0,0,.6.6h.384l-1.425,8.067h-.344a.75.75,0,0,0-.766.749.577.577,0,0,0,.6.6h6.146a.783.783,0,0,0,.746-.578l.2-1.172a.664.664,0,0,0-.137-.536.628.628,0,0,0-.488-.214.826.826,0,0,0-.808.685l-.081.47h-3.622l.609-3.4h3.225a.78.78,0,0,0,.765-.734.6.6,0,0,0-.6-.611H281.8l.578-3.322h3.442l-.071.42a.667.667,0,0,0,.137.536.629.629,0,0,0,.488.214.827.827,0,0,0,.808-.684l.2-1.087a.649.649,0,0,0-.123-.536.566.566,0,0,0-.452-.209" transform="translate(-134.062 -55.883)" fill="#fff"/>
      <path id="パス_5354" data-name="パス 5354" d="M307.678,117.42a3.3,3.3,0,0,0-3.2-1.786c-2.753,0-3.985,1.583-3.985,3.152,0,1.721,1.5,2.284,2.83,2.782,1.159.434,2.16.81,2.16,1.809,0,1.315-1.061,2.1-2.838,2.1a2.331,2.331,0,0,1-2.345-1.309.69.69,0,0,0-1.316.287.7.7,0,0,0,.042.248,3.43,3.43,0,0,0,3.449,2.119c2.835,0,4.463-1.323,4.463-3.629,0-1.781-1.558-2.37-2.931-2.889-1.1-.414-2.044-.773-2.044-1.624,0-.784.614-1.7,2.345-1.7a2.358,2.358,0,0,1,2.176,1.094h0a.664.664,0,0,0,.565.321.681.681,0,0,0,.689-.688.748.748,0,0,0-.06-.288" transform="translate(-143.974 -55.683)" fill="#fff"/>
      <path id="パス_5355" data-name="パス 5355" d="M185.754,93.243H0V0H185.754ZM.732,92.511h184.29V.733H.732Z" fill="#fff"/>
    </g>
  </g>
</svg>
