<svg xmlns="http://www.w3.org/2000/svg" xmlns:xlink="http://www.w3.org/1999/xlink" width="121.116" height="73.017" viewBox="0 0 121.116 73.017">
  <defs>
    <clipPath id="clip-path">
      <rect id="長方形_28556" data-name="長方形 28556" width="121.116" height="73.017" fill="none"/>
    </clipPath>
  </defs>
  <g id="logo_vivie" transform="translate(0 0)">
    <path id="パス_5291" data-name="パス 5291" d="M16.972,67,1.455,29.58,0,30.183,16.972,71.107,33.943,30.183l-1.455-.6Z" transform="translate(0 -15.309)" fill="#fff"/>
    <rect id="長方形_28554" data-name="長方形 28554" width="1.575" height="39.782" transform="translate(38.533 13.961)" fill="#fff"/>
    <g id="グループ_405092" data-name="グループ 405092" transform="translate(0 0)">
      <g id="グループ_405091" data-name="グループ 405091" clip-path="url(#clip-path)">
        <path id="パス_5292" data-name="パス 5292" d="M77.592,7.292a3.646,3.646,0,1,1,3.646-3.646,3.65,3.65,0,0,1-3.646,3.646m0-5.717a2.071,2.071,0,1,0,2.071,2.071,2.074,2.074,0,0,0-2.071-2.071" transform="translate(-38.271)" fill="#fff"/>
        <path id="パス_5293" data-name="パス 5293" d="M111.652,71.108,94.68,30.183l1.455-.6L111.652,67,127.168,29.58l1.455.6Z" transform="translate(-49.002 -15.309)" fill="#fff"/>
        <rect id="長方形_28555" data-name="長方形 28555" width="1.575" height="39.782" transform="translate(84.211 13.961)" fill="#fff"/>
        <path id="パス_5294" data-name="パス 5294" d="M172.272,7.292a3.646,3.646,0,1,1,3.646-3.646,3.65,3.65,0,0,1-3.646,3.646m0-5.717a2.071,2.071,0,1,0,2.071,2.071,2.074,2.074,0,0,0-2.071-2.071" transform="translate(-87.273)" fill="#fff"/>
        <path id="パス_5295" data-name="パス 5295" d="M220.655,69.32H193.847V28.573h27.6V52.9h-26.02V67.745h25.233ZM195.422,51.326h24.446V30.148H195.422Z" transform="translate(-100.327 -14.788)" fill="#fff"/>
        <path id="パス_5296" data-name="パス 5296" d="M4.394,138.5l2.192-4.676.751.146-2.931,6.227H4.382L1.45,133.967l.678-.146Z" transform="translate(-0.75 -69.26)" fill="#fff"/>
        <path id="パス_5297" data-name="パス 5297" d="M16.747,129.18l-.558.63-.557-.63.557-.631Zm-.848,8.286v-6.227l.7-.146v6.227Z" transform="translate(-8.09 -66.531)" fill="#fff"/>
        <path id="パス_5298" data-name="パス 5298" d="M22.057,140.145v-6.178l.7-.146v1.005h.025a2.138,2.138,0,0,1,1.757-1.005c1.174,0,2.264.46,2.264,2.144v4.082l-.7.1v-4.337c0-.884-.569-1.355-1.54-1.355a1.758,1.758,0,0,0-1.8,1.659v3.937Z" transform="translate(-11.416 -69.26)" fill="#fff"/>
        <path id="パス_5299" data-name="パス 5299" d="M35.194,130.619l.7-.387v1.878h1.648v.7H35.9v3.755c0,.738.315,1.016,1.09,1.016a4.78,4.78,0,0,0,.569-.023v.654a3.545,3.545,0,0,1-.631.072,1.575,1.575,0,0,1-1.731-1.732v-3.743h-.812l.17-.7h.642Z" transform="translate(-17.795 -67.402)" fill="#fff"/>
        <path id="パス_5300" data-name="パス 5300" d="M43.5,134.185a4.67,4.67,0,0,1,1.77-.364c.944,0,1.9.5,1.9,1.538v4.688l-.7.146v-.763h-.025a1.624,1.624,0,0,1-1.491.763,2.212,2.212,0,1,1-.084-4.421,2.56,2.56,0,0,1,1.6.7v-1.018c0-.508-.618-.932-1.429-.932a5.968,5.968,0,0,0-1.768.485Zm1.5,5.306a1.509,1.509,0,0,0-.025-3.017A1.514,1.514,0,1,0,45,139.491" transform="translate(-22.068 -69.26)" fill="#fff"/>
        <path id="パス_5301" data-name="パス 5301" d="M54.972,140.18a2.886,2.886,0,0,0,2.217,1.174c.981,0,2.023-.617,2.023-1.526a1.891,1.891,0,0,0-1.964-1.756,4.261,4.261,0,0,0-1.586.351l.253-.8a2.048,2.048,0,0,1-1.174-1.721,2.33,2.33,0,0,1,2.531-2.3c.243,0,.5.025.74.025a9.979,9.979,0,0,0,2-.23l-.206.715a1.6,1.6,0,0,1-.533.084,1.482,1.482,0,0,1-.327-.037l-.025.025a2.144,2.144,0,0,1,.921,1.672,2.045,2.045,0,0,1-1.32,1.865,2.164,2.164,0,0,1,1.392,2.011,2.538,2.538,0,0,1-2.785,2.326,3.44,3.44,0,0,1-2.69-1.478Zm.473-4.313a1.669,1.669,0,0,0,1.828,1.551,1.6,1.6,0,1,0-1.828-1.551" transform="translate(-28.175 -69.04)" fill="#fff"/>
        <path id="パス_5302" data-name="パス 5302" d="M69.463,138.074a2.48,2.48,0,0,0,2.156,1.417,3.671,3.671,0,0,0,2.3-1.005v.847a3.47,3.47,0,0,1-2.254.861,3.1,3.1,0,0,1-3.15-3.259,3.033,3.033,0,0,1,3.174-3.114,2.794,2.794,0,0,1,2.4,1.417Zm3.525-3.017a1.758,1.758,0,0,0-1.3-.533,2.389,2.389,0,0,0-2.472,2.422,2.259,2.259,0,0,0,.049.5Z" transform="translate(-35.461 -69.26)" fill="#fff"/>
        <path id="パス_5303" data-name="パス 5303" d="M87.054,135.087l1.515-1.479.471.461-1.551,1.514,1.454,1.781-.57.339-1.368-1.647c-.728.666-1.406,1.647-2.5,1.647a1.988,1.988,0,0,1-2.059-2.047c0-1.176.823-1.758,1.611-2.508l.315-.315a3.088,3.088,0,0,1-.823-1.914,1.7,1.7,0,0,1,1.805-1.816,1.586,1.586,0,0,1,1.635,1.5c0,1.03-1.042,1.7-1.684,2.35Zm-2.265-1.721c-.666.728-1.636,1.223-1.636,2.326A1.3,1.3,0,0,0,84.5,137c.861,0,1.5-.981,2.1-1.477Zm1.5-2.787a.921.921,0,0,0-.993-.848c-.726,0-1.041.558-1.041,1.211a2.411,2.411,0,0,0,.654,1.514c.545-.447,1.38-1.017,1.38-1.878" transform="translate(-42.673 -66.818)" fill="#fff"/>
        <path id="パス_5304" data-name="パス 5304" d="M99.9,133.822v4.035c0,1.09.436,1.707,1.477,1.707,1.139,0,1.867-.412,1.867-2.858v-2.737l.7-.146v6.227l-.7.1V139.14h-.025a2.072,2.072,0,0,1-1.9,1.055c-1.538,0-2.12-.872-2.12-2.253v-3.973Z" transform="translate(-51.338 -69.26)" fill="#fff"/>
        <path id="パス_5305" data-name="パス 5305" d="M112.352,138.824a2.027,2.027,0,0,0,1.527.666,1.154,1.154,0,0,0,1.308-1.127c0-1.526-3.21-.642-3.21-2.774a1.853,1.853,0,0,1,2.011-1.769,2.959,2.959,0,0,1,1.816.715l-.4.557a2.442,2.442,0,0,0-1.454-.569c-.691,0-1.273.339-1.273,1.03,0,1.526,3.21.521,3.21,2.774,0,1.271-.981,1.865-2.168,1.865a2.507,2.507,0,0,1-1.9-.921Z" transform="translate(-57.873 -69.26)" fill="#fff"/>
        <path id="パス_5306" data-name="パス 5306" d="M123.683,138.074a2.48,2.48,0,0,0,2.156,1.417,3.667,3.667,0,0,0,2.3-1.005v.847a3.471,3.471,0,0,1-2.254.861,3.1,3.1,0,0,1-3.15-3.259,3.033,3.033,0,0,1,3.174-3.114,2.793,2.793,0,0,1,2.4,1.417Zm3.525-3.017a1.758,1.758,0,0,0-1.3-.533,2.389,2.389,0,0,0-2.472,2.422,2.258,2.258,0,0,0,.049.5Z" transform="translate(-63.523 -69.26)" fill="#fff"/>
        <path id="パス_5307" data-name="パス 5307" d="M142.13,128.695l.7-.146v8.77l-.7.146V136.3h-.025a3.152,3.152,0,0,1-2.386,1.164,3.186,3.186,0,0,1-.025-6.373,3.225,3.225,0,0,1,2.41,1.2h.025Zm-2.472,3.1a2.456,2.456,0,0,0-2.41,2.46,2.379,2.379,0,0,0,2.435,2.507,2.484,2.484,0,0,0,2.447-2.472,2.384,2.384,0,0,0-2.472-2.495" transform="translate(-70.67 -66.531)" fill="#fff"/>
        <path id="パス_5308" data-name="パス 5308" d="M165.283,139.419a3.374,3.374,0,0,1-2.18.775,3.106,3.106,0,0,1-3.138-3.247,3.172,3.172,0,0,1,3.271-3.126,3.812,3.812,0,0,1,2.083.715l-.436.569a2.518,2.518,0,0,0-1.684-.582,2.485,2.485,0,0,0-.158,4.967,2.861,2.861,0,0,0,1.805-.618Z" transform="translate(-82.791 -69.26)" fill="#fff"/>
        <path id="パス_5309" data-name="パス 5309" d="M175.656,137.319l-.7.146v-8.77l.7-.146Z" transform="translate(-90.548 -66.531)" fill="#fff"/>
        <path id="パス_5310" data-name="パス 5310" d="M186.222,137.008a3.113,3.113,0,1,1-3.112-3.186,3.181,3.181,0,0,1,3.112,3.186m-5.523,0a2.412,2.412,0,1,0,2.412-2.483,2.472,2.472,0,0,0-2.412,2.483" transform="translate(-93.158 -69.26)" fill="#fff"/>
        <path id="パス_5311" data-name="パス 5311" d="M195.367,130.619l.7-.387v1.878h1.648v.7H196.07v3.755c0,.738.315,1.016,1.09,1.016a4.78,4.78,0,0,0,.569-.023v.654a3.545,3.545,0,0,1-.631.072,1.575,1.575,0,0,1-1.731-1.732v-3.743h-.812l.17-.7h.642Z" transform="translate(-100.693 -67.402)" fill="#fff"/>
        <path id="パス_5312" data-name="パス 5312" d="M203.768,137.416v-8.722l.7-.146v3.428h.024a2.04,2.04,0,0,1,1.757-.884c1.174,0,2.264.46,2.264,2.144v4.082l-.7.1v-4.337c0-.884-.57-1.355-1.54-1.355a1.758,1.758,0,0,0-1.8,1.659v3.937Z" transform="translate(-105.461 -66.531)" fill="#fff"/>
        <path id="パス_5313" data-name="パス 5313" d="M218.588,129.18l-.558.63-.557-.63.557-.631Zm-.848,8.286v-6.227l.7-.146v6.227Z" transform="translate(-112.554 -66.531)" fill="#fff"/>
        <path id="パス_5314" data-name="パス 5314" d="M223.9,140.145v-6.178l.7-.146v1.005h.025a2.138,2.138,0,0,1,1.757-1.005c1.174,0,2.264.46,2.264,2.144v4.082l-.7.1v-4.337c0-.884-.569-1.355-1.54-1.355a1.758,1.758,0,0,0-1.8,1.659v3.937Z" transform="translate(-115.88 -69.26)" fill="#fff"/>
        <path id="パス_5315" data-name="パス 5315" d="M236.682,140.18a2.886,2.886,0,0,0,2.217,1.174c.981,0,2.023-.617,2.023-1.526a1.891,1.891,0,0,0-1.964-1.756,4.261,4.261,0,0,0-1.586.351l.253-.8a2.048,2.048,0,0,1-1.174-1.721,2.33,2.33,0,0,1,2.531-2.3c.243,0,.5.025.74.025a9.979,9.979,0,0,0,2-.23l-.206.715a1.6,1.6,0,0,1-.533.084,1.481,1.481,0,0,1-.327-.037l-.025.025a2.144,2.144,0,0,1,.921,1.672,2.045,2.045,0,0,1-1.32,1.865,2.164,2.164,0,0,1,1.392,2.011,2.538,2.538,0,0,1-2.786,2.326,3.439,3.439,0,0,1-2.688-1.478Zm.473-4.313a1.67,1.67,0,0,0,1.828,1.551,1.6,1.6,0,1,0-1.828-1.551" transform="translate(-122.22 -69.04)" fill="#fff"/>
      </g>
    </g>
  </g>
</svg>
