<svg xmlns="http://www.w3.org/2000/svg" width="3064.076" height="270.368" viewBox="0 0 3064.076 270.368">
  <path id="slider-txt_r-g-p" d="M59.924-92.016c8.8,7.952,36.636,43.736,69.864,89.176l2.84,3.976A112.787,112.787,0,0,1,148.532,0a165.492,165.492,0,0,1,17.892,1.136c-12.78-13.064-20.732-22.72-56.8-68.728L91.448-90.88l-2.84-3.408c13.348-2.556,21.016-4.828,28.4-8.8,18.744-9.372,29.252-25.276,29.252-44.3,0-14.484-6.816-27.548-17.892-34.648-9.656-5.964-21.3-8.52-39.476-8.52-3.976,0-12.78.284-22.72.568-7.952.284-14.768.568-19.6.568a209.772,209.772,0,0,1-22.72-1.136c1.988,22.436,2.84,51.12,2.84,88.608,0,38.34-1.136,77.532-2.84,103.092A73.9,73.9,0,0,1,36.92,0,106.922,106.922,0,0,1,51.688,1.136c-1.42-13.348-2.556-54.244-2.556-93.152ZM49.132-102.808c0-37.488.568-51.688,1.7-76.112a166.147,166.147,0,0,1,24.992-1.988c29.252,0,44.872,12.78,44.872,36.352,0,27.548-20.164,42.884-55.664,42.884A104.764,104.764,0,0,1,49.132-102.808ZM292.8-26.412c-11.644,13.064-26.412,19.88-43.736,19.88-28.4,0-47.144-21.016-47.144-52.824V-65.6c19.312-.568,33.228-.852,50.836-.852,23.856,0,37.2.284,46.292.852.284-3.408.284-6.816.284-8.8,0-37.488-20.732-59.072-56.8-59.072-21.016,0-36.068,5.68-47.428,18.176-11.928,12.78-17.892,30.388-17.892,51.972,0,41.748,25.844,68.16,66.74,68.16,19.028,0,30.672-3.976,48.28-16.472a30.441,30.441,0,0,1,1.7-11.644l.568-2.556ZM276.9-77.248c-9.656,1.136-12.5,1.136-31.24,1.136-21.868,0-34.932-.284-43.452-.568,1.988-29.252,17.608-48,39.76-48,14.484,0,24.992,7.384,30.388,21.3C274.912-97.128,276.048-90.028,276.9-77.248Zm51.4,52.256c-1.988,8.236-3.976,15.62-5.964,20.448,9.372,5.964,22.436,9.372,35.5,9.372,29.252,0,51.12-18.744,51.12-44.02,0-18.46-9.088-28.116-33.228-34.648-15.336-4.26-19.6-5.964-24.424-9.372-5.4-3.692-8.8-10.508-8.8-17.892,0-13.632,10.508-23.288,25.276-23.288s24.708,7.1,27.832,19.6h2.84c2.272-8.8,2.272-9.372,7.384-21.868-13.064-5.112-21.584-6.816-33.512-6.816-29.82,0-48.564,15.336-48.564,39.76,0,10.792,4.544,21.3,11.928,26.98,5.68,4.544,11.36,7.1,27.832,11.928,19.88,5.68,26.7,12.212,26.7,24.992,0,13.916-11.644,24.708-26.98,24.708-13.916,0-23.856-6.248-32.66-19.88ZM439.916-9.94c0,4.828-.284,13.916-.568,28.968-.284,9.94-.284,16.472-.568,24.992-.284,17.608-.568,23.288-1.136,31.808a63.065,63.065,0,0,1,12.212-1.136,70.156,70.156,0,0,1,12.5,1.136c-1.136-29.252-1.42-40.612-1.7-70.148L460.364-12.5v-6.816C468.032-4.828,484.22,3.976,504.1,3.976c36.068,0,61.06-28.968,61.06-71.284,0-40.044-23.572-66.74-59.072-66.74-22.436,0-39.76,11.076-46.86,30.388a33.517,33.517,0,0,1-.284-4.544,229.738,229.738,0,0,1,.852-23.288A93.53,93.53,0,0,1,449-130.64c-2.556,0-5.112-.284-11.644-.852,1.42,28.968,2.272,55.1,2.272,92.016ZM501.544-122.4c24.424,0,38.908,21.584,38.908,57.936,0,36.636-15.336,58.5-40.9,58.5-25.276,0-40.044-20.448-40.044-55.664,0-18.744,2.556-31.524,8.236-41.748C474.564-115.3,486.776-122.4,501.544-122.4ZM707.16-26.412c-11.644,13.064-26.412,19.88-43.736,19.88-28.4,0-47.144-21.016-47.144-52.824V-65.6c19.312-.568,33.228-.852,50.836-.852,23.856,0,37.2.284,46.292.852.284-3.408.284-6.816.284-8.8,0-37.488-20.732-59.072-56.8-59.072-21.016,0-36.068,5.68-47.428,18.176-11.928,12.78-17.892,30.388-17.892,51.972,0,41.748,25.844,68.16,66.74,68.16,19.028,0,30.672-3.976,48.28-16.472a30.44,30.44,0,0,1,1.7-11.644l.568-2.556Zm-15.9-50.836c-9.656,1.136-12.5,1.136-31.24,1.136-21.868,0-34.932-.284-43.452-.568,1.988-29.252,17.608-48,39.76-48,14.484,0,24.992,7.384,30.388,21.3C689.268-97.128,690.4-90.028,691.256-77.248Zm158.188-26.7c1.42-7.952,2.84-12.5,5.964-18.46-14.2-7.952-25.56-11.076-42.316-11.076-45.156,0-74.408,27.264-74.408,69.3,0,41.748,27.548,69.012,69.864,69.012,19.028,0,33.8-4.828,46.576-15.052a20.369,20.369,0,0,1-.284-3.692,37.27,37.27,0,0,1,1.136-8.8l-2.272-.568C841.776-11.076,829.848-5.68,814.512-5.68c-29.82,0-51.12-24.992-51.12-60.208,0-34.08,19.88-58.5,47.428-58.5,15.336,0,29.536,8.236,35.784,20.448ZM915.616-168.7c-7.384,4.26-15.9,7.952-23.572,9.656.852,9.656,1.7,22.72,1.7,26.98v3.692H875a21.213,21.213,0,0,1,.852,5.68,19.3,19.3,0,0,1-.852,5.4c3.124-.284,7.952-.568,18.176-.568a91.825,91.825,0,0,1,.284,9.94c0,16.188-.568,48.564-1.136,59.356-.284,7.668-.568,15.336-.568,17.892,0,21.016,12.5,34.364,32.376,34.364,7.384,0,12.78-1.136,24.14-4.544V-7.384A42.144,42.144,0,0,1,935.78-5.4c-8.8,0-15.336-3.976-18.744-10.792-3.124-6.532-3.692-11.928-3.692-29.82V-71c.568-38.056.568-38.34,1.136-46.86h30.388a16.5,16.5,0,0,1-1.136-5.4,22.606,22.606,0,0,1,1.136-5.964l-30.672.568c.284-8.52.284-13.632.852-19.028l1.136-16.472.284-3.408Zm48,216.976L998.26-9.94c2.556-4.26,4.26-9.088,4.26-12.212,0-5.4-4.828-9.94-10.792-9.94-5.68,0-9.94,4.26-12.5,12.78l-20.448,65.6Zm246.8-204.764c1.7-9.372,3.692-15.336,7.1-21.3-20.448-11.36-42.032-16.472-71.284-16.472-32.944,0-58.22,7.668-77.816,23.572-21.584,17.608-33.512,45.44-33.512,78.384,0,31.24,10.508,56.516,30.388,73.556,18.744,16.188,42.6,23.572,75.26,23.572,25.56,0,49.416-3.976,75.828-12.78-.852-7.952-.852-12.78-.852-30.1,0-16.756.852-33.512,2.272-48.28a77.732,77.732,0,0,1-14.2,1.136,58.437,58.437,0,0,1-12.5-1.136c1.42,11.36,1.7,18.744,1.7,34.08,0,13.348-.284,24.14-1.136,36.92a109.951,109.951,0,0,1-46.292,9.656c-50.836,0-82.36-34.08-82.36-88.892,0-53.96,31.808-89.176,80.656-89.176,25.56,0,48.28,9.94,63.9,27.264Zm115.3,46.86c-.284-2.556-.568-4.544-.568-5.68a71.33,71.33,0,0,1,2.272-16.188,17.9,17.9,0,0,0-8.52-1.988c-14.484,0-28.4,11.644-38.056,31.24,0-7.668,0-8.52.284-14.768l.284-11.36v-3.124a65.584,65.584,0,0,1-10.792,1.136c-3.124,0-5.4-.284-11.928-1.136,2.272,38.624,2.272,42.316,2.272,63.332,0,33.228-.852,58.5-2.272,69.3A86.4,86.4,0,0,1,1270.9,0a76.979,76.979,0,0,1,11.928,1.136c-.852-9.656-1.7-31.24-1.7-46.576,0-29.82.568-40.328,2.556-46.576,3.976-12.5,14.768-21.016,26.412-21.016,5.112,0,9.088,1.42,13.632,4.544Zm132.912,83.212c-11.644,13.064-26.412,19.88-43.736,19.88-28.4,0-47.144-21.016-47.144-52.824V-65.6c19.312-.568,33.228-.852,50.836-.852,23.856,0,37.2.284,46.292.852.284-3.408.284-6.816.284-8.8,0-37.488-20.732-59.072-56.8-59.072-21.016,0-36.068,5.68-47.428,18.176-11.928,12.78-17.892,30.388-17.892,51.972,0,41.748,25.844,68.16,66.74,68.16,19.028,0,30.672-3.976,48.28-16.472a30.44,30.44,0,0,1,1.7-11.644l.568-2.556Zm-15.9-50.836c-9.656,1.136-12.5,1.136-31.24,1.136-21.868,0-34.932-.284-43.452-.568,1.988-29.252,17.608-48,39.76-48,14.484,0,24.992,7.384,30.388,21.3C1440.732-97.128,1441.868-90.028,1442.72-77.248Zm163.016,50.836c-11.644,13.064-26.412,19.88-43.736,19.88-28.4,0-47.144-21.016-47.144-52.824V-65.6c19.312-.568,33.228-.852,50.836-.852,23.856,0,37.2.284,46.292.852.284-3.408.284-6.816.284-8.8,0-37.488-20.732-59.072-56.8-59.072-21.016,0-36.068,5.68-47.428,18.176-11.928,12.78-17.892,30.388-17.892,51.972,0,41.748,25.844,68.16,66.74,68.16,19.028,0,30.672-3.976,48.28-16.472a30.44,30.44,0,0,1,1.7-11.644l.568-2.556Zm-15.9-50.836c-9.656,1.136-12.5,1.136-31.24,1.136-21.868,0-34.932-.284-43.452-.568,1.988-29.252,17.608-48,39.76-48,14.484,0,24.992,7.384,30.388,21.3C1587.844-97.128,1588.98-90.028,1589.832-77.248Zm78.952-91.448c-7.384,4.26-15.9,7.952-23.572,9.656.852,9.656,1.7,22.72,1.7,26.98v3.692h-18.744a21.213,21.213,0,0,1,.852,5.68,19.3,19.3,0,0,1-.852,5.4c3.124-.284,7.952-.568,18.176-.568a91.844,91.844,0,0,1,.284,9.94c0,16.188-.568,48.564-1.136,59.356-.284,7.668-.568,15.336-.568,17.892,0,21.016,12.5,34.364,32.376,34.364,7.384,0,12.78-1.136,24.14-4.544V-7.384a42.143,42.143,0,0,1-12.5,1.988c-8.8,0-15.336-3.976-18.744-10.792-3.124-6.532-3.692-11.928-3.692-29.82V-71c.568-38.056.568-38.34,1.136-46.86h30.388a16.5,16.5,0,0,1-1.136-5.4,22.6,22.6,0,0,1,1.136-5.964l-30.672.568c.284-8.52.284-13.632.852-19.028l1.136-16.472.284-3.408Zm56.516,37.2c1.42,16.188,2.272,39.476,2.272,71.284,0,29.252-.568,45.44-2.272,61.344A83.289,83.289,0,0,1,1738.08,0a59.553,59.553,0,0,1,11.644,1.136c-.852-12.5-1.7-45.724-1.7-63.9,0-23.572.852-57.652,1.7-68.728a53.138,53.138,0,0,1-11.36,1.136A73.9,73.9,0,0,1,1725.3-131.492Zm13.348-61.628a14.128,14.128,0,0,0-14.484,14.2,14.062,14.062,0,0,0,14.2,14.2,14.062,14.062,0,0,0,14.2-14.2C1752.564-186.588,1746.032-193.12,1738.648-193.12Zm71.284,72.988c.284-4.828.284-6.816.568-11.36a40.325,40.325,0,0,1-10.224,1.136,65.894,65.894,0,0,1-12.5-1.136c1.7,19.88,2.556,36.352,2.556,54.244,0,29.82-1.136,67.592-2.556,78.384A80.044,80.044,0,0,1,1799.708,0a90,90,0,0,1,12.212,1.136c-1.136-20.448-1.42-26.412-1.42-44.02,0-38.624.852-47.712,4.544-57.652,4.828-11.928,16.756-19.028,31.808-19.028,12.5,0,21.868,4.828,27.548,14.768,3.976,6.816,5.4,14.768,5.4,33.228,0,21.584-1.42,54.812-2.84,72.7A92.248,92.248,0,0,1,1888.6,0c2.84,0,3.976,0,12.5,1.136-.568-8.52-.852-19.88-.852-41.464,0-8.52,0-16.472.284-23.288.568-11.36.852-21.868.852-23.856,0-15.336-3.408-24.992-11.644-33.228s-20.164-12.78-34.08-12.78c-20.164,0-35.216,8.52-45.724,26.412Zm247.648-2.84a30.932,30.932,0,0,1-.568-5.68,12.553,12.553,0,0,1,.568-4.26c-6.816.568-13.916.852-24.424.852a92.489,92.489,0,0,1-10.792-.284c-24.14-1.136-24.14-1.136-30.1-1.136-18.46,0-30.388,3.408-40.044,11.644a46.829,46.829,0,0,0-15.9,35.5c0,19.6,10.792,34.364,29.536,40.044-16.188,5.964-22.152,12.5-22.152,23.856,0,11.928,7.384,19.312,20.448,20.732-23.572,7.384-33.512,17.608-33.512,35.5,0,14.768,7.952,26.412,22.152,33.512,11.644,5.68,26.128,8.8,40.612,8.8,40.612,0,69.58-23.572,69.58-56.8,0-13.916-5.4-24.708-15.9-31.524-9.088-5.68-16.756-7.1-44.3-7.1-23,0-28.968-.568-33.8-2.84-4.828-1.988-7.384-5.68-7.384-9.94,0-6.532,7.1-11.36,16.756-11.36a57.234,57.234,0,0,1,6.532.284c2.84.284,6.248.284,8.236.284,30.1,0,50.836-18.46,50.836-45.44,0-17.324-5.4-26.7-20.164-34.648Zm-66.456-2.272c19.88,0,30.672,12.78,30.672,36.068,0,24.708-11.076,38.056-31.808,38.056-19.88,0-30.956-12.5-30.956-34.932C1959.032-111.612,1970.108-125.244,1991.124-125.244ZM1995.668-.852c31.24,0,46.292,9.372,46.292,29.536,0,23.288-18.744,38.908-46.576,38.908-28.684,0-47.428-13.916-47.428-34.932S1965.848-.852,1995.668-.852ZM2083.14,48.28l34.648-58.22c2.556-4.26,4.26-9.088,4.26-12.212,0-5.4-4.828-9.94-10.792-9.94-5.68,0-9.94,4.26-12.5,12.78l-20.448,65.6ZM2188.22-86.9c11.928.284,13.632.284,19.6.284,24.992,0,41.18-3.408,54.812-11.644,15.62-9.372,24.708-26.128,24.708-45.44,0-30.672-21.3-46.86-62.2-46.86-3.976,0-10.792.284-19.028.568-8.8.284-15.9.568-21.584.568a189.747,189.747,0,0,1-21.584-1.136c1.7,21.016,2.556,48.848,2.556,88.324,0,40.612-1.136,82.076-2.556,103.376C2173.168,0,2174.588,0,2176.86,0c2.84,0,3.976,0,13.916,1.136-1.42-12.78-2.272-36.636-2.556-83.212Zm0-10.508c-.284-8.236-.284-9.94-.284-13.632,0-24.424.852-48.564,2.272-67.592a136.212,136.212,0,0,1,24.14-1.988c31.808,0,47.428,12.78,47.428,38.908,0,29.252-20.448,45.44-57.652,45.44A112.784,112.784,0,0,1,2188.22-97.412Zm194.824-12.212c-.284-2.556-.568-4.544-.568-5.68a71.318,71.318,0,0,1,2.272-16.188,17.9,17.9,0,0,0-8.52-1.988c-14.484,0-28.4,11.644-38.056,31.24,0-7.668,0-8.52.284-14.768l.284-11.36v-3.124a65.585,65.585,0,0,1-10.792,1.136c-3.124,0-5.4-.284-11.928-1.136,2.272,38.624,2.272,42.316,2.272,63.332,0,33.228-.852,58.5-2.272,69.3A86.4,86.4,0,0,1,2328.232,0a76.978,76.978,0,0,1,11.928,1.136c-.852-9.656-1.7-31.24-1.7-46.576,0-29.82.568-40.328,2.556-46.576,3.976-12.5,14.768-21.016,26.412-21.016,5.112,0,9.088,1.42,13.632,4.544Zm86.9-23.856c-43.168,0-69.864,26.412-69.864,69.3,0,42.032,26.7,69.012,67.876,69.012,40.9,0,68.16-27.264,68.16-67.592C2536.12-107.352,2511.7-133.48,2469.948-133.48Zm-1.7,8.8c28.116,0,43.168,21.584,43.168,61.344,0,36.352-16.756,59.356-43.168,59.356-26.98,0-43.452-22.72-43.452-60.492C2424.792-101.956,2440.98-124.676,2468.244-124.676Zm122.12,14.484c0-5.964.284-17.608.568-21.3a50.639,50.639,0,0,1-11.644,1.136,50.6,50.6,0,0,1-11.076-1.136c1.7,15.336,2.272,33.512,2.272,63.332,0,26.7-.568,48.28-2.272,69.3A71.2,71.2,0,0,1,2579.856,0c2.84,0,5.4.284,12.5,1.136-1.136-12.212-1.7-27.548-1.7-51.688,0-30.672.568-39.192,3.976-48.28,4.544-13.348,16.188-21.3,31.24-21.3,13.064,0,21.584,5.112,26.412,15.62,2.84,6.532,3.408,13.632,3.408,39.476,0,22.152-1.42,53.392-2.84,66.172A93.12,93.12,0,0,1,2665.34,0a66.111,66.111,0,0,1,11.644,1.136c-.568-10.224-1.136-36.92-1.136-63.048,0-22.152,2.272-36.636,6.816-43.736,5.68-8.8,16.472-14.484,27.832-14.484,9.088,0,17.892,3.692,23.288,10.224,5.112,5.964,6.816,12.78,6.816,26.98,0,20.164-1.136,61.344-2.556,84.064a64.681,64.681,0,0,1,24.14,0c-.852-13.348-1.42-24.992-1.42-39.76,0-10.224.284-21.3.852-31.808.284-9.372.568-18.46.568-23,0-13.064-3.124-21.584-10.792-28.684-7.668-7.384-19.028-11.36-31.808-11.36-20.448,0-35.784,9.656-45.156,27.832-5.68-18.744-18.744-27.832-40.328-27.832-19.6,0-32.092,7.668-43.736,26.7Zm210.728-21.3c1.42,16.188,2.272,39.476,2.272,71.284,0,29.252-.568,45.44-2.272,61.344A83.287,83.287,0,0,1,2813.872,0a59.551,59.551,0,0,1,11.644,1.136c-.852-12.5-1.7-45.724-1.7-63.9,0-23.572.852-57.652,1.7-68.728a53.136,53.136,0,0,1-11.36,1.136A73.9,73.9,0,0,1,2801.092-131.492Zm13.348-61.628a14.128,14.128,0,0,0-14.484,14.2,14.062,14.062,0,0,0,14.2,14.2,14.062,14.062,0,0,0,14.2-14.2C2828.356-186.588,2821.824-193.12,2814.44-193.12Zm47.428,168.128c-1.988,8.236-3.976,15.62-5.964,20.448,9.372,5.964,22.436,9.372,35.5,9.372,29.252,0,51.12-18.744,51.12-44.02,0-18.46-9.088-28.116-33.228-34.648-15.336-4.26-19.6-5.964-24.424-9.372-5.4-3.692-8.8-10.508-8.8-17.892,0-13.632,10.508-23.288,25.276-23.288s24.708,7.1,27.832,19.6h2.84c2.272-8.8,2.272-9.372,7.384-21.868-13.064-5.112-21.584-6.816-33.512-6.816-29.82,0-48.564,15.336-48.564,39.76,0,10.792,4.544,21.3,11.928,26.98,5.68,4.544,11.36,7.1,27.832,11.928,19.88,5.68,26.7,12.212,26.7,24.992,0,13.916-11.644,24.708-26.98,24.708-13.916,0-23.856-6.248-32.66-19.88Zm219.532-1.42c-11.644,13.064-26.412,19.88-43.736,19.88-28.4,0-47.144-21.016-47.144-52.824V-65.6c19.312-.568,33.228-.852,50.836-.852,23.856,0,37.2.284,46.292.852.284-3.408.284-6.816.284-8.8,0-37.488-20.732-59.072-56.8-59.072-21.016,0-36.068,5.68-47.428,18.176-11.928,12.78-17.892,30.388-17.892,51.972,0,41.748,25.844,68.16,66.74,68.16,19.028,0,30.672-3.976,48.28-16.472a30.442,30.442,0,0,1,1.7-11.644l.568-2.556Zm-15.9-50.836c-9.656,1.136-12.5,1.136-31.24,1.136-21.868,0-34.932-.284-43.452-.568,1.988-29.252,17.608-48,39.76-48,14.484,0,24.992,7.384,30.388,21.3C3063.508-97.128,3064.644-90.028,3065.5-77.248Z" transform="translate(-23.856 194.256)" fill="#ddb763" opacity="0.607"/>
</svg>
