<svg xmlns="http://www.w3.org/2000/svg" width="199.084" height="1611.984" viewBox="0 0 199.084 1611.984">
  <path id="vertical-txt_contact-form" d="M180.34-29.82C161.312-13.348,141.716-5.68,119-5.68,96.56-5.68,77.248-14.2,63.616-30.1,49.984-45.724,43.452-66.74,43.452-94c0-26.7,6.248-47.144,19.028-62.764,13.916-17.324,34.08-26.98,57.084-26.98a73.86,73.86,0,0,1,54.812,23.572l1.988-.852a95.939,95.939,0,0,1,5.68-21.584c-15.9-7.668-36.636-11.644-59.924-11.644-65.6,0-106.784,38.908-106.784,101.1,0,59.356,38.908,97.98,98.832,97.98,25.56,0,47.144-5.68,63.616-17.04l.568-2.272,1.42-5.964,1.42-5.964.568-2.556ZM275.2-133.48c-43.168,0-69.864,26.412-69.864,69.3,0,42.032,26.7,69.012,67.876,69.012,40.9,0,68.16-27.264,68.16-67.592C341.368-107.352,316.944-133.48,275.2-133.48Zm-1.7,8.8c28.116,0,43.168,21.584,43.168,61.344,0,36.352-16.756,59.356-43.168,59.356-26.98,0-43.452-22.72-43.452-60.492C230.04-101.956,246.228-124.676,273.492-124.676Zm122.12,4.544c.284-4.828.284-6.816.568-11.36a40.325,40.325,0,0,1-10.224,1.136,65.893,65.893,0,0,1-12.5-1.136c1.7,19.88,2.556,36.352,2.556,54.244,0,29.82-1.136,67.592-2.556,78.384A80.043,80.043,0,0,1,385.388,0,90,90,0,0,1,397.6,1.136c-1.136-20.448-1.42-26.412-1.42-44.02,0-38.624.852-47.712,4.544-57.652,4.828-11.928,16.756-19.028,31.808-19.028,12.5,0,21.868,4.828,27.548,14.768,3.976,6.816,5.4,14.768,5.4,33.228,0,21.584-1.42,54.812-2.84,72.7A92.248,92.248,0,0,1,474.28,0c2.84,0,3.976,0,12.5,1.136-.568-8.52-.852-19.88-.852-41.464,0-8.52,0-16.472.284-23.288.568-11.36.852-21.868.852-23.856,0-15.336-3.408-24.992-11.644-33.228s-20.164-12.78-34.08-12.78c-20.164,0-35.216,8.52-45.724,26.412ZM553.8-168.7c-7.384,4.26-15.9,7.952-23.572,9.656.852,9.656,1.7,22.72,1.7,26.98v3.692H513.188a21.213,21.213,0,0,1,.852,5.68,19.3,19.3,0,0,1-.852,5.4c3.124-.284,7.952-.568,18.176-.568a91.825,91.825,0,0,1,.284,9.94c0,16.188-.568,48.564-1.136,59.356-.284,7.668-.568,15.336-.568,17.892,0,21.016,12.5,34.364,32.376,34.364,7.384,0,12.78-1.136,24.14-4.544V-7.384a42.144,42.144,0,0,1-12.5,1.988c-8.8,0-15.336-3.976-18.744-10.792-3.124-6.532-3.692-11.928-3.692-29.82V-71c.568-38.056.568-38.34,1.136-46.86h30.388a16.5,16.5,0,0,1-1.136-5.4,22.606,22.606,0,0,1,1.136-5.964l-30.672.568c.284-8.52.284-13.632.852-19.028l1.136-16.472.284-3.408Zm65.888,66.456c7.1-12.78,19.88-19.88,34.648-19.88,14.2,0,25.56,7.384,29.536,19.6,2.272,6.532,2.272,7.384,2.272,22.72v.568c-7.384,4.828-13.632,6.816-34.08,10.224-19.6,3.124-27.832,5.964-35.216,11.36-7.952,5.68-12.5,15.9-12.5,27.832,0,21.3,14.768,34.648,38.34,34.648,16.472,0,30.388-6.532,42.884-20.164,1.7,11.36,7.952,16.756,19.312,16.756,5.964,0,11.076-1.136,18.744-4.26v-5.4c-2.84.284-4.26.568-5.964.568-4.828,0-8.236-2.556-9.656-7.384-1.136-3.408-1.42-9.94-1.42-27.264,0-10.792.284-18.176.568-28.968.284-7.384.568-13.632.568-18.744,0-27.264-17.04-43.452-45.44-43.452-15.9,0-29.252,4.544-45.44,15.336a54.2,54.2,0,0,1,.852,7.952,54.2,54.2,0,0,1-.852,7.952Zm66.74,34.364v2.556l-.568,17.04v6.816c-.284,5.68-.284,7.384-.284,14.768-7.384,11.928-20.164,19.6-32.66,19.6-15.052,0-25.56-10.508-25.56-25.56,0-10.792,4.26-18.46,13.064-23.288,5.68-3.124,6.816-3.408,42.884-11.36Zm168.128-36.068c1.42-7.952,2.84-12.5,5.964-18.46-14.2-7.952-25.56-11.076-42.316-11.076-45.156,0-74.408,27.264-74.408,69.3,0,41.748,27.548,69.012,69.864,69.012,19.028,0,33.8-4.828,46.576-15.052a20.378,20.378,0,0,1-.284-3.692,37.267,37.267,0,0,1,1.136-8.8l-2.272-.568C846.888-11.076,834.96-5.68,819.624-5.68c-29.82,0-51.12-24.992-51.12-60.208,0-34.08,19.88-58.5,47.428-58.5,15.336,0,29.536,8.236,35.784,20.448ZM920.728-168.7c-7.384,4.26-15.9,7.952-23.572,9.656.852,9.656,1.7,22.72,1.7,26.98v3.692H880.116a21.213,21.213,0,0,1,.852,5.68,19.3,19.3,0,0,1-.852,5.4c3.124-.284,7.952-.568,18.176-.568a91.825,91.825,0,0,1,.284,9.94c0,16.188-.568,48.564-1.136,59.356-.284,7.668-.568,15.336-.568,17.892,0,21.016,12.5,34.364,32.376,34.364,7.384,0,12.78-1.136,24.14-4.544V-7.384a42.144,42.144,0,0,1-12.5,1.988c-8.8,0-15.336-3.976-18.744-10.792-3.124-6.532-3.692-11.928-3.692-29.82V-71c.568-38.056.568-38.34,1.136-46.86H949.98a16.5,16.5,0,0,1-1.136-5.4,22.606,22.606,0,0,1,1.136-5.964l-30.672.568c.284-8.52.284-13.632.852-19.028l1.136-16.472.284-3.408ZM1076.928-94c5.4-.284,8.52-.284,11.928-.284,22.72,0,42.032.852,56.516,2.272a25.114,25.114,0,0,1-1.136-7.668,43.272,43.272,0,0,1,1.136-9.088c-11.36,1.42-37.2,2.556-57.936,2.556-3.976,0-5.68,0-10.224-.284a58.926,58.926,0,0,1-.284-5.964c0-3.692,0-3.692.852-30.956.852-19.6,1.136-30.672,1.42-33.228,4.544-.284,7.1-.284,9.94-.284,19.028,0,46.86,1.42,62.764,2.84a66.022,66.022,0,0,1-.852-8.236,57.246,57.246,0,0,1,.852-8.236c-6.532.568-7.668.852-13.632.852-3.976,0-15.336,0-34.932.284l-23.856-.284h-7.952c-10.792,0-10.792,0-19.028-.852.852,12.78,1.988,48.564,1.988,67.876,0,49.132-1.42,105.08-3.124,123.824A106.2,106.2,0,0,1,1065.568,0,93.032,93.032,0,0,1,1079.2,1.136c-1.42-13.064-1.988-38.056-2.272-90.028Zm164.72-39.476c-43.168,0-69.864,26.412-69.864,69.3,0,42.032,26.7,69.012,67.876,69.012,40.9,0,68.16-27.264,68.16-67.592C1307.82-107.352,1283.4-133.48,1241.648-133.48Zm-1.7,8.8c28.116,0,43.168,21.584,43.168,61.344,0,36.352-16.756,59.356-43.168,59.356-26.98,0-43.452-22.72-43.452-60.492C1196.492-101.956,1212.68-124.676,1239.944-124.676Zm166.992,15.052c-.284-2.556-.568-4.544-.568-5.68a71.323,71.323,0,0,1,2.272-16.188,17.9,17.9,0,0,0-8.52-1.988c-14.484,0-28.4,11.644-38.056,31.24,0-7.668,0-8.52.284-14.768l.284-11.36v-3.124a65.584,65.584,0,0,1-10.792,1.136c-3.124,0-5.4-.284-11.928-1.136,2.272,38.624,2.272,42.316,2.272,63.332,0,33.228-.852,58.5-2.272,69.3A86.4,86.4,0,0,1,1352.124,0a76.979,76.979,0,0,1,11.928,1.136c-.852-9.656-1.7-31.24-1.7-46.576,0-29.82.568-40.328,2.556-46.576,3.976-12.5,14.768-21.016,26.412-21.016,5.112,0,9.088,1.42,13.632,4.544Zm48.564-.568c0-5.964.284-17.608.568-21.3a50.64,50.64,0,0,1-11.644,1.136,50.6,50.6,0,0,1-11.076-1.136c1.7,15.336,2.272,33.512,2.272,63.332,0,26.7-.568,48.28-2.272,69.3A71.206,71.206,0,0,1,1444.992,0c2.84,0,5.4.284,12.5,1.136-1.136-12.212-1.7-27.548-1.7-51.688,0-30.672.568-39.192,3.976-48.28,4.544-13.348,16.188-21.3,31.24-21.3,13.064,0,21.584,5.112,26.412,15.62,2.84,6.532,3.408,13.632,3.408,39.476,0,22.152-1.42,53.392-2.84,66.172A93.119,93.119,0,0,1,1530.476,0a66.11,66.11,0,0,1,11.644,1.136c-.568-10.224-1.136-36.92-1.136-63.048,0-22.152,2.272-36.636,6.816-43.736,5.68-8.8,16.472-14.484,27.832-14.484,9.088,0,17.892,3.692,23.288,10.224,5.112,5.964,6.816,12.78,6.816,26.98,0,20.164-1.136,61.344-2.556,84.064a64.681,64.681,0,0,1,24.14,0c-.852-13.348-1.42-24.992-1.42-39.76,0-10.224.284-21.3.852-31.808.284-9.372.568-18.46.568-23,0-13.064-3.124-21.584-10.792-28.684-7.668-7.384-19.028-11.36-31.808-11.36-20.448,0-35.784,9.656-45.156,27.832-5.68-18.744-18.744-27.832-40.328-27.832-19.6,0-32.092,7.668-43.736,26.7Z" transform="translate(4.828 -15.336) rotate(90)" fill="#ddb763" opacity="0.6"/>
</svg>
