<svg xmlns="http://www.w3.org/2000/svg" width="284.285" height="1618.516" viewBox="0 0 284.285 1618.516">
  <path id="vertical-txt_policy" d="M49.132-86.9c11.928.284,13.632.284,19.6.284,24.992,0,41.18-3.408,54.812-11.644,15.62-9.372,24.708-26.128,24.708-45.44,0-30.672-21.3-46.86-62.2-46.86-3.976,0-10.792.284-19.028.568-8.8.284-15.9.568-21.584.568a189.746,189.746,0,0,1-21.584-1.136c1.7,21.016,2.556,48.848,2.556,88.324,0,40.612-1.136,82.076-2.556,103.376C34.08,0,35.5,0,37.772,0c2.84,0,3.976,0,13.916,1.136-1.42-12.78-2.272-36.636-2.556-83.212Zm0-10.508c-.284-8.236-.284-9.94-.284-13.632,0-24.424.852-48.564,2.272-67.592a136.214,136.214,0,0,1,24.14-1.988c31.808,0,47.428,12.78,47.428,38.908,0,29.252-20.448,45.44-57.652,45.44A112.788,112.788,0,0,1,49.132-97.412Zm194.824-12.212c-.284-2.556-.568-4.544-.568-5.68a71.326,71.326,0,0,1,2.272-16.188,17.9,17.9,0,0,0-8.52-1.988c-14.484,0-28.4,11.644-38.056,31.24,0-7.668,0-8.52.284-14.768l.284-11.36v-3.124a65.583,65.583,0,0,1-10.792,1.136c-3.124,0-5.4-.284-11.928-1.136C179.2-92.868,179.2-89.176,179.2-68.16c0,33.228-.852,58.5-2.272,69.3A86.4,86.4,0,0,1,189.144,0a76.979,76.979,0,0,1,11.928,1.136c-.852-9.656-1.7-31.24-1.7-46.576,0-29.82.568-40.328,2.556-46.576,3.976-12.5,14.768-21.016,26.412-21.016,5.112,0,9.088,1.42,13.632,4.544Zm26.412-21.868c1.42,16.188,2.272,39.476,2.272,71.284,0,29.252-.568,45.44-2.272,61.344A83.29,83.29,0,0,1,283.148,0a59.553,59.553,0,0,1,11.644,1.136c-.852-12.5-1.7-45.724-1.7-63.9,0-23.572.852-57.652,1.7-68.728a53.138,53.138,0,0,1-11.36,1.136A73.9,73.9,0,0,1,270.368-131.492Zm13.348-61.628a14.128,14.128,0,0,0-14.484,14.2,14.062,14.062,0,0,0,14.2,14.2,14.062,14.062,0,0,0,14.2-14.2C297.632-186.588,291.1-193.12,283.716-193.12ZM384.82-30.1C367.5-69.3,355.568-99.4,344.776-131.492a99.265,99.265,0,0,1-13.632,1.136,74.878,74.878,0,0,1-12.5-1.136c5.4,9.94,7.668,15.62,29.252,67.024,15.052,36.352,21.584,52.824,25.844,65.6A35.437,35.437,0,0,1,381.128,0c1.7,0,3.124.284,7.668,1.136,6.248-21.3,35.784-90.6,56.232-132.628a38.9,38.9,0,0,1-8.52,1.136c-1.988,0-3.692-.284-9.088-1.136-4.544,15.9-28.968,78.384-40.9,105.648Zm88.608-72.136c7.1-12.78,19.88-19.88,34.648-19.88,14.2,0,25.56,7.384,29.536,19.6,2.272,6.532,2.272,7.384,2.272,22.72v.568c-7.384,4.828-13.632,6.816-34.08,10.224-19.6,3.124-27.832,5.964-35.216,11.36-7.952,5.68-12.5,15.9-12.5,27.832,0,21.3,14.768,34.648,38.34,34.648,16.472,0,30.388-6.532,42.884-20.164,1.7,11.36,7.952,16.756,19.312,16.756,5.964,0,11.076-1.136,18.744-4.26v-5.4c-2.84.284-4.26.568-5.964.568-4.828,0-8.236-2.556-9.656-7.384-1.136-3.408-1.42-9.94-1.42-27.264,0-10.792.284-18.176.568-28.968.284-7.384.568-13.632.568-18.744,0-27.264-17.04-43.452-45.44-43.452-15.9,0-29.252,4.544-45.44,15.336a54.2,54.2,0,0,1,.852,7.952,54.2,54.2,0,0,1-.852,7.952Zm66.74,34.364v2.556L539.6-48.28v6.816c-.284,5.68-.284,7.384-.284,14.768-7.384,11.928-20.164,19.6-32.66,19.6C491.6-7.1,481.1-17.608,481.1-32.66c0-10.792,4.26-18.46,13.064-23.288,5.68-3.124,6.816-3.408,42.884-11.36ZM708.3-103.944c1.42-7.952,2.84-12.5,5.964-18.46-14.2-7.952-25.56-11.076-42.316-11.076-45.156,0-74.408,27.264-74.408,69.3,0,41.748,27.548,69.012,69.864,69.012,19.028,0,33.8-4.828,46.576-15.052a20.378,20.378,0,0,1-.284-3.692,37.267,37.267,0,0,1,1.136-8.8l-2.272-.568C700.628-11.076,688.7-5.68,673.364-5.68c-29.82,0-51.12-24.992-51.12-60.208,0-34.08,19.88-58.5,47.428-58.5,15.336,0,29.536,8.236,35.784,20.448Zm91.164,78.1c-13.916-30.388-35.5-85.2-41.464-105.648a57.6,57.6,0,0,1-11.644,1.136,110.076,110.076,0,0,1-14.768-1.136c4.544,9.088,6.816,14.484,15.9,36.068q5.538,13.632,13.632,32.376c21.584,51.4,22.152,52.54,26.128,63.9C783.272,11.36,774.184,28.968,761.12,51.12c-7.1,12.212-12.212,20.448-14.484,24.708a46.483,46.483,0,0,1,10.792-1.136A30.083,30.083,0,0,1,768.5,76.4c7.668-22.436,26.7-66.74,57.084-134.332,7.668-16.756,14.2-30.388,22.436-47.712,6.532-14.768,8.236-18.176,11.928-25.844a52.573,52.573,0,0,1-9.94,1.136,32.04,32.04,0,0,1-8.52-1.136A1121.5,1121.5,0,0,1,799.46-25.844ZM979.8-86.9c11.928.284,13.632.284,19.6.284,24.992,0,41.18-3.408,54.812-11.644,15.62-9.372,24.708-26.128,24.708-45.44,0-30.672-21.3-46.86-62.2-46.86-3.976,0-10.792.284-19.028.568-8.8.284-15.9.568-21.584.568a189.744,189.744,0,0,1-21.584-1.136c1.7,21.016,2.556,48.848,2.556,88.324,0,40.612-1.136,82.076-2.556,103.376C964.748,0,966.168,0,968.44,0c2.84,0,3.976,0,13.916,1.136-1.42-12.78-2.272-36.636-2.556-83.212Zm0-10.508c-.284-8.236-.284-9.94-.284-13.632,0-24.424.852-48.564,2.272-67.592a136.215,136.215,0,0,1,24.14-1.988c31.808,0,47.428,12.78,47.428,38.908,0,29.252-20.448,45.44-57.652,45.44A112.787,112.787,0,0,1,979.8-97.412Zm184.032-36.068c-43.168,0-69.864,26.412-69.864,69.3,0,42.032,26.7,69.012,67.876,69.012,40.9,0,68.16-27.264,68.16-67.592C1230-107.352,1205.58-133.48,1163.832-133.48Zm-1.7,8.8c28.116,0,43.168,21.584,43.168,61.344,0,36.352-16.756,59.356-43.168,59.356-26.98,0-43.452-22.72-43.452-60.492C1118.676-101.956,1134.864-124.676,1162.128-124.676Zm99.4-83.212c1.136,19.6,1.7,44.02,1.7,95.708,0,70.432,0,79.236-1.7,113.316A86.4,86.4,0,0,1,1273.74,0a83.351,83.351,0,0,1,11.928,1.136c-.852-15.052-1.7-59.356-1.7-106.5,0-33.512.852-87.756,1.7-102.524a77.467,77.467,0,0,1-11.644.852A95.6,95.6,0,0,1,1261.528-207.888Zm61.628,76.4c1.42,16.188,2.272,39.476,2.272,71.284,0,29.252-.568,45.44-2.272,61.344A83.289,83.289,0,0,1,1335.936,0a59.553,59.553,0,0,1,11.644,1.136c-.852-12.5-1.7-45.724-1.7-63.9,0-23.572.852-57.652,1.7-68.728a53.138,53.138,0,0,1-11.36,1.136A73.9,73.9,0,0,1,1323.156-131.492ZM1336.5-193.12a14.128,14.128,0,0,0-14.484,14.2,14.062,14.062,0,0,0,14.2,14.2,14.062,14.062,0,0,0,14.2-14.2C1350.42-186.588,1343.888-193.12,1336.5-193.12Zm154.212,89.176c1.42-7.952,2.84-12.5,5.964-18.46-14.2-7.952-25.56-11.076-42.316-11.076-45.156,0-74.408,27.264-74.408,69.3,0,41.748,27.548,69.012,69.864,69.012,19.028,0,33.8-4.828,46.576-15.052a20.378,20.378,0,0,1-.284-3.692,37.267,37.267,0,0,1,1.136-8.8l-2.272-.568C1483.048-11.076,1471.12-5.68,1455.784-5.68c-29.82,0-51.12-24.992-51.12-60.208,0-34.08,19.88-58.5,47.428-58.5,15.336,0,29.536,8.236,35.784,20.448Zm91.164,78.1c-13.916-30.388-35.5-85.2-41.464-105.648a57.6,57.6,0,0,1-11.644,1.136A110.075,110.075,0,0,1,1514-131.492c4.544,9.088,6.816,14.484,15.9,36.068q5.538,13.632,13.632,32.376c21.584,51.4,22.152,52.54,26.128,63.9-3.976,10.508-13.064,28.116-26.128,50.268-7.1,12.212-12.212,20.448-14.484,24.708a46.483,46.483,0,0,1,10.792-1.136,30.084,30.084,0,0,1,11.076,1.7c7.668-22.436,26.7-66.74,57.084-134.332,7.668-16.756,14.2-30.388,22.436-47.712,6.532-14.768,8.236-18.176,11.928-25.844a52.574,52.574,0,0,1-9.94,1.136,32.04,32.04,0,0,1-8.52-1.136A1121.5,1121.5,0,0,1,1581.88-25.844Z" transform="translate(76.396 -23.856) rotate(90)" fill="#ddb763" opacity="0.6"/>
</svg>
