<svg xmlns="http://www.w3.org/2000/svg" width="284.568" height="1280.556" viewBox="0 0 284.568 1280.556">
  <path id="vertical-txt_philosophy" d="M49.132-86.9c11.928.284,13.632.284,19.6.284,24.992,0,41.18-3.408,54.812-11.644,15.62-9.372,24.708-26.128,24.708-45.44,0-30.672-21.3-46.86-62.2-46.86-3.976,0-10.792.284-19.028.568-8.8.284-15.9.568-21.584.568a189.746,189.746,0,0,1-21.584-1.136c1.7,21.016,2.556,48.848,2.556,88.324,0,40.612-1.136,82.076-2.556,103.376C34.08,0,35.5,0,37.772,0c2.84,0,3.976,0,13.916,1.136-1.42-12.78-2.272-36.636-2.556-83.212Zm0-10.508c-.284-8.236-.284-9.94-.284-13.632,0-24.424.852-48.564,2.272-67.592a136.214,136.214,0,0,1,24.14-1.988c31.808,0,47.428,12.78,47.428,38.908,0,29.252-20.448,45.44-57.652,45.44A112.788,112.788,0,0,1,49.132-97.412ZM177.5-104.228c0,57.652-.568,84.064-1.988,105.364C182.328.284,184.6,0,187.44,0s4.828.284,12.212,1.136c-.852-13.064-1.42-35.5-1.42-61.912,0-23.288,1.136-32.376,5.4-40.612,5.964-11.36,17.608-18.176,30.956-18.176,10.224,0,19.88,4.544,25.56,11.644,5.112,6.816,7.668,16.472,7.668,30.672,0,25.56-1.136,66.74-2.272,78.384A77.467,77.467,0,0,1,276.9,0c2.556,0,3.692,0,12.78,1.136-.852-11.076-1.42-24.708-1.42-42.884,0-7.668.284-17.04.568-26.7.284-7.668.568-14.768.568-19.028,0-15.62-3.976-25.844-13.064-34.08-8.52-7.668-20.164-11.928-32.944-11.928-20.732,0-37.488,10.508-45.156,28.116v-5.964c0-51.688.284-72.7,1.42-96.844a44.912,44.912,0,0,1-10.792,1.136,70.624,70.624,0,0,1-13.348-1.136c1.136,17.04,1.988,50.836,1.988,77.532Zm151.088-27.264c1.42,16.188,2.272,39.476,2.272,71.284,0,29.252-.568,45.44-2.272,61.344A83.289,83.289,0,0,1,341.368,0a59.553,59.553,0,0,1,11.644,1.136c-.852-12.5-1.7-45.724-1.7-63.9,0-23.572.852-57.652,1.7-68.728a53.138,53.138,0,0,1-11.36,1.136A73.9,73.9,0,0,1,328.588-131.492Zm13.348-61.628a14.128,14.128,0,0,0-14.484,14.2,14.062,14.062,0,0,0,14.2,14.2,14.062,14.062,0,0,0,14.2-14.2C355.852-186.588,349.32-193.12,341.936-193.12ZM390.5-207.888c1.136,19.6,1.7,44.02,1.7,95.708,0,70.432,0,79.236-1.7,113.316A86.4,86.4,0,0,1,402.712,0,83.353,83.353,0,0,1,414.64,1.136c-.852-15.052-1.7-59.356-1.7-106.5,0-33.512.852-87.756,1.7-102.524a77.469,77.469,0,0,1-11.644.852A95.6,95.6,0,0,1,390.5-207.888ZM516.312-133.48c-43.168,0-69.864,26.412-69.864,69.3,0,42.032,26.7,69.012,67.876,69.012,40.9,0,68.16-27.264,68.16-67.592C582.484-107.352,558.06-133.48,516.312-133.48Zm-1.7,8.8c28.116,0,43.168,21.584,43.168,61.344,0,36.352-16.756,59.356-43.168,59.356-26.98,0-43.452-22.72-43.452-60.492C471.156-101.956,487.344-124.676,514.608-124.676Zm98.264,99.684c-1.988,8.236-3.976,15.62-5.964,20.448,9.372,5.964,22.436,9.372,35.5,9.372,29.252,0,51.12-18.744,51.12-44.02,0-18.46-9.088-28.116-33.228-34.648-15.336-4.26-19.6-5.964-24.424-9.372-5.4-3.692-8.8-10.508-8.8-17.892,0-13.632,10.508-23.288,25.276-23.288s24.708,7.1,27.832,19.6h2.84c2.272-8.8,2.272-9.372,7.384-21.868-13.064-5.112-21.584-6.816-33.512-6.816-29.82,0-48.564,15.336-48.564,39.76,0,10.792,4.544,21.3,11.928,26.98,5.68,4.544,11.36,7.1,27.832,11.928,19.88,5.68,26.7,12.212,26.7,24.992,0,13.916-11.644,24.708-26.98,24.708-13.916,0-23.856-6.248-32.66-19.88ZM786.68-133.48c-43.168,0-69.864,26.412-69.864,69.3,0,42.032,26.7,69.012,67.876,69.012,40.9,0,68.16-27.264,68.16-67.592C852.852-107.352,828.428-133.48,786.68-133.48Zm-1.7,8.8c28.116,0,43.168,21.584,43.168,61.344,0,36.352-16.756,59.356-43.168,59.356-26.98,0-43.452-22.72-43.452-60.492C741.524-101.956,757.712-124.676,784.976-124.676ZM886.648-9.94c0,4.828-.284,13.916-.568,28.968-.284,9.94-.284,16.472-.568,24.992-.284,17.608-.568,23.288-1.136,31.808a63.065,63.065,0,0,1,12.212-1.136,70.155,70.155,0,0,1,12.5,1.136c-1.136-29.252-1.42-40.612-1.7-70.148L907.1-12.5v-6.816c7.668,14.484,23.856,23.288,43.736,23.288,36.068,0,61.06-28.968,61.06-71.284,0-40.044-23.572-66.74-59.072-66.74-22.436,0-39.76,11.076-46.86,30.388a33.517,33.517,0,0,1-.284-4.544,229.738,229.738,0,0,1,.852-23.288,93.53,93.53,0,0,1-10.792.852c-2.556,0-5.112-.284-11.644-.852,1.42,28.968,2.272,55.1,2.272,92.016ZM948.276-122.4c24.424,0,38.908,21.584,38.908,57.936,0,36.636-15.336,58.5-40.9,58.5-25.276,0-40.044-20.448-40.044-55.664,0-18.744,2.556-31.524,8.236-41.748C921.3-115.3,933.508-122.4,948.276-122.4Zm97.128,18.176c0,57.652-.568,84.064-1.988,105.364C1050.232.284,1052.5,0,1055.344,0s4.828.284,12.212,1.136c-.852-13.064-1.42-35.5-1.42-61.912,0-23.288,1.136-32.376,5.4-40.612,5.964-11.36,17.608-18.176,30.956-18.176,10.224,0,19.88,4.544,25.56,11.644,5.112,6.816,7.668,16.472,7.668,30.672,0,25.56-1.136,66.74-2.272,78.384A77.467,77.467,0,0,1,1144.8,0c2.556,0,3.692,0,12.78,1.136-.852-11.076-1.42-24.708-1.42-42.884,0-7.668.284-17.04.568-26.7.284-7.668.568-14.768.568-19.028,0-15.62-3.976-25.844-13.064-34.08-8.52-7.668-20.164-11.928-32.944-11.928-20.732,0-37.488,10.508-45.156,28.116v-5.964c0-51.688.284-72.7,1.42-96.844a44.912,44.912,0,0,1-10.792,1.136,70.624,70.624,0,0,1-13.348-1.136c1.136,17.04,1.988,50.836,1.988,77.532ZM1243.92-25.844c-13.916-30.388-35.5-85.2-41.464-105.648a57.6,57.6,0,0,1-11.644,1.136,110.075,110.075,0,0,1-14.768-1.136c4.544,9.088,6.816,14.484,15.9,36.068q5.538,13.632,13.632,32.376c21.584,51.4,22.152,52.54,26.128,63.9-3.976,10.508-13.064,28.116-26.128,50.268-7.1,12.212-12.212,20.448-14.484,24.708a46.483,46.483,0,0,1,10.792-1.136,30.084,30.084,0,0,1,11.076,1.7c7.668-22.436,26.7-66.74,57.084-134.332,7.668-16.756,14.2-30.388,22.436-47.712,6.532-14.768,8.236-18.176,11.928-25.844a52.574,52.574,0,0,1-9.94,1.136,32.04,32.04,0,0,1-8.52-1.136A1121.5,1121.5,0,0,1,1243.92-25.844Z" transform="translate(76.396 -23.856) rotate(90)" fill="#ddb763" opacity="0.607"/>
</svg>
