<svg xmlns="http://www.w3.org/2000/svg" width="199.084" height="1254.712" viewBox="0 0 199.084 1254.712">
  <path id="vertical-txt_ourvision" d="M120.132-194.256c-64.468,0-104.8,38.056-104.8,99.4,0,61.628,40.044,99.684,105.08,99.684,64.468,0,105.364-38.056,105.364-97.98C225.78-156.484,186.3-194.256,120.132-194.256Zm.284,9.088c25.844,0,48.564,11.076,61.628,30.388,10.792,15.62,15.62,34.932,15.62,61.344,0,55.1-29.252,89.176-77.248,89.176-25.844,0-48.28-11.076-61.344-30.388C48.564-49.7,43.452-69.58,43.452-94.856c0-24.992,5.112-45.156,15.62-59.924C72.7-174.376,94.572-185.168,120.416-185.168ZM261.848-65.036c-.284,9.372-.568,17.892-.568,21.868,0,16.188,3.976,26.98,13.064,35.5,8.236,8.236,19.6,12.5,32.376,12.5,20.448,0,37.2-10.508,46.008-28.684-.284,16.472-.284,18.744-.852,24.992A60.281,60.281,0,0,1,362.668,0,76.98,76.98,0,0,1,374.6,1.136c-1.42-11.644-1.988-28.116-1.988-62.2,0-25.56.852-54.528,1.988-70.432a69.5,69.5,0,0,1-12.212,1.136,62.3,62.3,0,0,1-11.928-1.136c.568,7.384.852,9.656,1.136,24.424l.284,20.448c-.284,44.02-.284,44.02-3.124,52.824C343.64-19.028,331.428-9.94,316.092-9.94c-12.212,0-22.436-5.964-28.116-16.472-3.976-7.1-5.112-15.052-5.112-36.636,0-21.3,1.136-53.392,2.272-68.444a74.877,74.877,0,0,1-12.5,1.136A61.615,61.615,0,0,1,261-131.492c.852,9.94,1.136,15.62,1.136,31.808Zm218.68-44.588c-.284-2.556-.568-4.544-.568-5.68a71.326,71.326,0,0,1,2.272-16.188,17.9,17.9,0,0,0-8.52-1.988c-14.484,0-28.4,11.644-38.056,31.24,0-7.668,0-8.52.284-14.768l.284-11.36v-3.124a65.583,65.583,0,0,1-10.792,1.136c-3.124,0-5.4-.284-11.928-1.136,2.272,38.624,2.272,42.316,2.272,63.332,0,33.228-.852,58.5-2.272,69.3A86.4,86.4,0,0,1,425.716,0a76.979,76.979,0,0,1,11.928,1.136c-.852-9.656-1.7-31.24-1.7-46.576,0-29.82.568-40.328,2.556-46.576,3.976-12.5,14.768-21.016,26.412-21.016,5.112,0,9.088,1.42,13.632,4.544Zm110.192-80.94a69.712,69.712,0,0,1-13.632,1.136,85.23,85.23,0,0,1-15.052-1.136l3.124,7.384L576.8-155.064l12.5,30.388,12.78,30.1c4.828,11.36,9.088,21.868,12.78,30.956,3.976,9.94,5.4,13.916,23,59.64l1.988,5.112C644.68.284,646.384,0,648.372,0s3.692.284,8.236,1.136c6.532-19.028,7.1-20.448,26.412-66.74q32.376-76.68,53.96-124.96a63.276,63.276,0,0,1-10.224,1.136,69.184,69.184,0,0,1-10.508-1.136c-5.112,19.88-44.3,120.984-62.48,161.88-34.932-84.632-39.192-95.14-60.208-153.644Zm170.4,59.072c1.42,16.188,2.272,39.476,2.272,71.284,0,29.252-.568,45.44-2.272,61.344A83.289,83.289,0,0,1,773.9,0a59.553,59.553,0,0,1,11.644,1.136c-.852-12.5-1.7-45.724-1.7-63.9,0-23.572.852-57.652,1.7-68.728a53.138,53.138,0,0,1-11.36,1.136A73.9,73.9,0,0,1,761.12-131.492Zm13.348-61.628a14.128,14.128,0,0,0-14.484,14.2,14.062,14.062,0,0,0,14.2,14.2,14.062,14.062,0,0,0,14.2-14.2C788.384-186.588,781.852-193.12,774.468-193.12ZM821.9-24.992c-1.988,8.236-3.976,15.62-5.964,20.448,9.372,5.964,22.436,9.372,35.5,9.372,29.252,0,51.12-18.744,51.12-44.02,0-18.46-9.088-28.116-33.228-34.648-15.336-4.26-19.6-5.964-24.424-9.372-5.4-3.692-8.8-10.508-8.8-17.892,0-13.632,10.508-23.288,25.276-23.288s24.708,7.1,27.832,19.6h2.84c2.272-8.8,2.272-9.372,7.384-21.868-13.064-5.112-21.584-6.816-33.512-6.816-29.82,0-48.564,15.336-48.564,39.76,0,10.792,4.544,21.3,11.928,26.98,5.68,4.544,11.36,7.1,27.832,11.928,19.88,5.68,26.7,12.212,26.7,24.992,0,13.916-11.644,24.708-26.98,24.708-13.916,0-23.856-6.248-32.66-19.88Zm109.624-106.5c1.42,16.188,2.272,39.476,2.272,71.284,0,29.252-.568,45.44-2.272,61.344A83.289,83.289,0,0,1,944.3,0a59.553,59.553,0,0,1,11.644,1.136c-.852-12.5-1.7-45.724-1.7-63.9,0-23.572.852-57.652,1.7-68.728a53.138,53.138,0,0,1-11.36,1.136A73.9,73.9,0,0,1,931.52-131.492Zm13.348-61.628a14.128,14.128,0,0,0-14.484,14.2,14.062,14.062,0,0,0,14.2,14.2,14.062,14.062,0,0,0,14.2-14.2C958.784-186.588,952.252-193.12,944.868-193.12Zm113.316,59.64c-43.168,0-69.864,26.412-69.864,69.3,0,42.032,26.7,69.012,67.876,69.012,40.9,0,68.16-27.264,68.16-67.592C1124.356-107.352,1099.932-133.48,1058.184-133.48Zm-1.7,8.8c28.116,0,43.168,21.584,43.168,61.344,0,36.352-16.756,59.356-43.168,59.356-26.98,0-43.452-22.72-43.452-60.492C1013.028-101.956,1029.216-124.676,1056.48-124.676Zm122.12,4.544c.284-4.828.284-6.816.568-11.36a40.325,40.325,0,0,1-10.224,1.136,65.894,65.894,0,0,1-12.5-1.136c1.7,19.88,2.556,36.352,2.556,54.244,0,29.82-1.136,67.592-2.556,78.384A80.044,80.044,0,0,1,1168.376,0a90,90,0,0,1,12.212,1.136c-1.136-20.448-1.42-26.412-1.42-44.02,0-38.624.852-47.712,4.544-57.652,4.828-11.928,16.756-19.028,31.808-19.028,12.5,0,21.868,4.828,27.548,14.768,3.976,6.816,5.4,14.768,5.4,33.228,0,21.584-1.42,54.812-2.84,72.7A92.248,92.248,0,0,1,1257.268,0c2.84,0,3.976,0,12.5,1.136-.568-8.52-.852-19.88-.852-41.464,0-8.52,0-16.472.284-23.288.568-11.36.852-21.868.852-23.856,0-15.336-3.408-24.992-11.644-33.228s-20.164-12.78-34.08-12.78c-20.164,0-35.216,8.52-45.724,26.412Z" transform="translate(4.828 -15.336) rotate(90)" fill="#ddb763" opacity="0.607"/>
</svg>
