<svg width="40" height="40" viewBox="0 0 40 40" fill="none" xmlns="http://www.w3.org/2000/svg">
<g clip-path="url(#clip0_10347_14)">
<path d="M7.50506 21.9537C8.21597 17.1874 11.5549 13.2594 16.0217 11.65C17.5647 11.0952 20.9444 10.5231 23.9078 11.2956C28.9409 12.608 32.7977 16.7885 33.568 21.9537M33.3287 26.9642C31.9158 32.6371 26.7207 36.8505 20.5362 36.8505C14.3516 36.8505 9.15648 32.6371 7.74358 26.9642M24.912 29.7805C24.0903 31.0209 22.4075 31.8723 20.4666 31.8723C18.5258 31.8723 16.8429 31.0212 16.0213 29.7805M7.3924 26.9642C5.65435 26.9642 4.2434 25.5724 4.2434 23.8581C4.2434 22.1438 5.65435 20.7521 7.3924 20.7521M33.7083 26.9642C35.4463 26.9642 36.8573 25.5724 36.8573 23.8581C36.8573 22.1438 35.4463 20.7521 33.7083 20.7521M30.3779 19.4033C25.2511 18.1392 23.6696 13.9851 23.6696 13.9851C23.6696 13.9851 16.7368 20.1079 10.6949 18.771M27.7766 12.9555C27.7766 12.9555 30.644 8.60607 33.3621 10.4603C36.0807 12.3141 36.9047 13.8801 39.8342 13.2172C39.8342 13.2172 37.1063 18.1296 32.0619 17.4318M13.0576 12.9555C13.0576 12.9555 10.1906 8.60607 7.47204 10.4599C4.75347 12.3137 3.92951 13.8798 1 13.2169C1 13.2169 3.72789 18.1292 8.77227 17.4314" stroke="#311D04" stroke-linecap="round" stroke-linejoin="round"/>
<path fill-rule="evenodd" clip-rule="evenodd" d="M15.0129 20.6963C15.9891 20.6963 16.7816 21.478 16.7816 22.4409C16.7816 23.4038 15.9891 24.1855 15.0129 24.1855C14.0366 24.1855 13.2441 23.4038 13.2441 22.4409C13.2441 21.478 14.0366 20.6963 15.0129 20.6963Z" fill="#311D04"/>
<path fill-rule="evenodd" clip-rule="evenodd" d="M25.2526 20.6963C26.2289 20.6963 27.0214 21.478 27.0214 22.4409C27.0214 23.4038 26.2289 24.1855 25.2526 24.1855C24.2764 24.1855 23.4839 23.4038 23.4839 22.4409C23.4839 21.478 24.2764 20.6963 25.2526 20.6963Z" fill="#311D04"/>
</g>
<defs>
<clipPath id="clip0_10347_14">
<rect width="40" height="40" fill="white"/>
</clipPath>
</defs>
</svg>
