<svg width="40" height="40" viewBox="0 0 40 40" fill="none" xmlns="http://www.w3.org/2000/svg">
<path d="M5.32496 19.2885C6.1247 13.8321 9.88087 9.33552 14.9057 7.49318C16.6415 6.85802 20.4436 6.20311 23.7772 7.08743C29.4392 8.58982 33.7774 13.3755 34.6445 19.2885M34.3757 25.0239C32.7863 31.5182 26.942 36.3416 19.9847 36.3416C13.0274 36.3416 7.18316 31.5182 5.59373 25.0239M24.9068 28.248C23.9826 29.6684 22.0894 30.6426 19.9061 30.6426C17.7227 30.6426 15.83 29.6684 14.9053 28.248M5.19823 25.0239C3.24301 25.0239 1.65576 23.4307 1.65576 21.4682C1.65576 19.5057 3.24301 17.9125 5.19823 17.9125M34.8022 25.0239C36.7575 25.0239 38.3447 23.4307 38.3447 21.4682C38.3447 19.5057 36.7575 17.9125 34.8022 17.9125M8.56851 17.9125C8.56851 17.9125 11.9672 15.0845 12.791 11.9166C12.791 11.9166 20.6966 14.3976 27.7497 11.9166C27.7497 11.9166 28.1264 15.4315 31.9472 17.9125" stroke="#311D04" stroke-linecap="round" stroke-linejoin="round"/>
<path fill-rule="evenodd" clip-rule="evenodd" d="M14.2402 18.3364C15.3385 18.3364 16.23 19.2313 16.23 20.3336C16.23 21.4359 15.3385 22.3308 14.2402 22.3308C13.142 22.3308 12.2505 21.4359 12.2505 20.3336C12.2505 19.2313 13.142 18.3364 14.2402 18.3364Z" fill="#311D04"/>
<path fill-rule="evenodd" clip-rule="evenodd" d="M25.7598 18.3364C26.858 18.3364 27.7495 19.2313 27.7495 20.3336C27.7495 21.4359 26.858 22.3308 25.7598 22.3308C24.6615 22.3308 23.77 21.4359 23.77 20.3336C23.77 19.2313 24.6615 18.3364 25.7598 18.3364Z" fill="#311D04"/>
</svg>
