<svg width="40" height="40" viewBox="0 0 40 40" fill="none" xmlns="http://www.w3.org/2000/svg">
<path d="M29.6499 12.4868C27.2511 12.4868 25.2998 10.5179 25.2998 8.09738C25.2998 5.67689 27.2511 3.70703 29.6499 3.70703C32.0487 3.70703 34 5.67594 34 8.09738C34 10.5188 32.0487 12.4868 29.6499 12.4868ZM29.6499 4.84788C27.8748 4.84788 26.4304 6.3053 26.4304 8.09738C26.4304 9.88945 27.8748 11.3459 29.6499 11.3459C31.425 11.3459 32.8694 9.8885 32.8694 8.09738C32.8694 6.30625 31.425 4.84788 29.6499 4.84788Z" fill="#311D04"/>
<path d="M32.0976 36.9997C31.7857 36.9997 31.5323 36.744 31.5323 36.4293V18.0579C31.5323 17.0102 30.6871 16.1574 29.6488 16.1574C28.6105 16.1574 27.7654 17.0102 27.7654 18.0579V36.4293C27.7654 36.744 27.5119 36.9997 27.2001 36.9997C26.8882 36.9997 26.6348 36.744 26.6348 36.4293V18.0579C26.6348 16.3809 27.9868 15.0166 29.6488 15.0166C31.3109 15.0166 32.6629 16.3809 32.6629 18.0579V36.4293C32.6629 36.744 32.4094 36.9997 32.0976 36.9997Z" fill="#311D04"/>
<path d="M23.0395 36.9997C22.7276 36.9997 22.4742 36.744 22.4742 36.4293V18.0579C22.4742 17.0102 21.629 16.1574 20.5907 16.1574C19.5524 16.1574 18.7073 17.0102 18.7073 18.0579V36.4293C18.7073 36.744 18.4538 36.9997 18.142 36.9997C17.8301 36.9997 17.5767 36.744 17.5767 36.4293V18.0579C17.5767 16.3809 18.9287 15.0166 20.5907 15.0166C22.2527 15.0166 23.6048 16.3809 23.6048 18.0579V36.4293C23.6048 36.744 23.3513 36.9997 23.0395 36.9997Z" fill="#311D04"/>
<path d="M13.9814 36.9997C13.6695 36.9997 13.4161 36.744 13.4161 36.4293V18.0579C13.4161 17.0102 12.5709 16.1574 11.5326 16.1574C10.4943 16.1574 9.64918 17.0102 9.64918 18.0579V36.4293C9.64918 36.744 9.39573 36.9997 9.08387 36.9997C8.772 36.9997 8.51855 36.744 8.51855 36.4293V18.0579C8.51855 16.3809 9.8706 15.0166 11.5326 15.0166C13.1946 15.0166 14.5467 16.3809 14.5467 18.0579V36.4293C14.5467 36.744 14.2932 36.9997 13.9814 36.9997Z" fill="#311D04"/>
<path d="M29.6498 16.1577C29.3379 16.1577 29.0845 15.9019 29.0845 15.5873V11.9156C29.0845 11.601 29.3379 11.3452 29.6498 11.3452C29.9617 11.3452 30.2151 11.601 30.2151 11.9156V15.5873C30.2151 15.9019 29.9617 16.1577 29.6498 16.1577Z" fill="#311D04"/>
<path d="M20.5917 16.158C20.2798 16.158 20.0263 15.9022 20.0263 15.5875V11.9121L15.9683 8.53713C15.843 8.43255 15.7676 8.27854 15.7629 8.11406C15.7582 7.94959 15.8232 7.79178 15.9429 7.67959L20.7556 3.1533C20.9836 2.93844 21.3416 2.9508 21.5546 3.18182C21.7675 3.41189 21.7543 3.77315 21.5263 3.98801L17.1847 8.07033L20.9506 11.2019C21.0807 11.3103 21.156 11.4719 21.156 11.6421V15.5866C21.156 15.9013 20.9026 16.157 20.5907 16.157L20.5917 16.158Z" fill="#311D04"/>
<path d="M11.5327 16.1577C11.2208 16.1577 10.9674 15.9019 10.9674 15.5873V12.1438L6.15563 7.04234C5.94081 6.81417 5.94929 6.4529 6.17542 6.23614C6.40154 6.01938 6.75957 6.02793 6.97439 6.2561L11.9416 11.524C12.0415 11.6304 12.0971 11.7711 12.0971 11.9175V15.5892C12.0971 15.9038 11.8436 16.1596 11.5318 16.1596L11.5327 16.1577Z" fill="#311D04"/>
</svg>
