<svg width="40" height="40" viewBox="0 0 40 40" fill="none" xmlns="http://www.w3.org/2000/svg">
<path d="M17.8308 31.6277C17.6973 31.6277 17.5638 31.6085 17.432 31.5701C16.1516 31.1955 15.193 29.6 14.5845 26.8272C14.3894 25.94 14.1215 25.0798 13.7886 24.2702C13.0243 22.4127 12.1367 19.8741 12.2514 18.3231C12.3439 17.0752 13.0114 14.7216 14.926 13.8186C16.5128 13.0694 18.465 13.5401 20.727 15.2185C20.9564 15.3888 21.0069 15.7163 20.84 15.9504C20.6731 16.1844 20.3522 16.2359 20.1228 16.0656C18.1851 14.6282 16.5821 14.1915 15.3573 14.7697C13.8724 15.47 13.3469 17.4524 13.2759 18.4026C13.198 19.4505 13.7167 21.3901 14.7351 23.865C15.092 24.7313 15.3787 25.6518 15.5867 26.5993C16.2697 29.7074 17.2137 30.4174 17.7152 30.5641C17.8898 30.6147 18.0242 30.5387 18.0893 30.489C18.2116 30.3947 18.2827 30.2514 18.2827 30.096V26.4963C18.2827 25.2483 19.278 24.2336 20.5011 24.2336C20.7844 24.2336 21.0146 24.4685 21.0146 24.7575C21.0146 25.0466 20.7844 25.2815 20.5011 25.2815C19.8446 25.2815 19.3097 25.8264 19.3097 26.4963V30.096C19.3097 30.5763 19.0846 31.0365 18.708 31.3265C18.4487 31.5256 18.1432 31.6295 17.8316 31.6295L17.8308 31.6277Z" fill="#311D04"/>
<path d="M23.1695 31.6277C22.8588 31.6277 22.5524 31.5238 22.2931 31.3246C21.9165 31.0347 21.6914 30.5745 21.6914 30.0942V26.4944C21.6914 25.8246 21.1573 25.2797 20.5009 25.2797C20.2176 25.2797 19.9874 25.0448 19.9874 24.7557C19.9874 24.4667 20.2176 24.2317 20.5009 24.2317C21.7239 24.2317 22.7184 25.2474 22.7184 26.4944V30.0942C22.7184 30.2496 22.7886 30.3928 22.9118 30.4872C22.9769 30.5369 23.1121 30.6129 23.2859 30.5623C23.7874 30.4155 24.7314 29.7047 25.4144 26.5966C25.6224 25.65 25.9091 24.7304 26.2651 23.8641C27.2844 21.3892 27.8031 19.4487 27.7252 18.4008C27.6465 17.3406 27.0422 15.4735 25.7011 14.6727C24.793 14.1303 23.6787 14.167 22.3889 14.7801C21.8386 15.0421 21.3028 15.4525 20.797 16.0001C20.3323 16.5031 19.4037 17.1458 17.6235 17.3476C17.3428 17.3799 17.0877 17.172 17.0569 16.8847C17.0252 16.5974 17.2289 16.338 17.5105 16.3057C19.0579 16.1302 19.7657 15.5879 20.0498 15.2805C20.6455 14.636 21.2866 14.1478 21.955 13.8299C23.9646 12.8737 25.3836 13.2684 26.2197 13.7679C27.7945 14.7085 28.635 16.7878 28.7488 18.3213C28.8644 19.8723 27.9768 22.4127 27.2117 24.2693C26.8788 25.0788 26.6109 25.9382 26.4157 26.8246C25.8064 29.5981 24.8487 31.1936 23.5674 31.5683C23.4356 31.6067 23.3013 31.6259 23.1686 31.6259L23.1695 31.6277Z" fill="#311D04"/>
<path d="M34.4865 37.001H6.51352C6.23023 37.001 6 36.7708 6 36.4875V8.5153C6 8.23204 6.23023 8.00183 6.51352 8.00183H14.6716C14.9395 8.00183 15.1628 8.20808 15.1834 8.47508C15.2228 8.97657 15.6498 9.36938 16.1556 9.36938H24.8444C25.1045 9.36938 25.3493 9.26839 25.5325 9.08526C25.6959 8.9218 25.7961 8.70443 25.8149 8.47337C25.8363 8.20637 26.0588 8.00098 26.3267 8.00098H34.4865C34.7698 8.00098 35 8.23118 35 8.51445V36.4866C35 36.7699 34.7698 37.0001 34.4865 37.0001V37.001ZM7.02703 35.974H33.973V9.02877H26.7418C26.6442 9.32231 26.479 9.59103 26.2582 9.81182C25.8808 10.1892 25.3793 10.3963 24.8444 10.3963H16.1556C15.2827 10.3963 14.5235 9.82466 14.2565 9.02877H7.02703V35.974Z" fill="#311D04"/>
<path d="M24.9511 10.001H16.0506C14.9872 10.001 14.0894 9.19225 14.0061 8.16015C14.0018 8.10881 14 8.05489 14 8.00098C14 7.46696 14.213 6.96461 14.6006 6.5872C14.9881 6.20894 15.5027 6.00098 16.0506 6.00098H24.9511C26.0812 6.00098 27 6.89871 27 8.00098C27 8.05575 26.9982 8.10881 26.9939 8.16101C26.9544 8.63512 26.744 9.08099 26.3994 9.41647C26.0128 9.79387 25.4991 10.001 24.9511 10.001ZM16.0506 7.02708C15.7841 7.02708 15.5325 7.12806 15.344 7.31291C15.1555 7.49691 15.0512 7.74167 15.0512 8.00098C15.0512 8.02751 15.0521 8.05404 15.0547 8.07885C15.095 8.58121 15.5325 8.97402 16.0506 8.97402H24.9511C25.2176 8.97402 25.4684 8.87303 25.656 8.68989C25.8234 8.52644 25.926 8.30906 25.9453 8.078C25.9471 8.05318 25.9479 8.02665 25.9479 8.00012C25.9479 7.46354 25.5008 7.02708 24.9511 7.02708H16.0506Z" fill="#311D04"/>
</svg>
