<svg width="40" height="40" viewBox="0 0 40 40" fill="none" xmlns="http://www.w3.org/2000/svg">
<path d="M15.443 32C15.3286 32 15.2124 31.9841 15.0989 31.9514C14.0604 31.6566 13.2898 30.4312 12.8083 28.3081C12.6611 27.6557 12.4571 27.0218 12.2026 26.4233C11.6075 25.0214 10.9176 23.1021 11.008 21.9174C11.0816 20.9586 11.6128 19.1489 13.1382 18.4435C14.3221 17.8962 15.7489 18.1654 17.3833 19.2425C17.7593 18.9035 18.1548 18.6377 18.5645 18.4488C20.1714 17.7081 21.3119 18.0206 21.985 18.4144C23.2354 19.1445 23.9014 20.7415 23.9918 21.9174C24.0832 23.1074 23.3915 25.0249 22.7955 26.4233C22.541 27.0245 22.337 27.6583 22.1916 28.3072C21.7092 30.4312 20.9385 31.6566 19.901 31.9514C19.5188 32.06 19.1161 31.9832 18.796 31.7431C18.4732 31.5003 18.2808 31.1163 18.2808 30.7155V28.0291C18.2808 27.6054 17.9305 27.2611 17.4995 27.2611C17.0685 27.2611 16.7191 27.6054 16.7191 28.0291V30.7155C16.7191 31.1163 16.5267 31.5003 16.2039 31.7431C15.9795 31.9117 15.7143 32 15.4439 32H15.443ZM14.4019 19.2345C14.1048 19.2345 13.8316 19.291 13.5851 19.4049C12.5821 19.8684 12.129 21.2094 12.0687 21.9986C12.011 22.7463 12.4172 24.2092 13.1825 26.011C13.4618 26.6669 13.6853 27.3617 13.8467 28.0759C14.3761 30.4101 15.1033 30.8515 15.3907 30.9336C15.4651 30.9547 15.5255 30.9265 15.5618 30.8982C15.5893 30.8771 15.654 30.8179 15.654 30.7164V28.03C15.654 27.0227 16.4814 26.2026 17.4986 26.2026C18.5158 26.2026 19.3441 27.0218 19.3441 28.03V30.7164C19.3441 30.8179 19.4088 30.8771 19.4363 30.8982C19.4735 30.9256 19.5329 30.9547 19.6083 30.9336C19.8957 30.8523 20.6228 30.4101 21.1523 28.0759C21.3119 27.3661 21.5354 26.6722 21.8147 26.0128C21.8147 26.0128 21.8147 26.0128 21.8147 26.0119C22.5809 24.2145 22.9871 22.7516 22.9294 22.0004C22.8709 21.2411 22.4275 19.9046 21.4449 19.3307C20.7842 18.9449 19.9648 18.9723 19.0097 19.4128C18.6018 19.6009 18.2027 19.8975 17.8249 20.2939C17.6414 20.4863 17.3434 20.5137 17.127 20.3583C16.093 19.615 15.1672 19.2363 14.4001 19.2363L14.4019 19.2345Z" fill="#311D04"/>
<path d="M24.3494 34.9991H9.65059C7.0868 34.9991 5 32.9097 5 30.3407V13.6584C5 11.0895 7.08593 9 9.65059 9H24.3494C26.9132 9 29 11.0895 29 13.6584V30.3416C29 32.9097 26.9141 35 24.3494 35V34.9991ZM9.65059 10.0539C7.66637 10.0539 6.05217 11.6709 6.05217 13.6584V30.3416C6.05217 32.3291 7.66637 33.9461 9.65059 33.9461H24.3494C26.3336 33.9461 27.9478 32.3291 27.9478 30.3416V13.6584C27.9478 11.6709 26.3336 10.0539 24.3494 10.0539H9.65059Z" fill="#311D04"/>
<path d="M28.4739 17H5.5261C5.23587 17 5 16.7758 5 16.5C5 16.2242 5.23587 16 5.5261 16H28.4739C28.7641 16 29 16.2242 29 16.5C29 16.7758 28.7641 17 28.4739 17Z" fill="#311D04"/>
<path d="M32.4147 37C32.1641 37 31.9109 36.9678 31.6612 36.9025C30.8696 36.6959 30.1923 36.1628 29.8036 35.44C29.4113 34.7119 29.3369 33.8782 29.5946 33.092L29.7965 32.4766C30.9387 28.9935 31.5178 25.3681 31.5178 21.7016V19.1783C31.5178 15.8114 28.7862 13.0734 25.4278 13.0734H10.5313C10.2382 13.0734 10 12.8328 10 12.5367C10 12.2406 10.2382 12 10.5313 12H25.4286C29.3724 12 32.5812 15.2202 32.5812 19.1783V21.7016C32.5812 25.4835 31.9835 29.2224 30.8059 32.8147L30.604 33.4301C30.4393 33.931 30.4871 34.4623 30.7368 34.9266C30.99 35.3962 31.4133 35.7289 31.9277 35.8631C32.5661 36.0304 33.2337 35.8586 33.7127 35.4051L35.1055 34.0867C35.3198 33.8836 35.6563 33.8952 35.8564 34.1117C36.0574 34.3282 36.0459 34.6681 35.8316 34.8702L34.4388 36.1887C33.8801 36.7173 33.1585 37 32.4138 37H32.4147Z" fill="#311D04"/>
</svg>
