<svg width="40" height="40" viewBox="0 0 40 40" fill="none" xmlns="http://www.w3.org/2000/svg">
<path d="M19.5 15.4V20.8M22.2 26.2H16.8M22.2 31.6H16.8M22.2 18.1H16.8M27.6 23.5H30.3C31.0161 23.5 31.7028 23.7845 32.2092 24.2908C32.7155 24.7972 33 25.4839 33 26.2V34.3C33 35.0161 32.7155 35.7028 32.2092 36.2092C31.7028 36.7155 31.0161 37 30.3 37H8.7C7.98392 37 7.29716 36.7155 6.79081 36.2092C6.28446 35.7028 6 35.0161 6 34.3V22.15C6 21.4339 6.28446 20.7472 6.79081 20.2408C7.29716 19.7345 7.98392 19.45 8.7 19.45H11.4M27.6 37V12.7C27.6 11.9839 27.3155 11.2972 26.8092 10.7908C26.3028 10.2845 25.6161 10 24.9 10H14.1C13.3839 10 12.6972 10.2845 12.1908 10.7908C11.6845 11.2972 11.4 11.9839 11.4 12.7V37" stroke="#311D04" stroke-linecap="round" stroke-linejoin="round"/>
</svg>
