<svg width="10" height="10" viewBox="0 0 10 10" fill="none" xmlns="http://www.w3.org/2000/svg">
<g clip-path="url(#clip0_10310_1736)">
<path d="M3.33333 0.833496V2.50016M6.66667 0.833496V2.50016M1.25 4.16683H8.75M3.33333 5.8335H3.3375M5 5.8335H5.00417M6.66667 5.8335H6.67083M3.33333 7.50016H3.3375M5 7.50016H5.00417M6.66667 7.50016H6.67083M2.08333 1.66683H7.91667C8.3769 1.66683 8.75 2.03993 8.75 2.50016V8.3335C8.75 8.79373 8.3769 9.16683 7.91667 9.16683H2.08333C1.6231 9.16683 1.25 8.79373 1.25 8.3335V2.50016C1.25 2.03993 1.6231 1.66683 2.08333 1.66683Z" stroke="white" stroke-linecap="round" stroke-linejoin="round"/>
</g>
<defs>
<clipPath id="clip0_10310_1736">
<rect width="10" height="10" fill="white"/>
</clipPath>
</defs>
</svg>
