<svg width="70" height="70" viewBox="0 0 70 70" fill="none" xmlns="http://www.w3.org/2000/svg">
<rect x="0.5" y="0.5" width="69" height="69" rx="34.5" stroke="#CFC1B8"/>
<g clip-path="url(#clip0_10358_408)">
<path d="M45.8901 39.847C45.5959 39.7461 45.2765 39.9016 45.1757 40.1917L44.5243 42.075C43.7217 44.4082 43.3183 45.5811 42.5955 47.208C41.9106 48.7466 40.6877 49.8186 39.5531 49.8733C38.8513 49.9069 38.2504 49.5159 37.8176 48.7424C37.4268 48.0488 37.2587 46.6951 37.0906 45.3877C36.7796 42.9326 36.4266 40.1497 34.3591 40.1497C32.2916 40.1497 31.9471 42.9284 31.6445 45.3793C31.4806 46.6909 31.3125 48.0446 30.9259 48.7424C30.4931 49.5159 29.888 49.9069 29.1904 49.8733C28.0558 49.8186 26.8329 48.7508 26.148 47.208C25.4252 45.5811 25.0218 44.4124 24.2192 42.075C23.862 41.0451 23.4291 39.7839 22.8534 38.1528C21.7104 34.9116 20.7229 32.1118 20.2523 28.5932C19.7102 24.5322 20.87 21.9762 23.7947 20.7823C27.5179 19.2605 29.6274 20.8496 31.4932 22.2495C32.5018 23.0062 33.3716 23.662 34.3549 23.662C35.3383 23.662 36.2081 23.002 37.2083 22.2327C39.0741 20.8076 41.192 19.1891 44.932 20.7781C47.8567 22.0183 49.0207 24.5785 48.4829 28.5974C48.3652 29.4676 48.2181 30.3084 48.029 31.1744C47.9618 31.477 48.1551 31.7755 48.4576 31.8428C48.7602 31.91 49.0586 31.7167 49.1258 31.414C49.3233 30.5185 49.4788 29.6441 49.5964 28.7445C50.2016 24.2169 48.777 21.1901 45.369 19.744C41.0239 17.9027 38.4227 19.8869 36.5233 21.3415C35.6828 21.9847 34.9559 22.5396 34.3507 22.5396C33.7456 22.5396 33.0102 21.9889 32.1614 21.3541C30.2746 19.929 27.6818 17.9784 23.3703 19.7398C19.9497 21.1397 18.5251 24.1665 19.1387 28.7445C19.6219 32.3809 20.6305 35.2311 21.7945 38.5312C22.366 40.1581 22.803 41.415 23.156 42.445C23.9712 44.8118 24.3788 45.9973 25.1226 47.6662C25.9883 49.6168 27.5641 50.9242 29.14 50.9957C30.2788 51.0461 31.2621 50.4408 31.9092 49.2889C32.4051 48.4019 32.5816 46.9978 32.7623 45.5138C33.0102 43.5254 33.2876 41.2679 34.3633 41.2679C35.4391 41.2679 35.7291 43.5296 35.9812 45.5222C36.1703 47.002 36.3468 48.4019 36.8427 49.2847C37.4604 50.3903 38.3933 50.9957 39.4733 50.9957C39.5195 50.9957 39.5657 50.9957 39.6077 50.9957C41.1794 50.9242 42.7552 49.6168 43.6251 47.6662C44.3689 45.9973 44.7765 44.8076 45.5917 42.445L46.2431 40.5658C46.3439 40.2716 46.1884 39.9521 45.8985 39.8512L45.8901 39.847Z" fill="#826A5A"/>
<path d="M42.331 24.0157C42.2386 23.8139 42.0411 23.6836 41.8184 23.6836C41.5956 23.6836 41.3981 23.8139 41.3057 24.0157C40.1585 26.5633 39.255 27.4671 36.7084 28.6148C36.5067 28.7072 36.3765 28.9048 36.3765 29.1276C36.3765 29.3504 36.5067 29.548 36.7084 29.6405C39.255 30.7882 40.1585 31.692 41.3057 34.2396C41.3981 34.4413 41.5956 34.5717 41.8184 34.5717C42.0411 34.5717 42.2386 34.4413 42.331 34.2396C43.4782 31.692 44.3817 30.7882 46.9283 29.6405C47.13 29.548 47.2602 29.3504 47.2602 29.1276C47.2602 28.9048 47.13 28.7072 46.9283 28.6148C44.3817 27.4671 43.4782 26.5633 42.331 24.0157ZM41.8184 32.722C40.9065 30.9857 39.9652 30.0441 38.2254 29.1276C39.961 28.2154 40.9023 27.2737 41.8184 25.5333C42.7302 27.2695 43.6715 28.2112 45.4113 29.1276C43.6757 30.0399 42.7344 30.9815 41.8184 32.722Z" fill="#826A5A"/>
<path d="M50.668 35.4249C48.9913 34.6682 48.4324 34.1091 47.676 32.4317C47.5835 32.2299 47.386 32.0996 47.1633 32.0996C46.9406 32.0996 46.7431 32.2299 46.6506 32.4317C45.8942 34.1091 45.3353 34.6682 43.6586 35.4249C43.4569 35.5174 43.3267 35.715 43.3267 35.9378C43.3267 36.1606 43.4569 36.3581 43.6586 36.4506C45.3353 37.2073 45.8942 37.7665 46.6506 39.4438C46.7431 39.6456 46.9406 39.7759 47.1633 39.7759C47.386 39.7759 47.5835 39.6456 47.676 39.4438C48.4324 37.7665 48.9913 37.2073 50.668 36.4506C50.8697 36.3581 50.9999 36.1606 50.9999 35.9378C50.9999 35.715 50.8697 35.5174 50.668 35.4249ZM47.1633 37.9682C46.6338 37.0518 46.0497 36.4674 45.1336 35.9378C46.0497 35.4081 46.6338 34.8237 47.1633 33.9115C47.6928 34.8279 48.2769 35.4123 49.1888 35.9378C48.2727 36.4674 47.6928 37.0518 47.1633 37.9682Z" fill="#826A5A"/>
</g>
<defs>
<clipPath id="clip0_10358_408">
<rect width="32" height="32" fill="white" transform="translate(19 19)"/>
</clipPath>
</defs>
</svg>
