<svg width="70" height="70" viewBox="0 0 70 70" fill="none" xmlns="http://www.w3.org/2000/svg">
<rect x="0.5" y="0.5" width="69" height="69" rx="34.5" stroke="#CFC1B8"/>
<g clip-path="url(#clip0_10358_387)">
<path d="M22.0876 33.5279C22.7985 28.7616 26.1375 24.8336 30.6042 23.2243C32.1472 22.6694 35.527 22.0973 38.4903 22.8698C43.5234 24.1822 47.3802 28.3627 48.1506 33.5279M47.9112 38.5384C46.4984 44.2113 41.3032 48.4248 35.1187 48.4248C28.9341 48.4248 23.739 44.2113 22.3261 38.5384M39.4945 41.3547C38.6729 42.5951 36.99 43.4465 35.0491 43.4465C33.1083 43.4465 31.4254 42.5955 30.6038 41.3547M21.9749 38.5384C20.2369 38.5384 18.8259 37.1467 18.8259 35.4323C18.8259 33.718 20.2369 32.3263 21.9749 32.3263M48.2908 38.5384C50.0288 38.5384 51.4398 37.1467 51.4398 35.4323C51.4398 33.718 50.0288 32.3263 48.2908 32.3263M44.9604 30.9775C39.8336 29.7134 38.2521 25.5594 38.2521 25.5594C38.2521 25.5594 31.3194 31.6822 25.2774 30.3452M42.3591 24.5298C42.3591 24.5298 45.2265 20.1803 47.9447 22.0345C50.6632 23.8883 51.4872 25.4544 54.4167 24.7915C54.4167 24.7915 51.6888 29.7038 46.6444 29.006M27.6401 24.5298C27.6401 24.5298 24.7731 20.1803 22.0546 22.0341C19.336 23.8879 18.512 25.454 15.5825 24.7911C15.5825 24.7911 18.3104 29.7034 23.3548 29.0057" stroke="#826A5A" stroke-linecap="round" stroke-linejoin="round"/>
<path fill-rule="evenodd" clip-rule="evenodd" d="M30.0131 32.6965C30.9893 32.6965 31.7818 33.4782 31.7818 34.4411C31.7818 35.4041 30.9893 36.1858 30.0131 36.1858C29.0368 36.1858 28.2443 35.4041 28.2443 34.4411C28.2443 33.4782 29.0368 32.6965 30.0131 32.6965Z" fill="#826A5A"/>
<path fill-rule="evenodd" clip-rule="evenodd" d="M40.2526 32.6965C41.2289 32.6965 42.0214 33.4782 42.0214 34.4411C42.0214 35.4041 41.2289 36.1858 40.2526 36.1858C39.2764 36.1858 38.4839 35.4041 38.4839 34.4411C38.4839 33.4782 39.2764 32.6965 40.2526 32.6965Z" fill="#826A5A"/>
</g>
<defs>
<clipPath id="clip0_10358_387">
<rect width="40" height="28" fill="white" transform="translate(15 21)"/>
</clipPath>
</defs>
</svg>
