<svg width="29" height="29" viewBox="0 0 29 29" fill="none" xmlns="http://www.w3.org/2000/svg">
<g clip-path="url(#clip0_10358_418)">
<path d="M8.49471 0.10141C6.9519 0.1742 5.89833 0.42041 4.97729 0.78233C4.02406 1.15382 3.21612 1.65233 2.41224 2.45911C1.60836 3.26589 1.11333 4.07441 0.744454 5.02909C0.387464 5.95216 0.145604 7.0066 0.0774535 8.55027C0.00930352 10.0939 -0.00577649 10.5901 0.00176351 14.5277C0.00930351 18.4654 0.0267035 18.9589 0.101524 20.5058C0.175184 22.0483 0.420524 23.1016 0.782444 24.0229C1.15451 24.9762 1.65244 25.7838 2.45951 26.588C3.26658 27.3921 4.07452 27.886 5.03152 28.2555C5.95372 28.6119 7.00845 28.8549 8.55184 28.9225C10.0952 28.99 10.592 29.0057 14.5284 28.9982C18.4649 28.9906 18.9605 28.9732 20.5071 28.8999C22.0537 28.8265 23.1014 28.5794 24.023 28.2192C24.9763 27.8463 25.7845 27.3492 26.5881 26.5419C27.3917 25.7345 27.8864 24.9254 28.255 23.9701C28.6123 23.0479 28.855 21.9932 28.922 20.451C28.9896 18.9033 29.0055 18.4091 28.998 14.4721C28.9905 10.535 28.9728 10.0414 28.8994 8.49517C28.826 6.94889 28.5804 5.8988 28.2188 4.97689C27.8461 4.02366 27.3488 3.21659 26.542 2.41184C25.7352 1.60709 24.9255 1.11264 23.9706 0.74492C23.0478 0.38793 21.9936 0.14462 20.4502 0.0779195C18.9069 0.0112195 18.4101 -0.00589046 14.4722 0.00164954C10.5343 0.00918954 10.0413 0.0260095 8.49471 0.10141ZM8.66407 26.3139C7.25031 26.2524 6.48268 26.0175 5.97112 25.8209C5.29368 25.5599 4.81112 25.2444 4.3013 24.7395C3.79148 24.2346 3.47828 23.7503 3.2138 23.0743C3.01515 22.5628 2.7759 21.796 2.70978 20.3823C2.63786 18.8543 2.62278 18.3955 2.61437 14.5243C2.60596 10.6531 2.62075 10.1949 2.68774 8.66627C2.74806 7.25368 2.98441 6.48518 3.18074 5.97391C3.44174 5.2956 3.7561 4.81391 4.26215 4.30438C4.7682 3.79485 5.25105 3.48107 5.92762 3.21659C6.4386 3.01707 7.20536 2.77985 8.61853 2.71257C10.1477 2.64007 10.6059 2.62557 14.4765 2.61716C18.3472 2.60875 18.8065 2.62325 20.3363 2.69053C21.7489 2.75201 22.5177 2.98604 23.0283 3.18353C23.7061 3.44453 24.1883 3.75802 24.6979 4.26494C25.2074 4.77186 25.5215 5.25297 25.786 5.93099C25.9858 6.44052 26.223 7.20699 26.2897 8.62103C26.3625 10.1502 26.379 10.6087 26.386 14.479C26.3929 18.3494 26.3793 18.809 26.3123 20.337C26.2505 21.7508 26.0162 22.5187 25.8193 23.0308C25.5583 23.708 25.2437 24.1908 24.7373 24.7001C24.231 25.2093 23.7487 25.5231 23.0718 25.7876C22.5614 25.9868 21.7938 26.2246 20.3818 26.2919C18.8526 26.3638 18.3944 26.3789 14.5224 26.3873C10.6503 26.3957 10.1935 26.38 8.66435 26.3139M20.4848 6.75024C20.4853 7.0944 20.588 7.43067 20.7797 7.7165C20.9713 8.00234 21.2435 8.2249 21.5617 8.35605C21.8799 8.4872 22.2298 8.52104 22.5673 8.45329C22.9047 8.38554 23.2145 8.21925 23.4574 7.97544C23.7003 7.73164 23.8654 7.42127 23.932 7.08359C23.9985 6.74592 23.9633 6.3961 23.831 6.07839C23.6987 5.76068 23.4751 5.48934 23.1886 5.29869C22.9021 5.10804 22.5654 5.00665 22.2213 5.00734C21.7599 5.00826 21.3178 5.19239 20.9921 5.51923C20.6665 5.84607 20.484 6.28886 20.4848 6.75024ZM7.05485 14.5144C7.06297 18.6266 10.4026 21.9526 14.5139 21.9448C18.6253 21.937 21.9536 18.5976 21.9458 14.4854C21.9379 10.3732 18.5974 7.04633 14.4855 7.05445C10.3736 7.06257 7.04702 10.4028 7.05485 14.5144ZM9.66659 14.5092C9.6647 13.5532 9.94633 12.6182 10.4759 11.8223C11.0054 11.0264 11.759 10.4054 12.6415 10.0378C13.524 9.67021 14.4956 9.57257 15.4336 9.75721C16.3715 9.94186 17.2337 10.4005 17.911 11.0751C18.5883 11.7497 19.0503 12.6101 19.2387 13.5473C19.4271 14.4845 19.3333 15.4565 18.9692 16.3405C18.6051 17.2244 17.9871 17.9805 17.1933 18.5132C16.3995 19.0458 15.4656 19.3312 14.5096 19.333C13.8748 19.3344 13.246 19.2107 12.6591 18.9689C12.0722 18.7272 11.5386 18.3723 11.0889 17.9243C10.6391 17.4764 10.2821 16.9442 10.038 16.3582C9.79399 15.7723 9.66777 15.1439 9.66659 14.5092Z" fill="#263035"/>
</g>
<defs>
<clipPath id="clip0_10358_418">
<rect width="29" height="29" fill="white"/>
</clipPath>
</defs>
</svg>
