<svg width="70" height="70" viewBox="0 0 70 70" fill="none" xmlns="http://www.w3.org/2000/svg">
<rect x="0.5" y="0.5" width="69" height="69" rx="34.5" stroke="#CFC1B8"/>
<g clip-path="url(#clip0_10358_414)">
<path d="M49.7689 42.6348C49.5162 42.0838 43.4905 29.0959 35.7432 28.6857C35.3192 28.665 34.9166 28.6319 34.5269 28.6029C35.8974 21.8459 33.7389 20.2218 32.2014 19.0701C32.0301 18.9417 31.8674 18.8216 31.7175 18.6931C30.7796 17.9018 27.5805 15.3871 25.9059 16.137C25.452 16.34 24.6854 16.6838 24.5312 17.4378C24.3813 18.1711 24.8481 19.0577 26.043 20.3171C26.3599 20.6527 26.7025 20.9551 27.0665 21.2824C28.5569 22.6081 30.1886 24.0623 29.589 27.679C26.0259 26.4527 25.4862 24.3689 24.998 22.4673C24.8781 22.0033 24.7668 21.5641 24.6169 21.1333C24.0516 19.5134 23.4691 18.689 22.7325 18.4653C21.9745 18.2333 21.2978 18.718 20.891 19.008C19.4049 20.0686 20.1543 23.9919 20.4156 25.1684C20.4584 25.3549 20.4884 25.5496 20.5226 25.7567C20.831 27.6169 21.2678 30.2269 28.0516 32.3066C27.8931 32.6546 27.7304 33.0068 27.5462 33.3796C24.1972 40.1532 33.0794 51.5005 33.4605 51.977C33.9916 52.644 34.7925 52.9961 35.6019 52.9961C36.1715 52.9961 36.7496 52.8221 37.2378 52.4617C38.4156 51.5875 38.6426 49.9511 37.7389 48.8118C35.8374 46.4007 31.3835 38.5499 32.6083 35.1486C32.8139 34.5852 32.9937 34.0466 33.1693 33.5246C33.7261 33.6282 34.2999 33.7318 34.9124 33.8312C38.5826 34.4236 43.5633 41.9719 44.8396 44.7394C45.285 45.7129 46.27 46.2888 47.3064 46.2888C47.6704 46.2888 48.0387 46.2184 48.3942 46.0651C49.7518 45.4851 50.3685 43.9439 49.7689 42.6307V42.6348ZM21.6618 25.5869C21.6233 25.359 21.589 25.1394 21.5419 24.9364C20.9338 22.2353 21.0794 20.2591 21.5762 19.9028C21.8717 19.6916 22.2057 19.4678 22.3942 19.5258C22.5483 19.5714 22.968 19.8573 23.5376 21.4937C23.6747 21.879 23.7775 22.2974 23.8931 22.7366C24.437 24.866 25.0837 27.3724 29.3578 28.7727C29.1608 29.5267 28.8824 30.3636 28.5012 31.2957C22.2957 29.4232 21.9231 27.186 21.6618 25.5869ZM36.8353 49.4871C37.3535 50.1417 37.225 51.0863 36.5483 51.5875C35.8717 52.0888 34.8952 51.9645 34.377 51.31C34.2871 51.1981 25.5376 40.0289 28.5869 33.8602C28.7967 33.4335 28.9852 33.0275 29.165 32.6298C30.0301 32.8659 30.9895 33.0938 32.0473 33.3092C31.8888 33.7856 31.7218 34.2745 31.5334 34.7923C30.0344 38.9518 35.2293 47.4571 36.8353 49.4912V49.4871ZM32.3942 32.2486C31.3663 32.0415 30.4413 31.826 29.6062 31.6023C29.9787 30.6826 30.2528 29.8499 30.4541 29.0835C31.2421 29.2782 32.1329 29.4439 33.1436 29.5723C32.9423 30.3885 32.694 31.275 32.3899 32.2486H32.3942ZM30.694 28.0063C31.4734 23.706 29.5119 21.9536 27.846 20.4704C27.4991 20.1638 27.1736 19.8738 26.8867 19.5714C25.679 18.2996 25.6233 17.8107 25.6533 17.6574C25.6918 17.471 26.0516 17.2928 26.3856 17.1437C26.4498 17.1147 26.5355 17.0981 26.634 17.0981C27.3835 17.0981 29.0623 17.9267 30.968 19.53C31.1308 19.6667 31.3107 19.8034 31.4991 19.9443C32.8224 20.9344 34.6725 22.3223 33.392 28.491C32.3642 28.3667 31.4734 28.2052 30.694 28.0063ZM47.9359 45.0584C47.1565 45.3939 46.24 45.0501 45.8931 44.2919C44.8181 41.9554 39.6019 33.4666 35.1094 32.7375C34.5526 32.6463 34.0301 32.5552 33.5205 32.4599C33.8289 31.4573 34.0858 30.5376 34.2871 29.6883C34.7325 29.7297 35.195 29.7629 35.6832 29.7877C42.7411 30.1606 48.6683 42.9497 48.7239 43.0781C49.0708 43.8321 48.7154 44.7187 47.9359 45.0542V45.0584Z" fill="#826A5A"/>
</g>
<defs>
<clipPath id="clip0_10358_414">
<rect width="30" height="37" fill="white" transform="translate(20 16)"/>
</clipPath>
</defs>
</svg>
