<svg width="70" height="70" viewBox="0 0 70 70" fill="none" xmlns="http://www.w3.org/2000/svg">
<rect x="0.5" y="0.5" width="69" height="69" rx="34.5" stroke="#CFC1B8"/>
<g clip-path="url(#clip0_10358_398)">
<path d="M20.004 27.3444C20.004 27.3444 20.0199 27.3565 20.0279 27.3605C20.012 27.4689 19.9961 27.5814 19.9961 27.6938V29.9184C19.9961 31.1712 20.9741 32.1871 22.1709 32.1871H22.9541C23.467 32.1871 23.9362 31.9903 24.3099 31.6811C24.6916 32.4401 25.4947 32.9701 26.4331 32.9701H27.3078C27.932 32.9701 28.5005 32.7332 28.922 32.3517C29.3673 33.0785 30.2539 33.5764 31.2837 33.5764H32.3055C33.1841 33.5764 33.9594 33.211 34.4485 32.6529C34.9375 33.211 35.7128 33.5764 36.5915 33.5764H37.6133C38.6431 33.5764 39.5297 33.0745 39.975 32.3517C40.4004 32.7332 40.965 32.9701 41.5892 32.9701H42.4639C43.4022 32.9701 44.2054 32.4401 44.587 31.6811C44.9608 31.9943 45.426 32.1871 45.9428 32.1871H46.7261C47.9268 32.1871 48.9009 31.1712 48.9009 29.9184V27.6938C48.9009 27.6456 48.889 27.5974 48.889 27.5532L50.4475 25.6098C50.9485 24.9833 51.1115 24.2646 50.9047 23.586C50.6702 22.811 49.9704 22.1926 48.9526 21.8834C48.7935 21.8473 44.9409 21 33.6533 21C22.3657 21 20.1949 22.0641 19.841 22.2287C18.8709 22.6062 18.2188 23.2647 18.0479 24.0437C17.9047 24.6942 18.1075 25.3528 18.6244 25.8949L20.004 27.3444ZM24.0714 29.9184C24.0714 30.5769 23.5704 31.115 22.9581 31.115H22.1749C21.5626 31.115 21.0616 30.5769 21.0616 29.9184V27.6938C21.0616 27.0352 21.5626 26.4972 22.1749 26.4972H22.9581C23.5704 26.4972 24.0714 27.0352 24.0714 27.6938V29.9184ZM28.6119 30.7014C28.6119 31.3599 28.0274 31.898 27.3078 31.898H26.4331C25.7134 31.898 25.129 31.3639 25.129 30.7014V27.6938C25.129 27.0352 25.7134 26.4972 26.4331 26.4972H27.3078C28.0274 26.4972 28.6119 27.0352 28.6119 27.6938V30.7014ZM33.9237 31.3077C33.9237 31.9542 33.1841 32.5043 32.3134 32.5043H31.2916C30.4169 32.5043 29.6814 31.9582 29.6814 31.3077V27.6938C29.6814 27.0473 30.4209 26.4972 31.2916 26.4972H32.3134C33.1881 26.4972 33.9237 27.0433 33.9237 27.6938V31.3077ZM39.2315 30.7014V31.3077C39.2315 31.9542 38.492 32.5043 37.6213 32.5043H36.5994C35.7247 32.5043 34.9892 31.9582 34.9892 31.3077V27.6938C34.9892 27.0473 35.7287 26.4972 36.5994 26.4972H37.6213C38.496 26.4972 39.2315 27.0433 39.2315 27.6938V30.7014ZM43.772 29.9184V30.7014C43.772 31.3599 43.1875 31.898 42.4679 31.898H41.5932C40.8735 31.898 40.2891 31.3639 40.2891 30.7014V27.6938C40.2891 27.0352 40.8735 26.4972 41.5932 26.4972H42.4679C43.1875 26.4972 43.772 27.0352 43.772 27.6938V29.9184ZM47.8473 29.9184C47.8473 30.5769 47.3463 31.115 46.734 31.115H45.9508C45.3385 31.115 44.8375 30.5769 44.8375 29.9184V27.6938C44.8375 27.0352 45.3385 26.4972 45.9508 26.4972H46.734C47.3463 26.4972 47.8473 27.0352 47.8473 27.6938V29.9184ZM19.0816 24.2806C19.1731 23.859 19.6064 23.4655 20.2823 23.2045C20.3062 23.1924 22.7394 22.0761 33.6573 22.0761C44.5751 22.0761 48.6782 22.9234 48.6822 22.9234C49.3184 23.1162 49.7597 23.4775 49.8909 23.9032C50.0181 24.3208 49.8153 24.6942 49.6205 24.9352L48.4755 26.3606C48.0779 25.7985 47.4457 25.425 46.7261 25.425H45.9428C45.2709 25.425 44.6745 25.7503 44.2769 26.2522C43.8435 25.7503 43.1955 25.425 42.4639 25.425H41.5892C40.8258 25.425 40.1539 25.7784 39.7245 26.3165C39.2355 25.7784 38.4761 25.425 37.6133 25.425H36.5915C35.7128 25.425 34.9375 25.7905 34.4485 26.3486C33.9594 25.7905 33.1841 25.425 32.3055 25.425H31.2837C30.4209 25.425 29.6615 25.7784 29.1725 26.3165C28.7391 25.7784 28.0672 25.425 27.3078 25.425H26.4331C25.7015 25.425 25.0574 25.7503 24.62 26.2522C24.2225 25.7503 23.6261 25.425 22.9541 25.425H22.1709C21.4831 25.425 20.8747 25.7664 20.4732 26.2924L19.3838 25.152C19.2009 24.9593 18.9981 24.6501 19.0776 24.2806H19.0816Z" fill="#826A5A"/>
<path d="M48.7017 41.3466C48.662 41.3065 48.6182 41.2824 48.5745 41.2583C48.8409 40.8808 49.0039 40.4191 49.0039 39.9171V37.6926C49.0039 36.4438 48.0258 35.4238 46.8291 35.4238H46.0458C45.3739 35.4238 44.7775 35.7491 44.3799 36.251C43.9465 35.7491 43.2985 35.4238 42.5669 35.4238H41.6922C40.9288 35.4238 40.2569 35.7772 39.8275 36.3153C39.3385 35.7772 38.5791 35.4238 37.7163 35.4238H36.6945C35.8158 35.4238 35.0405 35.7892 34.5515 36.3474C34.0624 35.7892 33.2871 35.4238 32.4085 35.4238H31.3867C30.5239 35.4238 29.7645 35.7772 29.2755 36.3153C28.8421 35.7772 28.1702 35.4238 27.4108 35.4238H26.5361C25.8045 35.4238 25.1604 35.7491 24.7231 36.251C24.3215 35.7491 23.7291 35.4238 23.0571 35.4238H22.2739C21.0732 35.4238 20.0991 36.4397 20.0991 37.6926V39.9171C20.0991 40.3709 20.2303 40.7885 20.449 41.1459C20.0156 41.6438 19.1806 42.6075 18.5524 43.3905C18.0515 44.0169 17.8885 44.7357 18.0952 45.4143C18.3298 46.1893 19.0296 46.8077 20.0474 47.1169C20.2064 47.153 24.0551 48.0003 35.3467 48.0003C46.6382 48.0003 48.8131 46.9362 49.1669 46.7715C50.137 46.3941 50.7891 45.7315 50.964 44.9525C51.1071 44.302 50.9044 43.6435 50.3875 43.1014L48.7097 41.3426L48.7017 41.3466ZM44.9286 37.6926C44.9286 37.034 45.4296 36.496 46.0418 36.496H46.8251C47.4374 36.496 47.9384 37.034 47.9384 37.6926V39.9171C47.9384 40.5757 47.4374 41.1137 46.8251 41.1137H46.0418C45.4296 41.1137 44.9286 40.5757 44.9286 39.9171V37.6926ZM40.3841 37.6926C40.3841 37.034 40.9686 36.496 41.6882 36.496H42.5629C43.2826 36.496 43.867 37.034 43.867 37.6926V40.7002C43.867 41.3587 43.2826 41.8968 42.5629 41.8968H41.6882C40.9686 41.8968 40.3841 41.3587 40.3841 40.7002V37.6926ZM35.0763 37.6926C35.0763 37.0461 35.8158 36.496 36.6865 36.496H37.7084C38.5831 36.496 39.3186 37.0421 39.3186 37.6926V41.3065C39.3186 41.953 38.5791 42.5031 37.7084 42.5031H36.6865C35.8118 42.5031 35.0763 41.957 35.0763 41.3065V37.6926ZM29.7685 40.7002V37.6926C29.7685 37.0461 30.508 36.496 31.3787 36.496H32.4005C33.2752 36.496 34.0108 37.0421 34.0108 37.6926V41.3065C34.0108 41.953 33.2712 42.5031 32.4005 42.5031H31.3787C30.504 42.5031 29.7685 41.957 29.7685 41.3065V40.7002ZM25.228 39.9171V37.6926C25.228 37.034 25.8124 36.496 26.5321 36.496H27.4068C28.1264 36.496 28.7109 37.034 28.7109 37.6926V40.7002C28.7109 41.3587 28.1264 41.8968 27.4068 41.8968H26.5321C25.8124 41.8968 25.228 41.3587 25.228 40.7002V39.9171ZM21.1527 37.6926C21.1527 37.034 21.6537 36.496 22.2659 36.496H23.0492C23.6655 36.496 24.1624 37.034 24.1624 37.6926V39.9171C24.1624 40.5757 23.6615 41.1137 23.0492 41.1137H22.2659C21.9638 41.1137 21.6894 40.9812 21.4906 40.7724C21.4906 40.7724 21.4906 40.7724 21.4906 40.7684C21.4906 40.7684 21.4906 40.7684 21.4867 40.7684C21.2839 40.5516 21.1606 40.2544 21.1606 39.9212V37.6966L21.1527 37.6926ZM49.9184 44.7196C49.8269 45.1413 49.3935 45.5348 48.7176 45.7958C48.6938 45.8078 46.2605 46.9241 35.3427 46.9241C24.4249 46.9241 20.3217 46.0769 20.3178 46.0769C19.6816 45.8841 19.2403 45.5227 19.1091 45.0971C18.9818 44.6795 19.1846 44.306 19.3755 44.0651C19.9758 43.3142 20.775 42.3866 21.2123 41.8887C21.5264 42.0734 21.8843 42.1859 22.2699 42.1859H23.0532C23.5661 42.1859 24.0352 41.9891 24.409 41.6799C24.7906 42.4388 25.5938 42.9689 26.5321 42.9689H27.4068C28.031 42.9689 28.5996 42.732 29.021 42.3465C29.4663 43.0733 30.3529 43.5712 31.3827 43.5712H32.4045C33.2832 43.5712 34.0585 43.2058 34.5475 42.6477C35.0365 43.2058 35.8118 43.5712 36.6905 43.5712H37.7123C38.7421 43.5712 39.6287 43.0693 40.074 42.3465C40.4955 42.728 41.064 42.9689 41.6882 42.9689H42.5629C43.5012 42.9689 44.3044 42.4388 44.6861 41.6799C45.0598 41.9931 45.525 42.1859 46.0418 42.1859H46.8251C47.1869 42.1859 47.5249 42.0855 47.827 41.9209C47.8509 41.9851 47.8867 42.0413 47.9344 42.0935L49.6122 43.8523C49.7951 44.045 49.9979 44.3542 49.9184 44.7237V44.7196Z" fill="#826A5A"/>
</g>
<defs>
<clipPath id="clip0_10358_398">
<rect width="33" height="27" fill="white" transform="translate(18 21)"/>
</clipPath>
</defs>
</svg>
