<svg width="70" height="70" viewBox="0 0 70 70" fill="none" xmlns="http://www.w3.org/2000/svg">
<rect x="0.5" y="0.5" width="69" height="69" rx="34.5" stroke="#CFC1B8"/>
<g clip-path="url(#clip0_10358_403)">
<path d="M23.1518 36.75C23.694 38.3011 24.1006 39.5044 24.4349 40.4881C25.2029 42.7484 25.5915 43.8831 26.2917 45.4799C27.1185 47.365 28.632 48.6324 30.141 48.701C31.2479 48.7513 32.1966 48.1611 32.8201 47.0355C33.2945 46.1754 33.4616 44.8302 33.6333 43.4072C33.8637 41.5405 34.1213 39.422 35.07 39.422C36.0188 39.422 36.2898 41.545 36.5203 43.421C36.6965 44.8393 36.8636 46.1845 37.338 47.0401C37.9344 48.1199 38.8379 48.7102 39.8861 48.7102C39.9313 48.7102 39.9764 48.7102 40.0171 48.7102C41.5306 48.6369 43.0396 47.3741 43.8663 45.489C44.5666 43.8922 44.9552 42.7575 45.7232 40.4973C46.0575 39.5135 46.4687 38.3148 47.0063 36.7591C48.1041 33.6021 49.0574 30.8797 49.5137 27.4024C50.0875 23.042 48.7321 20.1229 45.4838 18.7274C41.3499 16.9521 38.8741 18.8646 37.0669 20.2601C36.2853 20.8641 35.6076 21.3903 35.061 21.3903C34.5143 21.3903 33.8321 20.8732 33.0415 20.2739C31.2434 18.9058 28.7766 17.0253 24.6698 18.7274C21.4124 20.0771 20.0525 22.9962 20.6308 27.407C21.0871 30.8843 22.0404 33.6112 23.1383 36.7637L23.1518 36.75ZM25.1397 19.8438C28.6094 18.4071 30.5837 19.9124 32.3277 21.2393C33.29 21.9714 34.1167 22.6028 35.07 22.6028C36.0233 22.6028 36.8501 21.9622 37.8079 21.221C39.5518 19.8712 41.5306 18.343 45.0184 19.8438C47.7427 21.0151 48.8225 23.4309 48.321 27.2285C47.8782 30.5823 46.9476 33.2498 45.8723 36.3428C45.3301 37.8984 44.919 39.1018 44.5847 40.0855C43.8257 42.3137 43.4462 43.4301 42.7685 44.9812C42.145 46.4041 40.993 47.429 39.9629 47.4794C39.3168 47.5068 38.7928 47.1591 38.3952 46.4362C38.0337 45.7865 37.8756 44.5008 37.7175 43.2608C37.4193 40.8862 37.085 38.1958 35.07 38.1958C33.055 38.1958 32.7252 40.8816 32.4361 43.2562C32.2825 44.5008 32.1243 45.7865 31.7674 46.4407C31.3699 47.1637 30.8413 47.5114 30.1997 47.4839C29.1742 47.4382 28.0221 46.4087 27.3941 44.9858C26.7119 43.4347 26.3324 42.3183 25.5779 40.09C25.2436 39.1063 24.8325 37.903 24.2903 36.3473C23.2151 33.2544 22.2844 30.5869 21.8416 27.2331C21.3356 23.3943 22.4154 20.9785 25.1397 19.8484V19.8438Z" fill="#826A5A"/>
<path d="M53.3946 34.4072H49.0484C48.7276 34.4072 48.4656 34.6589 48.4475 34.9837C48.4475 35.0249 48.1945 39.0376 46.3919 42.977C44.0245 48.1518 40.2159 50.7781 35.0745 50.7781C29.9332 50.7781 26.1291 48.1518 23.7708 42.977C21.9727 39.033 21.7287 35.0203 21.7287 34.9837C21.7106 34.6589 21.4486 34.4072 21.1278 34.4072H16.6054C16.2711 34.4072 16 34.6818 16 35.0203C16 35.3589 16.2711 35.6334 16.6054 35.6334H20.5721C20.8974 38.6029 23.0434 52.0043 35.0745 52.0043C47.1057 52.0043 49.2698 38.6029 49.5996 35.6334H53.3991C53.7334 35.6334 54.0045 35.3589 54.0045 35.0203C54.0045 34.6818 53.7334 34.4072 53.3991 34.4072H53.3946Z" fill="#826A5A"/>
</g>
<defs>
<clipPath id="clip0_10358_403">
<rect width="38" height="34" fill="white" transform="translate(16 18)"/>
</clipPath>
</defs>
</svg>
