<svg width="70" height="70" viewBox="0 0 70 70" fill="none" xmlns="http://www.w3.org/2000/svg">
<rect x="0.5" y="0.5" width="69" height="69" rx="34.5" stroke="#CFC1B8"/>
<g clip-path="url(#clip0_10358_393)">
<path d="M44.2981 18.6178C40.6156 17.0892 38.4084 18.7376 36.7989 19.9365C36.0939 20.4611 35.4846 20.9181 34.9903 20.9181C34.4959 20.9181 33.8751 20.4686 33.1701 19.9478C31.5645 18.7676 29.3687 17.1529 25.713 18.614C22.8084 19.7717 21.5975 22.2856 22.1148 26.0772C22.3485 27.7781 22.7394 29.4153 23.387 31.3823C23.6936 32.3114 24.0461 33.2893 24.3565 34.151C24.4293 34.3495 24.6209 34.4844 24.8393 34.4844H45.1642C45.3826 34.4844 45.5742 34.3495 45.647 34.151C45.9574 33.2893 46.3099 32.3152 46.6165 31.3823C47.2641 29.4153 47.655 27.7781 47.8887 26.0772C48.3984 22.3268 47.1951 19.8167 44.302 18.6178H44.2981ZM46.8732 25.946C46.6471 27.6095 46.2793 29.1418 45.6432 31.0788C45.3788 31.8806 45.0799 32.7198 44.804 33.4878H25.2034C24.9275 32.7198 24.6247 31.8768 24.3642 31.0788C23.7281 29.1456 23.3602 27.6095 23.1341 25.946C22.6781 22.6153 23.6514 20.521 26.1001 19.5432C29.2193 18.2956 30.9897 19.5994 32.5569 20.7495C33.4115 21.379 34.151 21.9222 34.9941 21.9222C35.8371 21.9222 36.5729 21.3715 37.4236 20.7383C38.9908 19.5694 40.765 18.2431 43.8996 19.5432C46.3482 20.5585 47.3216 22.6528 46.8732 25.9498V25.946Z" fill="#826A5A"/>
<path d="M44.7391 35.7471H25.265C24.9814 35.7471 24.7515 35.9719 24.7515 36.2491C24.7515 36.5264 24.9814 36.7511 25.265 36.7511H31.7142V40.434H30.6106C30.327 40.434 30.0971 40.6588 30.0971 40.9361C30.0971 41.2133 30.327 41.4381 30.6106 41.4381H31.7142V42.9929H30.6106C30.327 42.9929 30.0971 43.2177 30.0971 43.495C30.0971 43.7722 30.327 43.997 30.6106 43.997H31.7142V45.5518H30.6106C30.327 45.5518 30.0971 45.7766 30.0971 46.0538C30.0971 46.3311 30.327 46.5559 30.6106 46.5559H31.7142V48.7963C31.7142 50.5684 33.1895 52.0109 35.002 52.0109C36.8145 52.0109 38.2899 50.5684 38.2899 48.7963V46.5559H39.3935C39.677 46.5559 39.907 46.3311 39.907 46.0538C39.907 45.7766 39.677 45.5518 39.3935 45.5518H38.2899V43.997H39.3935C39.677 43.997 39.907 43.7722 39.907 43.495C39.907 43.2177 39.677 42.9929 39.3935 42.9929H38.2899V41.4381H39.3935C39.677 41.4381 39.907 41.2133 39.907 40.9361C39.907 40.6588 39.677 40.434 39.3935 40.434H38.2899V36.7511H44.7391C45.0227 36.7511 45.2526 36.5264 45.2526 36.2491C45.2526 35.9719 45.0227 35.7471 44.7391 35.7471ZM37.2667 48.7851C37.2667 50.0065 36.2512 50.9993 35.002 50.9993C33.7528 50.9993 32.7373 50.0065 32.7373 48.7851V46.5446H37.2667V48.7851ZM37.2667 45.5443H32.7373V43.9895H37.2667V45.5443ZM37.2667 42.9854H32.7373V41.4306H37.2667V42.9854ZM37.2667 40.4303H32.7373V36.7474H37.2667V40.4303Z" fill="#826A5A"/>
</g>
<defs>
<clipPath id="clip0_10358_393">
<rect width="26" height="34" fill="white" transform="translate(22 18)"/>
</clipPath>
</defs>
</svg>
