<svg width="20" height="20" viewBox="0 0 20 20" fill="none" xmlns="http://www.w3.org/2000/svg">
<mask id="mask0_10406_35" style="mask-type:alpha" maskUnits="userSpaceOnUse" x="0" y="0" width="20" height="20">
<rect width="20" height="20" fill="#D9D9D9"/>
</mask>
<g mask="url(#mask0_10406_35)">
<path d="M16.6941 2.29289C17.0847 1.90237 17.7186 1.90237 18.1092 2.29289C18.4993 2.68329 18.4992 3.31647 18.1092 3.70695L11.615 10.2011L18.1092 16.6952L18.1775 16.7704C18.4977 17.1632 18.4752 17.7433 18.1092 18.1093C17.743 18.4753 17.163 18.4971 16.7703 18.1767L16.6941 18.1093L10.201 11.6152L3.70683 18.1093C3.3164 18.4992 2.68317 18.4992 2.29276 18.1093C1.90239 17.7189 1.90269 17.0858 2.29276 16.6952L8.7869 10.2011L2.29276 3.70695C1.90239 3.31648 1.90243 2.68339 2.29276 2.29289C2.68327 1.90266 3.31637 1.90258 3.70683 2.29289L10.201 8.78703L16.6941 2.29289Z" fill="#0EB9C2" stroke="#0EB9C2" stroke-linecap="round" stroke-linejoin="round"/>
</g>
</svg>
