<svg width="311" height="51" viewBox="0 0 311 51" fill="none" xmlns="http://www.w3.org/2000/svg">
<g clip-path="url(#clip0_10347_205)">
<path d="M16.8272 43.1222C15.2277 42.5163 13.2061 40.6508 12.5104 40.1221C11.0299 38.9933 5.25628 33.593 1.58165 30.4205C0.927585 29.8561 0.0416295 30.6522 0.380552 31.4958C1.75408 34.8881 3.12761 38.4229 4.59627 41.6073C5.79737 44.2035 7.73576 48.1067 9.15686 50.988C8.63361 49.283 7.64657 46.1759 7.2363 44.7976C6.86765 43.5678 5.85683 41.5776 6.94495 40.3894C7.04008 40.2884 7.14711 40.1993 7.28981 40.2349C7.80117 40.3597 17.7905 49.2295 19.2591 50.5068C20.157 51.2791 21.3046 50.792 21.8456 49.6691C23.4154 46.4373 28.7965 34.8406 30.0274 30.2007C28.4517 33.4444 21.3402 44.8154 16.8213 43.1163L16.8272 43.1222Z" fill="#263035"/>
<path d="M30.2533 25.1865C29.4684 22.121 27.7976 18.6633 24.67 17.3979C22.1013 16.3642 20.9062 17.5524 18.8251 18.5742C17.6894 19.1327 16.4288 19.3584 15.1683 19.3347C13.9077 19.3644 12.6472 19.1386 11.5115 18.5742C9.43038 17.5464 8.23523 16.3642 5.66656 17.3979C2.5449 18.6574 0.868129 22.115 0.0892025 25.1865C0.0535264 25.3291 -0.0297177 25.5132 0.0119044 25.6558C0.0475804 25.7865 0.166501 25.8697 0.243799 25.7212C1.23678 23.8498 2.21787 22.3527 4.11465 21.2358C5.80332 20.2436 7.94982 19.7981 9.66227 20.9863C11.0715 21.9606 12.6174 22.7626 14.3596 22.8398C14.6272 22.8517 14.9007 22.8458 15.1683 22.8398C15.4418 22.8517 15.7094 22.8517 15.9769 22.8398C17.7191 22.7567 19.2651 21.9606 20.6743 20.9863C22.3867 19.804 24.5332 20.2436 26.2219 21.2358C28.1187 22.3527 29.0998 23.8498 30.0928 25.7212C30.1701 25.8638 30.289 25.7865 30.3247 25.6558C30.3663 25.5073 30.283 25.3231 30.2474 25.1865H30.2533Z" fill="#263035"/>
<path d="M82.1917 47.6079L80.4435 43.4492H79.4149V50.1447H80.4495V45.986L82.1976 50.1447H83.2263V43.4492H82.1917V47.6079Z" fill="#263035"/>
<path d="M93.4832 43.4492H92.4545L91.0453 50.1268V50.1447H92.0799L92.3237 49.004H93.6259L93.8637 50.1328V50.1447H94.9043L93.495 43.4611V43.4492H93.4832ZM93.5307 48.5584H92.4188L92.9659 45.9385L93.5307 48.5584Z" fill="#263035"/>
<path d="M105.922 43.6273C105.559 43.4966 105.256 43.4253 104.608 43.4253C104.275 43.4253 104.014 43.4431 103.764 43.4847C103.508 43.5203 103.324 43.5738 103.157 43.6273C102.991 43.6867 102.884 43.758 102.789 43.8649C102.699 43.9422 102.699 44.0372 102.699 44.1323C102.699 44.1501 102.699 44.1679 102.699 44.1798V49.4256C102.699 49.4256 102.699 49.4613 102.699 49.4732C102.699 49.5682 102.699 49.6573 102.783 49.7405C102.878 49.8415 102.991 49.9128 103.151 49.9722C103.354 50.0494 103.538 50.091 103.758 50.1207C104.031 50.1564 104.293 50.1683 104.602 50.1683C105.25 50.1683 105.554 50.1029 105.916 49.9663C106.309 49.8237 106.511 49.6395 106.511 49.4197V44.1739C106.511 43.96 106.309 43.7699 105.916 43.6213L105.922 43.6273ZM105.458 49.4138C105.458 49.5266 105.393 49.6098 105.244 49.6752C105.084 49.7465 104.882 49.7821 104.584 49.7821C104.287 49.7821 104.109 49.7524 103.966 49.6752C103.794 49.5979 103.776 49.5029 103.776 49.4138V44.1798C103.776 44.0966 103.799 43.9956 103.972 43.9243C104.121 43.8471 104.311 43.8115 104.59 43.8115C104.87 43.8115 105.078 43.8471 105.25 43.9243C105.393 43.9837 105.464 44.0669 105.464 44.1798V49.4138H105.458Z" fill="#263035"/>
<path d="M116.732 46.6989L118.421 43.473L118.433 43.4492H117.392L115.703 46.6751H115.364V43.4492H114.33V50.1447H115.364V47.1207H115.703L117.386 50.1387L117.392 50.1447H118.433L116.631 46.9068L116.732 46.6989Z" fill="#263035"/>
<path d="M127.268 43.4492H126.234V50.1447H127.268V43.4492Z" fill="#263035"/>
<path d="M146.183 43.6571C145.802 43.5145 145.368 43.4551 144.732 43.4551H142.924V50.1446H144.732C145.368 50.1446 145.802 50.0852 146.183 49.9426C146.557 49.8 146.736 49.6158 146.736 49.3901V44.2155C146.736 43.9838 146.545 43.7937 146.183 43.663V43.6571ZM145.683 49.3901C145.683 49.4792 145.606 49.5683 145.451 49.6515C145.309 49.7168 145.047 49.7584 144.732 49.7584H143.965V43.8353H144.732C144.964 43.8412 145.273 43.8709 145.451 43.9482C145.558 43.9957 145.683 44.0848 145.683 44.2096V49.3841V49.3901ZM145.677 44.1264C145.677 44.1264 145.677 44.1264 145.677 44.1323C145.677 44.1323 145.677 44.1323 145.677 44.1264Z" fill="#263035"/>
<path d="M154.549 50.1447H157.795V49.6991H155.583V47.1207H157.034V46.6751H155.583V43.9007H157.795V43.4492H154.549V50.1447Z" fill="#263035"/>
<path d="M168.385 47.6079L166.643 43.4611V43.4492H165.608V50.1447H166.643V45.986L168.385 50.1328L168.391 50.1447H169.42V43.4492H168.385V47.6079Z" fill="#263035"/>
<path d="M177.233 43.9006H178.624V50.1446H179.659V43.9006H181.044V43.4551H177.233V43.9006Z" fill="#263035"/>
<path d="M191.301 43.4492H190.272L188.863 50.1268V50.1447H189.898L190.141 49.004H191.444L191.681 50.1328V50.1447H192.722L191.307 43.4611V43.4492H191.301ZM191.348 48.5584H190.237L190.784 45.9385L191.348 48.5584Z" fill="#263035"/>
<path d="M201.558 43.4492H200.523V50.1447H203.728V49.6991H201.558V43.4492Z" fill="#263035"/>
<path d="M222.607 43.5975C222.244 43.4668 221.941 43.3955 221.293 43.3955C220.954 43.3955 220.686 43.4252 220.448 43.4549C220.193 43.4906 220.008 43.544 219.842 43.5975C219.675 43.6569 219.568 43.7282 219.473 43.8351C219.378 43.9124 219.384 44.0074 219.384 44.1025C219.384 44.1203 219.384 44.1381 219.384 44.15V49.3959C219.384 49.3959 219.384 49.4315 219.384 49.4434C219.384 49.5384 219.384 49.6276 219.467 49.7107C219.562 49.8117 219.675 49.883 219.836 49.9424C220.038 50.0197 220.222 50.0612 220.442 50.0909C220.716 50.1266 220.977 50.1385 221.287 50.1385C221.935 50.1385 222.238 50.0731 222.601 49.9365C222.993 49.7939 223.195 49.6097 223.195 49.3899V47.4769H222.137V49.378C222.137 49.4909 222.072 49.5741 221.923 49.6394C221.762 49.7107 221.56 49.7464 221.263 49.7464C220.966 49.7464 220.787 49.7167 220.644 49.6394C220.472 49.5622 220.454 49.4671 220.454 49.378V44.1441C220.454 44.0609 220.478 43.9599 220.65 43.8886C220.799 43.8114 220.989 43.7757 221.269 43.7757C221.548 43.7757 221.756 43.8114 221.929 43.8886C222.072 43.948 222.143 44.0312 222.143 44.1441V46.0452H223.201V44.1441C223.201 43.9302 222.999 43.7401 222.607 43.5916V43.5975Z" fill="#263035"/>
<path d="M232.043 43.4492H231.008V50.1447H234.219V49.6991H232.043V43.4492Z" fill="#263035"/>
<path d="M243.067 43.4492H242.032V50.1447H243.067V43.4492Z" fill="#263035"/>
<path d="M253.657 47.6079L251.915 43.4611L251.909 43.4492H250.88V50.1447H251.915V45.986L253.657 50.1328L253.663 50.1447H254.691V43.4492H253.657V47.6079Z" fill="#263035"/>
<path d="M263.539 43.4492H262.504V50.1447H263.539V43.4492Z" fill="#263035"/>
<path d="M275.163 46.057V44.1559C275.163 43.942 274.961 43.7519 274.569 43.6034C274.206 43.4727 273.903 43.4014 273.255 43.4014C272.916 43.4014 272.648 43.4311 272.41 43.4608C272.155 43.4964 271.97 43.5499 271.804 43.6034C271.637 43.6628 271.53 43.7341 271.435 43.841C271.34 43.9182 271.346 44.0133 271.346 44.1083C271.346 44.1262 271.346 44.144 271.346 44.1559V49.4017C271.346 49.4017 271.346 49.4374 271.346 49.4492C271.346 49.5443 271.346 49.6334 271.429 49.7166C271.524 49.8176 271.637 49.8889 271.798 49.9483C272 50.0255 272.184 50.0671 272.404 50.0968C272.678 50.1325 272.94 50.1443 273.249 50.1443C273.897 50.1443 274.2 50.079 274.563 49.9423C274.955 49.7998 275.157 49.6156 275.157 49.3958V47.4828H274.099V49.3839C274.099 49.4968 274.034 49.5799 273.885 49.6453C273.724 49.7166 273.522 49.7522 273.225 49.7522C272.928 49.7522 272.749 49.7225 272.607 49.6453C272.434 49.5681 272.416 49.473 272.416 49.3839V44.1499C272.416 44.0668 272.44 43.9658 272.613 43.8945C272.761 43.8172 272.952 43.7816 273.231 43.7816C273.51 43.7816 273.719 43.8172 273.891 43.8945C274.034 43.9539 274.105 44.037 274.105 44.1499V46.051H275.163V46.057Z" fill="#263035"/>
<path d="M57.04 32.9933C56.1719 32.5417 55.3573 32.215 54.4773 31.9655C54.3822 31.508 54.2692 31.0684 54.1622 30.6466C54.0789 30.3198 53.9897 29.9812 53.9124 29.6366C53.7281 28.8108 53.6924 28.5554 53.6924 28.1157C53.6924 27.6167 53.847 27.2424 54.1919 26.9157C54.5784 26.5473 55.3098 26.3572 55.839 26.3572C56.0768 26.3572 56.3087 26.4107 56.5287 26.4642C56.8557 26.5533 57.0282 26.5949 57.2957 26.5949C57.6763 26.5949 57.8725 26.2741 57.8725 25.9592C57.8725 25.478 57.5871 25.0918 56.9092 24.6878C55.8746 24.0581 54.5189 23.7967 53.193 23.963H53.1573L53.1157 24.468H53.1573C54.3703 24.5868 55.2919 24.973 55.7141 25.276C55.8627 25.3829 55.8806 25.4304 55.8806 25.4601C55.8806 25.5017 55.7914 25.5196 55.7319 25.5255C54.9827 25.6324 54.2276 25.9532 53.6627 26.3988C52.9908 26.9394 52.5746 27.6939 52.5746 28.3653C52.5746 28.7633 52.5924 29.0425 52.7768 29.8327C52.9433 30.5159 53.0741 31.1219 53.187 31.6862C52.747 31.6268 52.3724 31.6031 52.0097 31.6031C49.9227 31.6031 48.8286 32.6071 48.8286 33.5992C48.8286 34.8112 49.8632 35.5597 51.5281 35.5597C53.3773 35.5597 54.5784 34.6151 54.5962 33.1537C55.28 33.4685 55.94 33.8547 56.606 34.3359C57.2541 34.8112 57.4682 34.9359 57.6644 34.9359C57.9736 34.9359 58.2055 34.6686 58.2055 34.3181C58.2055 33.8725 57.7833 33.4032 57.0222 32.9873L57.04 32.9933ZM53.3416 32.6962V32.922C53.3416 34.0092 52.6162 34.6092 51.3022 34.6092C50.2438 34.6092 49.6135 34.229 49.6135 33.5873C49.6135 32.9457 50.4994 32.4883 51.7243 32.4883C52.2773 32.4883 52.7887 32.5536 53.3416 32.6962Z" fill="#263035"/>
<path d="M50.4876 23.9035C50.9989 23.7431 51.5043 23.5768 51.7481 23.458C51.9978 23.3332 52.1227 23.1609 52.1227 22.9411C52.1227 22.8342 52.0692 22.7272 51.9622 22.6262C51.7778 22.448 51.4627 22.3232 51.213 22.3232C51.2011 22.3232 51.1892 22.3232 51.1773 22.3232C51.0286 22.3232 50.8384 22.3886 50.7076 22.4777C50.5232 22.6084 50.3567 22.6975 50.1427 22.7866C49.9346 22.8757 49.6492 22.9649 49.2865 23.0718L49.1081 23.1253C49.2032 22.8579 49.3221 22.5312 49.4648 22.2163C49.4946 22.1569 49.5184 22.0975 49.5421 22.044C49.6016 21.9074 49.6492 21.7945 49.7027 21.7054C49.7681 21.5984 49.8394 21.4262 49.8394 21.2776C49.8394 21.0043 49.6848 20.737 49.3638 20.4518C49.1675 20.2796 48.5967 19.8696 47.6037 19.8696H47.574L47.36 20.3211L47.4016 20.339C48.234 20.6954 48.3529 20.9746 48.3529 21.2182C48.3529 21.444 48.3113 21.6519 48.2281 22.0143C48.127 22.3708 47.9902 22.7985 47.7762 23.4401C46.6583 23.6481 46.1351 23.7134 45.5405 23.7134C45.0172 23.7134 44.488 23.4877 43.9648 23.0421L43.935 23.0124L43.5902 23.3807L43.6021 23.4104C44.0123 24.2481 44.7853 24.7412 45.6713 24.7412C46.1767 24.7412 46.6583 24.6996 47.3718 24.5867C46.6405 26.5354 45.8437 28.3889 44.9459 30.4267C44.6783 30.9911 44.3929 31.4901 44.1194 31.9535C43.9886 32.1793 43.8578 32.4585 43.8578 32.8031C43.8578 33.1892 44.1194 33.6229 44.4761 33.6229C44.8507 33.6229 45.0053 33.5635 45.4929 32.3812C46.6881 29.4999 47.7286 26.874 48.674 24.355C49.1973 24.2481 49.7265 24.1055 50.1903 23.9808C50.2913 23.9511 50.3984 23.9273 50.4994 23.8976L50.4876 23.9035Z" fill="#263035"/>
<path d="M73.9564 27.1294C72.4759 27.1294 70.5969 27.7235 68.3791 28.888C68.3791 27.8245 68.3969 26.5888 68.4326 25.2165C69.158 24.9669 69.9191 24.6818 70.6921 24.361C71.3045 24.0996 71.4948 23.9273 71.4948 23.6183C71.4948 23.3272 71.0964 23.0777 70.6386 23.0777C70.4423 23.0777 70.2521 23.155 69.7883 23.4164C69.3542 23.6599 68.9439 23.856 68.4802 24.052C68.5039 23.7193 68.5396 23.3688 68.5693 23.0599L68.5991 22.745C68.6348 22.4183 68.6764 22.2103 68.7239 22.0143C68.7834 21.8123 68.8191 21.6103 68.8191 21.4499C68.8191 21.1707 68.605 20.8855 68.2602 20.6895C67.8558 20.4756 67.4039 20.3687 66.9104 20.3687C66.6488 20.3687 66.4169 20.3924 66.2147 20.4459H66.185L66.1434 20.9271H66.1791C67.0293 21.1291 67.3445 21.4618 67.3445 22.1628C67.3445 22.9945 67.3266 23.7669 67.3088 24.4501C66.3515 24.759 65.9055 24.8244 65.525 24.8244C64.9898 24.8244 64.5974 24.658 64.1752 24.2481L64.1455 24.2184L63.7947 24.5451L63.8066 24.5748C64.1693 25.3887 64.7936 25.87 65.4715 25.87C66.0185 25.87 66.5358 25.7868 67.3088 25.5729C67.291 26.874 67.291 28.2107 67.291 29.5058C66.405 30.0286 63.6401 31.7515 63.6401 32.9931C63.6401 33.2605 63.759 33.7358 64.538 33.9378C65.3347 34.1398 65.8401 34.3596 66.0839 34.6091C66.1909 34.716 66.2861 34.8111 66.3574 34.9002C66.518 35.0784 66.6369 35.1735 66.8331 35.1735C67.2672 35.1735 67.6656 34.9596 68.0461 34.514C68.3969 34.1041 68.4266 33.4981 68.4266 32.809C68.4266 32.5001 68.4148 32.1436 68.3969 31.7277V31.5554C68.3731 31.1039 68.3731 30.5217 68.3731 29.8504C70.3472 28.6978 72.3272 28.0087 73.677 28.0087C75.2051 28.0087 76.1565 28.8998 76.1565 30.3376C76.1565 32.2684 74.8602 33.314 73.6413 33.314C72.9991 33.314 72.3807 33.1595 71.691 32.8209L71.6553 32.803L71.358 33.2902L71.3878 33.314C72.1488 34.0031 72.9932 34.3358 73.9624 34.3358C75.7343 34.3358 77.5657 32.8624 77.5657 30.4029C77.5657 28.377 76.1862 27.1176 73.9624 27.1176L73.9564 27.1294ZM67.2969 30.5395V32.3337C67.2969 33.5397 67.065 33.7833 66.6964 33.7833C66.4228 33.7833 66.0066 33.6823 65.5904 33.51C65.1623 33.3318 64.9007 33.1773 64.9007 32.9456C64.9007 32.4585 65.8163 31.5376 67.3028 30.5455L67.2969 30.5395Z" fill="#263035"/>
<path d="M77.0067 23.4936C76.0554 22.8876 74.8543 22.6678 73.5283 22.8579H73.4927L73.4689 23.351H73.5105C74.6224 23.4461 75.5024 23.8263 75.9246 24.1174C76.0732 24.2243 76.1446 24.3253 76.1446 24.4145C76.1446 24.4798 76.1148 24.5392 75.9603 24.6521C75.7819 24.7828 75.6094 24.8957 75.4311 25.0204C75.2051 25.1749 74.9732 25.3294 74.7235 25.5195L74.6878 25.5492L75.0327 25.9829L75.0624 25.971C75.5797 25.7512 76.0019 25.5789 76.3467 25.4541C76.65 25.3591 76.7927 25.3472 76.8878 25.3472C76.9592 25.3472 77.0959 25.3888 77.203 25.4185C77.2743 25.4422 77.4468 25.4957 77.5835 25.4957C77.8749 25.4957 78.0532 25.2878 78.0532 24.9373C78.0532 24.4323 77.6668 23.9095 77.0008 23.4995L77.0067 23.4936Z" fill="#263035"/>
<path d="M96.1886 24.3491C95.8913 24.3491 95.695 24.456 95.4988 24.563L94.8923 24.866C94.3037 25.1511 93.6258 25.4363 92.5555 25.8462C92.181 25.0145 91.9015 24.361 91.6518 23.7372C92.5734 23.4283 93.4593 23.1015 94.375 22.7391C94.6961 22.6025 95.0112 22.448 95.0112 22.145C95.0112 21.8183 94.6604 21.5687 94.2085 21.5687C93.8875 21.5687 93.6912 21.6638 93.5069 21.7588C93.4474 21.7886 93.388 21.8183 93.3285 21.848C93.2096 21.9074 93.0907 21.9727 92.9539 22.0321C92.4069 22.2757 91.7826 22.5549 91.2474 22.751C91.0869 22.3173 90.962 21.9371 90.8609 21.6341C90.7717 21.3489 90.7361 21.1885 90.6944 20.8499C90.6588 20.44 90.5101 20.2558 90.0939 20.0776C89.755 19.935 89.3447 19.9053 89.0652 19.9053C88.7382 19.9053 88.429 20.0063 87.9177 20.2796L87.8879 20.2974L88.0187 20.7548H88.0544C88.2744 20.7311 88.3993 20.7311 88.4766 20.7311C89.0117 20.7311 89.1842 20.9449 89.4696 21.4618C89.7134 21.9074 89.9215 22.3886 90.1236 22.852C90.1593 22.9292 90.189 23.0124 90.2247 23.0896C89.8204 23.2263 89.4636 23.3332 89.1663 23.4045C88.4647 23.5768 87.8879 23.6599 87.442 23.6599C86.996 23.6599 86.449 23.6599 85.6106 23.4758L85.569 23.4639L85.4382 23.9273L85.4739 23.9451C86.4074 24.4144 87.0793 24.5927 87.8701 24.5927C88.3279 24.5927 88.7739 24.5095 89.3923 24.3729C89.7312 24.3016 90.1177 24.1946 90.629 24.052C90.7955 24.4501 90.9739 24.8363 91.1404 25.2165C91.2831 25.5313 91.4318 25.8581 91.5685 26.1848C90.6112 26.5116 89.868 26.7136 89.3863 26.8324C88.5479 27.0344 87.8939 27.1235 87.329 27.1235C86.9841 27.1235 86.4074 27.0938 85.349 26.8146L85.3074 26.8027L85.1528 27.2661L85.1825 27.2839C86.1814 27.8602 86.9128 28.08 87.7868 28.08C88.2506 28.08 88.8571 27.9968 89.5885 27.8364C90.3793 27.6404 91.1761 27.4146 92.0264 27.1473L92.2226 27.5513C92.5199 28.1632 92.8053 28.7395 93.055 29.2979C93.1501 29.5237 93.1799 29.6247 93.1799 29.6841C93.1799 29.7375 93.1383 29.7672 93.0788 29.7672C93.0074 29.7672 92.8172 29.7494 92.6804 29.7316C91.8718 29.6484 90.9501 29.5949 90.3198 29.5652H90.2782L90.189 30.0702L90.415 30.1178C91.1345 30.2663 91.7528 30.391 92.4961 30.5752C92.9718 30.7 93.1204 30.8069 93.2988 31.1277C93.4772 31.4485 93.6377 31.5733 93.8696 31.5733C94.1788 31.5733 94.3631 31.3653 94.5177 30.8425C94.6248 30.5277 94.6307 30.1593 94.6307 30.0524C94.6307 29.7375 94.5237 29.4821 94.1431 28.8702C93.7685 28.2464 93.5129 27.7948 93.0253 26.8205C94.1193 26.4581 95.2907 26.0482 96.468 25.5254C96.8961 25.3294 97.0448 25.1689 97.0448 24.9135C97.0448 24.5927 96.6524 24.3372 96.1707 24.3372L96.1886 24.3491Z" fill="#263035"/>
<path d="M92.9658 34.3596C92.7042 34.2171 92.3891 34.1517 91.9847 34.1517C91.8718 34.1517 91.7647 34.1517 91.6518 34.1517C91.3188 34.1517 91.0096 34.1577 90.6766 34.1339C88.9582 33.9675 87.9296 33.6051 86.8831 32.7972C86.3123 32.3576 85.9079 31.7753 85.5333 30.8604L85.5155 30.8188L85.0576 31.0387V31.0743C85.2479 32.1793 85.5809 32.9101 86.2171 33.5814C87.0793 34.5319 88.5658 35.2092 90.522 35.5478C91.3128 35.6845 92.0264 35.7142 92.4842 35.7142C93.0788 35.7142 93.4296 35.4706 93.4296 35.0607C93.4296 34.8112 93.2394 34.526 92.9658 34.3596Z" fill="#263035"/>
<path d="M114.954 34.3834H114.972L115.18 34.1696L115.085 32.6071V31.6744C115.448 31.4545 115.567 31.3773 115.567 31.205C115.567 31.0209 115.495 30.9614 114.948 30.4862L114.698 30.2723L114.687 30.2604H114.389L113.908 30.8129H111.725C111.315 30.5753 111.006 30.4208 110.566 30.2604L110.542 30.2485L110.394 30.3971V30.4208C110.524 30.8605 110.566 31.2526 110.566 31.9773V33.0051L110.477 34.6983V34.7458L111.369 34.7042H111.387L111.595 34.4963V33.9141H114.033V34.4131L114.948 34.3715L114.954 34.3834ZM114.044 31.5318V33.2131H111.607V31.5318H114.044Z" fill="#263035"/>
<path d="M114.49 23.3509H118.849V22.8459L117.695 21.6518L117.683 21.6399H117.386L116.613 22.632H112.558L112.843 22.0558C113.355 22.0379 113.634 21.9785 113.634 21.7349C113.634 21.5745 113.491 21.3904 112.528 21.1408C113.462 21.028 114.383 20.8497 115.341 20.6002C115.804 20.725 116.126 20.7844 116.357 20.7844C116.637 20.7844 116.774 20.6834 116.774 20.4814C116.774 20.2556 116.488 20.0061 115.24 19.1744H115.228L115.067 19.1685L115.055 19.1803C114.746 19.418 114.366 19.62 113.943 19.7626C112.362 20.321 110.411 20.6834 108.146 20.8497H108.098L108.14 21.3785H108.182C109.514 21.3963 110.709 21.3547 111.827 21.2359C111.761 21.4854 111.696 21.6934 111.589 21.9607C111.529 22.1152 111.464 22.2637 111.398 22.4122C111.369 22.4835 111.333 22.5607 111.303 22.632H109.698L108.128 22.5191L108.354 23.4638L109.698 23.3509H110.929C110.263 24.5569 109.341 25.656 108.098 26.7194L108.063 26.7491L108.414 27.1234L108.443 27.1056C109.169 26.6243 109.763 26.1669 110.292 25.6619V26.6422L110.197 28.4779L111.131 28.4423H111.149L111.357 28.2343V27.7828H114.532V28.3769L115.483 28.3353H115.501L115.709 28.1274L115.614 26.559V25.8164C116.203 26.3511 116.922 26.7907 117.802 27.1531L117.844 27.1709L117.862 27.1293C118.094 26.5827 118.403 26.3629 118.986 26.3451H119.021L119.134 25.8758H119.087C116.988 25.555 115.608 24.8005 114.484 23.3628L114.49 23.3509ZM114.538 25.5609V27.058H111.363V25.5609H114.538ZM111.404 24.848C111.345 24.8123 111.291 24.7886 111.226 24.7589C111.208 24.747 111.184 24.7411 111.167 24.7292C111.547 24.2836 111.88 23.7846 112.154 23.3509H113.795C114.038 23.8262 114.306 24.2717 114.597 24.6698L114.449 24.848H111.404Z" fill="#263035"/>
<path d="M117.505 28.4124L117.386 28.3114H117.089L116.5 28.9947H109.472C108.99 28.7273 108.544 28.4837 107.968 28.2223L107.938 28.2104L107.789 28.3649L107.801 28.3887C107.979 28.9055 108.039 29.3571 108.039 30.1769V33.1058L107.95 36.3674V36.4149L108.99 36.3792H109.008L109.216 36.1713V29.7135H116.684V34.4425C116.684 34.7514 116.56 34.8762 116.25 34.8762C115.941 34.8762 115.513 34.8346 114.544 34.7098H114.502L114.395 35.2089L114.431 35.2208C115.483 35.5713 115.656 35.797 115.709 36.3971V36.4387H115.757C117.261 36.3852 117.903 35.8861 117.903 34.7752L117.85 31.9414V29.9808C118.308 29.8204 118.474 29.6838 118.474 29.4878C118.474 29.2561 118.29 29.0956 117.517 28.4243L117.505 28.4124Z" fill="#263035"/>
<path d="M105.286 29.803C105.441 29.096 105.536 28.3772 105.571 27.6048H108.36V27.0999L107.314 26.0186L107.302 26.0067H107.004L106.338 26.8919H105.613V23.5175H108.027V23.0125L106.945 21.8956L106.933 21.8837H106.636L105.934 22.8046H103.883C104.156 22.0976 104.376 21.4322 104.555 20.7727C105.179 20.6658 105.375 20.5886 105.375 20.3272C105.375 20.0183 105.001 19.846 103.502 19.3291H103.484L103.312 19.4004V19.4301C103.348 19.9113 103.282 20.3628 103.187 20.951C102.854 22.864 102.248 24.5452 101.385 25.9473L101.362 25.983L101.802 26.2859L101.825 26.2562C102.533 25.4245 103.104 24.5334 103.574 23.5293H104.388V26.9038H103.199L101.629 26.7909L101.855 27.7355L103.199 27.6227H104.37C104.222 30.8011 103.348 32.8685 101.439 34.526L101.409 34.5498L101.712 34.9894L101.748 34.9657C103.496 33.7834 104.566 32.3516 105.119 30.4684C105.672 31.0625 106.029 31.6803 106.273 32.4586C106.463 33.1061 106.618 33.3913 106.998 33.3913C107.361 33.3913 107.635 33.0408 107.635 32.5715C107.635 31.6744 106.784 30.6763 105.298 29.8208L105.286 29.803Z" fill="#263035"/>
<path d="M136.758 33.1714L135.783 34.3893H131.074V28.0325H136.497V27.5275L135.159 26.167L135.147 26.1551H134.849L133.928 27.3136H131.08V21.7826H137.793V21.2776L136.437 19.8696H136.14L135.2 21.0697H124.052L122.476 20.9568L122.72 21.9014L124.046 21.7886H129.736V34.3893H126.246V26.47C126.864 26.2918 127.054 26.1908 127.054 25.9234C127.054 25.6145 126.709 25.5016 124.765 25.1808H124.741L124.616 25.3294L124.628 25.3531C124.848 25.8106 124.92 26.1848 124.92 26.8799V34.3893H123.308L121.733 34.2764L121.976 35.221L123.302 35.1081H138.429V34.6032L137.055 33.1773H136.758V33.1714Z" fill="#263035"/>
<path d="M147.354 27.8365C147.562 28.3177 147.74 28.5851 148.079 28.5851C148.418 28.5851 148.62 28.3177 148.62 27.8781C148.62 27.2305 147.699 26.375 146.218 25.6443L146.183 25.6265L145.873 26.0423L145.909 26.0661C146.605 26.6008 147.086 27.1949 147.354 27.8365Z" fill="#263035"/>
<path d="M145.297 29.6366L146.64 29.5237H148.484C147.651 31.2644 146.545 32.4883 145.011 33.3616L144.97 33.3853L145.279 33.8012L145.309 33.7893C147.104 33.0111 148.329 31.9595 149.37 30.2842L149.245 34.021V34.0686L150.25 34.027L150.458 33.819L150.38 30.9674V30.605C151.243 31.11 151.855 31.6447 152.473 32.4348C152.765 32.8031 152.997 32.9695 153.229 32.9695C153.508 32.9695 153.805 32.8031 153.805 32.3338C153.805 31.5971 152.491 30.7119 150.375 30.0168V29.5237H154.691V29.0188L153.615 27.9434H153.318L152.634 28.8108H150.375V26.2206C150.844 26.1196 151.112 26.0126 151.112 25.7631C151.112 25.4839 150.785 25.371 149.156 25.0918H149.132L149.007 25.2403L149.019 25.2641C149.245 25.7334 149.31 26.0661 149.31 26.7553V28.8108H146.629L145.053 28.6979L145.279 29.6426L145.297 29.6366Z" fill="#263035"/>
<path d="M157.218 22.9467H156.921L156.071 23.9805H150.773V22.2101H156.154V21.7051L154.947 20.5585H154.65L153.877 21.4971H150.773V20.4694C151.391 20.2911 151.546 20.1842 151.546 19.9584C151.546 19.6495 151.195 19.5366 149.352 19.2515H149.328L149.203 19.4L149.215 19.4238C149.435 19.8812 149.506 20.2495 149.506 20.9506V23.9805H146.48V21.3902C147.098 21.212 147.253 21.111 147.253 20.8793C147.253 20.5644 146.908 20.4575 145.077 20.1723H145.053L144.928 20.3208L144.94 20.3446C145.16 20.8021 145.231 21.1763 145.231 21.8714V23.9805H142.996L141.42 23.8676L141.664 24.8122L142.99 24.6993H158.431V24.1943L157.236 22.9646L157.224 22.9527L157.218 22.9467Z" fill="#263035"/>
<path d="M155.054 25.3053H155.03L154.905 25.4478V25.4716C155.066 25.9112 155.113 26.238 155.113 26.8737V34.49H144.66V26.4994C145.172 26.3509 145.416 26.232 145.416 26.0063C145.416 25.7033 145.005 25.5904 143.388 25.2993H143.364L143.239 25.4419V25.4657C143.4 25.9053 143.447 26.2439 143.447 26.8677V32.3393L143.352 36.3911V36.4386L144.429 36.4029H144.446L144.654 36.195V35.2088H155.108V36.3732L156.208 36.3376H156.225L156.434 36.1237L156.344 32.4225V26.5053C156.897 26.3627 157.099 26.2261 157.099 26.0122C157.099 25.7211 156.772 25.6082 155.054 25.3053Z" fill="#263035"/>
<path d="M150.963 28.5077L151.302 28.7751L151.332 28.7513C152.045 28.175 152.67 27.5156 153.151 26.8443C153.657 26.8443 153.948 26.7908 153.948 26.5413C153.948 26.2918 153.698 26.1373 152.468 25.5967H152.45L152.283 25.662L152.253 25.7749C152.17 26.0898 152.093 26.3868 151.891 26.8562C151.653 27.4265 151.373 27.9255 150.993 28.4662L150.969 28.5018L150.963 28.5077Z" fill="#263035"/>
<path d="M171.721 23.8556C171.917 24.325 172.095 24.4913 172.405 24.4913C172.833 24.4913 173.059 24.0814 173.059 23.6715C173.059 22.6912 172.274 21.8654 170.436 20.903L170.407 20.8911L170.014 21.2357L170.05 21.2713C170.823 22.0258 171.322 22.7982 171.721 23.8556Z" fill="#263035"/>
<path d="M171.245 27.8599C171.608 28.5965 171.804 28.7332 172.06 28.7332C172.357 28.7332 172.714 28.5965 172.714 27.949C172.714 26.9568 171.804 26.1192 169.753 25.2399L169.723 25.228L169.372 25.6201L169.408 25.6498C170.204 26.2677 170.805 26.9925 171.239 27.8658L171.245 27.8599Z" fill="#263035"/>
<path d="M168.468 28.9058C168.468 28.2761 167.66 27.278 165.852 26.4641V24.8244H169.223V24.3194L168.159 23.1847L168.147 23.1728H167.85L167.13 24.1115H165.852V21.2479C166.441 21.1351 166.976 21.0103 167.446 20.8737C167.85 20.9984 168.135 21.0578 168.314 21.0578C168.516 21.0578 168.599 20.9865 168.599 20.8321C168.599 20.5766 168.409 20.3212 167.291 19.4894L167.279 19.4775H167.095L167.083 19.4894C166.887 19.7033 166.726 19.8102 166.34 19.9944C165.299 20.434 163.628 20.8143 161.63 21.0578H161.589L161.654 21.5866H161.69C162.617 21.5985 163.64 21.545 164.722 21.4083V24.1115H163.093L161.517 23.9986L161.761 24.9432L163.087 24.8303H164.449C163.723 27.6523 162.707 29.9514 161.167 32.2743L161.143 32.304L161.535 32.6545L161.565 32.6189C163.016 31.0267 164.068 29.3336 164.782 27.4562L164.568 36.3201L165.65 36.2845H165.668L165.876 36.0765L165.84 31.6208V27.1889C166.423 27.7354 166.916 28.4187 167.172 29.0365C167.338 29.4702 167.535 29.6365 167.856 29.6365C168.129 29.6365 168.456 29.4464 168.456 28.9118L168.468 28.9058Z" fill="#263035"/>
<path d="M177.542 27.8777L177.524 27.8658L177.221 27.9312L176.555 29.1669L175.526 29.4224V20.5228C176.073 20.3743 176.317 20.2614 176.317 20.0119C176.317 19.7208 175.942 19.5901 174.194 19.2871H174.17L174.046 19.4297V19.4535C174.206 19.8871 174.254 20.2317 174.254 20.8555V29.7194L169.128 30.9611L167.576 31.2106L168.028 32.0898L169.319 31.674L174.26 30.4561V32.5532L174.165 36.403V36.4505L175.407 36.4089L175.615 36.201L175.52 32.3691V30.159L178.695 29.3748L178.731 29.3629L178.666 28.8639L177.53 27.8777H177.542Z" fill="#263035"/>
<path d="M186.342 26.0835C185.408 26.0835 184.618 26.8618 184.618 27.7885C184.618 28.7153 185.408 29.5114 186.342 29.5114C187.275 29.5114 188.048 28.7213 188.048 27.7885C188.048 26.8558 187.27 26.0835 186.342 26.0835Z" fill="#263035"/>
<path d="M202.331 19.9644H202.307L202.182 20.1129L202.194 20.1366C202.414 20.5941 202.485 20.9684 202.485 21.6635V33.8186C202.485 34.181 202.325 34.3474 201.956 34.3474C201.588 34.3474 201.136 34.3058 199.917 34.1097H199.875L199.768 34.6088L199.804 34.6207C201.005 35.0484 201.213 35.3098 201.266 35.9455V35.9871H201.314C203.062 35.9336 203.847 35.393 203.847 34.2286L203.776 30.4501V21.2951C204.424 21.1169 204.626 21.0159 204.626 20.7426C204.626 20.3862 204.192 20.2733 202.337 19.9644H202.331Z" fill="#263035"/>
<path d="M205.964 24.266L205.928 24.2422L205.601 24.6581L205.631 24.6878C207.498 26.5532 208.628 28.3474 209.288 30.5099C209.537 31.3119 209.751 31.5733 210.18 31.5733C210.661 31.5733 210.923 31.1634 210.923 30.4208C210.923 29.0128 209.389 26.5651 205.964 24.266Z" fill="#263035"/>
<path d="M200.559 25.2577C200.559 24.9488 200.16 24.723 198.537 24.1289H198.519L198.347 24.218V24.2418C198.347 24.6636 198.282 25.0379 198.109 25.5904C197.396 27.8242 196.212 29.7669 194.488 31.5254L194.452 31.561L194.845 31.9115L194.874 31.8878C197.14 30.2303 198.377 28.5965 199.596 25.6498C200.071 25.6498 200.553 25.5963 200.553 25.2577H200.559Z" fill="#263035"/>
<path d="M216.803 21.2061V24.9608L216.708 28.858L217.897 28.8224L218.094 28.6263L218.106 28.6145L218.01 24.7825V20.8378C218.581 20.6892 218.766 20.5704 218.766 20.3625C218.766 20.0714 218.331 19.9466 216.738 19.6377H216.714L216.589 19.7862V19.81C216.75 20.2496 216.797 20.5764 216.797 21.212L216.803 21.2061Z" fill="#263035"/>
<path d="M230.652 34.4485C230.461 34.3772 230.384 34.3 230.384 34.1752C230.384 33.9792 230.384 33.5692 230.402 32.3692V32.3335L229.879 32.2444V32.286C229.676 33.4564 229.486 34.0564 229.236 34.3059C228.987 34.5554 228.618 34.6446 227.036 34.6446C224.932 34.6446 224.848 34.5139 224.848 33.9732V29.9393C225.401 29.7908 225.603 29.6542 225.603 29.4462C225.603 29.1551 225.247 29.0422 223.481 28.7749H223.457L223.332 28.9234L223.344 28.9472C223.528 29.4225 223.582 29.7314 223.582 30.3136V31.9711L223.564 34.1812C223.564 35.6426 223.968 35.8446 226.888 35.8446C229.23 35.8446 229.998 35.702 230.479 35.5476C230.836 35.4288 231.044 35.203 231.044 34.9357C231.044 34.6683 230.854 34.5376 230.646 34.4544L230.652 34.4485Z" fill="#263035"/>
<path d="M219.622 28.7153H219.598L219.473 28.8579V28.8817C219.592 29.3154 219.592 29.6124 219.586 29.951V30.0877C219.568 32.9869 217.874 34.9177 214.55 35.8266L214.496 35.8445L214.764 36.3079H214.794C216.774 35.987 218.23 35.3632 219.247 34.3889C220.353 33.3255 220.912 31.8759 220.954 29.957C221.34 29.856 221.691 29.7253 221.691 29.4401C221.691 29.2084 221.382 29.0421 219.628 28.7153H219.622Z" fill="#263035"/>
<path d="M227.607 28.8402L228.707 28.8046H228.725L228.933 28.5907L228.838 24.6875V21.4378C229.361 21.2536 229.54 21.117 229.54 20.9091C229.54 20.6595 229.308 20.4575 228.303 19.7149L228.291 19.703H228L227.411 20.4219H222.541C222.018 20.1189 221.566 19.8694 220.983 19.6139L220.954 19.6021L220.799 19.7565L220.811 19.7803C221.013 20.3387 221.084 20.7962 221.084 21.6041V24.6578L220.989 28.5016L222.072 28.4659H222.089L222.297 28.258V27.7293H227.607V28.8343V28.8402ZM227.607 24.4023V27.0223H222.297V24.4023H227.607ZM222.292 23.6835V21.1408H227.601V23.6835H222.292Z" fill="#263035"/>
<path d="M249.756 28.4124L249.637 28.3114H249.34L248.751 28.9947H241.723C241.241 28.7273 240.795 28.4837 240.219 28.2223L240.189 28.2104L240.04 28.3649V28.3887C240.225 28.9055 240.284 29.3571 240.284 30.1769V33.1058L240.195 36.3674V36.4149L241.235 36.3792H241.253L241.461 36.1713V29.7135H248.93V34.4425C248.93 34.7514 248.805 34.8762 248.496 34.8762C248.186 34.8762 247.758 34.8346 246.789 34.7098H246.747L246.64 35.2089L246.676 35.2208C247.729 35.5713 247.901 35.797 247.954 36.3971V36.4387H248.002C249.506 36.3852 250.149 35.8861 250.149 34.7752L250.095 31.9414V29.9808C250.553 29.8204 250.719 29.6838 250.719 29.4878C250.719 29.2561 250.535 29.0956 249.756 28.4243V28.4124Z" fill="#263035"/>
<path d="M246.747 23.3509H251.106V22.8459L249.952 21.6518L249.94 21.6399H249.643L248.87 22.632H244.815L245.1 22.0558C245.612 22.0379 245.891 21.9785 245.891 21.7349C245.891 21.5745 245.749 21.3904 244.785 21.1408C245.719 21.028 246.64 20.8497 247.598 20.6002C248.062 20.725 248.383 20.7844 248.614 20.7844C248.894 20.7844 249.031 20.6834 249.031 20.4814C249.031 20.2556 248.745 20.0061 247.497 19.1744H247.485L247.324 19.1685L247.312 19.1803C247.003 19.418 246.623 19.62 246.2 19.7626C244.619 20.321 242.668 20.6834 240.403 20.8497H240.355L240.397 21.3785H240.439C241.771 21.3963 242.966 21.3547 244.084 21.2359C244.018 21.4854 243.947 21.6934 243.84 21.9607C243.78 22.1152 243.715 22.2637 243.65 22.4122C243.62 22.4835 243.584 22.5607 243.554 22.632H241.949L240.379 22.5191L240.593 23.4281L240.605 23.4638L241.949 23.3509H243.186C242.52 24.5569 241.598 25.656 240.355 26.7194L240.32 26.7491L240.671 27.1234L240.7 27.1056C241.426 26.6243 242.02 26.1669 242.55 25.6619V26.6422L242.454 28.4304V28.4779L243.388 28.4423H243.406L243.614 28.2343V27.7828H246.789V28.3769L247.74 28.3353H247.758L247.966 28.1274L247.871 26.559V25.8164C248.46 26.3511 249.179 26.7907 250.059 27.1531L250.101 27.1709L250.119 27.1293C250.345 26.5827 250.66 26.3629 251.243 26.3451H251.278L251.391 25.8758H251.344C249.245 25.555 247.865 24.8005 246.747 23.3628V23.3509ZM246.795 25.5609V27.058H243.62V25.5609H246.795ZM243.661 24.848C243.602 24.8123 243.548 24.7886 243.483 24.7589C243.465 24.747 243.441 24.7411 243.424 24.7292C243.804 24.2836 244.137 23.7846 244.411 23.3509H246.058C246.302 23.8262 246.569 24.2717 246.86 24.6698L246.712 24.848H243.667H243.661Z" fill="#263035"/>
<path d="M237.543 29.803C237.698 29.096 237.793 28.3772 237.828 27.6048H240.617V27.0999L239.571 26.0186L239.559 26.0067H239.261L238.595 26.8919H237.87V23.5175H240.284V23.0125L239.202 21.8956L239.19 21.8837H238.893L238.191 22.8046H236.14C236.413 22.0976 236.633 21.4322 236.812 20.7727C237.436 20.6658 237.632 20.5886 237.632 20.3272C237.632 20.0183 237.258 19.846 235.759 19.3291H235.741L235.569 19.4004V19.4301C235.605 19.9113 235.539 20.3628 235.444 20.951C235.111 22.864 234.505 24.5452 233.642 25.9473L233.619 25.983L234.053 26.2859L234.077 26.2562C234.784 25.4245 235.355 24.5334 235.825 23.5293H236.639V26.9038H235.45L233.88 26.7909L234.094 27.6999L234.106 27.7355L235.45 27.6227H236.621C236.473 30.8011 235.593 32.8685 233.69 34.526L233.66 34.5498L233.964 34.9894L233.999 34.9657C235.747 33.7834 236.818 32.3516 237.371 30.4684C237.924 31.0625 238.28 31.6803 238.524 32.4586C238.714 33.1061 238.869 33.3913 239.25 33.3913C239.612 33.3913 239.886 33.0408 239.886 32.5715C239.886 31.6744 239.035 30.6763 237.549 29.8208L237.543 29.803Z" fill="#263035"/>
<path d="M247.211 34.3833H247.229L247.425 34.1873L247.437 34.1754L247.342 32.6129V31.6802C247.705 31.4604 247.824 31.3832 247.824 31.2109C247.824 31.0267 247.752 30.9673 247.205 30.492L246.944 30.2663H246.646L246.165 30.8188H243.983C243.572 30.5811 243.263 30.4267 242.823 30.2663L242.799 30.2544L242.651 30.4029V30.4267C242.781 30.8663 242.823 31.2584 242.823 31.9832V33.011L242.728 34.7042V34.7517L243.62 34.7101H243.638L243.846 34.5022V33.92H246.284V34.419L247.199 34.3774L247.211 34.3833ZM246.296 31.5317V33.213H243.858V31.5317H246.296Z" fill="#263035"/>
<path d="M269.307 33.1714H269.009L268.034 34.3893H263.325V28.0325H268.748V27.5275L267.41 26.167L267.398 26.1551H267.101L266.179 27.3136H263.331V21.7826H270.044V21.2776L268.706 19.8815L268.694 19.8696H268.397L267.457 21.0697H256.309L254.733 20.9568L254.977 21.9014L256.303 21.7886H261.993V34.3893H258.503V26.47C259.121 26.2918 259.311 26.1908 259.311 25.9234C259.311 25.6145 258.966 25.5016 257.028 25.1808H257.004L256.879 25.3294L256.891 25.3531C257.111 25.8106 257.183 26.1848 257.183 26.8799V34.3893H255.571L253.996 34.2764L254.239 35.221L255.565 35.1081H270.692V34.6032L269.33 33.1892L269.318 33.1773L269.307 33.1714Z" fill="#263035"/>
<path d="M287.305 25.3053H287.281L287.157 25.4478V25.4716C287.317 25.9112 287.365 26.238 287.365 26.8737V34.49H276.912V26.4994C277.488 26.3271 277.667 26.2142 277.667 26.0063C277.667 25.7033 277.256 25.5904 275.639 25.2993H275.615L275.49 25.4419V25.4657C275.651 25.9053 275.699 26.232 275.699 26.8677V32.3393L275.609 36.3911V36.4386L276.686 36.4029H276.703L276.912 36.195V35.2088H287.365V36.3732L288.465 36.3376H288.482L288.691 36.1237L288.595 32.4225V26.5053C289.142 26.3627 289.351 26.2261 289.351 26.0122C289.351 25.7211 289.024 25.6082 287.305 25.3053Z" fill="#263035"/>
<path d="M283.22 28.5077L283.559 28.7751L283.589 28.7513C284.296 28.175 284.927 27.5156 285.408 26.8443C285.914 26.8443 286.205 26.7908 286.205 26.5413C286.205 26.2918 285.955 26.1373 284.725 25.5967H284.707L284.54 25.662L284.511 25.7749C284.427 26.0898 284.35 26.3868 284.148 26.8562C283.91 27.4265 283.631 27.9255 283.25 28.4662L283.226 28.5018L283.22 28.5077Z" fill="#263035"/>
<path d="M289.475 22.9467H289.178L288.328 23.9805H283.03V22.2101H288.411V21.7051L287.216 20.5704L287.204 20.5585H286.907L286.134 21.4971H283.03V20.4694C283.648 20.2911 283.803 20.1842 283.803 19.9584C283.803 19.6495 283.452 19.5366 281.609 19.2515H281.585L281.46 19.4L281.472 19.4238C281.692 19.8812 281.763 20.2495 281.763 20.9506V23.9805H278.737V21.3902C279.355 21.212 279.51 21.111 279.51 20.8793C279.51 20.5644 279.165 20.4575 277.334 20.1723H277.31L277.185 20.3208L277.197 20.3446C277.417 20.8021 277.488 21.1763 277.488 21.8714V23.9805H275.253L273.677 23.8676L273.921 24.8122L275.247 24.6993H290.682V24.1943L289.487 22.9646L289.475 22.9527V22.9467Z" fill="#263035"/>
<path d="M277.542 29.6009L277.554 29.6365L278.897 29.5237H280.741C279.908 31.2644 278.802 32.4882 277.268 33.3615L277.227 33.3853L277.536 33.8071L277.572 33.7952C279.367 33.0169 280.592 31.9654 281.633 30.29L281.508 34.0269V34.0744L282.513 34.0328L282.709 33.8368L282.721 33.8249L282.649 30.9732V30.6108C283.518 31.1158 284.124 31.6505 284.742 32.4407C285.034 32.809 285.266 32.9753 285.498 32.9753C285.777 32.9753 286.074 32.809 286.074 32.3397C286.074 31.603 284.76 30.7178 282.643 30.0227V29.5296H286.954V29.0246L285.89 27.9612L285.878 27.9493H285.581L284.897 28.8167H282.643V26.2264C283.113 26.1254 283.381 26.0185 283.381 25.769C283.381 25.4898 283.054 25.3769 281.425 25.0977H281.401L281.276 25.2462L281.288 25.2699C281.514 25.7393 281.579 26.072 281.579 26.7611V28.8167H278.897L277.322 28.7038L277.542 29.6128V29.6009Z" fill="#263035"/>
<path d="M279.605 27.8365C279.813 28.3177 279.986 28.5851 280.33 28.5851C280.675 28.5851 280.872 28.3118 280.872 27.8781C280.872 27.2305 279.95 26.375 278.469 25.6443L278.434 25.6265L278.13 26.0423L278.166 26.0661C278.856 26.6008 279.343 27.1949 279.611 27.8365H279.605Z" fill="#263035"/>
<path d="M303.978 23.8556C304.174 24.325 304.352 24.4913 304.662 24.4913C305.084 24.4913 305.316 24.0695 305.316 23.6715C305.316 22.6912 304.531 21.8654 302.693 20.903L302.67 20.8911L302.277 21.2357L302.313 21.2713C303.086 22.0258 303.585 22.7982 303.978 23.8556Z" fill="#263035"/>
<path d="M303.496 27.8599C303.853 28.5965 304.055 28.7332 304.311 28.7332C304.608 28.7332 304.965 28.5965 304.965 27.949C304.965 26.9568 304.055 26.1192 302.004 25.2399L301.974 25.228L301.629 25.6201L301.665 25.6498C302.462 26.2677 303.062 26.9925 303.496 27.8658V27.8599Z" fill="#263035"/>
<path d="M300.725 28.9059C300.725 28.2762 299.917 27.2781 298.109 26.4642V24.8245H301.48V24.3195L300.404 23.1669H300.107L299.387 24.1056H298.109V21.2421C298.692 21.1292 299.233 21.0044 299.703 20.8678C300.107 20.9926 300.392 21.052 300.571 21.052C300.767 21.052 300.856 20.9807 300.856 20.8262C300.856 20.5708 300.666 20.3153 299.548 19.4836L299.536 19.4717H299.352L299.34 19.4836C299.144 19.6974 298.983 19.8044 298.597 19.9885C297.556 20.4282 295.885 20.8084 293.887 21.052H293.84L293.905 21.5807H293.947C294.874 21.5926 295.897 21.5391 296.979 21.4025V24.1056H295.35L293.774 23.9927L294.018 24.9373L295.344 24.8245H296.706C295.98 27.6464 294.964 29.9456 293.424 32.2685L293.4 32.2982L293.792 32.6487L293.822 32.613C295.273 31.0209 296.325 29.3336 297.039 27.4504L296.825 36.3142L297.907 36.2786H297.925L298.133 36.0707L298.097 31.615V27.183C298.68 27.7296 299.173 28.4128 299.429 29.0307C299.602 29.4643 299.792 29.6307 300.119 29.6307C300.392 29.6307 300.713 29.4406 300.713 28.9059H300.725Z" fill="#263035"/>
<path d="M307.783 30.159L310.994 29.3689L310.935 28.8877V28.8698L309.793 27.8836L309.775 27.8718L309.478 27.9371L308.812 29.1728L307.783 29.4283V20.5228C308.33 20.3743 308.574 20.2614 308.574 20.0119C308.574 19.7208 308.199 19.5901 306.451 19.2871H306.428L306.303 19.4297V19.4535C306.463 19.8871 306.511 20.2317 306.511 20.8555V29.7194L301.385 30.9611L299.833 31.2106L300.267 32.0542L300.285 32.0898L301.576 31.674L306.517 30.4561V32.5532L306.422 36.4505L307.664 36.4089L307.872 36.201L307.777 32.3691V30.159H307.783Z" fill="#263035"/>
</g>
<path d="M225.5 1.22021L226.484 1.47222C226.376 1.62822 226.376 1.62822 226.22 1.96422C225.908 2.61221 225.8 2.81622 225.668 3.03222C225.824 2.99621 225.824 2.99621 229.292 2.93621C229.712 2.93621 229.748 2.92422 229.916 2.85222L230.432 3.35622C230.324 3.50022 230.324 3.51222 230.192 3.94422C229.688 5.63622 228.812 7.26821 227.792 8.45621C226.688 9.71621 225.368 10.6642 223.616 11.4562C223.424 11.1082 223.328 10.9882 223.016 10.7482C224.828 10.0042 226.1 9.09222 227.252 7.71222C228.176 6.59622 228.896 5.19221 229.316 3.69221L225.272 3.76422C224.54 4.94022 223.58 5.99622 222.404 6.88422C222.2 6.58422 222.08 6.47622 221.732 6.26022C223.004 5.43222 223.916 4.43621 224.744 2.97222C225.2 2.18022 225.44 1.64022 225.5 1.22021Z" fill="#263035"/>
<path d="M210.044 4.66413L210.8 4.41213C211.28 5.24013 211.544 5.80413 211.988 7.07613L211.172 7.35213C210.884 6.29613 210.548 5.49213 210.044 4.66413ZM212.516 4.16013L213.248 3.93213C213.884 5.07213 214.1 5.55213 214.412 6.51213L213.62 6.78813C213.404 5.93613 213.032 5.06013 212.516 4.16013ZM216.68 4.14813L217.568 4.34013C217.496 4.53213 217.496 4.53213 217.304 5.31213C217.112 6.15213 216.68 7.25613 216.248 8.00013C215.396 9.46413 214.136 10.5681 212.276 11.4681C212.096 11.1681 212 11.0481 211.724 10.7961C213.572 9.96813 214.7 9.04413 215.528 7.66413C215.984 6.90813 216.332 6.00813 216.548 5.08413C216.632 4.68813 216.68 4.41213 216.68 4.26813V4.22013C216.68 4.18413 216.68 4.18413 216.68 4.14813Z" fill="#263035"/>
<path d="M197.612 4.03987V3.06787C198.008 3.12787 198.272 3.13987 198.896 3.13987H203.48C204.104 3.13987 204.368 3.12787 204.764 3.06787V4.03987C204.404 4.00387 204.08 3.99187 203.492 3.99187H198.884C198.296 3.99187 197.972 4.00387 197.612 4.03987ZM196.4 9.77587V8.76787C196.832 8.82787 197.084 8.83987 197.792 8.83987H204.596C205.304 8.83987 205.556 8.82787 205.988 8.76787V9.77587C205.592 9.72787 205.244 9.71587 204.608 9.71587H197.78C197.144 9.71587 196.808 9.72787 196.4 9.77587Z" fill="#263035"/>
<path d="M185.42 1.73584H186.416C186.38 2.02384 186.368 2.17984 186.368 2.73184V5.95984C186.368 6.53584 186.38 6.66784 186.416 6.95584H185.42C185.456 6.67984 185.468 6.42784 185.468 5.94784V2.74384C185.468 2.22784 185.456 2.02384 185.42 1.73584ZM190.724 1.73584H191.732C191.684 2.01184 191.672 2.20384 191.672 2.77984V4.19584C191.672 6.10384 191.588 7.15984 191.372 7.85584C191.024 8.98384 190.268 9.85984 189.092 10.5198C188.504 10.8558 187.928 11.0838 186.908 11.3838C186.776 11.0358 186.704 10.9158 186.404 10.5558C187.484 10.3158 188.06 10.1118 188.684 9.73984C189.8 9.09184 190.376 8.32384 190.604 7.20784C190.736 6.52384 190.772 5.97184 190.772 4.14784V2.79184C190.772 2.16784 190.76 1.99984 190.724 1.73584Z" fill="#263035"/>
<path d="M175.1 1.22021L176.084 1.47222C175.976 1.62822 175.976 1.62822 175.82 1.96422C175.508 2.61221 175.4 2.81622 175.268 3.03222C175.424 2.99621 175.424 2.99621 178.892 2.93621C179.312 2.93621 179.348 2.92422 179.516 2.85222L180.032 3.35622C179.924 3.50022 179.924 3.51222 179.792 3.94422C179.288 5.63622 178.412 7.26821 177.392 8.45621C176.288 9.71621 174.968 10.6642 173.216 11.4562C173.024 11.1082 172.928 10.9882 172.616 10.7482C174.428 10.0042 175.7 9.09222 176.852 7.71222C177.776 6.59622 178.496 5.19221 178.916 3.69221L174.872 3.76422C174.14 4.94022 173.18 5.99622 172.004 6.88422C171.8 6.58422 171.68 6.47622 171.332 6.26022C172.604 5.43222 173.516 4.43621 174.344 2.97222C174.8 2.18022 175.04 1.64022 175.1 1.22021Z" fill="#263035"/>
<path d="M159.428 5.45577V10.4838C159.428 11.1558 159.452 11.5278 159.5 11.8278H158.6C158.648 11.4918 158.672 11.1078 158.672 10.4718V2.68377C158.672 2.09577 158.66 1.74777 158.624 1.36377C158.948 1.39977 159.284 1.41177 159.872 1.41177H161.612C162.212 1.41177 162.5 1.39977 162.836 1.36377C162.812 1.68777 162.8 2.02377 162.8 2.50377V4.38777C162.8 4.90377 162.812 5.16777 162.836 5.49177C162.572 5.46777 162.116 5.45577 161.624 5.45577H159.428ZM159.428 2.02377V3.10377H162.104V2.02377H159.428ZM159.428 3.70377V4.84377H162.104V3.70377H159.428ZM168.2 2.68377V10.5918C168.2 11.4438 167.948 11.6478 166.904 11.6478C166.52 11.6478 166.016 11.6358 165.512 11.5998C165.464 11.2758 165.416 11.0838 165.296 10.7958C165.86 10.8798 166.388 10.9278 166.76 10.9278C167.348 10.9278 167.444 10.8798 167.444 10.6158V5.45577H165.104C164.588 5.45577 164.156 5.46777 163.892 5.49177C163.916 5.16777 163.928 4.84377 163.928 4.38777V2.50377C163.928 2.08377 163.916 1.72377 163.892 1.36377C164.216 1.39977 164.528 1.41177 165.116 1.41177H167C167.588 1.41177 167.924 1.39977 168.26 1.36377C168.212 1.78377 168.2 2.14377 168.2 2.68377ZM164.624 2.02377V3.10377H167.444V2.02377H164.624ZM164.624 3.70377V4.84377H167.444V3.70377H164.624Z" fill="#263035"/>
<path d="M150.32 2.71977H146.816C146.324 2.71977 145.964 2.74377 145.616 2.79177V1.99977C145.964 2.04777 146.3 2.07177 146.828 2.07177H150.32V1.96377C150.32 1.49577 150.308 1.24377 150.248 0.967773H151.112C151.064 1.26777 151.04 1.55577 151.04 1.96377V2.07177H154.844C155.372 2.07177 155.684 2.04777 156.044 1.99977V2.79177C155.684 2.74377 155.336 2.71977 154.856 2.71977H151.04V3.60777H153.932C154.4 3.60777 154.628 3.59577 154.952 3.55977C154.916 3.87177 154.904 4.06377 154.904 4.42377V6.66777C154.904 7.01577 154.916 7.19577 154.952 7.50777C154.604 7.47177 154.352 7.45977 153.92 7.45977H153.596V8.31177H154.856C155.384 8.31177 155.696 8.28777 156.056 8.23977V9.03177C155.708 8.98377 155.336 8.95977 154.868 8.95977H153.596V10.9158C153.596 11.5758 153.308 11.7678 152.324 11.7678C152.012 11.7678 151.868 11.7678 151.16 11.7318C151.124 11.4318 151.1 11.3358 150.932 10.9758C151.352 11.0478 151.88 11.0838 152.36 11.0838C152.792 11.0838 152.876 11.0358 152.876 10.7838V8.95977H146.816C146.348 8.95977 145.988 8.98377 145.616 9.03177V8.23977C145.964 8.28777 146.3 8.31177 146.828 8.31177H152.876V7.45977H147.716C147.284 7.45977 147.044 7.47177 146.696 7.50777C146.732 7.19577 146.744 6.99177 146.744 6.66777V4.42377C146.744 4.08777 146.732 3.88377 146.696 3.55977C147.008 3.59577 147.248 3.60777 147.716 3.60777H150.32V2.71977ZM150.32 4.21977H147.488V5.17977H150.32V4.21977ZM151.04 4.21977V5.17977H154.16V4.21977H151.04ZM150.32 5.76777H147.488V6.85977H150.32V5.76777ZM151.04 5.76777V6.85977H154.16V5.76777H151.04ZM150.212 10.7238L149.624 11.2638C148.988 10.5678 148.544 10.1718 147.86 9.69177L148.424 9.23577C149.204 9.77577 149.648 10.1478 150.212 10.7238Z" fill="#263035"/>
<path d="M138.116 10.5202V2.42021H134.72C134.168 2.42021 133.76 2.44421 133.364 2.49221V1.61621C133.736 1.66421 134.132 1.68821 134.696 1.68821H141.728C142.28 1.68821 142.664 1.66421 143.06 1.61621V2.49221C142.664 2.44421 142.244 2.42021 141.728 2.42021H138.944V5.84021H141.332C141.908 5.84021 142.268 5.81621 142.568 5.76821V6.63221C142.268 6.58421 141.884 6.56021 141.332 6.56021H138.944V10.5202H142.088C142.688 10.5202 143.06 10.4962 143.48 10.4362V11.3362C143.084 11.2762 142.664 11.2522 142.1 11.2522H134.288C133.724 11.2522 133.316 11.2762 132.896 11.3362V10.4362C133.268 10.4962 133.628 10.5202 134.276 10.5202H134.876V6.34421C134.876 5.75621 134.852 5.37221 134.792 4.96421H135.776C135.716 5.34821 135.692 5.75621 135.692 6.34421V10.5202H138.116Z" fill="#263035"/>
<path d="M122.048 3.30785H121.568C121.34 3.99185 121.184 4.32785 120.776 4.99985C120.596 4.79585 120.452 4.66385 120.212 4.50785C120.764 3.69185 121.064 2.87585 121.268 1.65185C121.304 1.39985 121.316 1.26785 121.328 1.02785L122.132 1.17185C122.072 1.31585 122.036 1.44785 121.976 1.75985C121.916 2.04785 121.856 2.27585 121.76 2.64785H122.816C123.344 2.64785 123.536 2.63585 123.752 2.59985V3.34385C123.416 3.31985 123.2 3.30785 122.864 3.30785H122.756C122.732 4.74785 122.732 4.83185 122.684 5.64785H123.092C123.5 5.64785 123.752 5.63585 123.968 5.59985V6.36785C123.752 6.33185 123.464 6.31985 123.092 6.31985H122.624C122.588 6.66785 122.564 6.77585 122.516 7.14785C122.888 7.87985 123.356 8.52785 123.956 9.11585C123.764 9.34385 123.752 9.35585 123.524 9.75185C123.02 9.19985 122.672 8.69585 122.324 8.04785C122 9.30785 121.556 10.1958 120.716 11.2278C120.536 10.9758 120.392 10.8078 120.152 10.6278C120.812 9.91985 121.196 9.28385 121.496 8.37185C121.724 7.69985 121.856 7.11185 121.928 6.31985H121.232C120.896 6.31985 120.596 6.34385 120.32 6.37985V5.58785C120.596 5.62385 120.896 5.64785 121.268 5.64785H121.988C122.024 4.99985 122.048 4.57985 122.048 3.30785ZM126.932 2.93585H129.584C130.112 2.93585 130.52 2.91185 130.82 2.86385V3.59585C130.472 3.55985 130.052 3.53585 129.584 3.53585H128.42C129.2 4.31585 129.956 4.74785 131.144 5.11985C130.964 5.33585 130.832 5.52785 130.724 5.76785C130.04 5.45585 129.584 5.20385 129.08 4.83185V5.61185C129.08 6.05585 129.08 6.15185 129.104 6.37985C128.852 6.36785 128.588 6.35585 128.288 6.35585H126.056C125.756 6.35585 125.48 6.36785 125.252 6.37985C125.264 6.12785 125.276 5.99585 125.276 5.61185V4.84385C124.832 5.21585 124.604 5.38385 124.1 5.70785C123.992 5.47985 123.872 5.32385 123.656 5.15585C124.64 4.62785 125.156 4.21985 125.744 3.53585H125.12C124.556 3.53585 124.28 3.54785 123.992 3.59585V2.87585C124.304 2.92385 124.58 2.93585 125.108 2.93585H126.2C126.38 2.65985 126.476 2.49185 126.656 2.11985C125.852 2.19185 125.3 2.21585 124.364 2.23985C124.256 1.93985 124.208 1.84385 124.064 1.59185C124.316 1.60385 124.52 1.60385 124.64 1.60385C126.524 1.60385 128.888 1.29185 129.632 0.943848L130.124 1.57985C129.98 1.60385 129.92 1.61585 129.8 1.63985C129.176 1.78385 128.312 1.92785 127.436 2.03585C127.22 2.45585 127.136 2.59985 126.932 2.93585ZM127.64 3.53585H126.5C126.248 3.85985 126.068 4.06385 125.792 4.35185H128.48C128.096 4.01585 127.964 3.88385 127.64 3.53585ZM125.948 4.90385V5.80385H128.396V4.90385H125.948ZM124.172 10.5318V7.98785C124.172 7.47185 124.16 7.19585 124.124 6.93185C124.376 6.96785 124.724 6.97985 125.24 6.97985H129.392C129.968 6.97985 130.292 6.96785 130.532 6.91985C130.496 7.20785 130.484 7.60385 130.484 8.03585V10.9758C130.484 11.6358 130.244 11.7918 129.188 11.7918C128.9 11.7918 128.72 11.7918 128.276 11.7678C128.252 11.4798 128.228 11.3718 128.108 11.0238C128.588 11.0718 129.056 11.1078 129.344 11.1078C129.656 11.1078 129.764 11.0358 129.764 10.8318V7.57985H124.88V10.5798C124.88 11.3598 124.892 11.5878 124.928 11.8998H124.112C124.148 11.5758 124.172 11.0838 124.172 10.5318ZM128.732 8.99585V9.66785C128.732 10.1358 128.732 10.2198 128.756 10.3998C128.528 10.3758 128.456 10.3758 128.048 10.3758H126.464V11.0238H125.804C125.84 10.7118 125.84 10.6398 125.84 10.1358V9.05585C125.84 8.69585 125.828 8.43185 125.804 8.21585C125.972 8.23985 126.116 8.25185 126.56 8.25185H128.024C128.444 8.25185 128.612 8.23985 128.768 8.21585C128.732 8.40785 128.732 8.51585 128.732 8.99585ZM126.464 8.79185V9.81185H128.108V8.79185H126.464Z" fill="#263035"/>
<path d="M109.592 7.19607H108.68C108.728 6.83607 108.752 6.47607 108.752 5.85207V2.57607C108.752 2.01207 108.728 1.64007 108.68 1.26807H109.592C109.544 1.61607 109.52 1.94007 109.52 2.54007V5.91207C109.52 6.52407 109.544 6.90807 109.592 7.19607ZM117.236 2.56407V5.75607C117.236 6.27207 117.248 6.53607 117.296 6.93207C116.888 6.88407 116.552 6.87207 115.964 6.87207H112.724C112.16 6.87207 111.788 6.88407 111.392 6.93207C111.44 6.54807 111.452 6.18807 111.452 5.67207V2.63607C111.452 2.10807 111.44 1.77207 111.392 1.40007C111.8 1.44807 112.1 1.46007 112.712 1.46007H115.928C116.552 1.46007 116.9 1.44807 117.296 1.40007C117.248 1.71207 117.236 1.95207 117.236 2.56407ZM112.184 2.15607V3.77607H116.492V2.15607H112.184ZM112.184 4.46007V6.17607H116.492V4.46007H112.184ZM110.888 7.37607L111.776 7.41207C111.74 7.55607 111.728 7.66407 111.704 7.90407C111.62 8.96007 111.488 9.51207 111.152 10.0761C110.816 10.6401 110.276 11.1201 109.496 11.5161C109.136 11.7081 108.812 11.8281 108.044 12.0681C107.9 11.7921 107.852 11.7201 107.552 11.3601C108.416 11.1561 108.884 10.9761 109.4 10.6881C110.42 10.1001 110.912 9.20007 110.912 7.92807C110.912 7.71207 110.9 7.52007 110.888 7.37607ZM114.344 8.51607V10.5441C114.344 10.8561 114.56 10.9161 115.724 10.9161C117.092 10.9161 117.344 10.8441 117.452 10.4721C117.536 10.2081 117.584 9.66807 117.584 9.08007C117.584 9.04407 117.584 8.90007 117.584 8.78007C117.884 8.93607 118.004 8.98407 118.34 9.09207C118.304 10.3041 118.196 10.8681 117.944 11.2161C117.704 11.5401 117.176 11.6361 115.556 11.6361C114.752 11.6361 114.224 11.5881 113.972 11.4921C113.672 11.3721 113.588 11.2281 113.588 10.7961V8.54007C113.588 8.01207 113.564 7.71207 113.516 7.38807H114.404C114.356 7.67607 114.344 7.91607 114.344 8.51607Z" fill="#263035"/>
<path d="M99.92 1.18408H100.892C100.844 1.50808 100.82 1.86808 100.82 2.40808V10.6641C100.82 11.4321 100.544 11.6481 99.548 11.6481C99.056 11.6481 98.576 11.6241 97.892 11.5641C97.856 11.1921 97.808 11.0241 97.676 10.6761C98.444 10.8201 98.972 10.8801 99.452 10.8801C99.884 10.8801 99.992 10.8201 99.992 10.5801V2.39608C99.992 1.88008 99.968 1.53208 99.92 1.18408ZM102.728 4.04008L103.58 3.80008C103.676 4.49608 103.868 5.15608 104.324 6.28408C104.792 7.46008 105.296 8.32408 106.112 9.33208C105.8 9.54808 105.632 9.69208 105.428 9.93208C104.408 8.56408 103.952 7.68808 103.388 6.11608C103.376 6.10408 103.196 5.49208 102.812 4.28008C102.764 4.13608 102.764 4.13608 102.728 4.04008ZM97.016 3.87208L97.904 4.08808C97.844 4.28008 97.808 4.42408 97.556 5.40808C97.088 7.23208 96.536 8.46808 95.528 9.89608C95.288 9.68008 95.096 9.54808 94.796 9.40408C95.72 8.20408 96.212 7.22008 96.656 5.67208C96.86 4.95208 96.98 4.35208 97.016 3.87208Z" fill="#263035"/>
<path d="M88.448 3.04388C88.268 4.71188 87.812 6.54788 87.272 7.80788C86.576 9.39188 85.868 10.1119 85.004 10.1119C83.864 10.1119 83.012 8.86388 83.012 7.18388C83.012 5.95988 83.468 4.77188 84.272 3.87188C85.232 2.81588 86.54 2.27588 88.148 2.27588C89.492 2.27588 90.668 2.69588 91.448 3.46388C92.204 4.19588 92.612 5.23988 92.612 6.39188C92.612 8.25188 91.604 9.78788 89.864 10.5319C89.324 10.7599 88.868 10.9039 88.04 11.0839C87.92 10.6879 87.848 10.5679 87.62 10.2799C88.496 10.1359 89.06 9.97988 89.624 9.71588C90.944 9.11588 91.748 7.83188 91.748 6.35588C91.748 4.98788 91.052 3.88388 89.84 3.34388C89.396 3.15188 89.048 3.06788 88.448 3.04388ZM87.584 3.05588C86.864 3.11588 86.348 3.28388 85.796 3.61988C84.584 4.35188 83.84 5.70788 83.84 7.19588C83.84 8.34788 84.344 9.23588 84.992 9.23588C85.496 9.23588 85.976 8.67188 86.492 7.49588C86.984 6.36788 87.428 4.59188 87.584 3.05588Z" fill="#263035"/>
<path d="M74.66 2.76811V2.03611C74.66 1.65211 74.624 1.26811 74.576 1.01611H75.536C75.476 1.31611 75.452 1.62811 75.452 2.03611V2.76811H79.22C79.808 2.76811 80.228 2.74411 80.588 2.68411V3.54811C80.276 3.50011 79.928 3.47611 79.232 3.47611H71.216C70.628 3.47611 70.232 3.50011 69.884 3.54811V2.68411C70.28 2.74411 70.676 2.76811 71.228 2.76811H74.66ZM74.66 5.13211V4.73611C74.66 4.36411 74.648 4.08811 74.6 3.78811H75.5C75.464 4.00411 75.44 4.31611 75.44 4.74811V5.13211H78.284C78.764 5.13211 79.064 5.12011 79.424 5.08411C79.388 5.38411 79.376 5.66011 79.376 6.05611V9.51211C79.376 10.2921 79.136 10.4961 78.152 10.4961C77.66 10.4961 77.456 10.4841 76.904 10.4481C76.868 10.1361 76.82 9.93211 76.7 9.64411C77.252 9.72811 77.72 9.76411 78.104 9.76411C78.488 9.76411 78.584 9.69211 78.584 9.42811V5.81611H75.44V10.5921C75.44 11.0841 75.464 11.4921 75.524 11.9001H74.576C74.636 11.4441 74.66 11.0601 74.66 10.5921V5.81611H71.816V9.42811C71.816 9.98011 71.84 10.3761 71.888 10.7241H70.94C70.988 10.3401 71.012 9.96811 71.012 9.42811V6.06811C71.012 5.69611 71 5.39611 70.964 5.08411C71.312 5.12011 71.624 5.13211 72.116 5.13211H74.66Z" fill="#263035"/>
<path d="M62.108 3.27219V2.24019C62.108 1.65219 62.084 1.36419 62.024 0.992188H62.984C62.924 1.36419 62.9 1.70019 62.9 2.21619V3.27219H66.416C66.824 3.27219 67.052 3.26019 67.328 3.22419C67.28 3.53619 67.268 3.78819 67.268 4.17219V7.44819C67.268 7.84419 67.292 8.15619 67.34 8.51619H66.476V7.70019H62.9V10.4962C62.9 11.1802 62.912 11.4802 62.984 11.8642H62.024C62.084 11.4562 62.108 11.1442 62.108 10.4962V7.70019H58.724V8.51619H57.86C57.908 8.16819 57.932 7.83219 57.932 7.44819V4.17219C57.932 3.80019 57.908 3.53619 57.872 3.22419C58.16 3.26019 58.388 3.27219 58.772 3.27219H62.108ZM62.108 3.99219H58.724V6.98019H62.108V3.99219ZM62.9 6.98019H66.476V3.99219H62.9V6.98019Z" fill="#263035"/>
<path d="M51.632 1.80794H53.12C53.684 1.80794 54.044 1.79594 54.428 1.74794C54.392 2.01194 54.38 2.22794 54.38 2.69594V4.56794C54.38 5.04794 54.392 5.25194 54.428 5.51594C54.02 5.47994 53.732 5.46794 53.156 5.46794H46.952C46.22 5.46794 46.052 5.47994 45.68 5.51594C45.716 5.25194 45.728 5.03594 45.728 4.56794V2.69594C45.728 2.25194 45.716 2.02394 45.68 1.74794C46.064 1.79594 46.424 1.80794 46.976 1.80794H48.332C48.332 1.31594 48.32 1.15994 48.26 0.835938H49.112C49.052 1.11194 49.028 1.38794 49.028 1.74794V1.80794H50.936C50.936 1.32794 50.924 1.14794 50.864 0.835938H51.716C51.656 1.15994 51.632 1.37594 51.632 1.80794ZM48.332 2.39594H46.448V3.31994H48.332V2.39594ZM49.028 2.39594V3.31994H50.936V2.39594H49.028ZM51.632 2.39594V3.31994H53.66V2.39594H51.632ZM48.332 3.87194H46.448V4.90394H48.332V3.87194ZM49.028 3.87194V4.90394H50.936V3.87194H49.028ZM51.632 3.87194V4.90394H53.66V3.87194H51.632ZM46.016 10.9759H48.248C48.044 10.6279 47.852 10.3519 47.6 10.0759L48.284 9.81194C48.548 10.1599 48.776 10.5319 48.992 10.9759H51.116C51.404 10.5799 51.596 10.2559 51.764 9.81194L52.472 10.0879C52.244 10.4959 52.124 10.6759 51.896 10.9759H54.08C54.62 10.9759 54.992 10.9519 55.34 10.9039V11.7079C54.968 11.6479 54.62 11.6239 54.08 11.6239H46.016C45.44 11.6239 45.08 11.6479 44.696 11.7079V10.9039C45.08 10.9519 45.452 10.9759 46.016 10.9759ZM55.208 6.12794V6.90794C54.848 6.85994 54.452 6.83594 53.876 6.83594H46.124C45.572 6.83594 45.188 6.85994 44.84 6.90794V6.12794C45.176 6.18794 45.536 6.21194 46.124 6.21194H53.876C54.488 6.21194 54.86 6.18794 55.208 6.12794ZM46.256 8.97194V8.31194C46.256 7.96394 46.244 7.72394 46.196 7.47194C46.592 7.51994 47.012 7.53194 47.588 7.53194H52.424C52.988 7.53194 53.396 7.51994 53.792 7.47194C53.744 7.71194 53.732 7.95194 53.732 8.31194V8.97194C53.732 9.29594 53.744 9.54794 53.792 9.79994C53.384 9.76394 53 9.75194 52.448 9.75194H47.564C46.844 9.75194 46.592 9.76394 46.196 9.79994C46.244 9.53594 46.256 9.29594 46.256 8.97194ZM47.024 8.11994V9.16394H52.976V8.11994H47.024Z" fill="#263035"/>
<defs>
<clipPath id="clip0_10347_205">
<rect width="311" height="34" fill="white" transform="translate(0 17)"/>
</clipPath>
</defs>
</svg>
