<svg width="154" height="176" viewBox="0 0 154 176" fill="none" xmlns="http://www.w3.org/2000/svg">
<path d="M85.3517 134.675C77.2385 131.551 66.9839 121.934 63.4551 119.209C55.9452 113.389 26.6593 85.5492 8.02002 69.1942C4.70236 66.2847 0.20843 70.3887 1.92758 74.7378C8.89467 92.2259 15.8618 110.449 23.3114 126.865C29.4039 140.249 39.2362 160.372 46.4446 175.226C43.7905 166.436 38.7838 150.418 36.7027 143.312C34.8328 136.972 29.7055 126.712 35.2249 120.587C35.7074 120.066 36.2503 119.607 36.9742 119.79C39.568 120.434 90.2377 166.16 97.6874 172.745C102.242 176.727 108.063 174.215 110.807 168.427C118.77 151.765 146.065 91.9809 152.308 68.061C144.316 84.7835 108.244 143.404 85.3216 134.645L85.3517 134.675Z" fill="#F0ECE9"/>
<path d="M153.454 42.2113C149.473 26.4076 140.998 8.58256 125.134 2.05896C112.104 -3.27019 106.042 2.85527 95.4858 8.12315C89.7251 11.0021 83.3311 12.166 76.937 12.0434C70.543 12.1966 64.149 11.0327 58.3883 8.12315C47.8321 2.82464 41.7698 -3.27019 28.7405 2.05896C12.9062 8.55194 4.40087 26.377 0.44984 42.2113C0.268876 42.9463 -0.153372 43.8958 0.0577523 44.6308C0.238716 45.3046 0.841927 45.7334 1.23401 44.9677C6.27083 35.3202 11.2473 27.6021 20.8685 21.8442C29.4341 16.7294 40.3221 14.4324 49.0084 20.5578C56.1564 25.5807 63.9982 29.7154 72.8352 30.1135C74.1924 30.1748 75.5798 30.1442 76.937 30.1135C78.3244 30.1748 79.6817 30.1748 81.0389 30.1135C89.8759 29.6847 97.7177 25.5807 104.866 20.5578C113.552 14.463 124.44 16.7294 133.006 21.8442C142.627 27.6021 147.603 35.3202 152.64 44.9677C153.032 45.7028 153.635 45.3046 153.816 44.6308C154.027 43.8652 153.605 42.9157 153.424 42.2113H153.454Z" fill="#F0ECE9"/>
</svg>
