<svg width="270" height="108" viewBox="0 0 270 108" fill="none" xmlns="http://www.w3.org/2000/svg">
<g clip-path="url(#clip0_10347_57)">
<path d="M136.915 30.1625C135.066 29.468 132.729 27.3075 131.924 26.6979C130.214 25.3939 123.536 19.1669 119.28 15.5017C118.522 14.8535 117.493 15.7718 117.895 16.744C119.489 20.6561 121.076 24.738 122.77 28.4186C124.155 31.4125 126.399 35.9188 128.04 39.2522C127.436 37.2845 126.291 33.6965 125.819 32.107C125.393 30.6872 124.225 28.3877 125.486 27.0143C125.595 26.8985 125.718 26.7982 125.881 26.8368C126.477 26.9834 138.029 37.2228 139.732 38.6966C140.769 39.5917 142.092 39.0207 142.726 37.7243C144.537 33.9897 150.766 20.6021 152.198 15.2471C150.371 18.9894 142.146 32.1224 136.923 30.1548L136.915 30.1625Z" fill="#263035"/>
<path d="M152.445 9.45255C151.54 5.91082 149.605 1.92155 145.992 0.463186C143.02 -0.732824 141.635 0.640658 139.229 1.82124C137.913 2.4694 136.459 2.73175 134.996 2.69317C133.534 2.72403 132.079 2.4694 130.763 1.82124C128.357 0.640658 126.972 -0.732824 124.001 0.463186C120.387 1.91383 118.452 5.91082 117.547 9.45255C117.508 9.61459 117.416 9.83065 117.462 10.0004C117.501 10.1547 117.64 10.2473 117.733 10.0776C118.878 7.91703 120.015 6.1886 122.213 4.9C124.163 3.75028 126.647 3.24102 128.628 4.60678C130.261 5.73335 132.04 6.65157 134.06 6.75188C134.369 6.76732 134.687 6.7596 134.996 6.75188C135.306 6.7596 135.623 6.76732 135.932 6.75188C137.952 6.65929 139.732 5.73335 141.364 4.60678C143.345 3.24102 145.829 3.75028 147.779 4.9C149.977 6.1886 151.114 7.91703 152.259 10.0776C152.345 10.2473 152.484 10.147 152.53 10.0004C152.577 9.83065 152.484 9.62231 152.445 9.45255Z" fill="#263035"/>
<path d="M38.9838 79.415L37.2195 75.2251H36.1826V81.9691H37.2272V77.7792L38.9915 81.9691H40.0284V75.2251H38.9838V79.415Z" fill="#263035"/>
<path d="M50.3817 75.225H49.3449L47.9211 81.9535V81.969H48.9657L49.2133 80.8192H50.5288L50.7686 81.9535V81.969H51.821L50.3972 75.2327V75.2173L50.3817 75.225ZM50.4282 80.3717H49.3062L49.8556 77.7328L50.4282 80.3717Z" fill="#263035"/>
<path d="M62.9404 75.4023C62.5767 75.2711 62.2672 75.2017 61.6172 75.2017C61.2768 75.2017 61.0137 75.2171 60.7583 75.2634C60.503 75.302 60.3095 75.356 60.147 75.41C59.9768 75.4717 59.8685 75.5412 59.7756 75.6492C59.6827 75.7264 59.6827 75.819 59.6905 75.9193C59.6905 75.9347 59.6905 75.9501 59.6905 75.9733V81.2589C59.6905 81.2589 59.6905 81.2897 59.6905 81.3052C59.6905 81.4055 59.6905 81.4904 59.7756 81.5752C59.8762 81.6755 59.9845 81.745 60.147 81.8067C60.356 81.8839 60.5339 81.9302 60.7583 81.961C61.0369 81.9996 61.3 82.0151 61.6095 82.0151C62.2595 82.0151 62.569 81.9456 62.9327 81.8144C63.3273 81.6678 63.5285 81.4826 63.5285 81.2666V75.981C63.5285 75.7649 63.3273 75.5798 62.9327 75.4254L62.9404 75.4023ZM62.4761 81.2357C62.4761 81.3438 62.4065 81.4286 62.2595 81.4981C62.097 81.5752 61.8958 81.6061 61.594 81.6061C61.2922 81.6061 61.1143 81.5752 60.9672 81.4981C60.797 81.4209 60.7738 81.3206 60.7738 81.2357V75.9578C60.7738 75.873 60.797 75.7727 60.9672 75.7032C61.1143 75.6261 61.3077 75.5875 61.5863 75.5875C61.8648 75.5875 62.0815 75.6261 62.2517 75.7032C62.3988 75.7649 62.4684 75.8498 62.4684 75.9578V81.2357H62.4761Z" fill="#263035"/>
<path d="M73.8509 78.4968L75.561 75.2482L75.5688 75.2251H74.5241L72.814 78.4813H72.4736V75.2251H71.429V81.9691H72.4736V78.9289H72.814L74.5164 81.9613L74.5241 81.9691H75.5688L73.7581 78.7128L73.8509 78.4968Z" fill="#263035"/>
<path d="M84.4906 75.2251H83.446V81.9691H84.4906V75.2251Z" fill="#263035"/>
<path d="M103.588 75.4335C103.201 75.2946 102.76 75.2329 102.118 75.2329H100.291V81.9692H102.118C102.76 81.9692 103.201 81.9074 103.588 81.7685C103.967 81.6219 104.145 81.4367 104.145 81.2052V75.9891C104.145 75.7576 103.952 75.5647 103.588 75.4258V75.4335ZM103.085 81.213C103.085 81.3056 103.007 81.3904 102.853 81.4753C102.706 81.5448 102.443 81.5833 102.125 81.5833H101.352V75.6187H102.125C102.358 75.6187 102.675 75.6496 102.853 75.7345C102.961 75.7885 103.085 75.8734 103.085 75.9968V81.213ZM103.077 75.9119C103.077 75.9119 103.077 75.9119 103.077 75.9197C103.077 75.9197 103.077 75.9196 103.077 75.9119Z" fill="#263035"/>
<path d="M112.038 81.9691H115.319V81.5215H113.082V78.9289H114.545V78.4813H113.082V75.6804H115.319V75.2251H112.038V81.9691Z" fill="#263035"/>
<path d="M126.005 79.415L124.248 75.2328V75.2251H123.204V81.9691H124.248V77.7792L126.012 81.9613V81.9691H127.057V75.2251H126.005V79.415Z" fill="#263035"/>
<path d="M134.942 75.6805H136.343V81.9692H137.387V75.6805H138.788V75.2329H134.942V75.6805Z" fill="#263035"/>
<path d="M149.141 75.225H148.104L146.68 81.9535V81.969H147.725L147.973 80.8192H149.288L149.528 81.9535V81.969H150.58L149.157 75.2327V75.2173L149.141 75.225ZM149.195 80.3717H148.073L148.623 77.7328L149.195 80.3717Z" fill="#263035"/>
<path d="M159.502 75.2251H158.458V81.9691H161.692V81.5215H159.502V75.2251Z" fill="#263035"/>
<path d="M180.751 75.3793C180.387 75.2482 180.077 75.1787 179.427 75.1787C179.087 75.1787 178.816 75.2096 178.576 75.2404C178.321 75.279 178.127 75.333 177.965 75.387C177.795 75.4488 177.686 75.5182 177.594 75.6263C177.501 75.7034 177.501 75.796 177.508 75.8963C177.508 75.9117 177.508 75.9272 177.508 75.9503V81.2359C177.508 81.2359 177.508 81.2668 177.508 81.2822C177.508 81.3825 177.508 81.4674 177.594 81.5523C177.694 81.6526 177.802 81.722 177.965 81.7838C178.174 81.8609 178.352 81.9072 178.576 81.9381C178.855 81.9767 179.118 81.9921 179.427 81.9921C180.077 81.9921 180.387 81.9227 180.751 81.7915C181.145 81.6449 181.346 81.4597 181.346 81.2436V79.3146H180.279V81.2359C180.279 81.3439 180.209 81.4288 180.062 81.4983C179.899 81.5754 179.698 81.6063 179.396 81.6063C179.095 81.6063 178.917 81.5754 178.77 81.4983C178.599 81.4211 178.576 81.3208 178.576 81.2359V75.958C178.576 75.8732 178.599 75.7729 178.77 75.7034C178.917 75.6263 179.11 75.5877 179.389 75.5877C179.667 75.5877 179.884 75.6263 180.054 75.7034C180.201 75.7651 180.271 75.85 180.271 75.958V77.8794H181.339V75.958C181.339 75.742 181.137 75.5568 180.743 75.4025L180.751 75.3793Z" fill="#263035"/>
<path d="M190.284 75.2251H189.239V81.9691H192.474V81.5215H190.284V75.2251Z" fill="#263035"/>
<path d="M201.411 75.2251H200.366V81.9691H201.411V75.2251Z" fill="#263035"/>
<path d="M212.105 79.415L210.34 75.2328V75.2251H209.296V81.9691H210.34V77.7792L212.105 81.9613V81.9691H213.149V75.2251H212.105V79.415Z" fill="#263035"/>
<path d="M222.079 75.2251H221.034V81.9691H222.079V75.2251Z" fill="#263035"/>
<path d="M233.817 77.8562V75.9349C233.817 75.7188 233.616 75.5337 233.222 75.3793C232.858 75.2482 232.548 75.1787 231.898 75.1787C231.558 75.1787 231.287 75.2096 231.047 75.2404C230.792 75.279 230.598 75.333 230.436 75.387C230.266 75.4488 230.157 75.5182 230.065 75.6263C229.972 75.7034 229.972 75.796 229.979 75.8963C229.979 75.9117 229.979 75.9272 229.979 75.9503V81.2359C229.979 81.2359 229.979 81.2668 229.979 81.2822C229.979 81.3825 229.979 81.4674 230.065 81.5523C230.165 81.6526 230.273 81.722 230.436 81.7838C230.645 81.8609 230.823 81.9072 231.047 81.9381C231.326 81.9767 231.589 81.9921 231.898 81.9921C232.548 81.9921 232.858 81.9227 233.222 81.7915C233.616 81.6449 233.817 81.4597 233.817 81.2436V79.3146H232.75V81.2359C232.75 81.3439 232.68 81.4288 232.533 81.4983C232.37 81.5754 232.169 81.6063 231.867 81.6063C231.566 81.6063 231.388 81.5754 231.241 81.4983C231.07 81.4211 231.047 81.3208 231.047 81.2359V75.958C231.047 75.8732 231.07 75.7729 231.241 75.7034C231.388 75.6263 231.581 75.5877 231.86 75.5877C232.138 75.5877 232.355 75.6263 232.525 75.7034C232.672 75.7651 232.742 75.85 232.742 75.958V77.8794H233.81L233.817 77.8562Z" fill="#263035"/>
<path d="M13.5878 64.6924C12.7135 64.2372 11.8932 63.9131 11.0034 63.6584C10.9105 63.2032 10.7944 62.7556 10.6861 62.3235C10.601 61.9917 10.5159 61.6522 10.4308 61.305C10.245 60.4717 10.2064 60.217 10.2064 59.7772C10.2064 59.2756 10.3611 58.8976 10.7171 58.5658C11.104 58.1954 11.8468 58.0025 12.3807 58.0025C12.6206 58.0025 12.8527 58.0565 13.0771 58.1105C13.4099 58.2031 13.5801 58.2417 13.8509 58.2417C14.2378 58.2417 14.439 57.9176 14.439 57.6012C14.439 57.1151 14.145 56.7293 13.464 56.3203C12.4194 55.6876 11.0498 55.4176 9.71113 55.5873H9.67244L9.62601 56.0966H9.67244C10.895 56.2123 11.8313 56.6058 12.2569 56.9068C12.4039 57.0148 12.4271 57.0611 12.4271 57.092C12.4271 57.1305 12.3343 57.1537 12.2801 57.1614C11.5218 57.2694 10.7635 57.5935 10.1909 58.0411C9.51768 58.5812 9.09209 59.3451 9.09209 60.0241C9.09209 60.4254 9.11531 60.7031 9.30102 61.4979C9.47125 62.1847 9.59506 62.7942 9.71887 63.3652C9.27781 63.3035 8.89865 63.2804 8.52723 63.2804C6.42251 63.2804 5.31598 64.2912 5.31598 65.2943C5.31598 66.5134 6.3606 67.2696 8.03973 67.2696C9.90458 67.2696 11.1194 66.3205 11.1349 64.8467C11.8236 65.1631 12.4891 65.5489 13.17 66.035C13.82 66.5134 14.0444 66.6369 14.2378 66.6369C14.5473 66.6369 14.7872 66.3668 14.7872 66.0196C14.7872 65.5721 14.3616 65.0937 13.5878 64.677V64.6924ZM9.85815 64.3915V64.6153C9.85815 65.711 9.13078 66.3128 7.79986 66.3128C6.73202 66.3128 6.09751 65.927 6.09751 65.2788C6.09751 64.6307 6.99511 64.1754 8.23318 64.1754C8.79032 64.1754 9.30876 64.2449 9.86589 64.3915H9.85815Z" fill="#263035"/>
<path d="M6.97189 55.5253C7.49033 55.3633 8.00103 55.2012 8.24091 55.0778C8.49626 54.9543 8.62007 54.7768 8.62007 54.5531C8.62007 54.4451 8.5659 54.337 8.45757 54.2367C8.27186 54.0592 7.9546 53.9358 7.69925 53.9358C7.68378 53.9358 7.67604 53.9358 7.66056 53.9358C7.51354 53.9358 7.32009 53.9975 7.18855 54.0901C7.00284 54.2213 6.8326 54.3139 6.61594 54.3988C6.40702 54.4914 6.11297 54.5762 5.74929 54.6843L5.57132 54.7383C5.66417 54.4682 5.78798 54.1441 5.935 53.82C5.96595 53.7583 5.98917 53.7043 6.01238 53.6426C6.07428 53.5037 6.12071 53.3879 6.17488 53.3031C6.24452 53.195 6.31416 53.0253 6.31416 52.8709C6.31416 52.5932 6.1594 52.3231 5.83441 52.0376C5.63322 51.8601 5.06061 51.4512 4.05468 51.4512H4.02373L3.80707 51.9064L3.8535 51.9219C4.69693 52.2845 4.813 52.5623 4.813 52.8092C4.813 53.033 4.77431 53.249 4.68146 53.6117C4.58086 53.9667 4.44158 54.3988 4.22492 55.0546C3.09518 55.263 2.569 55.3247 1.96544 55.3247C1.43152 55.3247 0.897601 55.1009 0.379159 54.6457L0.348207 54.6148L0 54.9852L0.0154759 55.0161C0.425587 55.8571 1.20712 56.3587 2.10472 56.3587C2.61542 56.3587 3.10291 56.3124 3.82254 56.2043C3.08744 58.172 2.27495 60.0316 1.37735 62.0841C1.10653 62.6551 0.820222 63.1566 0.541656 63.6196C0.410111 63.8511 0.270828 64.1289 0.270828 64.4761C0.270828 64.8619 0.533918 65.3017 0.889863 65.3017C1.26902 65.3017 1.42378 65.24 1.91901 64.0517C3.12613 61.1504 4.17849 58.5038 5.13026 55.9651C5.65644 55.8571 6.19035 55.7182 6.66237 55.5871C6.7707 55.5562 6.87129 55.533 6.97189 55.5022V55.5253Z" fill="#263035"/>
<path d="M30.6732 58.7818C29.1798 58.7818 27.284 59.3759 25.04 60.5565C25.04 59.4839 25.0555 58.2416 25.0942 56.8604C25.8293 56.6058 26.5953 56.3203 27.3769 55.9962C27.9959 55.7339 28.1893 55.5564 28.1893 55.2477C28.1893 54.9545 27.787 54.6999 27.3227 54.6999C27.1292 54.6999 26.9358 54.7771 26.4638 55.0394C26.0227 55.2863 25.6126 55.4869 25.1406 55.6799C25.1638 55.3403 25.2025 54.9931 25.2334 54.6845L25.2644 54.3681C25.3031 54.0363 25.3418 53.828 25.3959 53.6351C25.4578 53.4344 25.4888 53.2261 25.4888 53.0641C25.4888 52.7863 25.2721 52.4931 24.9239 52.3002C24.5138 52.0841 24.0573 51.9761 23.562 51.9761C23.299 51.9761 23.0668 51.9992 22.8656 52.0532H22.8347L22.7883 52.5394H22.8269C23.6859 52.7477 24.0031 53.0795 24.0031 53.7817C24.0031 54.6227 23.9799 55.4021 23.9644 56.0888C22.9972 56.4052 22.5484 56.4669 22.1692 56.4669C21.6276 56.4669 21.2329 56.2971 20.8073 55.8882L20.7764 55.8573L20.4204 56.1891L20.4359 56.22C20.7996 57.0379 21.4264 57.524 22.1151 57.524C22.6644 57.524 23.1906 57.4391 23.9644 57.2231C23.9489 58.5348 23.9489 59.8775 23.9489 61.1815C23.0513 61.7062 20.2657 63.4423 20.2657 64.7001C20.2657 64.9701 20.3818 65.4485 21.171 65.6569C21.9758 65.8652 22.4865 66.0813 22.7341 66.3359C22.8424 66.4439 22.9353 66.5365 23.0127 66.6291C23.1752 66.8066 23.299 66.9069 23.4924 66.9069C23.9257 66.9069 24.3281 66.6909 24.715 66.2433C25.0709 65.8344 25.1019 65.2248 25.1019 64.5226C25.1019 64.214 25.0864 63.8513 25.0709 63.4269V63.2572C25.0477 62.8019 25.0477 62.2155 25.0477 61.5364C27.0441 60.3713 29.0405 59.6846 30.4024 59.6846C31.95 59.6846 32.9095 60.5873 32.9095 62.038C32.9095 63.9825 31.6018 65.0396 30.3637 65.0396C29.7137 65.0396 29.0869 64.8853 28.3905 64.5458L28.3518 64.5303L28.0501 65.0242L28.081 65.0473C28.8471 65.7418 29.6982 66.0813 30.681 66.0813C32.4684 66.0813 34.3178 64.5998 34.3178 62.1229C34.3178 60.0781 32.925 58.8126 30.681 58.8126L30.6732 58.7818ZM23.9412 62.2155V64.0211C23.9412 65.2325 23.7091 65.4794 23.3376 65.4794C23.0591 65.4794 22.6412 65.3791 22.2156 65.2016C21.7823 65.0242 21.5192 64.8621 21.5192 64.6306C21.5192 64.1368 22.4478 63.2109 23.9412 62.2078V62.2155Z" fill="#263035"/>
<path d="M33.7452 55.1165C32.7857 54.5069 31.5708 54.2832 30.2321 54.4761H30.1934L30.1702 54.9699H30.2167C31.3387 55.0625 32.2285 55.4483 32.6541 55.7415C32.8011 55.8495 32.8785 55.9499 32.8785 56.0424C32.8785 56.1042 32.8476 56.1659 32.6928 56.2817C32.5148 56.4128 32.3446 56.5286 32.1589 56.652C31.9345 56.8064 31.6946 56.9684 31.447 57.1536L31.4083 57.1844L31.7565 57.6166L31.7875 57.6011C32.3136 57.3774 32.7315 57.2076 33.0874 57.0841C33.3969 56.9915 33.5362 56.9761 33.6291 56.9761C33.6987 56.9761 33.838 57.0147 33.9463 57.0456C34.016 57.0687 34.194 57.1227 34.3332 57.1227C34.6273 57.1227 34.8053 56.9144 34.8053 56.5594C34.8053 56.0502 34.4184 55.5255 33.7452 55.1088V55.1165Z" fill="#263035"/>
<path d="M53.1132 55.9809C52.8114 55.9809 52.6102 56.0889 52.4168 56.1969L51.8055 56.5056C51.2097 56.7911 50.5287 57.0766 49.4454 57.4932C49.0663 56.6522 48.78 55.9963 48.5324 55.3713C49.4609 55.0626 50.3585 54.7308 51.2793 54.3682C51.6043 54.2293 51.9216 54.075 51.9216 53.7663C51.9216 53.4422 51.5656 53.1799 51.1168 53.1799C50.7918 53.1799 50.5984 53.2802 50.4049 53.3728C50.343 53.4036 50.2811 53.4345 50.227 53.4654C50.1109 53.5271 49.9871 53.5888 49.8478 53.6506C49.2984 53.8975 48.6639 54.1753 48.1222 54.3759C47.9597 53.9361 47.8282 53.558 47.7276 53.2493C47.6348 52.9638 47.5961 52.8018 47.5651 52.4623C47.5264 52.0533 47.3794 51.8604 46.9616 51.6829C46.6211 51.544 46.2032 51.5132 45.9169 51.5132C45.5842 51.5132 45.2747 51.6135 44.7562 51.8913L44.7253 51.9067L44.8568 52.3697H44.8955C45.1199 52.3465 45.2437 52.3465 45.3211 52.3465C45.8628 52.3465 46.033 52.5626 46.327 53.0873C46.5747 53.5348 46.7836 54.0209 46.9848 54.4916C47.0157 54.5688 47.0544 54.6537 47.0854 54.7308C46.6752 54.8697 46.3193 54.9778 46.0175 55.0472C45.3134 55.217 44.7253 55.3018 44.2765 55.3018C43.8277 55.3018 43.2783 55.3018 42.4271 55.1166H42.3884L42.2569 55.5719L42.2878 55.5873C43.2319 56.058 43.9128 56.2432 44.7098 56.2432C45.1741 56.2432 45.6229 56.1583 46.2419 56.0194C46.5824 55.95 46.977 55.842 47.4877 55.6954C47.658 56.0966 47.8359 56.4901 48.0062 56.8682C48.1532 57.1846 48.3002 57.5164 48.4395 57.8405C47.4723 58.1723 46.7217 58.3729 46.2342 58.4886C45.383 58.6892 44.7253 58.7818 44.1604 58.7818C43.8122 58.7818 43.2319 58.751 42.164 58.4655H42.1253L41.9706 58.9207L42.0015 58.9362C43.0152 59.5149 43.7503 59.7386 44.6324 59.7386C45.0967 59.7386 45.708 59.6538 46.4508 59.4994C47.2479 59.2988 48.0526 59.0751 48.9115 58.805L49.1127 59.2139C49.4145 59.8312 49.7008 60.41 49.9561 60.9732C50.049 61.197 50.0799 61.2973 50.0799 61.3668C50.0799 61.4208 50.0412 61.4516 49.9793 61.4516C49.902 61.4516 49.7163 61.4362 49.577 61.4131C48.7645 61.3282 47.8282 61.2742 47.1937 61.2433H47.155L47.0699 61.7526L47.2943 61.7989C48.0139 61.9455 48.6407 62.0767 49.399 62.2618C49.8788 62.393 50.0335 62.4933 50.2115 62.8174C50.3972 63.1415 50.5597 63.2649 50.7918 63.2649C51.1014 63.2649 51.2871 63.0566 51.4496 62.5319C51.5579 62.2155 51.5656 61.8452 51.5656 61.7371C51.5656 61.4208 51.4573 61.1661 51.0781 60.5411C50.699 59.9084 50.4436 59.4609 49.9484 58.4732C51.0549 58.1028 52.2311 57.6939 53.4227 57.1691C53.8561 56.9762 54.0108 56.8142 54.0108 56.5519C54.0108 56.2278 53.6162 55.9654 53.1287 55.9654L53.1132 55.9809Z" fill="#263035"/>
<path d="M49.8633 66.0658C49.6002 65.9192 49.2829 65.8574 48.8728 65.8574C48.7568 65.8574 48.6484 65.8574 48.5401 65.8574C48.2074 65.8574 47.8901 65.8574 47.5574 65.8343C45.8241 65.6645 44.7795 65.3019 43.7271 64.4917C43.1545 64.0441 42.7444 63.4654 42.3652 62.5395L42.3497 62.4932L41.8855 62.7169V62.7478C42.0789 63.8589 42.4116 64.592 43.0539 65.2787C43.9283 66.2355 45.4294 66.9223 47.3949 67.2618C48.1919 67.4007 48.9115 67.4315 49.3758 67.4315C49.9716 67.4315 50.3353 67.1846 50.3353 66.7757C50.3353 66.521 50.1419 66.2355 49.8633 66.0658Z" fill="#263035"/>
<path d="M72.0632 66.0888H72.0787L72.2876 65.8728L72.1948 64.2987V63.3573C72.5584 63.1412 72.6822 63.0564 72.6822 62.8866C72.6822 62.7014 72.6126 62.6397 72.0632 62.1613L71.8156 61.9452H71.8001L71.4983 61.9375L71.0108 62.4931H68.8133C68.3954 62.2539 68.0859 62.0995 67.6448 61.9375H67.6216L67.4746 62.0764V62.0995C67.6062 62.5394 67.6448 62.9406 67.6448 63.6659V64.6999L67.552 66.4052V66.4515L68.4573 66.4129H68.4728L68.6817 66.1968V65.6104H71.1424V66.112L72.0632 66.0734V66.0888ZM71.1424 63.2184V64.9082H68.6817V63.2184H71.1424Z" fill="#263035"/>
<path d="M71.5914 54.97H75.9943V54.4607L74.8259 53.257L74.8104 53.2415H74.5086L73.7271 54.2447H69.6337L69.9278 53.6659C70.4462 53.6505 70.7248 53.5888 70.7248 53.3419C70.7248 53.1798 70.5855 52.9946 69.6105 52.7477C70.5468 52.632 71.4831 52.4545 72.4503 52.1999C72.9224 52.3233 73.2474 52.385 73.4718 52.385C73.7503 52.385 73.8896 52.2847 73.8896 52.0841C73.8896 51.8526 73.6033 51.6057 72.342 50.7646H72.3343H72.1718H72.1563C71.8468 51.0116 71.4599 51.2122 71.0343 51.3588C69.4403 51.9221 67.4671 52.2925 65.1844 52.4545H65.138L65.1844 52.9869H65.2231C66.5695 53.0101 67.7689 52.9638 68.9064 52.848C68.8445 53.1027 68.7748 53.311 68.6665 53.5811C68.6046 53.7354 68.5427 53.8897 68.473 54.0363C68.4421 54.1135 68.4111 54.1829 68.3802 54.2524H66.7552L65.1689 54.1366L65.3933 55.0857L66.7475 54.97H67.9933C67.3201 56.1814 66.3915 57.2925 65.138 58.3651L65.0993 58.396L65.4552 58.7741L65.4862 58.7509C66.2213 58.2648 66.8171 57.8018 67.351 57.2925V58.2802L67.2582 60.1321L68.2022 60.0935H68.2177L68.4266 59.8775V59.4222H71.6301V60.0164L72.5896 59.9778H72.6051L72.814 59.7617L72.7212 58.1799V57.4314C73.317 57.9716 74.0444 58.4114 74.9265 58.7818L74.9652 58.7972L74.9807 58.7586C75.2128 58.2108 75.5301 57.987 76.1104 57.9716H76.1414L76.2574 57.5009H76.211C74.0908 57.1768 72.698 56.4206 71.5682 54.97H71.5914ZM71.6456 57.2V58.7046H68.4421V57.2H71.6456ZM68.4808 56.4823C68.4189 56.4515 68.3647 56.4206 68.3028 56.3898C68.2796 56.382 68.2641 56.3743 68.2409 56.3589C68.6278 55.9114 68.9605 55.4098 69.2391 54.97H70.895C71.1349 55.4484 71.4135 55.8959 71.6998 56.2972L71.5528 56.4746H68.4808V56.4823Z" fill="#263035"/>
<path d="M74.6325 60.0702L74.5086 59.9698H74.2146L73.6188 60.6566H66.5231C66.0356 60.3865 65.5868 60.1473 65.0065 59.8772L64.9755 59.8618L64.8207 60.0161V60.0393C65.0065 60.5563 65.0684 61.0115 65.0684 61.8449V64.7925L64.9755 68.0796V68.1259L66.0279 68.0873H66.0433L66.2523 67.8789V61.3742H73.7968V66.1351C73.7968 66.4437 73.673 66.5749 73.3557 66.5749C73.0384 66.5749 72.6128 66.5363 71.6301 66.4051H71.5914L71.4831 66.9067L71.5218 66.9221C72.5819 67.2771 72.7599 67.5008 72.814 68.1104V68.1567H72.8605C74.3771 68.1027 75.0271 67.6012 75.0271 66.4746L74.9729 63.6196V61.6443C75.4372 61.4822 75.6074 61.3433 75.6074 61.1504C75.6074 60.9189 75.4217 60.7569 74.6402 60.0779L74.6325 60.0702Z" fill="#263035"/>
<path d="M62.2982 61.4745C62.4529 60.7646 62.5458 60.0393 62.5845 59.26H65.4011V58.7507L64.3487 57.6627L64.3333 57.6473H64.0315L63.3583 58.5346H62.6232V55.1395H65.0606V54.6302L63.9696 53.5037L63.9541 53.4882H63.6523L62.9482 54.4142H60.8744C61.1452 53.7043 61.3696 53.033 61.5553 52.3617C62.1899 52.2537 62.3833 52.1765 62.3833 51.9141C62.3833 51.5978 62.0041 51.428 60.4875 50.9033H60.472L60.2941 50.9728V51.0036C60.3327 51.4897 60.2631 51.945 60.1702 52.5314C59.8298 54.4605 59.2185 56.1503 58.3518 57.5624L58.3286 57.601L58.7697 57.9096L58.7929 57.8788C59.5048 57.0377 60.0851 56.1426 60.5571 55.1318H61.3774V58.5269H60.178L58.5917 58.4112L58.8161 59.3603L60.1702 59.2445H61.3542C61.2071 62.4467 60.3173 64.5301 58.3905 66.1968L58.3596 66.22L58.6691 66.6598L58.7078 66.6366C60.472 65.4406 61.5553 64.0054 62.1125 62.1072C62.6696 62.7091 63.0255 63.3264 63.2732 64.1134C63.4666 64.7616 63.6214 65.0548 64.0083 65.0548C64.3719 65.0548 64.6505 64.6999 64.6505 64.2292C64.6505 63.3264 63.7916 62.3156 62.2904 61.4591L62.2982 61.4745Z" fill="#263035"/>
<path d="M94.0779 64.8699L93.0874 66.0968H88.3363V59.6924H93.8071V59.1831L92.4529 57.8173L92.4374 57.8019H92.1357L91.2071 58.9748H88.3363V53.4037H95.1148V52.8944L93.7451 51.4746H93.4434L92.4916 52.6783H81.2406L79.6544 52.5626L79.902 53.5117L81.2406 53.3959H86.9822V66.0968H83.4614V58.1183C84.0882 57.9408 84.2816 57.8328 84.2816 57.5627C84.2816 57.2463 83.9334 57.1383 81.9757 56.8142H81.9525L81.821 56.9608L81.8365 56.984C82.0609 57.4469 82.1305 57.8173 82.1305 58.5272V66.0891H80.5055L78.9193 65.9733L79.1669 66.9224L80.5055 66.8067H95.7802V66.2974L94.3951 64.8622H94.0934L94.0779 64.8699Z" fill="#263035"/>
<path d="M104.772 59.4918C104.981 59.9779 105.159 60.2403 105.499 60.2403C105.84 60.2403 106.049 59.9702 106.049 59.5304C106.049 58.8822 105.12 58.018 103.619 57.285L103.588 57.2695L103.278 57.6862L103.317 57.7094C104.013 58.2495 104.509 58.8513 104.772 59.4918Z" fill="#263035"/>
<path d="M102.69 61.3052L104.052 61.1895H105.917C105.081 62.9487 103.959 64.1756 102.412 65.063L102.365 65.0861L102.675 65.5105L102.706 65.4951C104.516 64.7158 105.754 63.6509 106.807 61.9688L106.683 65.7343V65.7806L107.697 65.742L107.906 65.5337L107.828 62.6555V62.2852C108.703 62.7944 109.322 63.3346 109.941 64.1293C110.235 64.4997 110.467 64.6695 110.699 64.6695C110.985 64.6695 111.287 64.4997 111.287 64.029C111.287 63.2883 109.964 62.3932 107.828 61.6987V61.1972H112.185V60.6879L111.094 59.5999H110.792L110.103 60.4719H107.828V57.8638C108.3 57.7635 108.571 57.6554 108.571 57.4008C108.571 57.1153 108.238 57.0073 106.598 56.7295H106.575L106.451 56.8761L106.466 56.8992C106.691 57.3699 106.76 57.7095 106.76 58.4039V60.4719H104.052L102.466 60.3561L102.69 61.3052Z" fill="#263035"/>
<path d="M114.738 54.5688H114.436L113.578 55.6105H108.231V53.8281H113.663V53.3188L112.448 52.1614H112.146L111.364 53.1105H108.231V52.0765C108.857 51.899 109.012 51.791 109.012 51.5595C109.012 51.2509 108.656 51.1351 106.799 50.8496H106.776L106.644 50.9962L106.66 51.0194C106.884 51.4823 106.954 51.8527 106.954 52.5626V55.6182H103.897V53.0024C104.524 52.825 104.679 52.7169 104.679 52.4854C104.679 52.1691 104.331 52.061 102.481 51.7756H102.458L102.327 51.9222L102.342 51.9453C102.566 52.4083 102.636 52.7787 102.636 53.4885V55.6182H100.377L98.7903 55.5025L99.0379 56.4516L100.377 56.3358H115.969V55.8266L114.761 54.5842L114.746 54.5688H114.738Z" fill="#263035"/>
<path d="M112.548 56.9453H112.525L112.401 57.0919V57.1151C112.564 57.5626 112.61 57.8867 112.61 58.5271V66.2047H102.056V58.1568C102.574 58.0024 102.822 57.8867 102.822 57.6552C102.822 57.3466 102.404 57.2385 100.771 56.9453H100.748L100.624 57.0919V57.1151C100.787 57.5549 100.833 57.9021 100.833 58.5271V64.0365L100.74 68.1184V68.1647L101.831 68.1261H101.847L102.056 67.9177V66.9224H112.61V68.0952L113.717 68.0566H113.732L113.941 67.8406L113.848 64.1137V58.1568C114.405 58.0101 114.614 57.8713 114.614 57.6552C114.614 57.362 114.289 57.2462 112.548 56.9453Z" fill="#263035"/>
<path d="M108.416 60.1705L108.757 60.4406L108.788 60.4175C109.507 59.8387 110.142 59.1751 110.622 58.4961C111.132 58.4961 111.426 58.4421 111.426 58.1952C111.426 57.9483 111.171 57.7862 109.925 57.2461H109.91L109.74 57.3078L109.709 57.4236C109.623 57.7399 109.546 58.0409 109.345 58.5115C109.105 59.0825 108.826 59.5841 108.44 60.1397L108.416 60.1705Z" fill="#263035"/>
<path d="M129.378 55.4871C129.572 55.9578 129.758 56.1276 130.075 56.1276C130.508 56.1276 130.733 55.7109 130.733 55.302C130.733 54.3143 129.943 53.4809 128.086 52.5164L128.055 52.501L127.661 52.8482L127.692 52.8791C128.473 53.6353 128.976 54.4146 129.378 55.4794V55.4871Z" fill="#263035"/>
<path d="M128.891 59.5147C129.255 60.2555 129.456 60.3944 129.711 60.3944C130.013 60.3944 130.369 60.2555 130.369 59.6073C130.369 58.6042 129.448 57.7631 127.382 56.8758L127.351 56.8604L127.003 57.2539L127.042 57.2847C127.846 57.9098 128.45 58.6351 128.891 59.5147Z" fill="#263035"/>
<path d="M126.098 60.5718C126.098 59.9391 125.277 58.9359 123.451 58.1103V56.459H126.856V55.9498L125.78 54.8078L125.765 54.7924H125.463L124.736 55.7414H123.443V52.8556C124.031 52.7476 124.581 52.6164 125.053 52.4775C125.463 52.601 125.749 52.6627 125.927 52.6627C126.128 52.6627 126.214 52.5932 126.214 52.4312C126.214 52.1766 126.02 51.9142 124.89 51.0731H124.875L124.689 51.0654L124.674 51.0809C124.48 51.2969 124.318 51.4049 123.923 51.5901C122.871 52.03 121.184 52.4158 119.172 52.6627H119.126L119.195 53.1951H119.234C120.17 53.2105 121.207 53.1488 122.298 53.0176V55.7414H120.65L119.064 55.6257L119.311 56.5748L120.65 56.459H122.027C121.292 59.2986 120.271 61.6135 118.716 63.9592L118.692 63.9901L119.087 64.345L119.118 64.3141C120.58 62.7092 121.648 61.0039 122.368 59.1134L122.151 68.0411L123.242 68.0025H123.258L123.467 67.7941L123.428 63.3033V58.8356C124.016 59.3835 124.511 60.0779 124.774 60.6952C124.945 61.1273 125.138 61.2971 125.471 61.2971C125.749 61.2971 126.074 61.1042 126.074 60.5641L126.098 60.5718Z" fill="#263035"/>
<path d="M135.251 59.5378L135.236 59.5224L134.934 59.5841L134.261 60.8265L133.216 61.0888V52.1226C133.766 51.9683 134.013 51.8602 134.013 51.6056C134.013 51.3124 133.634 51.1812 131.87 50.8726H131.847L131.723 51.0192V51.0423C131.885 51.4821 131.932 51.8217 131.932 52.4544V61.382L126.755 62.632L125.184 62.8867L125.641 63.774L126.941 63.3574L131.924 62.1305V64.2447L131.831 68.126V68.1723L133.085 68.1337L133.302 67.9253L133.209 64.0673V61.8373L136.412 61.0502H136.451L136.389 60.5409L135.244 59.5456L135.251 59.5378Z" fill="#263035"/>
<path d="M144.135 57.7246C143.191 57.7246 142.394 58.5117 142.394 59.4376C142.394 60.3635 143.191 61.1737 144.135 61.1737C145.079 61.1737 145.852 60.379 145.852 59.4376C145.852 58.4962 145.063 57.7246 144.135 57.7246Z" fill="#263035"/>
<path d="M160.284 51.5596H160.26L160.137 51.7062L160.152 51.7293C160.377 52.1923 160.446 52.5627 160.446 53.2726V65.5259C160.446 65.8963 160.284 66.0583 159.912 66.0583C159.541 66.0583 159.084 66.0197 157.854 65.8191H157.815L157.707 66.3206L157.746 66.3361C158.961 66.7605 159.169 67.0305 159.224 67.671V67.7096H159.27C161.034 67.6556 161.824 67.1077 161.824 65.9348L161.746 62.1308V52.9022C162.396 52.7247 162.605 52.6244 162.605 52.3466C162.605 51.984 162.164 51.8759 160.299 51.5596H160.284Z" fill="#263035"/>
<path d="M163.944 55.8957L163.905 55.8726L163.572 56.2892L163.603 56.3201C165.491 58.2028 166.629 60.0084 167.294 62.1844C167.55 62.9946 167.766 63.257 168.192 63.257C168.679 63.257 168.942 62.848 168.942 62.0995C168.942 60.6797 167.395 58.2106 163.936 55.9034L163.944 55.8957Z" fill="#263035"/>
<path d="M158.496 56.8989C158.496 56.5903 158.094 56.3665 156.453 55.7646H156.43L156.26 55.8572V55.8804C156.26 56.3048 156.19 56.6829 156.02 57.2384C155.3 59.4916 154.101 61.4438 152.36 63.2185L152.329 63.2494L152.724 63.6043L152.755 63.5812C155.045 61.9145 156.291 60.2632 157.521 57.3002C158.001 57.3002 158.489 57.2462 158.489 56.9066L158.496 56.8989Z" fill="#263035"/>
<path d="M174.893 52.8094V56.598L174.8 60.5256L175.999 60.487L176.201 60.2864L176.216 60.2709L176.123 56.4128V52.439C176.704 52.2847 176.889 52.1689 176.889 51.9606C176.889 51.6674 176.456 51.5439 174.839 51.2275H174.816L174.692 51.3741V51.3973C174.854 51.8448 174.901 52.1689 174.901 52.8094H174.893Z" fill="#263035"/>
<path d="M188.875 66.1508C188.682 66.0814 188.605 66.0042 188.605 65.8807C188.605 65.6801 188.605 65.2712 188.62 64.0597V64.0211L188.094 63.9363V63.9826C187.893 65.1631 187.699 65.765 187.444 66.0196C187.189 66.2665 186.817 66.3591 185.223 66.3591C183.095 66.3591 183.018 66.228 183.018 65.6801V61.6137C183.575 61.4594 183.784 61.3282 183.784 61.1121C183.784 60.8189 183.42 60.7109 181.64 60.4331H181.617L181.493 60.5797V60.6029C181.687 61.0813 181.741 61.3899 181.741 61.9763V63.643L181.726 65.873C181.726 67.3468 182.136 67.5552 185.084 67.5552C187.452 67.5552 188.225 67.4085 188.705 67.2542C189.069 67.1308 189.278 66.907 189.278 66.6369C189.278 66.3669 189.084 66.2357 188.875 66.1508Z" fill="#263035"/>
<path d="M177.741 60.3789H177.717L177.594 60.5255V60.5487C177.71 60.9885 177.71 61.2817 177.71 61.6289V61.7678C177.694 64.6845 175.984 66.629 172.626 67.555L172.572 67.5704L172.842 68.0411H172.873C174.878 67.717 176.348 67.092 177.369 66.1043C178.483 65.0318 179.048 63.5734 179.087 61.6444C179.482 61.5441 179.83 61.4129 179.83 61.1274C179.83 60.8959 179.52 60.7261 177.748 60.3943L177.741 60.3789Z" fill="#263035"/>
<path d="M185.803 60.5025L186.91 60.4639H186.925L187.142 60.2479L187.049 56.3126V53.0409C187.575 52.8558 187.753 52.7169 187.753 52.5085C187.753 52.2539 187.514 52.0533 186.508 51.3048H186.492L186.198 51.2971L185.602 52.0224H180.681C180.147 51.7215 179.69 51.4668 179.102 51.2122L179.071 51.1968L178.917 51.3511V51.3743C179.133 51.9375 179.203 52.4005 179.203 53.2184V56.2972L179.11 60.1707L180.201 60.1321H180.217L180.426 59.9238V59.3914H185.788V60.5102L185.803 60.5025ZM185.803 56.0348V58.6738H180.441V56.0348H185.803ZM180.433 55.3095V52.7477H185.796V55.3095H180.433Z" fill="#263035"/>
<path d="M208.166 60.0702L208.05 59.9698H207.756L207.16 60.6566H200.064C199.577 60.3865 199.128 60.1473 198.548 59.8772L198.517 59.8618L198.362 60.0161V60.0393C198.548 60.5563 198.61 61.0115 198.61 61.8449V64.7925L198.517 68.0796V68.1259L199.569 68.0873H199.585L199.794 67.8789V61.3742H207.338V66.1351C207.338 66.4437 207.214 66.5749 206.897 66.5749C206.58 66.5749 206.154 66.5363 205.172 66.4051H205.133L205.025 66.9067L205.063 66.9221C206.123 67.2771 206.301 67.5008 206.355 68.1104V68.1567H206.402C207.918 68.1027 208.568 67.6012 208.568 66.4746L208.514 63.6196V61.6443C208.979 61.4822 209.149 61.3433 209.149 61.1504C209.149 60.9189 208.963 60.7569 208.182 60.0779L208.166 60.0702Z" fill="#263035"/>
<path d="M205.125 54.97H209.528V54.4607L208.36 53.257L208.344 53.2415H208.042L207.261 54.2447H203.167L203.461 53.6659C203.98 53.6505 204.258 53.5888 204.258 53.3419C204.258 53.1798 204.119 52.9946 203.144 52.7477C204.08 52.632 205.017 52.4545 205.984 52.1999C206.456 52.3233 206.781 52.385 207.005 52.385C207.284 52.385 207.423 52.2847 207.423 52.0841C207.423 51.8526 207.137 51.6057 205.876 50.7646H205.86H205.698H205.682C205.373 51.0116 204.986 51.2122 204.56 51.3588C202.966 51.9221 200.993 52.2925 198.71 52.4545H198.664L198.71 52.9869H198.749C200.095 53.0101 201.303 52.9638 202.432 52.848C202.37 53.1027 202.293 53.311 202.192 53.5811C202.131 53.7354 202.069 53.8897 201.999 54.0363C201.968 54.1135 201.937 54.1829 201.906 54.2524H200.281L198.695 54.1366L198.912 55.0471V55.0857L200.273 54.97H201.519C200.846 56.1814 199.91 57.2925 198.664 58.3651L198.625 58.396L198.981 58.7741L199.012 58.7509C199.747 58.2648 200.343 57.8018 200.877 57.2925V58.2802L200.784 60.0781V60.1244L201.728 60.0858H201.744L201.953 59.8698V59.4145H205.156V60.0086L206.116 59.9701H206.131L206.348 59.754L206.255 58.1799V57.4314C206.851 57.9716 207.57 58.4114 208.46 58.7818L208.499 58.7972L208.514 58.7586C208.746 58.2108 209.064 57.987 209.644 57.9716H209.675L209.791 57.5009H209.745C207.624 57.1768 206.232 56.4206 205.102 54.97H205.125ZM205.172 57.2V58.7046H201.968V57.2H205.172ZM202.014 56.4823C201.953 56.4515 201.898 56.4206 201.836 56.3898C201.813 56.382 201.798 56.3743 201.775 56.3589C202.161 55.9114 202.494 55.4098 202.773 54.97H204.436C204.676 55.4484 204.955 55.8959 205.241 56.2972L205.094 56.4746H202.022L202.014 56.4823Z" fill="#263035"/>
<path d="M195.832 61.4745C195.987 60.7646 196.079 60.0393 196.118 59.26H198.935V58.7507L197.882 57.6627L197.867 57.6473H197.565L196.892 58.5346H196.157V55.1395H198.594V54.6302L197.503 53.5037L197.488 53.4882H197.186L196.482 54.4142H194.408C194.687 53.7043 194.903 53.033 195.089 52.3617C195.723 52.2537 195.917 52.1765 195.917 51.9141C195.917 51.5978 195.538 51.428 194.021 50.9033H194.006L193.828 50.9728V51.0036C193.866 51.4897 193.797 51.945 193.704 52.5314C193.371 54.4605 192.752 56.1503 191.885 57.5624L191.862 57.601L192.303 57.9096L192.327 57.8788C193.038 57.0377 193.619 56.1426 194.091 55.1318H194.911V58.5269H193.712L192.125 58.4112L192.342 59.3217V59.3603L193.704 59.2445H194.888C194.741 62.4467 193.851 64.5301 191.924 66.1968L191.893 66.22L192.203 66.6598L192.241 66.6366C194.006 65.4406 195.089 64.0054 195.646 62.1072C196.203 62.7091 196.559 63.3264 196.807 64.1134C197 64.7616 197.155 65.0548 197.542 65.0548C197.906 65.0548 198.184 64.6999 198.184 64.2292C198.184 63.3264 197.325 62.3156 195.824 61.4591L195.832 61.4745Z" fill="#263035"/>
<path d="M205.589 66.0892H205.605L205.806 65.8886L205.822 65.8732L205.729 64.299V63.3577C206.092 63.1416 206.216 63.0567 206.216 62.887C206.216 62.7018 206.147 62.6401 205.597 62.1617L205.334 61.9302H205.032L204.545 62.4857H202.347C201.929 62.2465 201.62 62.0922 201.179 61.9302H201.156L201.009 62.0691V62.0922C201.14 62.532 201.179 62.9333 201.179 63.6586V64.6926L201.086 66.3979V66.4441L201.991 66.4056H202.007L202.216 66.1895V65.6031H204.676V66.1046L205.597 66.0661L205.589 66.0892ZM204.669 63.2188V64.9086H202.208V63.2188H204.669Z" fill="#263035"/>
<path d="M227.906 64.8699H227.604L226.613 66.0968H221.862V59.6924H227.333V59.1831L225.979 57.8173L225.963 57.8019H225.662L224.733 58.9748H221.862V53.4037H228.641V52.8944L227.287 51.49L227.271 51.4746H226.969L226.018 52.6783H214.759L213.173 52.5626L213.42 53.5117L214.759 53.3959H220.5V66.0968H216.98V58.1183C217.606 57.9408 217.8 57.8328 217.8 57.5627C217.8 57.2463 217.452 57.1383 215.494 56.8142H215.471L215.339 56.9608L215.355 56.984C215.579 57.4469 215.649 57.8173 215.649 58.5272V66.0891H214.024L212.437 65.9733L212.685 66.9224L214.024 66.8067H229.298V66.2974L227.929 64.8776L227.913 64.8622L227.906 64.8699Z" fill="#263035"/>
<path d="M246.074 56.9453H246.051L245.927 57.0919V57.1151C246.09 57.5626 246.136 57.8867 246.136 58.5271V66.2047H235.582V58.1568C236.162 57.987 236.348 57.8635 236.348 57.6552C236.348 57.3466 235.93 57.2385 234.297 56.9453H234.274L234.15 57.0919V57.1151C234.313 57.5626 234.359 57.8867 234.359 58.5271V64.0365L234.266 68.1184V68.1647L235.357 68.1261H235.373L235.582 67.9177V66.9224H246.136V68.0952L247.243 68.0566H247.258L247.475 67.8406L247.382 64.1137V58.1568C247.939 58.0101 248.148 57.8713 248.148 57.6552C248.148 57.362 247.823 57.2462 246.082 56.9453H246.074Z" fill="#263035"/>
<path d="M241.95 60.1705L242.29 60.4406L242.321 60.4175C243.041 59.8387 243.676 59.1751 244.163 58.4961C244.674 58.4961 244.968 58.4421 244.968 58.1952C244.968 57.9483 244.712 57.7862 243.467 57.2461H243.451L243.281 57.3078L243.25 57.4236C243.165 57.7399 243.087 58.0409 242.886 58.5115C242.646 59.0825 242.368 59.5841 241.981 60.1397L241.958 60.1705H241.95Z" fill="#263035"/>
<path d="M248.264 54.5688H247.962L247.103 55.6105H241.749V53.8281H247.181V53.3188L245.974 52.1768L245.958 52.1614H245.656L244.875 53.1105H241.741V52.0765C242.368 51.899 242.523 51.791 242.523 51.5595C242.523 51.2509 242.167 51.1351 240.31 50.8496H240.286L240.155 50.9962L240.17 51.0194C240.395 51.4823 240.464 51.8527 240.464 52.5626V55.6182H237.408V53.0024C238.035 52.825 238.189 52.7169 238.189 52.4854C238.189 52.1691 237.841 52.061 235.992 51.7756H235.969L235.837 51.9222L235.852 51.9453C236.077 52.4083 236.147 52.7787 236.147 53.4885V55.6182H233.887L232.301 55.5025L232.548 56.4516L233.887 56.3358H249.471V55.8266L248.264 54.5842L248.249 54.5688H248.264Z" fill="#263035"/>
<path d="M236.216 61.2665V61.3051L237.586 61.1894H239.451C238.615 62.9486 237.493 64.1755 235.945 65.0629L235.899 65.086L236.208 65.5104L236.239 65.495C238.05 64.7157 239.288 63.6508 240.34 61.9687L240.217 65.7342V65.7805L241.23 65.7419L241.432 65.5413L241.447 65.5259L241.37 62.6477V62.2773C242.244 62.7866 242.863 63.3267 243.482 64.1215C243.776 64.4919 244.008 64.6616 244.24 64.6616C244.527 64.6616 244.828 64.4919 244.828 64.0212C244.828 63.2804 243.505 62.3854 241.37 61.6909V61.1894H245.726V60.6801L244.651 59.6075L244.635 59.5921H244.333L243.645 60.464H241.37V57.856C241.842 57.7557 242.112 57.6476 242.112 57.393C242.112 57.1075 241.78 56.9995 240.139 56.7217H240.116L239.985 56.8683L240 56.8914C240.224 57.3621 240.294 57.7016 240.294 58.3961V60.464H237.586L235.999 60.3483L236.216 61.2588V61.2665Z" fill="#263035"/>
<path d="M238.305 59.4918C238.514 59.9779 238.692 60.2403 239.033 60.2403C239.373 60.2403 239.582 59.9702 239.582 59.5304C239.582 58.8822 238.654 58.018 237.152 57.285L237.121 57.2695L236.812 57.6862L236.843 57.7094C237.539 58.2495 238.035 58.8436 238.298 59.4918H238.305Z" fill="#263035"/>
<path d="M262.904 55.4871C263.106 55.9578 263.283 56.1276 263.601 56.1276C264.026 56.1276 264.258 55.7032 264.258 55.302C264.258 54.3143 263.469 53.4809 261.612 52.5164L261.589 52.501L261.194 52.8482L261.225 52.8791C262.007 53.6353 262.51 54.4146 262.912 55.4794L262.904 55.4871Z" fill="#263035"/>
<path d="M262.425 59.5147C262.788 60.2555 262.989 60.3944 263.245 60.3944C263.547 60.3944 263.902 60.2555 263.902 59.6073C263.902 58.6042 262.982 57.7631 260.916 56.8758L260.885 56.8604L260.536 57.2539L260.575 57.2847C261.38 57.9098 261.983 58.6351 262.425 59.5147Z" fill="#263035"/>
<path d="M259.623 60.5718C259.623 59.9391 258.803 58.9359 256.977 58.1103V56.459H260.382V55.9498L259.298 54.7924H258.997L258.269 55.7414H256.977V52.8556C257.565 52.7476 258.107 52.6164 258.587 52.4775C258.997 52.601 259.283 52.6627 259.461 52.6627C259.662 52.6627 259.747 52.5932 259.747 52.4312C259.747 52.1766 259.554 51.9142 258.424 51.0731H258.409L258.223 51.0654L258.207 51.0809C258.006 51.2969 257.851 51.4049 257.457 51.5901C256.404 52.03 254.718 52.4158 252.706 52.6627H252.659L252.729 53.1951H252.768C253.704 53.2105 254.741 53.1488 255.832 53.0176V55.7414H254.184L252.597 55.6257L252.845 56.5748L254.184 56.459H255.561C254.826 59.2986 253.804 61.6135 252.249 63.9592L252.226 63.9901L252.621 64.345L252.652 64.3141C254.114 62.7092 255.174 61.0039 255.901 59.1134L255.685 68.0411L256.776 68.0025H256.791L257 67.7941L256.962 63.3033V58.8434C257.55 59.3912 258.045 60.0857 258.308 60.703C258.478 61.1351 258.672 61.3048 259.004 61.3048C259.283 61.3048 259.608 61.1119 259.608 60.5718H259.623Z" fill="#263035"/>
<path d="M266.75 61.8295L269.992 61.027L269.93 60.5409V60.5254L268.777 59.53L268.762 59.5146L268.46 59.5763L267.787 60.8186L266.742 61.081V52.1148C267.299 51.9604 267.539 51.8524 267.539 51.5978C267.539 51.3046 267.16 51.1734 265.396 50.8647H265.373L265.249 51.0114V51.0345C265.411 51.4743 265.458 51.8138 265.458 52.4466V61.3742L260.281 62.6242L258.71 62.8789L259.151 63.7354L259.167 63.7662L260.467 63.3496L265.45 62.1227V64.2369L265.357 68.1645L266.611 68.1259L266.82 67.9175L266.727 64.0594V61.8295H266.75Z" fill="#263035"/>
</g>
<path d="M228.625 95.4048L229.691 95.6778C229.574 95.8468 229.574 95.8468 229.405 96.2108C229.067 96.9128 228.95 97.1338 228.807 97.3678C228.976 97.3288 228.976 97.3288 232.733 97.2638C233.188 97.2638 233.227 97.2508 233.409 97.1728L233.968 97.7188C233.851 97.8748 233.851 97.8878 233.708 98.3558C233.162 100.189 232.213 101.957 231.108 103.244C229.912 104.609 228.482 105.636 226.584 106.494C226.376 106.117 226.272 105.987 225.934 105.727C227.897 104.921 229.275 103.933 230.523 102.438C231.524 101.229 232.304 99.7078 232.759 98.0828L228.378 98.1608C227.585 99.4348 226.545 100.579 225.271 101.541C225.05 101.216 224.92 101.099 224.543 100.865C225.921 99.9678 226.909 98.8888 227.806 97.3028C228.3 96.4448 228.56 95.8598 228.625 95.4048Z" fill="#263035"/>
<path d="M211.881 99.1358L212.7 98.8628C213.22 99.7598 213.506 100.371 213.987 101.749L213.103 102.048C212.791 100.904 212.427 100.033 211.881 99.1358ZM214.559 98.5898L215.352 98.3428C216.041 99.5778 216.275 100.098 216.613 101.138L215.755 101.437C215.521 100.514 215.118 99.5648 214.559 98.5898ZM219.07 98.5768L220.032 98.7848C219.954 98.9928 219.954 98.9928 219.746 99.8378C219.538 100.748 219.07 101.944 218.602 102.75C217.679 104.336 216.314 105.532 214.299 106.507C214.104 106.182 214 106.052 213.701 105.779C215.703 104.882 216.925 103.881 217.822 102.386C218.316 101.567 218.693 100.592 218.927 99.5908C219.018 99.1618 219.07 98.8628 219.07 98.7068V98.6548C219.07 98.6158 219.07 98.6158 219.07 98.5768Z" fill="#263035"/>
<path d="M198.413 98.4602V97.4072C198.842 97.4722 199.128 97.4852 199.804 97.4852H204.77C205.446 97.4852 205.732 97.4722 206.161 97.4072V98.4602C205.771 98.4212 205.42 98.4082 204.783 98.4082H199.791C199.154 98.4082 198.803 98.4212 198.413 98.4602ZM197.1 104.674V103.582C197.568 103.647 197.841 103.66 198.608 103.66H205.979C206.746 103.66 207.019 103.647 207.487 103.582V104.674C207.058 104.622 206.681 104.609 205.992 104.609H198.595C197.906 104.609 197.542 104.622 197.1 104.674Z" fill="#263035"/>
<path d="M185.205 95.9639H186.284C186.245 96.2759 186.232 96.4449 186.232 97.0429V100.54C186.232 101.164 186.245 101.307 186.284 101.619H185.205C185.244 101.32 185.257 101.047 185.257 100.527V97.0559C185.257 96.4969 185.244 96.2759 185.205 95.9639ZM190.951 95.9639H192.043C191.991 96.2629 191.978 96.4709 191.978 97.0949V98.6289C191.978 100.696 191.887 101.84 191.653 102.594C191.276 103.816 190.457 104.765 189.183 105.48C188.546 105.844 187.922 106.091 186.817 106.416C186.674 106.039 186.596 105.909 186.271 105.519C187.441 105.259 188.065 105.038 188.741 104.635C189.95 103.933 190.574 103.101 190.821 101.892C190.964 101.151 191.003 100.553 191.003 98.5769V97.1079C191.003 96.4319 190.99 96.2499 190.951 95.9639Z" fill="#263035"/>
<path d="M174.025 95.4048L175.091 95.6778C174.974 95.8468 174.974 95.8468 174.805 96.2108C174.467 96.9128 174.35 97.1338 174.207 97.3678C174.376 97.3288 174.376 97.3288 178.133 97.2638C178.588 97.2638 178.627 97.2508 178.809 97.1728L179.368 97.7188C179.251 97.8748 179.251 97.8878 179.108 98.3558C178.562 100.189 177.613 101.957 176.508 103.244C175.312 104.609 173.882 105.636 171.984 106.494C171.776 106.117 171.672 105.987 171.334 105.727C173.297 104.921 174.675 103.933 175.923 102.438C176.924 101.229 177.704 99.7078 178.159 98.0828L173.778 98.1608C172.985 99.4348 171.945 100.579 170.671 101.541C170.45 101.216 170.32 101.099 169.943 100.865C171.321 99.9678 172.309 98.8888 173.206 97.3028C173.7 96.4448 173.96 95.8598 174.025 95.4048Z" fill="#263035"/>
<path d="M157.047 99.994V105.441C157.047 106.169 157.073 106.572 157.125 106.897H156.15C156.202 106.533 156.228 106.117 156.228 105.428V96.991C156.228 96.354 156.215 95.977 156.176 95.561C156.527 95.6 156.891 95.613 157.528 95.613H159.413C160.063 95.613 160.375 95.6 160.739 95.561C160.713 95.912 160.7 96.276 160.7 96.796V98.837C160.7 99.396 160.713 99.682 160.739 100.033C160.453 100.007 159.959 99.994 159.426 99.994H157.047ZM157.047 96.276V97.446H159.946V96.276H157.047ZM157.047 98.096V99.331H159.946V98.096H157.047ZM166.55 96.991V105.558C166.55 106.481 166.277 106.702 165.146 106.702C164.73 106.702 164.184 106.689 163.638 106.65C163.586 106.299 163.534 106.091 163.404 105.779C164.015 105.87 164.587 105.922 164.99 105.922C165.627 105.922 165.731 105.87 165.731 105.584V99.994H163.196C162.637 99.994 162.169 100.007 161.883 100.033C161.909 99.682 161.922 99.331 161.922 98.837V96.796C161.922 96.341 161.909 95.951 161.883 95.561C162.234 95.6 162.572 95.613 163.209 95.613H165.25C165.887 95.613 166.251 95.6 166.615 95.561C166.563 96.016 166.55 96.406 166.55 96.991ZM162.676 96.276V97.446H165.731V96.276H162.676ZM162.676 98.096V99.331H165.731V98.096H162.676Z" fill="#263035"/>
<path d="M147.18 97.0298H143.384C142.851 97.0298 142.461 97.0558 142.084 97.1078V96.2498C142.461 96.3018 142.825 96.3278 143.397 96.3278H147.18V96.2108C147.18 95.7038 147.167 95.4308 147.102 95.1318H148.038C147.986 95.4568 147.96 95.7688 147.96 96.2108V96.3278H152.081C152.653 96.3278 152.991 96.3018 153.381 96.2498V97.1078C152.991 97.0558 152.614 97.0298 152.094 97.0298H147.96V97.9918H151.093C151.6 97.9918 151.847 97.9788 152.198 97.9398C152.159 98.2778 152.146 98.4858 152.146 98.8758V101.307C152.146 101.684 152.159 101.879 152.198 102.217C151.821 102.178 151.548 102.165 151.08 102.165H150.729V103.088H152.094C152.666 103.088 153.004 103.062 153.394 103.01V103.868C153.017 103.816 152.614 103.79 152.107 103.79H150.729V105.909C150.729 106.624 150.417 106.832 149.351 106.832C149.013 106.832 148.857 106.832 148.09 106.793C148.051 106.468 148.025 106.364 147.843 105.974C148.298 106.052 148.87 106.091 149.39 106.091C149.858 106.091 149.949 106.039 149.949 105.766V103.79H143.384C142.877 103.79 142.487 103.816 142.084 103.868V103.01C142.461 103.062 142.825 103.088 143.397 103.088H149.949V102.165H144.359C143.891 102.165 143.631 102.178 143.254 102.217C143.293 101.879 143.306 101.658 143.306 101.307V98.8758C143.306 98.5118 143.293 98.2908 143.254 97.9398C143.592 97.9788 143.852 97.9918 144.359 97.9918H147.18V97.0298ZM147.18 98.6548H144.112V99.6948H147.18V98.6548ZM147.96 98.6548V99.6948H151.34V98.6548H147.96ZM147.18 100.332H144.112V101.515H147.18V100.332ZM147.96 100.332V101.515H151.34V100.332H147.96ZM147.063 105.701L146.426 106.286C145.737 105.532 145.256 105.103 144.515 104.583L145.126 104.089C145.971 104.674 146.452 105.077 147.063 105.701Z" fill="#263035"/>
<path d="M133.959 105.48V96.705H130.28C129.682 96.705 129.24 96.731 128.811 96.783V95.834C129.214 95.886 129.643 95.912 130.254 95.912H137.872C138.47 95.912 138.886 95.886 139.315 95.834V96.783C138.886 96.731 138.431 96.705 137.872 96.705H134.856V100.41H137.443C138.067 100.41 138.457 100.384 138.782 100.332V101.268C138.457 101.216 138.041 101.19 137.443 101.19H134.856V105.48H138.262C138.912 105.48 139.315 105.454 139.77 105.389V106.364C139.341 106.299 138.886 106.273 138.275 106.273H129.812C129.201 106.273 128.759 106.299 128.304 106.364V105.389C128.707 105.454 129.097 105.48 129.799 105.48H130.449V100.956C130.449 100.319 130.423 99.903 130.358 99.461H131.424C131.359 99.877 131.333 100.319 131.333 100.956V105.48H133.959Z" fill="#263035"/>
<path d="M116.552 97.667H116.032C115.785 98.408 115.616 98.772 115.174 99.5C114.979 99.279 114.823 99.136 114.563 98.967C115.161 98.083 115.486 97.199 115.707 95.873C115.746 95.6 115.759 95.457 115.772 95.197L116.643 95.353C116.578 95.509 116.539 95.652 116.474 95.99C116.409 96.302 116.344 96.549 116.24 96.952H117.384C117.956 96.952 118.164 96.939 118.398 96.9V97.706C118.034 97.68 117.8 97.667 117.436 97.667H117.319C117.293 99.227 117.293 99.318 117.241 100.202H117.683C118.125 100.202 118.398 100.189 118.632 100.15V100.982C118.398 100.943 118.086 100.93 117.683 100.93H117.176C117.137 101.307 117.111 101.424 117.059 101.827C117.462 102.62 117.969 103.322 118.619 103.959C118.411 104.206 118.398 104.219 118.151 104.648C117.605 104.05 117.228 103.504 116.851 102.802C116.5 104.167 116.019 105.129 115.109 106.247C114.914 105.974 114.758 105.792 114.498 105.597C115.213 104.83 115.629 104.141 115.954 103.153C116.201 102.425 116.344 101.788 116.422 100.93H115.668C115.304 100.93 114.979 100.956 114.68 100.995V100.137C114.979 100.176 115.304 100.202 115.707 100.202H116.487C116.526 99.5 116.552 99.045 116.552 97.667ZM121.843 97.264H124.716C125.288 97.264 125.73 97.238 126.055 97.186V97.979C125.678 97.94 125.223 97.914 124.716 97.914H123.455C124.3 98.759 125.119 99.227 126.406 99.63C126.211 99.864 126.068 100.072 125.951 100.332C125.21 99.994 124.716 99.721 124.17 99.318V100.163C124.17 100.644 124.17 100.748 124.196 100.995C123.923 100.982 123.637 100.969 123.312 100.969H120.894C120.569 100.969 120.27 100.982 120.023 100.995C120.036 100.722 120.049 100.579 120.049 100.163V99.331C119.568 99.734 119.321 99.916 118.775 100.267C118.658 100.02 118.528 99.851 118.294 99.669C119.36 99.097 119.919 98.655 120.556 97.914H119.88C119.269 97.914 118.97 97.927 118.658 97.979V97.199C118.996 97.251 119.295 97.264 119.867 97.264H121.05C121.245 96.965 121.349 96.783 121.544 96.38C120.673 96.458 120.075 96.484 119.061 96.51C118.944 96.185 118.892 96.081 118.736 95.808C119.009 95.821 119.23 95.821 119.36 95.821C121.401 95.821 123.962 95.483 124.768 95.106L125.301 95.795C125.145 95.821 125.08 95.834 124.95 95.86C124.274 96.016 123.338 96.172 122.389 96.289C122.155 96.744 122.064 96.9 121.843 97.264ZM122.61 97.914H121.375C121.102 98.265 120.907 98.486 120.608 98.798H123.52C123.104 98.434 122.961 98.291 122.61 97.914ZM120.777 99.396V100.371H123.429V99.396H120.777ZM118.853 105.493V102.737C118.853 102.178 118.84 101.879 118.801 101.593C119.074 101.632 119.451 101.645 120.01 101.645H124.508C125.132 101.645 125.483 101.632 125.743 101.58C125.704 101.892 125.691 102.321 125.691 102.789V105.974C125.691 106.689 125.431 106.858 124.287 106.858C123.975 106.858 123.78 106.858 123.299 106.832C123.273 106.52 123.247 106.403 123.117 106.026C123.637 106.078 124.144 106.117 124.456 106.117C124.794 106.117 124.911 106.039 124.911 105.818V102.295H119.62V105.545C119.62 106.39 119.633 106.637 119.672 106.975H118.788C118.827 106.624 118.853 106.091 118.853 105.493ZM123.793 103.829V104.557C123.793 105.064 123.793 105.155 123.819 105.35C123.572 105.324 123.494 105.324 123.052 105.324H121.336V106.026H120.621C120.66 105.688 120.66 105.61 120.66 105.064V103.894C120.66 103.504 120.647 103.218 120.621 102.984C120.803 103.01 120.959 103.023 121.44 103.023H123.026C123.481 103.023 123.663 103.01 123.832 102.984C123.793 103.192 123.793 103.309 123.793 103.829ZM121.336 103.608V104.713H123.117V103.608H121.336Z" fill="#263035"/>
<path d="M103.058 101.879H102.07C102.122 101.489 102.148 101.099 102.148 100.423V96.874C102.148 96.263 102.122 95.86 102.07 95.457H103.058C103.006 95.834 102.98 96.185 102.98 96.835V100.488C102.98 101.151 103.006 101.567 103.058 101.879ZM111.339 96.861V100.319C111.339 100.878 111.352 101.164 111.404 101.593C110.962 101.541 110.598 101.528 109.961 101.528H106.451C105.84 101.528 105.437 101.541 105.008 101.593C105.06 101.177 105.073 100.787 105.073 100.228V96.939C105.073 96.367 105.06 96.003 105.008 95.6C105.45 95.652 105.775 95.665 106.438 95.665H109.922C110.598 95.665 110.975 95.652 111.404 95.6C111.352 95.938 111.339 96.198 111.339 96.861ZM105.866 96.419V98.174H110.533V96.419H105.866ZM105.866 98.915V100.774H110.533V98.915H105.866ZM104.462 102.074L105.424 102.113C105.385 102.269 105.372 102.386 105.346 102.646C105.255 103.79 105.112 104.388 104.748 104.999C104.384 105.61 103.799 106.13 102.954 106.559C102.564 106.767 102.213 106.897 101.381 107.157C101.225 106.858 101.173 106.78 100.848 106.39C101.784 106.169 102.291 105.974 102.85 105.662C103.955 105.025 104.488 104.05 104.488 102.672C104.488 102.438 104.475 102.23 104.462 102.074ZM108.206 103.309V105.506C108.206 105.844 108.44 105.909 109.701 105.909C111.183 105.909 111.456 105.831 111.573 105.428C111.664 105.142 111.716 104.557 111.716 103.92C111.716 103.881 111.716 103.725 111.716 103.595C112.041 103.764 112.171 103.816 112.535 103.933C112.496 105.246 112.379 105.857 112.106 106.234C111.846 106.585 111.274 106.689 109.519 106.689C108.648 106.689 108.076 106.637 107.803 106.533C107.478 106.403 107.387 106.247 107.387 105.779V103.335C107.387 102.763 107.361 102.438 107.309 102.087H108.271C108.219 102.399 108.206 102.659 108.206 103.309Z" fill="#263035"/>
<path d="M92.58 95.3662H93.633C93.581 95.7172 93.555 96.1072 93.555 96.6922V105.636C93.555 106.468 93.256 106.702 92.177 106.702C91.644 106.702 91.124 106.676 90.383 106.611C90.344 106.208 90.292 106.026 90.149 105.649C90.981 105.805 91.553 105.87 92.073 105.87C92.541 105.87 92.658 105.805 92.658 105.545V96.6792C92.658 96.1202 92.632 95.7432 92.58 95.3662ZM95.622 98.4602L96.545 98.2002C96.649 98.9542 96.857 99.6692 97.351 100.891C97.858 102.165 98.404 103.101 99.288 104.193C98.95 104.427 98.768 104.583 98.547 104.843C97.442 103.361 96.948 102.412 96.337 100.709C96.324 100.696 96.129 100.033 95.713 98.7202C95.661 98.5642 95.661 98.5642 95.622 98.4602ZM89.434 98.2782L90.396 98.5122C90.331 98.7202 90.292 98.8762 90.019 99.9422C89.512 101.918 88.914 103.257 87.822 104.804C87.562 104.57 87.354 104.427 87.029 104.271C88.03 102.971 88.563 101.905 89.044 100.228C89.265 99.4482 89.395 98.7982 89.434 98.2782Z" fill="#263035"/>
<path d="M80.152 97.3808C79.957 99.1878 79.463 101.177 78.878 102.542C78.124 104.258 77.357 105.038 76.421 105.038C75.186 105.038 74.263 103.686 74.263 101.866C74.263 100.54 74.757 99.2528 75.628 98.2778C76.668 97.1338 78.085 96.5488 79.827 96.5488C81.283 96.5488 82.557 97.0038 83.402 97.8358C84.221 98.6288 84.663 99.7598 84.663 101.008C84.663 103.023 83.571 104.687 81.686 105.493C81.101 105.74 80.607 105.896 79.71 106.091C79.58 105.662 79.502 105.532 79.255 105.22C80.204 105.064 80.815 104.895 81.426 104.609C82.856 103.959 83.727 102.568 83.727 100.969C83.727 99.4868 82.973 98.2908 81.66 97.7058C81.179 97.4978 80.802 97.4068 80.152 97.3808ZM79.216 97.3938C78.436 97.4588 77.877 97.6408 77.279 98.0048C75.966 98.7978 75.16 100.267 75.16 101.879C75.16 103.127 75.706 104.089 76.408 104.089C76.954 104.089 77.474 103.478 78.033 102.204C78.566 100.982 79.047 99.0578 79.216 97.3938Z" fill="#263035"/>
<path d="M65.215 97.0821V96.2891C65.215 95.8731 65.176 95.4571 65.124 95.1841H66.164C66.099 95.5091 66.073 95.8471 66.073 96.2891V97.0821H70.155C70.792 97.0821 71.247 97.0561 71.637 96.9911V97.9271C71.299 97.8751 70.922 97.8491 70.168 97.8491H61.484C60.847 97.8491 60.418 97.8751 60.041 97.9271V96.9911C60.47 97.0561 60.899 97.0821 61.497 97.0821H65.215ZM65.215 99.6431V99.2141C65.215 98.8111 65.202 98.5121 65.15 98.1871H66.125C66.086 98.4211 66.06 98.7591 66.06 99.2271V99.6431H69.141C69.661 99.6431 69.986 99.6301 70.376 99.5911C70.337 99.9161 70.324 100.215 70.324 100.644V104.388C70.324 105.233 70.064 105.454 68.998 105.454C68.465 105.454 68.244 105.441 67.646 105.402C67.607 105.064 67.555 104.843 67.425 104.531C68.023 104.622 68.53 104.661 68.946 104.661C69.362 104.661 69.466 104.583 69.466 104.297V100.384H66.06V105.558C66.06 106.091 66.086 106.533 66.151 106.975H65.124C65.189 106.481 65.215 106.065 65.215 105.558V100.384H62.134V104.297C62.134 104.895 62.16 105.324 62.212 105.701H61.185C61.237 105.285 61.263 104.882 61.263 104.297V100.657C61.263 100.254 61.25 99.9291 61.211 99.5911C61.588 99.6301 61.926 99.6431 62.459 99.6431H65.215Z" fill="#263035"/>
<path d="M51.617 97.6282V96.5102C51.617 95.8732 51.591 95.5612 51.526 95.1582H52.566C52.501 95.5612 52.475 95.9252 52.475 96.4842V97.6282H56.284C56.726 97.6282 56.973 97.6152 57.272 97.5762C57.22 97.9142 57.207 98.1872 57.207 98.6032V102.152C57.207 102.581 57.233 102.919 57.285 103.309H56.349V102.425H52.475V105.454C52.475 106.195 52.488 106.52 52.566 106.936H51.526C51.591 106.494 51.617 106.156 51.617 105.454V102.425H47.951V103.309H47.015C47.067 102.932 47.093 102.568 47.093 102.152V98.6032C47.093 98.2002 47.067 97.9142 47.028 97.5762C47.34 97.6152 47.587 97.6282 48.003 97.6282H51.617ZM51.617 98.4082H47.951V101.645H51.617V98.4082ZM52.475 101.645H56.349V98.4082H52.475V101.645Z" fill="#263035"/>
<path d="M40.268 96.0418H41.88C42.491 96.0418 42.881 96.0288 43.297 95.9768C43.258 96.2628 43.245 96.4968 43.245 97.0038V99.0318C43.245 99.5518 43.258 99.7728 43.297 100.059C42.855 100.02 42.543 100.007 41.919 100.007H35.198C34.405 100.007 34.223 100.02 33.82 100.059C33.859 99.7728 33.872 99.5388 33.872 99.0318V97.0038C33.872 96.5228 33.859 96.2758 33.82 95.9768C34.236 96.0288 34.626 96.0418 35.224 96.0418H36.693C36.693 95.5088 36.68 95.3398 36.615 94.9888H37.538C37.473 95.2878 37.447 95.5868 37.447 95.9768V96.0418H39.514C39.514 95.5218 39.501 95.3268 39.436 94.9888H40.359C40.294 95.3398 40.268 95.5738 40.268 96.0418ZM36.693 96.6788H34.652V97.6798H36.693V96.6788ZM37.447 96.6788V97.6798H39.514V96.6788H37.447ZM40.268 96.6788V97.6798H42.465V96.6788H40.268ZM36.693 98.2778H34.652V99.3958H36.693V98.2778ZM37.447 98.2778V99.3958H39.514V98.2778H37.447ZM40.268 98.2778V99.3958H42.465V98.2778H40.268ZM34.184 105.974H36.602C36.381 105.597 36.173 105.298 35.9 104.999L36.641 104.713C36.927 105.09 37.174 105.493 37.408 105.974H39.709C40.021 105.545 40.229 105.194 40.411 104.713L41.178 105.012C40.931 105.454 40.801 105.649 40.554 105.974H42.92C43.505 105.974 43.908 105.948 44.285 105.896V106.767C43.882 106.702 43.505 106.676 42.92 106.676H34.184C33.56 106.676 33.17 106.702 32.754 106.767V105.896C33.17 105.948 33.573 105.974 34.184 105.974ZM44.142 100.722V101.567C43.752 101.515 43.323 101.489 42.699 101.489H34.301C33.703 101.489 33.287 101.515 32.91 101.567V100.722C33.274 100.787 33.664 100.813 34.301 100.813H42.699C43.362 100.813 43.765 100.787 44.142 100.722ZM34.444 103.803V103.088C34.444 102.711 34.431 102.451 34.379 102.178C34.808 102.23 35.263 102.243 35.887 102.243H41.126C41.737 102.243 42.179 102.23 42.608 102.178C42.556 102.438 42.543 102.698 42.543 103.088V103.803C42.543 104.154 42.556 104.427 42.608 104.7C42.166 104.661 41.75 104.648 41.152 104.648H35.861C35.081 104.648 34.808 104.661 34.379 104.7C34.431 104.414 34.444 104.154 34.444 103.803ZM35.276 102.88V104.011H41.724V102.88H35.276Z" fill="#263035"/>
<defs>
<clipPath id="clip0_10347_57">
<rect width="270" height="82" fill="white"/>
</clipPath>
</defs>
</svg>
