<svg width="363" height="69" viewBox="0 0 363 69" fill="none" xmlns="http://www.w3.org/2000/svg">
<path d="M277.838 55.562L279.21 55.884C279.084 56.052 279.07 56.052 278.902 56.43C278.566 57.144 278.454 57.368 278.286 57.648C278.398 57.62 278.398 57.62 278.636 57.606C278.72 57.606 278.72 57.606 278.804 57.606C280.764 57.578 281.954 57.564 282.374 57.55C282.878 57.536 282.962 57.522 283.186 57.438L283.872 58.11C283.746 58.292 283.732 58.32 283.564 58.838C282.948 60.896 281.954 62.758 280.75 64.144C279.462 65.614 277.922 66.72 275.85 67.658C275.584 67.168 275.444 67 275.01 66.636C277.124 65.782 278.58 64.76 279.91 63.192C280.96 61.96 281.8 60.378 282.304 58.628L277.726 58.698C276.83 60.098 275.738 61.288 274.408 62.31C274.1 61.89 273.946 61.75 273.456 61.456C274.968 60.448 276.004 59.3 276.998 57.55C277.516 56.654 277.768 56.052 277.838 55.562Z" fill="#263035"/>
<path d="M260.45 59.5799L261.5 59.2299C262.074 60.2239 262.34 60.8539 262.886 62.3939L261.752 62.7719C261.416 61.5119 261.052 60.6019 260.45 59.5799ZM263.362 58.9919L264.398 58.6699C265.14 60.0419 265.392 60.6019 265.756 61.7359L264.65 62.1139C264.384 61.0919 263.964 60.0559 263.362 58.9919ZM268.206 58.9359L269.438 59.2019C269.354 59.4539 269.326 59.5519 269.256 59.8459C268.766 61.9319 268.178 63.2899 267.24 64.5219C266.26 65.7959 265.014 66.7479 263.208 67.6439C262.956 67.2239 262.816 67.0699 262.41 66.6919C265.168 65.5299 266.792 63.8639 267.702 61.2459C268.024 60.3359 268.206 59.4679 268.206 58.9359Z" fill="#263035"/>
<path d="M246.758 58.9921V57.6201C247.262 57.7041 247.612 57.7181 248.466 57.7181H253.562C254.43 57.7181 254.752 57.7041 255.242 57.6201V58.9921C254.752 58.9361 254.402 58.9221 253.576 58.9221H248.452C247.57 58.9221 247.262 58.9361 246.758 58.9921ZM245.344 65.6981V64.3121C245.862 64.3821 246.24 64.4101 247.15 64.4101H254.822C255.76 64.4101 256.152 64.3961 256.656 64.3121V65.6981C256.18 65.6421 255.676 65.6281 254.836 65.6281H247.136C246.296 65.6281 245.848 65.6421 245.344 65.6981Z" fill="#263035"/>
<path d="M233.164 56.1499H234.55C234.508 56.4579 234.494 56.8919 234.494 57.4659V60.8959C234.494 61.6099 234.508 61.9459 234.55 62.3099H233.164C233.22 61.9039 233.234 61.5399 233.234 60.8959V57.4799C233.234 56.8219 233.22 56.5139 233.164 56.1499ZM239.408 56.1639H240.794C240.738 56.5279 240.724 56.7799 240.724 57.5359V59.1179C240.724 61.3299 240.612 62.5619 240.36 63.3879C239.968 64.7179 239.072 65.7679 237.686 66.5519C237 66.9299 236.314 67.1959 235.082 67.5599C234.9 67.0699 234.802 66.9019 234.382 66.3979C235.838 66.0899 236.58 65.8099 237.378 65.2639C238.736 64.3539 239.24 63.4439 239.408 61.5399C239.45 60.9379 239.464 60.6299 239.464 59.0479V57.5499C239.464 56.6959 239.45 56.4999 239.408 56.1639Z" fill="#263035"/>
<path d="M221.838 55.562L223.21 55.884C223.084 56.052 223.07 56.052 222.902 56.43C222.566 57.144 222.454 57.368 222.286 57.648C222.398 57.62 222.398 57.62 222.636 57.606C222.72 57.606 222.72 57.606 222.804 57.606C224.764 57.578 225.954 57.564 226.374 57.55C226.878 57.536 226.962 57.522 227.186 57.438L227.872 58.11C227.746 58.292 227.732 58.32 227.564 58.838C226.948 60.896 225.954 62.758 224.75 64.144C223.462 65.614 221.922 66.72 219.85 67.658C219.584 67.168 219.444 67 219.01 66.636C221.124 65.782 222.58 64.76 223.91 63.192C224.96 61.96 225.8 60.378 226.304 58.628L221.726 58.698C220.83 60.098 219.738 61.288 218.408 62.31C218.1 61.89 217.946 61.75 217.456 61.456C218.968 60.448 220.004 59.3 220.998 57.55C221.516 56.654 221.768 56.052 221.838 55.562Z" fill="#263035"/>
<path d="M204.436 60.6438V66.3838C204.436 67.1818 204.464 67.6298 204.52 67.9938H203.302C203.358 67.5878 203.386 67.1118 203.386 66.3698V57.2698C203.386 56.5558 203.372 56.1638 203.33 55.7158C203.708 55.7578 204.072 55.7718 204.786 55.7718H206.928C207.642 55.7718 207.978 55.7578 208.37 55.7158C208.342 56.1078 208.328 56.4718 208.328 57.0318V59.4118C208.328 60.0138 208.342 60.3218 208.37 60.6858C208.062 60.6578 207.544 60.6438 206.984 60.6438H204.436ZM204.436 56.6258V57.7598H207.348V56.6258H204.436ZM204.436 58.5998V59.7898H207.348V58.5998H204.436ZM214.642 57.2558V66.4678C214.642 67.5458 214.32 67.7978 212.934 67.7978C212.444 67.7978 212.066 67.7838 211.394 67.7558C211.338 67.2938 211.268 67.0418 211.114 66.6498C211.814 66.7478 212.416 66.8038 212.822 66.8038C213.466 66.8038 213.592 66.7478 213.592 66.4398V60.6438H210.89C210.274 60.6438 209.84 60.6578 209.504 60.6858C209.532 60.2798 209.546 59.9718 209.546 59.4118V57.0318C209.546 56.5278 209.532 56.1638 209.504 55.7158C209.882 55.7578 210.218 55.7718 210.932 55.7718H213.242C213.97 55.7718 214.334 55.7578 214.712 55.7158C214.656 56.2058 214.642 56.6118 214.642 57.2558ZM210.526 56.6258V57.7598H213.592V56.6258H210.526ZM210.526 58.5998V59.7898H213.592V58.5998H210.526Z" fill="#263035"/>
<path d="M194.37 57.3961H190.338C189.75 57.3961 189.316 57.4241 188.91 57.4801V56.4161C189.344 56.4721 189.722 56.5001 190.352 56.5001H194.37V56.4301C194.37 55.8981 194.342 55.5901 194.286 55.2681H195.434C195.378 55.6181 195.35 55.9401 195.35 56.4301V56.5001H199.718C200.348 56.5001 200.726 56.4721 201.16 56.4161V57.4801C200.712 57.4241 200.334 57.3961 199.746 57.3961H195.35V58.3061H198.682C199.256 58.3061 199.522 58.2921 199.914 58.2501C199.872 58.6281 199.858 58.8521 199.858 59.2861V61.9601C199.858 62.3941 199.872 62.6181 199.914 62.9961C199.536 62.9541 199.228 62.9401 198.668 62.9401H198.374V63.8361H199.732C200.39 63.8361 200.754 63.8081 201.174 63.7521V64.8161C200.74 64.7601 200.292 64.7321 199.76 64.7321H198.374V66.8741C198.374 67.7141 198.01 67.9381 196.596 67.9381C196.274 67.9381 196.05 67.9381 195.434 67.9101C195.406 67.5461 195.336 67.3361 195.126 66.8741C195.686 66.9441 196.19 66.9861 196.778 66.9861C197.268 66.9861 197.366 66.9301 197.366 66.6501V64.7321H190.338C189.792 64.7321 189.344 64.7601 188.91 64.8161V63.7521C189.316 63.8081 189.708 63.8361 190.352 63.8361H197.366V62.9401H191.374C190.828 62.9401 190.52 62.9541 190.142 62.9961C190.184 62.6041 190.198 62.3661 190.198 61.9601V59.2861C190.198 58.8801 190.184 58.6421 190.142 58.2501C190.534 58.2921 190.8 58.3061 191.374 58.3061H194.37V57.3961ZM194.37 59.1741H191.206V60.1401H194.37V59.1741ZM195.35 59.1741V60.1401H198.85V59.1741H195.35ZM194.37 60.9801H191.206V62.0861H194.37V60.9801ZM195.35 60.9801V62.0861H198.85V60.9801H195.35ZM194.356 66.7201L193.53 67.4481C192.774 66.6081 192.298 66.1741 191.486 65.6141L192.284 64.9701C193.194 65.5861 193.712 66.0341 194.356 66.7201Z" fill="#263035"/>
<path d="M180.846 66.3279V57.0879H176.954C176.338 57.0879 175.82 57.1159 175.33 57.1719V55.9819C175.778 56.0379 176.268 56.0659 176.94 56.0659H185.116C185.76 56.0659 186.25 56.0379 186.726 55.9819V57.1719C186.236 57.1159 185.69 57.0879 185.116 57.0879H181.994V60.9099H184.668C185.34 60.9099 185.746 60.8819 186.138 60.8259V62.0019C185.746 61.9459 185.284 61.9179 184.668 61.9179H181.994V66.3279H185.522C186.236 66.3279 186.712 66.2999 187.216 66.2299V67.4479C186.726 67.3779 186.222 67.3499 185.536 67.3499H176.478C175.806 67.3499 175.33 67.3779 174.784 67.4479V66.2299C175.246 66.2999 175.652 66.3279 176.464 66.3279H177.038V61.5819C177.038 60.8679 177.01 60.4199 176.94 59.9019H178.27C178.2 60.3779 178.172 60.8679 178.172 61.5679V66.3279H180.846Z" fill="#263035"/>
<path d="M162.8 58.1101H162.31C162.058 58.8801 161.862 59.2861 161.4 60.0281C161.176 59.7481 160.952 59.5381 160.63 59.3141C161.26 58.3761 161.61 57.4521 161.848 56.0661C161.904 55.7861 161.918 55.6041 161.932 55.3241L163.01 55.5061C162.94 55.6881 162.898 55.8421 162.828 56.2201C162.744 56.5561 162.702 56.7801 162.59 57.1861H163.78C164.368 57.1861 164.606 57.1721 164.858 57.1301V58.1381C164.578 58.1241 164.242 58.1101 163.864 58.1101H163.78C163.752 59.6081 163.752 59.8461 163.696 60.7281H164.116C164.578 60.7281 164.858 60.7141 165.11 60.6721V61.7221C164.858 61.6801 164.536 61.6661 164.102 61.6661H163.612C163.584 61.9881 163.542 62.2401 163.486 62.5621C163.92 63.4021 164.466 64.1161 165.152 64.7741C164.9 65.0961 164.858 65.1521 164.578 65.6981C164.004 65.0681 163.626 64.5361 163.234 63.8081C162.828 65.2641 162.31 66.2301 161.33 67.3781C161.134 67.0281 160.938 66.7901 160.574 66.4681C161.806 65.2221 162.394 63.8501 162.632 61.6661H161.876C161.47 61.6661 161.12 61.6941 160.798 61.7361V60.6581C161.134 60.7141 161.47 60.7281 161.932 60.7281H162.716C162.758 60.0561 162.772 59.6781 162.8 58.1101ZM168.75 57.5501H171.662C172.306 57.5501 172.754 57.5221 173.132 57.4661V58.4601C172.726 58.4181 172.236 58.3901 171.676 58.3901H170.486C171.228 59.1741 172.166 59.6921 173.51 60.1121C173.272 60.4341 173.174 60.5881 172.978 61.0221C172.208 60.6861 171.718 60.4201 171.144 60.0141V60.7841C171.144 61.2741 171.144 61.4001 171.172 61.6801C170.878 61.6661 170.584 61.6521 170.22 61.6521H167.546C167.182 61.6521 166.888 61.6661 166.594 61.6801C166.622 61.3441 166.622 61.2321 166.622 60.7841V60.0141C166.132 60.4201 165.894 60.5881 165.306 60.9661C165.166 60.6581 164.984 60.4201 164.704 60.1541C165.782 59.6221 166.398 59.1601 167.084 58.3901H166.426C165.782 58.3901 165.488 58.4041 165.124 58.4601V57.4941C165.516 57.5361 165.81 57.5501 166.412 57.5501H167.714C167.91 57.2421 167.98 57.1161 168.176 56.6961C167.196 56.7661 166.72 56.7941 165.572 56.8081C165.418 56.4021 165.362 56.2761 165.166 55.9401C165.572 55.9541 165.88 55.9541 165.992 55.9541C168.19 55.9541 170.878 55.6041 171.732 55.2261L172.404 56.0801C172.194 56.1221 172.194 56.1221 171.858 56.1921C171.284 56.3181 170.136 56.5001 169.268 56.5981C169.002 57.1021 168.932 57.2281 168.75 57.5501ZM169.366 58.3901H168.204C167.938 58.7261 167.756 58.9361 167.448 59.2581H170.206C169.842 58.9221 169.702 58.7681 169.366 58.3901ZM167.574 60.0001V60.8961H170.192V60.0001H167.574ZM165.306 66.4401V63.4721C165.306 62.8981 165.292 62.5761 165.25 62.2541C165.544 62.2961 165.978 62.3101 166.58 62.3101H171.48C172.138 62.3101 172.53 62.2961 172.824 62.2401C172.796 62.5901 172.768 63.0801 172.768 63.5841V66.8741C172.768 67.7841 172.488 67.9661 171.102 67.9661C170.808 67.9661 170.598 67.9661 170.15 67.9521C170.108 67.5461 170.08 67.4061 169.926 66.9301C170.416 66.9861 170.948 67.0141 171.298 67.0141C171.69 67.0141 171.788 66.9441 171.788 66.6781V63.1501H166.286V66.5381C166.286 67.4901 166.3 67.7281 166.356 68.0921H165.236C165.278 67.6721 165.306 67.1541 165.306 66.4401ZM170.71 64.6901V65.5581C170.71 66.0901 170.71 66.1881 170.738 66.3981C170.458 66.3701 170.374 66.3701 169.954 66.3701H168.148V67.1261H167.252C167.28 66.8741 167.294 66.5801 167.294 66.1181V64.7601C167.294 64.3261 167.28 64.1161 167.252 63.8081C167.448 63.8361 167.616 63.8501 168.12 63.8501H169.912C170.388 63.8501 170.584 63.8361 170.752 63.8081C170.71 64.0321 170.71 64.1581 170.71 64.6901ZM168.148 64.5921V65.5861H169.87V64.5921H168.148Z" fill="#263035"/>
<path d="M149.122 62.6322H147.89C147.946 62.1982 147.974 61.7642 147.974 61.0642V57.1442C147.974 56.5142 147.946 56.0662 147.89 55.6182H149.122C149.052 55.9962 149.038 56.3742 149.038 57.0602V61.1762C149.038 61.8762 149.066 62.2962 149.122 62.6322ZM158.054 57.1722V60.9242C158.054 61.5402 158.068 61.8622 158.124 62.3102C157.606 62.2682 157.256 62.2542 156.556 62.2542H152.608C151.95 62.2542 151.53 62.2682 151.04 62.3102C151.082 61.8902 151.11 61.4282 151.11 60.8402V57.2562C151.11 56.6262 151.096 56.2202 151.04 55.7862C151.488 55.8422 151.88 55.8562 152.594 55.8562H156.514C157.256 55.8562 157.648 55.8422 158.124 55.7862C158.068 56.1782 158.054 56.4582 158.054 57.1722ZM152.132 56.8362V58.5442H157.004V56.8362H152.132ZM152.132 59.4962V61.2742H157.004V59.4962H152.132ZM150.48 62.7862L151.684 62.8562C151.642 63.0522 151.614 63.1502 151.586 63.4442C151.474 64.6762 151.306 65.3062 150.928 65.9502C150.55 66.6082 149.878 67.1682 148.94 67.6582C148.534 67.8682 148.184 68.0082 147.288 68.3022C147.078 67.8962 146.994 67.7702 146.602 67.2942C147.666 67.0422 148.24 66.8322 148.842 66.4682C149.43 66.1182 149.808 65.7542 150.074 65.2642C150.354 64.7182 150.508 64.0882 150.508 63.4582C150.508 63.1222 150.494 62.9402 150.48 62.7862ZM154.68 64.1022V66.3982C154.68 66.7482 154.918 66.8042 156.29 66.8042C157.704 66.8042 157.984 66.7342 158.11 66.3142C158.208 66.0202 158.264 65.4182 158.264 64.7042C158.264 64.6762 158.264 64.4942 158.25 64.3542C158.656 64.5502 158.796 64.6062 159.3 64.7602C159.244 66.2302 159.118 66.9022 158.782 67.3222C158.474 67.7002 157.872 67.8122 156.094 67.8122C155.254 67.8122 154.708 67.7842 154.316 67.7002C153.784 67.5882 153.63 67.3782 153.63 66.8042V64.1302C153.63 63.5422 153.602 63.1922 153.546 62.8282H154.75C154.694 63.1642 154.68 63.4442 154.68 64.1022Z" fill="#263035"/>
<path d="M138.342 55.5342H139.672C139.616 55.9122 139.588 56.3742 139.588 57.0462V66.5662C139.588 67.5602 139.224 67.8402 137.964 67.8402C137.39 67.8402 136.844 67.8122 136.06 67.7422C136.004 67.2382 135.934 66.9862 135.752 66.5382C136.62 66.6922 137.25 66.7622 137.796 66.7622C138.3 66.7622 138.426 66.6922 138.426 66.4122V57.0322C138.426 56.3882 138.398 55.9402 138.342 55.5342ZM141.646 58.8802L142.808 58.5442C142.906 59.3142 143.116 60.0562 143.606 61.3022C144.138 62.6882 144.768 63.7802 145.692 64.9562C145.216 65.2642 145.048 65.4182 144.726 65.7682C143.438 64.0042 142.724 62.5342 142.052 60.2942L141.8 59.4122C141.702 59.0902 141.646 58.9082 141.646 58.8802ZM134.982 58.6142L136.186 58.9222C136.13 59.1182 136.074 59.3422 135.962 59.7622C135.276 62.6042 134.73 63.8782 133.456 65.7402C133.12 65.4462 132.882 65.2782 132.434 65.0402C133.456 63.6962 134.086 62.4082 134.576 60.7002C134.814 59.8602 134.94 59.1882 134.982 58.6142Z" fill="#263035"/>
<path d="M124.678 66.0761C125.896 65.8801 126.568 65.6841 127.254 65.3201C128.654 64.5781 129.466 63.2061 129.466 61.5821C129.466 60.0561 128.724 58.8241 127.394 58.1801C126.904 57.9421 126.512 57.8441 125.826 57.8021C125.588 59.8601 125.084 61.9181 124.426 63.4021C123.628 65.2361 122.788 66.0761 121.738 66.0761C120.324 66.0761 119.288 64.5781 119.288 62.5341C119.288 61.0781 119.82 59.6781 120.786 58.6141C121.92 57.3681 123.488 56.7241 125.392 56.7241C128.57 56.7241 130.684 58.6841 130.684 61.6381C130.684 63.8081 129.578 65.5441 127.618 66.4821C126.946 66.8041 126.358 66.9861 125.28 67.2101C125.098 66.6501 125 66.4681 124.678 66.0761ZM124.622 57.8301C123.81 57.9001 123.236 58.0821 122.62 58.4881C121.262 59.3421 120.436 60.8821 120.436 62.5481C120.436 63.8221 120.996 64.8301 121.724 64.8301C122.27 64.8301 122.802 64.1861 123.376 62.8701C123.936 61.5681 124.44 59.5661 124.622 57.8301Z" fill="#263035"/>
<path d="M110.286 57.2702V56.4722C110.286 56.0382 110.244 55.5902 110.188 55.3242H111.476C111.406 55.6602 111.378 56.0242 111.378 56.4582V57.2702H115.662C116.376 57.2702 116.866 57.2422 117.314 57.1722V58.3482C116.922 58.2782 116.502 58.2642 115.69 58.2642H106.366C105.694 58.2642 105.176 58.2922 104.756 58.3482V57.1722C105.26 57.2422 105.722 57.2702 106.38 57.2702H110.286ZM110.286 60.0842V59.7062C110.286 59.2862 110.272 58.9362 110.23 58.6142H111.434C111.392 58.8382 111.364 59.2162 111.364 59.7062V60.0842H114.682C115.27 60.0842 115.606 60.0702 116.012 60.0282C115.97 60.3922 115.956 60.7142 115.956 61.1902V65.2362C115.956 66.2582 115.634 66.5102 114.374 66.5102C113.842 66.5102 113.618 66.4962 113.002 66.4542C112.932 66.0062 112.876 65.7822 112.708 65.3482C113.366 65.4462 113.884 65.5022 114.262 65.5022C114.766 65.5022 114.878 65.4182 114.878 65.0962V61.0502H111.364V66.5102C111.364 67.0982 111.392 67.5742 111.462 68.0782H110.188C110.258 67.5462 110.286 67.0842 110.286 66.5102V61.0502H107.122V65.2082C107.122 65.8802 107.15 66.3142 107.206 66.7482H105.932C105.988 66.2442 106.016 65.8522 106.016 65.2082V61.1902C106.016 60.7562 106.002 60.3782 105.96 60.0282C106.38 60.0702 106.744 60.0842 107.332 60.0842H110.286Z" fill="#263035"/>
<path d="M96.356 57.9002V56.7942C96.356 56.1082 96.328 55.7722 96.258 55.3242H97.56C97.504 55.7442 97.476 56.1362 97.476 56.7662V57.9002H101.494C101.998 57.9002 102.264 57.8862 102.6 57.8442C102.558 58.2082 102.544 58.5022 102.544 58.9922V62.9542C102.544 63.4582 102.558 63.8222 102.614 64.2282H101.438V63.3182H97.476V66.4542C97.476 67.2662 97.49 67.6442 97.574 68.0922H96.258C96.328 67.6022 96.356 67.2102 96.356 66.4542V63.3182H92.59V64.2282H91.4C91.456 63.8082 91.484 63.4442 91.484 62.9542V58.9782C91.484 58.5162 91.456 58.2082 91.414 57.8442C91.764 57.8862 92.03 57.9002 92.52 57.9002H96.356ZM96.356 58.9222H92.59V62.2962H96.356V58.9222ZM97.476 62.2962H101.438V58.9222H97.476V62.2962Z" fill="#263035"/>
<path d="M84.96 56.2059H86.71C87.382 56.2059 87.816 56.1919 88.236 56.1359C88.194 56.4579 88.18 56.7239 88.18 57.2699V59.4959C88.18 60.0419 88.194 60.3079 88.236 60.6299C87.774 60.5879 87.438 60.5739 86.752 60.5739H79.346C78.52 60.5739 78.296 60.5879 77.876 60.6299C77.918 60.3079 77.932 60.0279 77.932 59.4959V57.2699C77.932 56.7379 77.918 56.4719 77.876 56.1359C78.296 56.1919 78.73 56.2059 79.402 56.2059H80.97C80.97 55.6599 80.956 55.4779 80.886 55.1279H82.02C81.964 55.4639 81.936 55.7299 81.936 56.2059H83.994C83.994 55.6739 83.98 55.4919 83.91 55.1279H85.058C84.988 55.5059 84.96 55.7159 84.96 56.2059ZM80.97 57.0039H78.926V57.9839H80.97V57.0039ZM81.936 57.0039V57.9839H83.994V57.0039H81.936ZM84.96 57.0039V57.9839H87.186V57.0039H84.96ZM80.97 58.7539H78.926V59.8039H80.97V58.7539ZM81.936 58.7539V59.8039H83.994V58.7539H81.936ZM84.96 58.7539V59.8039H87.186V58.7539H84.96ZM85.324 66.8879H87.76C88.404 66.8879 88.852 66.8599 89.258 66.8039V67.8679C88.824 67.7979 88.404 67.7699 87.76 67.7699H78.352C77.666 67.7699 77.246 67.7979 76.784 67.8679V66.8039C77.246 66.8599 77.666 66.8879 78.352 66.8879H80.816C80.606 66.5379 80.41 66.2579 80.158 65.9499L81.11 65.6139C81.376 65.9919 81.628 66.4119 81.866 66.8879H84.246C84.526 66.4819 84.736 66.1179 84.932 65.6139L85.926 65.9639C85.702 66.3559 85.548 66.5939 85.324 66.8879ZM89.09 61.2599V62.2959C88.67 62.2399 88.194 62.2119 87.522 62.2119H78.464C77.806 62.2119 77.344 62.2399 76.938 62.2959V61.2599C77.33 61.3159 77.764 61.3439 78.464 61.3439H87.522C88.25 61.3439 88.684 61.3159 89.09 61.2599ZM78.534 64.6899V63.8359C78.534 63.4439 78.52 63.1779 78.464 62.8839C78.884 62.9119 79.416 62.9399 80.074 62.9399H85.94C86.57 62.9399 87.102 62.9119 87.522 62.8839C87.466 63.1639 87.452 63.4299 87.452 63.8359V64.6899C87.452 65.0819 87.466 65.3619 87.522 65.6559C87.088 65.6139 86.612 65.5999 85.982 65.5999H80.018C79.22 65.5999 78.926 65.6139 78.464 65.6559C78.52 65.3479 78.534 65.0819 78.534 64.6899ZM79.598 63.7519V64.8019H86.402V63.7519H79.598Z" fill="#263035"/>
<path d="M95.9339 36.0087L93.8935 31.1162H92.6929V38.9932H93.9005V34.1007L95.9409 38.9932H97.1415V31.1162H95.9339V36.0087Z" fill="#263035"/>
<path d="M109.114 31.1162H107.913L106.268 38.9722V38.9932H107.476L107.76 37.6512H109.28L109.558 38.9792V38.9932H110.772L109.127 31.1302V31.1162H109.114ZM109.169 37.127H107.871L108.51 34.0447L109.169 37.127Z" fill="#263035"/>
<path d="M123.632 31.3265C123.209 31.1727 122.855 31.0889 122.098 31.0889C121.71 31.0889 121.404 31.1098 121.113 31.1588C120.815 31.2007 120.599 31.2636 120.405 31.3265C120.211 31.3964 120.086 31.4803 119.975 31.6061C119.871 31.6969 119.871 31.8088 119.871 31.9206C119.871 31.9416 119.871 31.9625 119.871 31.9765V38.1481C119.871 38.1481 119.871 38.19 119.871 38.204C119.871 38.3158 119.871 38.4207 119.968 38.5185C120.079 38.6374 120.211 38.7212 120.398 38.7911C120.634 38.882 120.849 38.9309 121.106 38.9659C121.425 39.0078 121.731 39.0218 122.092 39.0218C122.848 39.0218 123.202 38.9449 123.625 38.7841C124.083 38.6164 124.319 38.3997 124.319 38.1411V31.9695C124.319 31.7179 124.083 31.4943 123.625 31.3195L123.632 31.3265ZM123.091 38.1341C123.091 38.2669 123.015 38.3648 122.841 38.4417C122.654 38.5255 122.418 38.5675 122.071 38.5675C121.724 38.5675 121.515 38.5325 121.349 38.4417C121.148 38.3508 121.127 38.239 121.127 38.1341V31.9765C121.127 31.8787 121.155 31.7598 121.356 31.676C121.529 31.5851 121.751 31.5432 122.078 31.5432C122.404 31.5432 122.647 31.5851 122.848 31.676C123.015 31.7459 123.098 31.8437 123.098 31.9765V38.1341H123.091Z" fill="#263035"/>
<path d="M136.25 34.9394L138.221 31.1442L138.235 31.1162H137.02L135.049 34.9114H134.653V31.1162H133.446V38.9932H134.653V35.4356H135.049L137.013 38.9862L137.02 38.9932H138.235L136.132 35.184L136.25 34.9394Z" fill="#263035"/>
<path d="M148.547 31.1162H147.34V38.9932H148.547V31.1162Z" fill="#263035"/>
<path d="M170.625 31.3617C170.18 31.1939 169.674 31.124 168.931 31.124H166.821V38.994H168.931C169.674 38.994 170.18 38.9241 170.625 38.7564C171.062 38.5886 171.27 38.372 171.27 38.1064V32.0187C171.27 31.7461 171.048 31.5224 170.625 31.3687V31.3617ZM170.042 38.1064C170.042 38.2112 169.951 38.3161 169.771 38.4139C169.604 38.4908 169.299 38.5397 168.931 38.5397H168.036V31.5713H168.931C169.202 31.5783 169.563 31.6133 169.771 31.7041C169.896 31.7601 170.042 31.8649 170.042 32.0117V38.0994V38.1064ZM170.035 31.9138C170.035 31.9138 170.035 31.9138 170.035 31.9208C170.035 31.9208 170.035 31.9208 170.035 31.9138Z" fill="#263035"/>
<path d="M180.389 38.9932H184.179V38.469H181.597V35.4356H183.29V34.9114H181.597V31.6474H184.179V31.1162H180.389V38.9932Z" fill="#263035"/>
<path d="M196.539 36.0087L194.505 31.1302V31.1162H193.298V38.9932H194.505V34.1007L196.539 38.9792L196.546 38.9932H197.747V31.1162H196.539V36.0087Z" fill="#263035"/>
<path d="M206.866 31.6482H208.49V38.994H209.698V31.6482H211.315V31.124H206.866V31.6482Z" fill="#263035"/>
<path d="M223.286 31.1162H222.086L220.441 38.9722V38.9932H221.649L221.933 37.6512H223.453L223.731 38.9792V38.9932H224.945L223.293 31.1302V31.1162H223.286ZM223.342 37.127H222.044L222.683 34.0447L223.342 37.127Z" fill="#263035"/>
<path d="M235.258 31.1162H234.051V38.9932H237.792V38.469H235.258V31.1162Z" fill="#263035"/>
<path d="M259.827 31.2913C259.403 31.1376 259.049 31.0537 258.293 31.0537C257.897 31.0537 257.585 31.0887 257.307 31.1236C257.009 31.1655 256.794 31.2284 256.599 31.2913C256.405 31.3612 256.28 31.4451 256.169 31.5709C256.058 31.6618 256.065 31.7736 256.065 31.8854C256.065 31.9064 256.065 31.9274 256.065 31.9414V38.1129C256.065 38.1129 256.065 38.1549 256.065 38.1689C256.065 38.2807 256.065 38.3855 256.162 38.4834C256.273 38.6022 256.405 38.6861 256.593 38.756C256.829 38.8468 257.044 38.8958 257.3 38.9307C257.62 38.9726 257.925 38.9866 258.286 38.9866C259.042 38.9866 259.396 38.9097 259.82 38.749C260.278 38.5812 260.514 38.3646 260.514 38.106V35.8554H259.278V38.092C259.278 38.2248 259.202 38.3226 259.029 38.3995C258.841 38.4834 258.605 38.5253 258.258 38.5253C257.911 38.5253 257.703 38.4904 257.536 38.3995C257.335 38.3086 257.314 38.1968 257.314 38.092V31.9344C257.314 31.8365 257.342 31.7177 257.543 31.6338C257.717 31.543 257.939 31.501 258.265 31.501C258.591 31.501 258.834 31.543 259.035 31.6338C259.202 31.7037 259.285 31.8016 259.285 31.9344V34.171H260.521V31.9344C260.521 31.6828 260.285 31.4591 259.827 31.2844V31.2913Z" fill="#263035"/>
<path d="M270.841 31.1162H269.633V38.9932H273.381V38.469H270.841V31.1162Z" fill="#263035"/>
<path d="M283.708 31.1162H282.5V38.9932H283.708V31.1162Z" fill="#263035"/>
<path d="M296.068 36.0087L294.035 31.1302L294.028 31.1162H292.827V38.9932H294.035V34.1007L296.068 38.9792L296.075 38.9932H297.276V31.1162H296.068V36.0087Z" fill="#263035"/>
<path d="M307.603 31.1162H306.396V38.9932H307.603V31.1162Z" fill="#263035"/>
<path d="M321.171 34.1848V31.9482C321.171 31.6966 320.935 31.4729 320.477 31.2982C320.054 31.1444 319.7 31.0605 318.943 31.0605C318.548 31.0605 318.235 31.0955 317.958 31.1304C317.659 31.1724 317.444 31.2353 317.25 31.2982C317.056 31.3681 316.931 31.452 316.82 31.5778C316.709 31.6686 316.715 31.7805 316.715 31.8923C316.715 31.9132 316.715 31.9342 316.715 31.9482V38.1198C316.715 38.1198 316.715 38.1617 316.715 38.1757C316.715 38.2875 316.715 38.3924 316.813 38.4902C316.924 38.609 317.056 38.6929 317.243 38.7628C317.479 38.8537 317.694 38.9026 317.951 38.9375C318.27 38.9795 318.575 38.9935 318.936 38.9935C319.693 38.9935 320.047 38.9166 320.47 38.7558C320.928 38.5881 321.164 38.3714 321.164 38.1128V35.8622H319.929V38.0988C319.929 38.2316 319.852 38.3295 319.679 38.4063C319.492 38.4902 319.256 38.5322 318.909 38.5322C318.562 38.5322 318.353 38.4972 318.187 38.4063C317.986 38.3155 317.965 38.2037 317.965 38.0988V31.9412C317.965 31.8434 317.992 31.7245 318.194 31.6407C318.367 31.5498 318.589 31.5079 318.916 31.5079C319.242 31.5079 319.485 31.5498 319.686 31.6407C319.852 31.7106 319.936 31.8084 319.936 31.9412V34.1778H321.171V34.1848Z" fill="#263035"/>
<path d="M66.5771 18.8152C65.5639 18.284 64.6131 17.8996 63.5859 17.606C63.4749 17.0679 63.343 16.5506 63.2181 16.0544C63.1209 15.67 63.0168 15.2716 62.9266 14.8662C62.7115 13.8947 62.6698 13.5942 62.6698 13.0769C62.6698 12.4898 62.8503 12.0495 63.2528 11.6651C63.7039 11.2318 64.5576 11.0081 65.1752 11.0081C65.4528 11.0081 65.7235 11.071 65.9803 11.1339C66.362 11.2387 66.5633 11.2877 66.8756 11.2877C67.3197 11.2877 67.5488 10.9102 67.5488 10.5398C67.5488 9.97368 67.2156 9.51937 66.4245 9.04409C65.2169 8.30322 63.6345 7.99569 62.0868 8.19139H62.0452L61.9966 8.78549H62.0452C63.461 8.92527 64.5367 9.37958 65.0295 9.73604C65.203 9.86185 65.2238 9.91776 65.2238 9.95271C65.2238 10.0016 65.1197 10.0226 65.0503 10.0296C64.1758 10.1554 63.2944 10.5328 62.6351 11.057C61.8509 11.6931 61.3651 12.5807 61.3651 13.3705C61.3651 13.8388 61.3859 14.1673 61.601 15.0969C61.7954 15.9006 61.948 16.6135 62.0799 17.2775C61.5663 17.2076 61.1291 17.1797 60.7057 17.1797C58.2697 17.1797 56.9927 18.3609 56.9927 19.5281C56.9927 20.9539 58.2003 21.8346 60.1436 21.8346C62.302 21.8346 63.7039 20.7233 63.7247 19.0039C64.5228 19.3743 65.2932 19.8286 66.0705 20.3948C66.827 20.9539 67.0768 21.1007 67.3059 21.1007C67.6668 21.1007 67.9374 20.7862 67.9374 20.3738C67.9374 19.8496 67.4447 19.2975 66.5563 18.8082L66.5771 18.8152ZM62.2603 18.4657V18.7313C62.2603 20.0104 61.4136 20.7163 59.8799 20.7163C58.6445 20.7163 57.9088 20.269 57.9088 19.5141C57.9088 18.7593 58.9429 18.2211 60.3726 18.2211C61.018 18.2211 61.6149 18.298 62.2603 18.4657Z" fill="#263035"/>
<path d="M58.929 8.12174C59.5259 7.93303 60.1158 7.73733 60.4004 7.59754C60.6919 7.45076 60.8376 7.24807 60.8376 6.98947C60.8376 6.86366 60.7751 6.73785 60.6502 6.61903C60.4351 6.40935 60.0672 6.26257 59.7757 6.26257C59.7619 6.26257 59.748 6.26257 59.7341 6.26257C59.5606 6.26257 59.3385 6.33946 59.1858 6.4443C58.9707 6.59806 58.7764 6.7029 58.5265 6.80774C58.2836 6.91258 57.9505 7.01742 57.5271 7.14323L57.3189 7.20614C57.43 6.89162 57.5688 6.5072 57.7353 6.13677C57.77 6.06687 57.7978 5.99698 57.8256 5.93408C57.895 5.77332 57.9505 5.64052 58.0129 5.53568C58.0893 5.40988 58.1726 5.20718 58.1726 5.03245C58.1726 4.71094 57.9921 4.39642 57.6173 4.06093C57.3883 3.85824 56.7221 3.37598 55.5631 3.37598H55.5284L55.2785 3.90717L55.3271 3.92813C56.2987 4.34749 56.4375 4.67599 56.4375 4.96256C56.4375 5.22815 56.3889 5.47278 56.2918 5.89913C56.1738 6.31849 56.0142 6.82172 55.7643 7.57657C54.4596 7.8212 53.8488 7.89808 53.1548 7.89808C52.5441 7.89808 51.9264 7.63249 51.3157 7.10828L51.281 7.07334L50.8784 7.50668L50.8923 7.54162C51.3712 8.52712 52.2734 9.10724 53.3075 9.10724C53.8974 9.10724 54.4596 9.05831 55.2924 8.92551C54.4387 11.218 53.5088 13.3987 52.4608 15.796C52.1485 16.46 51.8153 17.0471 51.4961 17.5923C51.3434 17.8579 51.1907 18.1864 51.1907 18.5918C51.1907 19.0461 51.4961 19.5563 51.9125 19.5563C52.3497 19.5563 52.5302 19.4864 53.0993 18.0955C54.4943 14.7057 55.7088 11.6164 56.8123 8.65293C57.423 8.52712 58.0407 8.35938 58.582 8.2126C58.7 8.17765 58.8249 8.1497 58.9429 8.11475L58.929 8.12174Z" fill="#263035"/>
<path d="M86.322 11.9168C84.5939 11.9168 82.4008 12.6157 79.8121 13.9856C79.8121 12.7345 79.8329 11.2807 79.8746 9.66619C80.7213 9.37264 81.6096 9.03715 82.5118 8.65973C83.2267 8.3522 83.4488 8.14951 83.4488 7.78606C83.4488 7.44358 82.9838 7.15003 82.4494 7.15003C82.2203 7.15003 81.9983 7.24089 81.4569 7.54842C80.9503 7.83499 80.4714 8.06563 79.9301 8.29628C79.9578 7.90488 79.9995 7.49251 80.0342 7.12906L80.0689 6.75863C80.1105 6.37421 80.1591 6.12959 80.2146 5.89894C80.284 5.6613 80.3257 5.42366 80.3257 5.23495C80.3257 4.90645 80.0758 4.57096 79.6733 4.34032C79.2014 4.0887 78.6739 3.96289 78.0979 3.96289C77.7925 3.96289 77.5218 3.99085 77.2859 4.05375H77.2512L77.2026 4.61989H77.2442C78.2367 4.85753 78.6045 5.24893 78.6045 6.07367C78.6045 7.05218 78.5837 7.96079 78.5629 8.76457C77.4455 9.12801 76.925 9.2049 76.4808 9.2049C75.8562 9.2049 75.3981 9.00919 74.9054 8.52693L74.8707 8.49198L74.4612 8.8764L74.4751 8.91134C74.8984 9.86888 75.6272 10.435 76.4183 10.435C77.0568 10.435 77.6606 10.3372 78.5629 10.0856C78.542 11.6162 78.542 13.1888 78.542 14.7125C77.508 15.3276 74.2808 17.3545 74.2808 18.8152C74.2808 19.1298 74.4196 19.6889 75.3287 19.9265C76.2587 20.1642 76.8486 20.4228 77.1332 20.7163C77.2581 20.8421 77.3691 20.954 77.4524 21.0588C77.6398 21.2685 77.7786 21.3803 78.0076 21.3803C78.5143 21.3803 78.9793 21.1287 79.4234 20.6045C79.8329 20.1222 79.8676 19.4093 79.8676 18.5986C79.8676 18.2351 79.8537 17.8158 79.8329 17.3265V17.1238C79.8052 16.5926 79.8052 15.9077 79.8052 15.1179C82.1093 13.7619 84.4204 12.9512 85.9958 12.9512C87.7794 12.9512 88.8899 13.9996 88.8899 15.691C88.8899 17.9625 87.3769 19.1927 85.9542 19.1927C85.2046 19.1927 84.4829 19.0109 83.6778 18.6125L83.6361 18.5916L83.2891 19.1647L83.3238 19.1927C84.2122 20.0034 85.1977 20.3948 86.3289 20.3948C88.3971 20.3948 90.5347 18.6615 90.5347 15.7679C90.5347 13.3845 88.9246 11.9028 86.3289 11.9028L86.322 11.9168ZM78.549 15.9286V18.0394C78.549 19.4583 78.2783 19.7448 77.848 19.7448C77.5288 19.7448 77.043 19.626 76.5571 19.4233C76.0575 19.2136 75.7521 19.0319 75.7521 18.7593C75.7521 18.1862 76.8209 17.1029 78.5559 15.9356L78.549 15.9286Z" fill="#263035"/>
<path d="M89.8823 7.63948C88.7719 6.92657 87.37 6.66796 85.8223 6.89162H85.7807L85.7529 7.47174H85.8015C87.0993 7.58357 88.1265 8.03089 88.6192 8.37336C88.7927 8.49917 88.876 8.61799 88.876 8.72283C88.876 8.79971 88.8413 8.86961 88.6609 9.0024C88.4527 9.15617 88.2514 9.28897 88.0432 9.43574C87.7795 9.61747 87.5088 9.79919 87.2173 10.0228L87.1757 10.0578L87.5782 10.568L87.6129 10.554C88.2167 10.2954 88.7095 10.0927 89.112 9.94597C89.4659 9.83414 89.6325 9.82016 89.7435 9.82016C89.8268 9.82016 89.9864 9.86908 90.1114 9.90403C90.1947 9.93199 90.3959 9.99489 90.5555 9.99489C90.8956 9.99489 91.1038 9.75026 91.1038 9.33789C91.1038 8.7438 90.6527 8.12874 89.8754 7.64647L89.8823 7.63948Z" fill="#263035"/>
<path d="M112.272 8.64502C111.925 8.64502 111.696 8.77083 111.467 8.89664L110.759 9.25309C110.072 9.58858 109.28 9.92407 108.031 10.4063C107.594 9.42783 107.268 8.659 106.976 7.92512C108.052 7.56167 109.086 7.17726 110.155 6.75091C110.53 6.59015 110.897 6.40843 110.897 6.05197C110.897 5.66756 110.488 5.37401 109.961 5.37401C109.586 5.37401 109.357 5.48584 109.142 5.59767C109.072 5.63261 109.003 5.66756 108.933 5.70251C108.795 5.7724 108.656 5.84928 108.496 5.91918C107.858 6.20574 107.129 6.53424 106.504 6.76489C106.317 6.25467 106.171 5.80735 106.053 5.45089C105.949 5.1154 105.907 4.92669 105.859 4.5283C105.817 4.04603 105.644 3.82936 105.158 3.61968C104.762 3.45194 104.283 3.41699 103.957 3.41699C103.576 3.41699 103.215 3.53581 102.618 3.85732L102.583 3.87829L102.736 4.41647H102.777C103.034 4.38851 103.18 4.38851 103.27 4.38851C103.895 4.38851 104.096 4.64013 104.429 5.2482C104.714 5.7724 104.957 6.33854 105.193 6.88371C105.234 6.97457 105.269 7.07242 105.311 7.16328C104.839 7.32403 104.422 7.44984 104.075 7.53371C103.256 7.73641 102.583 7.83426 102.063 7.83426C101.542 7.83426 100.904 7.83426 99.925 7.61759L99.8764 7.60361L99.7238 8.14878L99.7654 8.16974C100.855 8.7219 101.639 8.93158 102.562 8.93158C103.097 8.93158 103.617 8.83373 104.339 8.67298C104.735 8.5891 105.186 8.4633 105.783 8.29555C105.977 8.76384 106.185 9.21815 106.379 9.66546C106.546 10.0359 106.719 10.4203 106.879 10.8047C105.762 11.1891 104.894 11.4268 104.332 11.5666C103.353 11.8042 102.59 11.909 101.931 11.909C101.528 11.909 100.855 11.8741 99.6196 11.5456L99.5711 11.5316L99.3906 12.0768L99.4253 12.0978C100.591 12.7757 101.445 13.0343 102.465 13.0343C103.006 13.0343 103.714 12.9365 104.568 12.7478C105.491 12.5171 106.421 12.2515 107.413 11.937L107.643 12.4123C107.99 13.1322 108.323 13.8101 108.614 14.4671C108.725 14.7327 108.76 14.8516 108.76 14.9214C108.76 14.9844 108.711 15.0193 108.642 15.0193C108.559 15.0193 108.337 14.9983 108.177 14.9774C107.233 14.8795 106.157 14.8166 105.422 14.7817H105.373L105.269 15.3758L105.533 15.4317C106.372 15.6064 107.094 15.7532 107.962 15.9698C108.517 16.1166 108.69 16.2424 108.899 16.6199C109.107 16.9973 109.294 17.1441 109.565 17.1441C109.926 17.1441 110.141 16.8994 110.321 16.2844C110.446 15.9139 110.453 15.4806 110.453 15.3548C110.453 14.9844 110.328 14.6838 109.884 13.9639C109.447 13.23 109.149 12.6988 108.579 11.5526C109.856 11.1262 111.224 10.644 112.598 10.0289C113.098 9.79826 113.271 9.60955 113.271 9.30901C113.271 8.93158 112.813 8.63104 112.251 8.63104L112.272 8.64502Z" fill="#263035"/>
<path d="M108.51 20.4225C108.204 20.2547 107.837 20.1779 107.365 20.1779C107.233 20.1779 107.108 20.1779 106.976 20.1779C106.587 20.1779 106.226 20.1848 105.838 20.1569C103.832 19.9612 102.631 19.5348 101.41 18.5843C100.744 18.0671 100.272 17.3821 99.8346 16.3058L99.8138 16.2568L99.2794 16.5154V16.5574C99.5014 17.8574 99.8901 18.7171 100.633 19.5069C101.639 20.6252 103.374 21.422 105.657 21.8204C106.58 21.9811 107.413 22.0161 107.948 22.0161C108.642 22.0161 109.051 21.7295 109.051 21.2472C109.051 20.9537 108.829 20.6182 108.51 20.4225Z" fill="#263035"/>
<path d="M134.175 20.4505H134.195L134.438 20.1989L134.327 18.3607V17.2634C134.751 17.0048 134.889 16.9139 134.889 16.7112C134.889 16.4946 134.806 16.4247 134.168 15.8655L133.876 15.6139L133.862 15.5999H133.515L132.953 16.2499H130.406C129.927 15.9704 129.566 15.7886 129.053 15.5999L129.025 15.5859L128.852 15.7607V15.7886C129.004 16.3058 129.053 16.7671 129.053 17.6198V18.829L128.949 20.821V20.8769L129.99 20.8279H130.011L130.253 20.5833V19.8984H133.099V20.4855L134.168 20.4365L134.175 20.4505ZM133.113 17.0956V19.0736H130.267V17.0956H133.113Z" fill="#263035"/>
<path d="M133.633 7.47128H138.72V6.87718L137.374 5.47233L137.36 5.45835H137.013L136.111 6.62557H131.378L131.711 5.9476C132.308 5.92663 132.634 5.85674 132.634 5.57018C132.634 5.38146 132.467 5.16479 131.343 4.87124C132.433 4.73844 133.508 4.52876 134.626 4.23521C135.167 4.38199 135.542 4.45188 135.813 4.45188C136.139 4.45188 136.298 4.33306 136.298 4.09543C136.298 3.82983 135.965 3.53628 134.508 2.55777H134.494L134.307 2.55078L134.293 2.56476C133.932 2.84433 133.488 3.08197 132.995 3.24972C131.149 3.90671 128.872 4.33306 126.228 4.52876H126.173L126.221 5.15082H126.27C127.824 5.17178 129.219 5.12286 130.524 4.98307C130.448 5.27662 130.371 5.52125 130.247 5.83577C130.177 6.01749 130.101 6.19223 130.024 6.36696C129.99 6.45083 129.948 6.54169 129.913 6.62557H128.04L126.207 6.49277L126.471 7.60407L128.04 7.47128H129.476C128.699 8.89011 127.623 10.1831 126.173 11.4342L126.131 11.4692L126.54 11.9095L126.575 11.8885C127.422 11.3224 128.116 10.7842 128.734 10.1901V11.3434L128.623 13.5031L129.712 13.4611H129.733L129.976 13.2165V12.6853H133.682V13.3843L134.792 13.3353H134.813L135.056 13.0907L134.945 11.2455V10.3719C135.632 11.0009 136.472 11.5181 137.499 11.9445L137.548 11.9654L137.568 11.9165C137.839 11.2735 138.2 11.0149 138.88 10.9939H138.922L139.054 10.4417H138.998C136.548 10.0643 134.938 9.17668 133.626 7.48526L133.633 7.47128ZM133.689 10.0713V11.8326H129.983V10.0713H133.689ZM130.031 9.23259C129.962 9.19066 129.9 9.1627 129.823 9.12775C129.802 9.11377 129.775 9.10678 129.754 9.09281C130.198 8.5686 130.587 7.9815 130.906 7.47128H132.821C133.106 8.03042 133.418 8.55463 133.758 9.02291L133.585 9.23259H130.031Z" fill="#263035"/>
<path d="M137.152 13.4261L137.013 13.3073H136.666L135.979 14.1111H127.776C127.214 13.7965 126.693 13.51 126.02 13.2025L125.985 13.1885L125.812 13.3702L125.826 13.3982C126.034 14.0062 126.103 14.5374 126.103 15.5019V18.9477L125.999 22.7848V22.8408L127.214 22.7988H127.234L127.477 22.5542V14.9568H136.194V20.5203C136.194 20.8837 136.048 21.0305 135.688 21.0305C135.327 21.0305 134.827 20.9816 133.696 20.8348H133.647L133.522 21.4219L133.564 21.4359C134.792 21.8483 134.994 22.1139 135.056 22.8198V22.8687H135.112C136.867 22.8058 137.617 22.2187 137.617 20.9117L137.555 17.5778V15.2713C138.089 15.0826 138.283 14.9218 138.283 14.6912C138.283 14.4186 138.068 14.2299 137.166 13.4401L137.152 13.4261Z" fill="#263035"/>
<path d="M122.89 15.0615C123.07 14.2297 123.181 13.384 123.223 12.4754H126.478V11.8813L125.257 10.6093L125.243 10.5953H124.896L124.118 11.6367H123.272V7.66674H126.089V7.07265L124.826 5.75865L124.812 5.74467H124.465L123.646 6.82802H121.252C121.571 5.99629 121.828 5.21348 122.036 4.43767C122.765 4.31186 122.994 4.221 122.994 3.91347C122.994 3.55002 122.557 3.34733 120.808 2.73926H120.787L120.586 2.82313V2.85808C120.627 3.42421 120.551 3.9554 120.44 4.64735C120.051 6.89792 119.343 8.8759 118.337 10.5254L118.309 10.5673L118.823 10.9238L118.851 10.8888C119.677 9.91032 120.343 8.86192 120.891 7.68072H121.842V11.6507H120.454L118.622 11.5179L118.885 12.6292L120.454 12.4964H121.821C121.648 16.2357 120.627 18.668 118.4 20.618L118.365 20.646L118.719 21.1632L118.76 21.1352C120.801 19.7443 122.05 18.0599 122.696 15.8443C123.341 16.5432 123.757 17.2701 124.042 18.1857C124.264 18.9475 124.445 19.283 124.889 19.283C125.312 19.283 125.631 18.8707 125.631 18.3185C125.631 17.2631 124.639 16.0889 122.904 15.0824L122.89 15.0615Z" fill="#263035"/>
<path d="M159.624 19.0251L158.486 20.4579H152.989V12.9793H159.319V12.3852L157.757 10.7847L157.744 10.7707H157.396L156.321 12.1336H152.996V5.62654H160.832V5.03245L159.25 3.37598H158.903L157.806 4.78782H144.793L142.954 4.65503L143.239 5.76633L144.786 5.63353H151.428V20.4579H147.354V11.1411C148.076 10.9315 148.298 10.8126 148.298 10.4981C148.298 10.1347 147.895 10.0019 145.626 9.62445H145.598L145.452 9.79918L145.466 9.82714C145.723 10.3653 145.806 10.8056 145.806 11.6234V20.4579H143.926L142.086 20.3251L142.371 21.4364L143.919 21.3036H161.574V20.7095L159.971 19.0321H159.624V19.0251Z" fill="#263035"/>
<path d="M171.992 12.7485C172.235 13.3146 172.443 13.6291 172.838 13.6291C173.234 13.6291 173.47 13.3146 173.47 12.7974C173.47 12.0356 172.394 11.0291 170.666 10.1694L170.625 10.1484L170.264 10.6377L170.305 10.6656C171.117 11.2947 171.679 11.9936 171.992 12.7485Z" fill="#263035"/>
<path d="M169.591 14.8664L171.159 14.7336H173.311C172.339 16.7815 171.048 18.2213 169.258 19.2487L169.209 19.2767L169.57 19.7659L169.605 19.7519C171.701 18.8363 173.13 17.5992 174.345 15.6282L174.199 20.0245V20.0804L175.372 20.0315L175.615 19.7869L175.525 16.432V16.0056C176.531 16.5997 177.246 17.2288 177.968 18.1584C178.308 18.5917 178.578 18.7874 178.849 18.7874C179.175 18.7874 179.522 18.5917 179.522 18.0395C179.522 17.1729 177.988 16.1314 175.518 15.3137V14.7336H180.556V14.1395L179.3 12.8744H178.953L178.155 13.8949H175.518V10.8475C176.066 10.7287 176.378 10.6029 176.378 10.3093C176.378 9.98083 175.997 9.84803 174.095 9.51953H174.067L173.921 9.69426L173.935 9.72222C174.199 10.2744 174.275 10.6658 174.275 11.4765V13.8949H171.145L169.306 13.7621L169.57 14.8734L169.591 14.8664Z" fill="#263035"/>
<path d="M183.506 6.99581H183.159L182.166 8.21195H175.982V6.12913H182.263V5.53504L180.854 4.18609H180.507L179.605 5.29041H175.982V4.08125C176.704 3.87157 176.885 3.74576 176.885 3.48017C176.885 3.11672 176.475 2.98393 174.324 2.64844H174.296L174.15 2.82317L174.164 2.85113C174.421 3.38931 174.504 3.82265 174.504 4.64739V8.21195H170.972V5.1646C171.693 4.95492 171.874 4.8361 171.874 4.56352C171.874 4.19308 171.471 4.06727 169.334 3.73179H169.306L169.16 3.90652L169.174 3.93448C169.431 4.47266 169.514 4.91298 169.514 5.73074V8.21195H166.905L165.065 8.07916L165.35 9.19046L166.898 9.05766H184.921V8.46357L183.526 7.01678L183.513 7.0028L183.506 6.99581Z" fill="#263035"/>
<path d="M180.979 9.77066H180.952L180.806 9.93841V9.96636C180.993 10.4836 181.049 10.868 181.049 11.6158V20.5762H168.848V11.1755C169.445 11.0008 169.729 10.861 169.729 10.5954C169.729 10.2389 169.25 10.1061 167.363 9.76367H167.335L167.189 9.93142V9.95937C167.377 10.4766 167.432 10.875 167.432 11.6089V18.046L167.321 22.8128V22.8687L168.577 22.8267H168.598L168.841 22.5821V21.4219H181.042V22.7918L182.326 22.7499H182.347L182.589 22.4983L182.485 18.1439V11.1825C183.131 11.0148 183.367 10.854 183.367 10.6024C183.367 10.2599 182.985 10.1271 180.979 9.77066Z" fill="#263035"/>
<path d="M176.204 13.5381L176.6 13.8526L176.635 13.8246C177.468 13.1467 178.196 12.3708 178.758 11.581C179.348 11.581 179.688 11.5181 179.688 11.2246C179.688 10.931 179.397 10.7493 177.96 10.1133H177.94L177.745 10.1902L177.71 10.323C177.613 10.6934 177.523 11.0429 177.287 11.595C177.01 12.266 176.683 12.8531 176.239 13.4891L176.211 13.5311L176.204 13.5381Z" fill="#263035"/>
<path d="M200.433 8.06581C200.662 8.61796 200.87 8.81367 201.231 8.81367C201.731 8.81367 201.994 8.3314 201.994 7.84914C201.994 6.6959 201.078 5.72438 198.934 4.5921L198.899 4.57812L198.441 4.98351L198.483 5.02544C199.385 5.91309 199.968 6.8217 200.433 8.06581Z" fill="#263035"/>
<path d="M199.878 12.776C200.301 13.6426 200.53 13.8034 200.828 13.8034C201.175 13.8034 201.592 13.6426 201.592 12.8808C201.592 11.7136 200.53 10.7281 198.136 9.69367L198.101 9.67969L197.691 10.141L197.733 10.1759C198.663 10.9028 199.364 11.7555 199.871 12.783L199.878 12.776Z" fill="#263035"/>
<path d="M196.636 14.0061C196.636 13.2653 195.693 12.0911 193.583 11.1335V9.20447H197.518V8.61038L196.276 7.27541L196.262 7.26143H195.915L195.075 8.36575H193.583V4.99689C194.27 4.86409 194.894 4.71731 195.443 4.55656C195.915 4.70333 196.248 4.77323 196.456 4.77323C196.692 4.77323 196.789 4.68936 196.789 4.50763C196.789 4.20709 196.567 3.90655 195.262 2.92804L195.248 2.91406H195.033L195.019 2.92804C194.79 3.17966 194.603 3.30547 194.152 3.52214C192.937 4.03935 190.987 4.48666 188.655 4.77323H188.607L188.683 5.39528H188.725C189.807 5.40926 191.001 5.34635 192.264 5.1856V8.36575H190.363L188.523 8.23295L188.808 9.34426L190.356 9.21146H191.945C191.098 12.5314 189.911 15.2363 188.114 17.9691L188.086 18.0041L188.544 18.4164L188.579 18.3745C190.272 16.5013 191.501 14.5094 192.334 12.3007L192.084 22.7288L193.347 22.6869H193.368L193.611 22.4423L193.569 17.2003V11.9862C194.249 12.6292 194.825 13.433 195.123 14.1599C195.318 14.6701 195.547 14.8658 195.922 14.8658C196.241 14.8658 196.623 14.6422 196.623 14.0131L196.636 14.0061Z" fill="#263035"/>
<path d="M207.227 12.797L207.206 12.783L206.852 12.8599L206.075 14.3137L204.874 14.6142V4.14421C205.513 3.96948 205.797 3.83668 205.797 3.54313C205.797 3.20065 205.36 3.04689 203.32 2.69043H203.292L203.146 2.85817V2.88613C203.334 3.39635 203.389 3.80173 203.389 4.53562V14.9637L197.407 16.4245L195.595 16.718L196.123 17.7525L197.629 17.2632L203.396 15.8304V18.2976L203.285 22.8267V22.8826L204.736 22.8337L204.979 22.5891L204.868 18.081V15.4809L208.574 14.5583L208.615 14.5444L208.539 13.9572L207.213 12.797H207.227Z" fill="#263035"/>
<path d="M217.499 10.6865C216.409 10.6865 215.486 11.6021 215.486 12.6925C215.486 13.7828 216.409 14.7194 217.499 14.7194C218.588 14.7194 219.49 13.7898 219.49 12.6925C219.49 11.5951 218.581 10.6865 217.499 10.6865Z" fill="#263035"/>
<path d="M236.161 3.4873H236.133L235.987 3.66204L236.001 3.69C236.258 4.22818 236.341 4.6685 236.341 5.48626V19.7864C236.341 20.2128 236.154 20.4085 235.724 20.4085C235.293 20.4085 234.766 20.3596 233.343 20.1289H233.295L233.17 20.716L233.211 20.73C234.613 21.2332 234.856 21.5408 234.919 22.2886V22.3376H234.974C237.014 22.2747 237.931 21.6386 237.931 20.2687L237.847 15.8235V5.05292C238.604 4.84324 238.84 4.72442 238.84 4.40291C238.84 3.98355 238.333 3.85075 236.168 3.4873H236.161Z" fill="#263035"/>
<path d="M240.401 8.54749L240.36 8.51953L239.978 9.00879L240.013 9.04373C242.192 11.2384 243.511 13.3492 244.281 15.8933C244.572 16.8368 244.822 17.1444 245.322 17.1444C245.884 17.1444 246.189 16.6621 246.189 15.7884C246.189 14.132 244.399 11.2524 240.401 8.54749Z" fill="#263035"/>
<path d="M234.092 9.71469C234.092 9.35125 233.627 9.08565 231.733 8.38672H231.712L231.511 8.49156V8.51952C231.511 9.01576 231.434 9.45609 231.233 10.1061C230.4 12.7341 229.019 15.0196 227.006 17.0884L226.965 17.1304L227.423 17.5428L227.458 17.5148C230.102 15.5648 231.545 13.6427 232.968 10.176C233.523 10.176 234.085 10.1131 234.085 9.71469H234.092Z" fill="#263035"/>
<path d="M253.053 4.94773V9.36499L252.942 13.95L254.33 13.9081L254.559 13.6774L254.573 13.6634L254.462 9.15531V4.51439C255.128 4.33965 255.343 4.19987 255.343 3.95524C255.343 3.61276 254.837 3.46598 252.977 3.10254H252.949L252.803 3.27727V3.30523C252.991 3.82244 253.046 4.20685 253.046 4.95471L253.053 4.94773Z" fill="#263035"/>
<path d="M269.217 20.5274C268.995 20.4435 268.905 20.3526 268.905 20.2059C268.905 19.9752 268.905 19.4929 268.925 18.0811V18.0392L268.315 17.9343V17.9832C268.079 19.3601 267.857 20.0661 267.565 20.3596C267.274 20.6532 266.843 20.758 264.997 20.758C262.54 20.758 262.443 20.6042 262.443 19.9682V15.2225C263.089 15.0477 263.325 14.887 263.325 14.6423C263.325 14.2999 262.908 14.1671 260.847 13.8525H260.819L260.674 14.0273L260.687 14.0552C260.903 14.6144 260.965 14.9778 260.965 15.6628V17.6128L260.944 20.2128C260.944 21.9322 261.416 22.1699 264.824 22.1699C267.558 22.1699 268.454 22.0021 269.016 21.8204C269.432 21.6806 269.675 21.415 269.675 21.1005C269.675 20.786 269.453 20.6322 269.21 20.5343L269.217 20.5274Z" fill="#263035"/>
<path d="M256.343 13.7822H256.315L256.169 13.95V13.9779C256.308 14.4882 256.308 14.8376 256.301 15.236V15.3968C256.28 18.8076 254.302 21.0791 250.423 22.1485L250.36 22.1694L250.673 22.7146H250.707C253.018 22.3372 254.719 21.6033 255.906 20.457C257.196 19.206 257.849 17.5006 257.897 15.243C258.349 15.1242 258.758 14.9704 258.758 14.6349C258.758 14.3623 258.397 14.1666 256.35 13.7822H256.343Z" fill="#263035"/>
<path d="M265.664 13.929L266.948 13.887H266.969L267.211 13.6354L267.1 9.04342V5.22025C267.711 5.00358 267.919 4.84283 267.919 4.5982C267.919 4.30465 267.649 4.06701 266.476 3.19334L266.462 3.17937H266.122L265.435 4.02508H259.751C259.14 3.66862 258.613 3.37507 257.932 3.07453L257.898 3.06055L257.717 3.24227L257.731 3.27023C257.967 3.92723 258.05 4.4654 258.05 5.41595V9.00848L257.939 13.5306L259.202 13.4886H259.223L259.466 13.244V12.622H265.664V13.922V13.929ZM265.664 8.70793V11.7902H259.466V8.70793H265.664ZM259.459 7.86222V4.87079H265.657V7.86222H259.459Z" fill="#263035"/>
<path d="M291.516 13.4261L291.377 13.3073H291.03L290.343 14.1111H282.14C281.577 13.7965 281.057 13.51 280.384 13.2025L280.349 13.1885L280.176 13.3702V13.3982C280.391 14.0062 280.46 14.5374 280.46 15.5019V18.9477L280.356 22.7848V22.8408L281.571 22.7988H281.591L281.834 22.5542V14.9568H290.551V20.5203C290.551 20.8837 290.405 21.0305 290.044 21.0305C289.684 21.0305 289.184 20.9816 288.053 20.8348H288.004L287.879 21.4219L287.921 21.4359C289.149 21.8483 289.35 22.1139 289.413 22.8198V22.8687H289.468C291.224 22.8058 291.974 22.2187 291.974 20.9117L291.911 17.5778V15.2713C292.446 15.0826 292.64 14.9218 292.64 14.6912C292.64 14.4186 292.425 14.2299 291.516 13.4401V13.4261Z" fill="#263035"/>
<path d="M288.004 7.47128H293.091V6.87718L291.745 5.47233L291.731 5.45835H291.384L290.482 6.62557H285.749L286.082 5.9476C286.679 5.92663 287.005 5.85674 287.005 5.57018C287.005 5.38146 286.838 5.16479 285.714 4.87124C286.803 4.73844 287.879 4.52876 288.997 4.23521C289.538 4.38199 289.913 4.45188 290.183 4.45188C290.51 4.45188 290.669 4.33306 290.669 4.09543C290.669 3.82983 290.336 3.53628 288.879 2.55777H288.865L288.677 2.55078L288.663 2.56476C288.303 2.84433 287.858 3.08197 287.366 3.24972C285.52 3.90671 283.243 4.33306 280.599 4.52876H280.543L280.592 5.15082H280.641C282.195 5.17178 283.59 5.12286 284.895 4.98307C284.819 5.27662 284.735 5.52125 284.61 5.83577C284.541 6.01749 284.465 6.19223 284.388 6.36696C284.354 6.45083 284.312 6.54169 284.277 6.62557H282.403L280.571 6.49277L280.821 7.56214L280.835 7.60407L282.403 7.47128H283.847C283.07 8.89011 281.994 10.1831 280.543 11.4342L280.502 11.4692L280.911 11.9095L280.946 11.8885C281.793 11.3224 282.487 10.7842 283.104 10.1901V11.3434L282.993 13.4472V13.5031L284.083 13.4611H284.104L284.347 13.2165V12.6853H288.053V13.3843L289.163 13.3353H289.184L289.427 13.0907L289.316 11.2455V10.3719C290.003 11.0009 290.843 11.5181 291.87 11.9445L291.918 11.9654L291.939 11.9165C292.203 11.2735 292.571 11.0149 293.251 10.9939H293.293L293.424 10.4417H293.369C290.919 10.0643 289.309 9.17668 288.004 7.48526V7.47128ZM288.06 10.0713V11.8326H284.354V10.0713H288.06ZM284.402 9.23259C284.333 9.19066 284.27 9.1627 284.194 9.12775C284.173 9.11377 284.145 9.10678 284.125 9.09281C284.569 8.5686 284.957 7.9815 285.277 7.47128H287.199C287.484 8.03042 287.796 8.55463 288.136 9.02291L287.962 9.23259H284.409H284.402Z" fill="#263035"/>
<path d="M277.261 15.0615C277.441 14.2297 277.552 13.384 277.594 12.4754H280.849V11.8813L279.627 10.6093L279.613 10.5953H279.266L278.489 11.6367H277.642V7.66674H280.46V7.07265L279.197 5.75865L279.183 5.74467H278.836L278.017 6.82802H275.623C275.942 5.99629 276.199 5.21348 276.407 4.43767C277.136 4.31186 277.365 4.221 277.365 3.91347C277.365 3.55002 276.928 3.34733 275.179 2.73926H275.158L274.956 2.82313V2.85808C274.998 3.42421 274.922 3.9554 274.811 4.64735C274.422 6.89792 273.714 8.8759 272.708 10.5254L272.68 10.5673L273.187 10.9238L273.215 10.8888C274.04 9.91032 274.707 8.86192 275.255 7.68072H276.206V11.6507H274.818L272.985 11.5179L273.235 12.5872L273.249 12.6292L274.818 12.4964H276.185C276.011 16.2357 274.984 18.668 272.763 20.618L272.729 20.646L273.083 21.1632L273.124 21.1352C275.165 19.7443 276.414 18.0599 277.059 15.8443C277.705 16.5432 278.121 17.2701 278.406 18.1857C278.628 18.9475 278.808 19.283 279.252 19.283C279.676 19.283 279.995 18.8707 279.995 18.3185C279.995 17.2631 279.003 16.0889 277.268 15.0824L277.261 15.0615Z" fill="#263035"/>
<path d="M288.545 20.4504H288.566L288.795 20.2197L288.809 20.2057L288.698 18.3675V17.2702C289.121 17.0116 289.26 16.9207 289.26 16.7181C289.26 16.5014 289.177 16.4315 288.538 15.8723L288.233 15.6068H287.886L287.324 16.2568H284.777C284.298 15.9772 283.937 15.7955 283.424 15.6068L283.396 15.5928L283.222 15.7675V15.7955C283.375 16.3127 283.424 16.774 283.424 17.6267V18.8358L283.313 20.8278V20.8837L284.354 20.8348H284.374L284.617 20.5902V19.9052H287.463V20.4923L288.532 20.4434L288.545 20.4504ZM287.477 17.0955V19.0735H284.631V17.0955H287.477Z" fill="#263035"/>
<path d="M314.335 19.0251H313.988L312.85 20.4579H307.354V12.9793H313.683V12.3852L312.121 10.7847L312.108 10.7707H311.761L310.685 12.1336H307.36V5.62654H315.196V5.03245L313.634 3.38996L313.621 3.37598H313.274L312.177 4.78782H299.164L297.325 4.65503L297.609 5.76633L299.157 5.63353H305.799V20.4579H301.725V11.1411C302.447 10.9315 302.669 10.8126 302.669 10.4981C302.669 10.1347 302.266 10.0019 300.004 9.62445H299.976L299.83 9.79918L299.844 9.82714C300.101 10.3653 300.184 10.8056 300.184 11.6234V20.4579H298.304L296.464 20.3251L296.749 21.4364L298.297 21.3036H315.952V20.7095L314.363 19.0461L314.349 19.0321L314.335 19.0251Z" fill="#263035"/>
<path d="M335.343 9.77066H335.315L335.17 9.93841V9.96636C335.357 10.4836 335.413 10.868 335.413 11.6158V20.5762H323.212V11.1755C323.885 10.9728 324.093 10.84 324.093 10.5954C324.093 10.2389 323.614 10.1061 321.726 9.76367H321.699L321.553 9.93142V9.95937C321.74 10.4766 321.796 10.861 321.796 11.6089V18.046L321.692 22.8128V22.8687L322.948 22.8267H322.969L323.212 22.5821V21.4219H335.413V22.7918L336.696 22.7499H336.717L336.96 22.4983L336.849 18.1439V11.1825C337.488 11.0148 337.731 10.854 337.731 10.6024C337.731 10.2599 337.349 10.1271 335.343 9.77066Z" fill="#263035"/>
<path d="M330.575 13.5381L330.971 13.8526L331.006 13.8246C331.831 13.1467 332.567 12.3708 333.129 11.581C333.719 11.581 334.059 11.5181 334.059 11.2246C334.059 10.931 333.768 10.7493 332.331 10.1133H332.31L332.116 10.1902L332.081 10.323C331.984 10.6934 331.894 11.0429 331.658 11.595C331.38 12.266 331.054 12.8531 330.61 13.4891L330.582 13.5311L330.575 13.5381Z" fill="#263035"/>
<path d="M337.876 6.99581H337.529L336.537 8.21195H330.353V6.12913H336.634V5.53504L335.239 4.20007L335.225 4.18609H334.878L333.976 5.29041H330.353V4.08125C331.075 3.87157 331.255 3.74576 331.255 3.48017C331.255 3.11672 330.846 2.98393 328.694 2.64844H328.667L328.521 2.82317L328.535 2.85113C328.792 3.38931 328.875 3.82265 328.875 4.64739V8.21195H325.342V5.1646C326.064 4.95492 326.245 4.8361 326.245 4.56352C326.245 4.19308 325.842 4.06727 323.705 3.73179H323.677L323.531 3.90652L323.545 3.93448C323.802 4.47266 323.885 4.91298 323.885 5.73074V8.21195H321.275L319.436 8.07916L319.721 9.19046L321.269 9.05766H339.285V8.46357L337.89 7.01678L337.876 7.0028V6.99581Z" fill="#263035"/>
<path d="M323.947 14.8243L323.961 14.8662L325.53 14.7334H327.681C326.71 16.7813 325.419 18.2211 323.628 19.2485L323.58 19.2765L323.94 19.7727L323.982 19.7588C326.078 18.8432 327.508 17.606 328.722 15.6351L328.576 20.0313V20.0873L329.749 20.0383L329.978 19.8077L329.992 19.7937L329.909 16.4388V16.0125C330.922 16.6066 331.63 17.2356 332.352 18.1652C332.692 18.5985 332.963 18.7942 333.233 18.7942C333.56 18.7942 333.907 18.5985 333.907 18.0464C333.907 17.1797 332.373 16.1383 329.902 15.3205V14.7404H334.934V14.1463L333.691 12.8952L333.678 12.8813H333.331L332.532 13.9017H329.902V10.8543C330.45 10.7355 330.763 10.6097 330.763 10.3162C330.763 9.98766 330.381 9.85487 328.479 9.52637H328.452L328.306 9.7011L328.32 9.72906C328.583 10.2812 328.66 10.6726 328.66 11.4834V13.9017H325.53L323.691 13.7689L323.947 14.8383V14.8243Z" fill="#263035"/>
<path d="M326.356 12.7485C326.599 13.3146 326.8 13.6291 327.202 13.6291C327.605 13.6291 327.834 13.3076 327.834 12.7974C327.834 12.0356 326.758 11.0291 325.03 10.1694L324.988 10.1484L324.634 10.6377L324.676 10.6656C325.481 11.2947 326.05 11.9936 326.363 12.7485H326.356Z" fill="#263035"/>
<path d="M354.803 8.06581C355.032 8.61796 355.24 8.81367 355.601 8.81367C356.094 8.81367 356.365 8.31742 356.365 7.84914C356.365 6.6959 355.449 5.72438 353.304 4.5921L353.276 4.57812L352.818 4.98351L352.86 5.02544C353.762 5.91309 354.345 6.8217 354.803 8.06581Z" fill="#263035"/>
<path d="M354.241 12.776C354.658 13.6426 354.894 13.8034 355.192 13.8034C355.539 13.8034 355.956 13.6426 355.956 12.8808C355.956 11.7136 354.894 10.7281 352.499 9.69367L352.465 9.67969L352.062 10.141L352.104 10.1759C353.034 10.9028 353.735 11.7555 354.241 12.783V12.776Z" fill="#263035"/>
<path d="M351.007 14.0063C351.007 13.2654 350.063 12.0912 347.954 11.1337V9.20462H351.889V8.61053L350.632 7.2546H350.285L349.446 8.35891H347.954V4.99005C348.634 4.85725 349.265 4.71048 349.814 4.54972C350.285 4.6965 350.619 4.76639 350.827 4.76639C351.056 4.76639 351.16 4.68252 351.16 4.5008C351.16 4.20025 350.938 3.89971 349.633 2.92121L349.619 2.90723H349.404L349.39 2.92121C349.161 3.17282 348.974 3.29863 348.523 3.5153C347.308 4.03251 345.358 4.47983 343.026 4.76639H342.97L343.047 5.38844H343.095C344.178 5.40242 345.372 5.33952 346.635 5.17876V8.35891H344.733L342.894 8.22612L343.179 9.33742L344.726 9.20462H346.316C345.469 12.5246 344.282 15.2294 342.485 17.9623L342.457 17.9972L342.915 18.4096L342.95 18.3677C344.643 16.4945 345.871 14.5095 346.704 12.2939L346.454 22.722L347.718 22.6801H347.738L347.981 22.4354L347.94 17.1934V11.9794C348.62 12.6224 349.196 13.4262 349.494 14.1531C349.696 14.6633 349.918 14.859 350.299 14.859C350.619 14.859 350.993 14.6353 350.993 14.0063H351.007Z" fill="#263035"/>
<path d="M359.245 15.4809L362.993 14.5513L362.924 13.9852V13.9642L361.591 12.804L361.57 12.79L361.223 12.8669L360.446 14.3207L359.245 14.6212V4.14421C359.884 3.96948 360.168 3.83668 360.168 3.54313C360.168 3.20065 359.731 3.04689 357.691 2.69043H357.663L357.517 2.85817V2.88613C357.705 3.39635 357.76 3.80173 357.76 4.53562V14.9637L351.778 16.4245L349.966 16.718L350.473 17.7105L350.494 17.7525L352 17.2632L357.767 15.8304V18.2976L357.656 22.8826L359.106 22.8337L359.349 22.5891L359.238 18.081V15.4809H359.245Z" fill="#263035"/>
<path d="M19.6408 30.7331C17.7739 30.0202 15.4142 27.8255 14.6022 27.2034C12.8741 25.8755 6.13516 19.5222 1.84612 15.7899C1.0827 15.1259 0.0486093 16.0624 0.4442 17.0549C2.04739 21.0458 3.65057 25.2045 5.3648 28.9508C6.76672 32.0051 9.02922 36.5971 10.6879 39.987C10.0772 37.981 8.92512 34.3256 8.44625 32.7041C8.01595 31.2573 6.83612 28.9158 8.10618 27.518C8.21722 27.3992 8.34214 27.2943 8.50871 27.3362C9.10557 27.483 20.7651 37.9181 22.4793 39.4208C23.5273 40.3294 24.8668 39.7563 25.4983 38.4353C27.3305 34.6331 33.6114 20.9899 35.048 15.5312C33.2089 19.3474 24.9084 32.725 19.6338 30.7261L19.6408 30.7331Z" fill="#263035"/>
<path d="M35.3116 9.63192C34.3955 6.02542 32.4453 1.95762 28.7948 0.468891C25.7966 -0.747255 24.4016 0.650614 21.9726 1.85278C20.647 2.50978 19.1757 2.77537 17.7043 2.74742C16.233 2.78236 14.7617 2.51677 13.4361 1.85278C11.007 0.643624 9.61207 -0.747255 6.6139 0.468891C2.9703 1.95063 1.01317 6.01843 0.104 9.63192C0.0623589 9.79966 -0.0348038 10.0163 0.0137776 10.1841C0.0554187 10.3378 0.194223 10.4357 0.284445 10.261C1.44346 8.05932 2.58859 6.298 4.80251 4.98401C6.77353 3.81679 9.27894 3.29258 11.2777 4.69045C12.9225 5.83671 14.727 6.78027 16.7605 6.87113C17.0728 6.88511 17.392 6.87812 17.7043 6.87113C18.0236 6.88511 18.3359 6.88511 18.6482 6.87113C20.6817 6.77328 22.4861 5.83671 24.131 4.69045C26.1297 3.29957 28.6351 3.81679 30.6062 4.98401C32.8201 6.298 33.9652 8.05932 35.1242 10.261C35.2145 10.4287 35.3533 10.3378 35.3949 10.1841C35.4435 10.0093 35.3463 9.79267 35.3047 9.63192H35.3116Z" fill="#263035"/>
</svg>
