<svg width="219" height="40" viewBox="0 0 219 40" fill="none" xmlns="http://www.w3.org/2000/svg">
<g clip-path="url(#clip0_10392_4)">
<path d="M57.8777 37.6054L56.6467 34.6699H55.9224V39.3961H56.6509V36.4606L57.8819 39.3961H58.6063V34.6699H57.8777V37.6054Z" fill="white"/>
<path d="M65.829 34.6699H65.1046L64.1123 39.3835V39.3961H64.8409L65.0125 38.5909H65.9295L66.097 39.3877V39.3961H66.8297L65.8374 34.6783V34.6699H65.829ZM65.8625 38.2764H65.0795L65.4647 36.427L65.8625 38.2764Z" fill="white"/>
<path d="M74.5882 34.7959C74.3328 34.7036 74.1193 34.6533 73.6629 34.6533C73.4284 34.6533 73.2442 34.6659 73.0683 34.6953C72.8883 34.7204 72.7585 34.7582 72.6413 34.7959C72.524 34.8378 72.4486 34.8882 72.3817 34.9636C72.3188 35.0182 72.3188 35.0853 72.3188 35.1524C72.3188 35.1649 72.3188 35.1775 72.3188 35.1859V38.8889C72.3188 38.8889 72.3188 38.914 72.3188 38.9224C72.3188 38.9895 72.3188 39.0524 72.3775 39.1111C72.4445 39.1824 72.524 39.2327 72.6371 39.2747C72.7794 39.3292 72.9092 39.3585 73.0641 39.3795C73.2567 39.4047 73.441 39.4131 73.6587 39.4131C74.1151 39.4131 74.3286 39.3669 74.584 39.2705C74.8604 39.1698 75.0028 39.0398 75.0028 38.8847V35.1817C75.0028 35.0307 74.8604 34.8966 74.584 34.7917L74.5882 34.7959ZM74.2616 38.8805C74.2616 38.9602 74.2156 39.0189 74.1109 39.065C73.9979 39.1153 73.8555 39.1405 73.6461 39.1405C73.4368 39.1405 73.3112 39.1195 73.2107 39.065C73.0893 39.0105 73.0767 38.9434 73.0767 38.8805V35.1859C73.0767 35.1272 73.0935 35.0559 73.2149 35.0056C73.3196 34.9511 73.4535 34.9259 73.6503 34.9259C73.8471 34.9259 73.9937 34.9511 74.1151 35.0056C74.2156 35.0475 74.2658 35.1062 74.2658 35.1859V38.8805H74.2616Z" fill="white"/>
<path d="M82.2004 36.9638L83.3895 34.6867L83.3979 34.6699H82.6651L81.476 36.947H81.2373V34.6699H80.5088V39.3961H81.2373V37.2616H81.476L82.6609 39.3919L82.6651 39.3961H83.3979L82.1292 37.1106L82.2004 36.9638Z" fill="white"/>
<path d="M89.6197 34.6699H88.8911V39.3961H89.6197V34.6699Z" fill="white"/>
<path d="M102.939 34.8169C102.671 34.7163 102.365 34.6743 101.917 34.6743H100.645V39.3963H101.917C102.365 39.3963 102.671 39.3544 102.939 39.2537C103.203 39.1531 103.328 39.0231 103.328 38.8637V35.2111C103.328 35.0475 103.194 34.9134 102.939 34.8211V34.8169ZM102.587 38.8637C102.587 38.9266 102.533 38.9895 102.424 39.0482C102.324 39.0944 102.139 39.1237 101.917 39.1237H101.377V34.9427H101.917C102.081 34.9469 102.298 34.9679 102.424 35.0224C102.499 35.0559 102.587 35.1188 102.587 35.2069V38.8595V38.8637ZM102.583 35.1482C102.583 35.1482 102.583 35.1482 102.583 35.1524C102.583 35.1524 102.583 35.1524 102.583 35.1482Z" fill="white"/>
<path d="M108.83 39.3961H111.116V39.0816H109.559V37.2616H110.58V36.947H109.559V34.9886H111.116V34.6699H108.83V39.3961Z" fill="white"/>
<path d="M118.574 37.6054L117.347 34.6783V34.6699H116.618V39.3961H117.347V36.4606L118.574 39.3877L118.578 39.3961H119.302V34.6699H118.574V37.6054Z" fill="white"/>
<path d="M124.804 34.9888H125.783V39.3963H126.512V34.9888H127.488V34.6743H124.804V34.9888Z" fill="white"/>
<path d="M134.71 34.6699H133.986L132.994 39.3835V39.3961H133.722L133.894 38.5909H134.811L134.978 39.3877V39.3961H135.711L134.715 34.6783V34.6699H134.71ZM134.744 38.2764H133.961L134.346 36.427L134.744 38.2764Z" fill="white"/>
<path d="M141.933 34.6699H141.205V39.3961H143.461V39.0816H141.933V34.6699Z" fill="white"/>
<path d="M156.755 34.7749C156.5 34.6826 156.286 34.6323 155.83 34.6323C155.591 34.6323 155.403 34.6533 155.235 34.6743C155.055 34.6994 154.926 34.7372 154.808 34.7749C154.691 34.8168 154.616 34.8672 154.549 34.9427C154.482 34.9972 154.486 35.0643 154.486 35.1314C154.486 35.1439 154.486 35.1565 154.486 35.1649V38.8679C154.486 38.8679 154.486 38.893 154.486 38.9014C154.486 38.9685 154.486 39.0314 154.545 39.0901C154.612 39.1614 154.691 39.2117 154.804 39.2537C154.946 39.3082 155.076 39.3375 155.231 39.3585C155.424 39.3837 155.608 39.3921 155.826 39.3921C156.282 39.3921 156.496 39.3459 156.751 39.2495C157.027 39.1488 157.17 39.0188 157.17 38.8637V37.5133H156.425V38.8553C156.425 38.935 156.378 38.9937 156.274 39.0398C156.161 39.0901 156.018 39.1153 155.809 39.1153C155.6 39.1153 155.474 39.0943 155.374 39.0398C155.252 38.9853 155.24 38.9182 155.24 38.8553V35.1607C155.24 35.102 155.256 35.0307 155.378 34.9804C155.482 34.9259 155.616 34.9007 155.813 34.9007C156.01 34.9007 156.157 34.9259 156.278 34.9804C156.378 35.0223 156.429 35.081 156.429 35.1607V36.5027H157.174V35.1607C157.174 35.0097 157.032 34.8756 156.755 34.7707V34.7749Z" fill="white"/>
<path d="M163.4 34.6699H162.671V39.3961H164.932V39.0816H163.4V34.6699Z" fill="white"/>
<path d="M171.163 34.6699H170.434V39.3961H171.163V34.6699Z" fill="white"/>
<path d="M178.62 37.6054L177.393 34.6783L177.389 34.6699H176.665V39.3961H177.393V36.4606L178.62 39.3877L178.624 39.3961H179.348V34.6699H178.62V37.6054Z" fill="white"/>
<path d="M185.579 34.6699H184.851V39.3961H185.579V34.6699Z" fill="white"/>
<path d="M193.765 36.5113V35.1693C193.765 35.0183 193.622 34.8841 193.346 34.7793C193.091 34.687 192.877 34.6367 192.421 34.6367C192.182 34.6367 191.994 34.6577 191.826 34.6787C191.646 34.7038 191.516 34.7416 191.399 34.7793C191.282 34.8212 191.207 34.8716 191.14 34.947C191.073 35.0016 191.077 35.0687 191.077 35.1358C191.077 35.1483 191.077 35.1609 191.077 35.1693V38.8723C191.077 38.8723 191.077 38.8974 191.077 38.9058C191.077 38.9729 191.077 39.0358 191.135 39.0945C191.202 39.1658 191.282 39.2161 191.395 39.2581C191.537 39.3126 191.667 39.3419 191.822 39.3629C192.015 39.3881 192.199 39.3965 192.417 39.3965C192.873 39.3965 193.087 39.3503 193.342 39.2539C193.618 39.1532 193.761 39.0232 193.761 38.8681V37.5177H193.015V38.8597C193.015 38.9394 192.969 38.9981 192.865 39.0442C192.752 39.0945 192.609 39.1197 192.4 39.1197C192.19 39.1197 192.065 39.0987 191.964 39.0442C191.843 38.9897 191.83 38.9226 191.83 38.8597V35.1651C191.83 35.1064 191.847 35.0351 191.969 34.9848C192.073 34.9303 192.207 34.9051 192.404 34.9051C192.601 34.9051 192.747 34.9303 192.869 34.9848C192.969 35.0267 193.02 35.0854 193.02 35.1651V36.5071H193.765V36.5113Z" fill="white"/>
<path d="M40.1666 27.2892C39.5553 26.9705 38.9817 26.7399 38.362 26.5637C38.295 26.2408 38.2154 25.9305 38.1401 25.6327C38.0814 25.4021 38.0186 25.1631 37.9642 24.9198C37.8344 24.3369 37.8093 24.1566 37.8093 23.8463C37.8093 23.494 37.9182 23.2298 38.161 22.9992C38.4332 22.7392 38.9482 22.605 39.3208 22.605C39.4883 22.605 39.6516 22.6427 39.8065 22.6804C40.0368 22.7433 40.1582 22.7727 40.3467 22.7727C40.6146 22.7727 40.7528 22.5462 40.7528 22.324C40.7528 21.9843 40.5518 21.7117 40.0745 21.4266C39.3459 20.982 38.3913 20.7975 37.4576 20.9149H37.4325L37.4031 21.2714H37.4325C38.2866 21.3553 38.9356 21.6278 39.2329 21.8417C39.3376 21.9172 39.3501 21.9508 39.3501 21.9717C39.3501 22.0011 39.2873 22.0137 39.2455 22.0179C38.7179 22.0933 38.1861 22.3198 37.7884 22.6343C37.3152 23.0159 37.0221 23.5485 37.0221 24.0224C37.0221 24.3034 37.0347 24.5005 37.1645 25.0582C37.2817 25.5405 37.3738 25.9682 37.4534 26.3666C37.1435 26.3247 36.8798 26.3079 36.6244 26.3079C35.1547 26.3079 34.3843 27.0166 34.3843 27.717C34.3843 28.5725 35.1128 29.1009 36.2852 29.1009C37.5874 29.1009 38.4332 28.4341 38.4457 27.4024C38.9272 27.6247 39.392 27.8973 39.861 28.237C40.3173 28.5725 40.4681 28.6605 40.6063 28.6605C40.824 28.6605 40.9873 28.4718 40.9873 28.2244C40.9873 27.9099 40.69 27.5786 40.154 27.285L40.1666 27.2892ZM37.5623 27.0795V27.2389C37.5623 28.0063 37.0514 28.4299 36.1261 28.4299C35.3808 28.4299 34.937 28.1615 34.937 27.7086C34.937 27.2557 35.5608 26.9328 36.4234 26.9328C36.8128 26.9328 37.1729 26.9789 37.5623 27.0795Z" fill="white"/>
<path d="M35.5523 20.8728C35.9124 20.7596 36.2683 20.6422 36.44 20.5583C36.6158 20.4703 36.7037 20.3486 36.7037 20.1935C36.7037 20.118 36.6661 20.0425 36.5907 19.9712C36.4609 19.8454 36.239 19.7573 36.0631 19.7573C36.0548 19.7573 36.0464 19.7573 36.038 19.7573C35.9333 19.7573 35.7993 19.8035 35.7072 19.8664C35.5774 19.9586 35.4602 20.0215 35.3095 20.0845C35.1629 20.1474 34.9619 20.2103 34.7065 20.2857L34.5809 20.3235C34.6479 20.1348 34.7316 19.9041 34.8321 19.6819C34.8531 19.6399 34.8698 19.598 34.8866 19.5603C34.9284 19.4638 34.9619 19.3841 34.9996 19.3212C35.0457 19.2457 35.0959 19.1241 35.0959 19.0193C35.0959 18.8264 34.987 18.6377 34.7609 18.4364C34.6228 18.3147 34.2208 18.0254 33.5216 18.0254H33.5006L33.3499 18.3441L33.3792 18.3567C33.9654 18.6083 34.0491 18.8054 34.0491 18.9773C34.0491 19.1367 34.0198 19.2835 33.9612 19.5393C33.89 19.7909 33.7937 20.0928 33.643 20.5457C32.8558 20.6925 32.4874 20.7387 32.0687 20.7387C31.7002 20.7387 31.3276 20.5793 30.9591 20.2648L30.9382 20.2438L30.6953 20.5038L30.7037 20.5248C30.9926 21.1161 31.5369 21.4641 32.1608 21.4641C32.5167 21.4641 32.8558 21.4348 33.3583 21.3551C32.8433 22.7306 32.2822 24.039 31.65 25.4774C31.4615 25.8758 31.2606 26.2281 31.068 26.5552C30.9758 26.7145 30.8837 26.9116 30.8837 27.1549C30.8837 27.4275 31.068 27.7336 31.3192 27.7336C31.583 27.7336 31.6918 27.6917 32.0352 26.8571C32.8768 24.8232 33.6095 22.9697 34.2753 21.1916C34.6437 21.1161 35.0164 21.0154 35.343 20.9274C35.4141 20.9064 35.4895 20.8896 35.5607 20.8687L35.5523 20.8728Z" fill="white"/>
<path d="M52.0785 23.1503C51.0359 23.1503 49.7128 23.5696 48.1511 24.3916C48.1511 23.6409 48.1636 22.7686 48.1887 21.7999C48.6996 21.6238 49.2355 21.4225 49.7798 21.196C50.2111 21.0115 50.3451 20.8899 50.3451 20.6718C50.3451 20.4663 50.0645 20.2902 49.7421 20.2902C49.604 20.2902 49.47 20.3447 49.1434 20.5292C48.8377 20.7012 48.5488 20.8396 48.2222 20.978C48.239 20.7431 48.2641 20.4957 48.285 20.2776L48.306 20.0554C48.3311 19.8247 48.3604 19.6779 48.3939 19.5396C48.4358 19.397 48.4609 19.2544 48.4609 19.1412C48.4609 18.9441 48.3102 18.7428 48.0673 18.6044C47.7826 18.4534 47.4644 18.3779 47.1168 18.3779C46.9326 18.3779 46.7693 18.3947 46.627 18.4324H46.606L46.5767 18.7721H46.6018C47.2006 18.9147 47.4225 19.1496 47.4225 19.6444C47.4225 20.2315 47.4099 20.7767 47.3974 21.2589C46.7233 21.477 46.4092 21.5231 46.1413 21.5231C45.7644 21.5231 45.4881 21.4057 45.1908 21.1164L45.1699 21.0954L44.9228 21.326L44.9312 21.347C45.1866 21.9215 45.6263 22.2612 46.1036 22.2612C46.4888 22.2612 46.8531 22.2025 47.3974 22.0515C47.3848 22.9699 47.3848 23.9135 47.3848 24.8277C46.7609 25.1967 44.814 26.4129 44.814 27.2893C44.814 27.4781 44.8977 27.8135 45.4462 27.9561C46.0073 28.0987 46.3632 28.2539 46.5348 28.43C46.6102 28.5055 46.6772 28.5726 46.7275 28.6355C46.8405 28.7613 46.9242 28.8284 47.0624 28.8284C47.3681 28.8284 47.6486 28.6774 47.9166 28.3629C48.1636 28.0735 48.1845 27.6458 48.1845 27.1593C48.1845 26.9413 48.1762 26.6897 48.1636 26.3961V26.2745C48.1469 25.9558 48.1469 25.5448 48.1469 25.0709C49.537 24.2574 50.9313 23.7709 51.8817 23.7709C52.9578 23.7709 53.6277 24.3999 53.6277 25.4148C53.6277 26.7777 52.7149 27.5158 51.8566 27.5158C51.4044 27.5158 50.9689 27.4068 50.4832 27.1677L50.4581 27.1551L50.2488 27.499L50.2697 27.5158C50.8056 28.0023 51.4002 28.2371 52.0827 28.2371C53.3304 28.2371 54.6201 27.1971 54.6201 25.4609C54.6201 24.0309 53.6487 23.1419 52.0827 23.1419L52.0785 23.1503ZM47.389 25.5574V26.8238C47.389 27.6752 47.2257 27.8471 46.9661 27.8471C46.7735 27.8471 46.4804 27.7758 46.1873 27.6542C45.8859 27.5284 45.7016 27.4193 45.7016 27.2558C45.7016 26.9119 46.3464 26.2619 47.3932 25.5616L47.389 25.5574Z" fill="white"/>
<path d="M54.2267 20.5835C53.5567 20.1557 52.7109 20.0006 51.7772 20.1348H51.7521L51.7354 20.4828H51.7647C52.5476 20.5499 53.1673 20.8183 53.4646 21.0238C53.5693 21.0993 53.6195 21.1706 53.6195 21.2335C53.6195 21.2796 53.5986 21.3216 53.4897 21.4012C53.3641 21.4935 53.2427 21.5732 53.1171 21.6613C52.958 21.7703 52.7947 21.8793 52.6188 22.0135L52.5937 22.0345L52.8366 22.3406L52.8575 22.3322C53.2218 22.1771 53.519 22.0554 53.7619 21.9674C53.9754 21.9003 54.0759 21.8919 54.1429 21.8919C54.1932 21.8919 54.2895 21.9213 54.3648 21.9422C54.4151 21.959 54.5365 21.9967 54.6328 21.9967C54.838 21.9967 54.9636 21.85 54.9636 21.6025C54.9636 21.2461 54.6914 20.877 54.2225 20.5877L54.2267 20.5835Z" fill="white"/>
<path d="M67.7341 21.1876C67.5247 21.1876 67.3865 21.2631 67.2484 21.3386L66.8213 21.5524C66.4068 21.7537 65.9295 21.955 65.1758 22.2444C64.912 21.6573 64.7152 21.196 64.5393 20.7557C65.1883 20.5376 65.8122 20.3069 66.457 20.0511C66.6831 19.9547 66.905 19.8456 66.905 19.6318C66.905 19.4011 66.658 19.225 66.3398 19.225C66.1137 19.225 65.9755 19.2921 65.8457 19.3592C65.8038 19.3802 65.762 19.4011 65.7201 19.4221C65.6364 19.464 65.5526 19.5102 65.4563 19.5521C65.0711 19.724 64.6315 19.9211 64.2546 20.0595C64.1416 19.7534 64.0536 19.485 63.9825 19.2711C63.9197 19.0698 63.8945 18.9566 63.8652 18.7176C63.8401 18.4282 63.7354 18.2982 63.4423 18.1724C63.2037 18.0717 62.9148 18.0508 62.718 18.0508C62.4877 18.0508 62.27 18.1221 61.9099 18.315L61.8889 18.3276L61.9811 18.6505H62.0062C62.1611 18.6337 62.249 18.6337 62.3035 18.6337C62.6803 18.6337 62.8017 18.7847 63.0027 19.1495C63.1744 19.464 63.3209 19.8037 63.4633 20.1308C63.4884 20.1853 63.5093 20.244 63.5345 20.2986C63.2497 20.395 62.9985 20.4705 62.7892 20.5208C62.2951 20.6424 61.8889 20.7011 61.5749 20.7011C61.2609 20.7011 60.8757 20.7011 60.2853 20.5711L60.256 20.5628L60.1639 20.8899L60.189 20.9024C60.8464 21.2337 61.3195 21.3595 61.8764 21.3595C62.1988 21.3595 62.5128 21.3008 62.9483 21.2044C63.1869 21.154 63.4591 21.0786 63.8192 20.9779C63.9364 21.2589 64.062 21.5315 64.1793 21.7999C64.2797 22.0221 64.3844 22.2528 64.4807 22.4834C63.8066 22.7141 63.2832 22.8567 62.9441 22.9405C62.3537 23.0831 61.8931 23.146 61.4953 23.146C61.2525 23.146 60.8464 23.125 60.1011 22.9279L60.0718 22.9196L59.9629 23.2467L59.9838 23.2592C60.6872 23.666 61.2023 23.8212 61.8178 23.8212C62.1443 23.8212 62.5714 23.7625 63.0864 23.6492C63.6433 23.5109 64.2044 23.3515 64.8031 23.1628L64.9413 23.448C65.1507 23.8799 65.3516 24.2867 65.5275 24.6809C65.5945 24.8402 65.6154 24.9115 65.6154 24.9535C65.6154 24.9912 65.5861 25.0122 65.5442 25.0122C65.494 25.0122 65.36 24.9996 65.2637 24.987C64.6943 24.9283 64.0453 24.8906 63.6014 24.8696H63.5721L63.5093 25.226L63.6684 25.2596C64.1751 25.3644 64.6105 25.4525 65.1339 25.5825C65.4689 25.6706 65.5736 25.746 65.6992 25.9725C65.8248 26.199 65.9378 26.287 66.1011 26.287C66.3188 26.287 66.4486 26.1402 66.5575 25.7712C66.6329 25.5489 66.6371 25.2889 66.6371 25.2135C66.6371 24.9912 66.5617 24.8109 66.2937 24.3789C66.0299 23.9386 65.8499 23.6199 65.5066 22.9321C66.277 22.6763 67.1018 22.387 67.9309 22.0179C68.2323 21.8795 68.337 21.7663 68.337 21.586C68.337 21.3595 68.0607 21.1792 67.7215 21.1792L67.7341 21.1876Z" fill="white"/>
<path d="M65.4648 28.2538C65.2806 28.1531 65.0586 28.107 64.7739 28.107C64.6944 28.107 64.619 28.107 64.5394 28.107C64.305 28.107 64.0872 28.1112 63.8528 28.0944C62.6427 27.977 61.9183 27.7212 61.1814 27.1509C60.7795 26.8405 60.4947 26.4296 60.231 25.7837L60.2184 25.7544L59.896 25.9096V25.9347C60.03 26.7147 60.2645 27.2305 60.7125 27.7044C61.3196 28.3754 62.3664 28.8535 63.7439 29.0925C64.3008 29.189 64.8032 29.2099 65.1256 29.2099C65.5443 29.2099 65.7914 29.038 65.7914 28.7486C65.7914 28.5725 65.6574 28.3712 65.4648 28.2538Z" fill="white"/>
<path d="M80.9483 28.2708H80.9609L81.1074 28.1198L81.0404 27.0169V26.3585C81.2958 26.2034 81.3796 26.1488 81.3796 26.0272C81.3796 25.8972 81.3293 25.8553 80.9441 25.5198L80.7682 25.3688L80.7599 25.3604H80.5505L80.2114 25.7504H78.6747C78.3858 25.5827 78.1681 25.4737 77.8582 25.3604L77.8415 25.3521L77.7368 25.4569V25.4737C77.8289 25.784 77.8582 26.0608 77.8582 26.5724V27.2979L77.7954 28.4931V28.5266L78.4235 28.4973H78.4361L78.5826 28.3505V27.9395H80.2993V28.2918L80.9441 28.2624L80.9483 28.2708ZM80.3077 26.2579V27.4447H78.591V26.2579H80.3077Z" fill="white"/>
<path d="M80.6219 20.4831H83.691V20.1266L82.8787 19.2837L82.8704 19.2753H82.661L82.1167 19.9756H79.2611L79.4621 19.5689C79.8222 19.5563 80.019 19.5143 80.019 19.3424C80.019 19.2292 79.9185 19.0992 79.2402 18.923C79.8976 18.8434 80.5465 18.7176 81.2207 18.5414C81.5473 18.6295 81.7734 18.6714 81.9367 18.6714C82.1334 18.6714 82.2297 18.6001 82.2297 18.4575C82.2297 18.2982 82.0288 18.1221 81.1495 17.535H81.1411L81.0281 17.5308L81.0197 17.5391C80.802 17.7069 80.534 17.8495 80.2367 17.9501C79.1229 18.3443 77.7496 18.6001 76.1543 18.7176H76.1208L76.1501 19.0908H76.1794C77.1173 19.1034 77.9589 19.074 78.7461 18.9901C78.7001 19.1663 78.654 19.313 78.5786 19.5018C78.5368 19.6108 78.4907 19.7156 78.4446 19.8205C78.4237 19.8708 78.3986 19.9253 78.3776 19.9756H77.2471L76.1418 19.896L76.3009 20.5627L77.2471 20.4831H78.1139C77.6449 21.3344 76.9959 22.1102 76.1208 22.8608L76.0957 22.8818L76.3427 23.146L76.3637 23.1334C76.8745 22.7937 77.2932 22.4708 77.6659 22.1144V22.8063L77.5989 24.1021L78.2562 24.077H78.2688L78.4153 23.9302V23.6115H80.6512V24.0308L81.3212 24.0015H81.3337L81.4803 23.8547L81.4133 22.7476V22.2234C81.8278 22.6008 82.3344 22.9112 82.9541 23.167L82.9834 23.1795L82.996 23.1502C83.1593 22.7644 83.377 22.6092 83.7873 22.5966H83.8125L83.892 22.2653H83.8585C82.3805 22.0389 81.4091 21.5063 80.6177 20.4914L80.6219 20.4831ZM80.6554 22.0431V23.0999H78.4195V22.0431H80.6554ZM78.4488 21.5398C78.407 21.5147 78.3693 21.4979 78.3232 21.4769C78.3107 21.4686 78.2939 21.4644 78.2813 21.456C78.5493 21.1415 78.7838 20.7892 78.9764 20.4831H80.132C80.3037 20.8185 80.4921 21.1331 80.6973 21.414L80.5926 21.5398H78.4488Z" fill="white"/>
<path d="M82.7445 24.0562L82.6607 23.9849H82.4514L82.0369 24.4671H77.0878C76.7486 24.2784 76.4346 24.1065 76.0284 23.922L76.0075 23.9136L75.9028 24.0226L75.9112 24.0394C76.0368 24.4042 76.0787 24.7229 76.0787 25.3017V27.3691L76.0159 29.6714V29.7049L76.7486 29.6798H76.7612L76.9077 29.533V24.9746H82.1667V28.3127C82.1667 28.5307 82.0787 28.6188 81.861 28.6188C81.6433 28.6188 81.3418 28.5894 80.6593 28.5014H80.63L80.5547 28.8536L80.5798 28.862C81.3209 29.1095 81.4423 29.2688 81.48 29.6924V29.7217H81.5135C82.5728 29.684 83.025 29.3317 83.025 28.5475L82.9873 26.5472V25.1633C83.3097 25.05 83.427 24.9536 83.427 24.8152C83.427 24.6516 83.2972 24.5384 82.7529 24.0645L82.7445 24.0562Z" fill="white"/>
<path d="M74.1404 25.0374C74.2493 24.5383 74.3163 24.0309 74.3414 23.4857H76.3051V23.1293L75.5682 22.366L75.5598 22.3577H75.3505L74.8815 22.9825H74.3707V20.6005H76.0706V20.2441L75.3086 19.4557L75.3002 19.4473H75.0909L74.5968 20.0973H73.1523C73.3449 19.5983 73.4998 19.1286 73.6254 18.6631C74.065 18.5876 74.2032 18.5331 74.2032 18.3486C74.2032 18.1305 73.9394 18.0089 72.8843 17.644H72.8717L72.7503 17.6944V17.7153C72.7754 18.055 72.7294 18.3737 72.6624 18.7889C72.4279 20.1392 72.0008 21.326 71.3937 22.3157L71.377 22.3409L71.6868 22.5548L71.7035 22.5338C72.2018 21.9467 72.6038 21.3176 72.9345 20.6089H73.5082V22.9909H72.6708L71.5654 22.9112L71.7245 23.578L72.6708 23.4983H73.4956C73.3909 25.7419 72.7754 27.2013 71.4314 28.3713L71.4105 28.3881L71.624 28.6984L71.6491 28.6816C72.8801 27.8471 73.6338 26.8364 74.0232 25.5071C74.4126 25.9264 74.6638 26.3625 74.8355 26.9119C74.9694 27.369 75.0783 27.5703 75.3463 27.5703C75.6017 27.5703 75.7943 27.3229 75.7943 26.9916C75.7943 26.3584 75.1956 25.6538 74.1488 25.0499L74.1404 25.0374Z" fill="white"/>
<path d="M96.3024 27.4149L95.6157 28.2746H92.2996V23.7874H96.1182V23.4309L95.1761 22.4706L95.1677 22.4622H94.9583L94.3093 23.28H92.3037V19.3757H97.0309V19.0193L96.0763 18.0254H95.8669L95.2054 18.8725H87.3546L86.2451 18.7928L86.4167 19.4596L87.3504 19.3799H91.3575V28.2746H88.8997V22.6845C89.3351 22.5587 89.4691 22.4874 89.4691 22.2987C89.4691 22.0806 89.2263 22.0009 87.8571 21.7745H87.8403L87.7524 21.8793L87.7608 21.8961C87.9157 22.219 87.9659 22.4832 87.9659 22.9738V28.2746H86.8313L85.7217 28.1949L85.8934 28.8617L86.8271 28.782H97.4789V28.4255L96.5117 27.4191H96.3024V27.4149Z" fill="white"/>
<path d="M103.764 23.6494C103.91 23.9891 104.036 24.1778 104.275 24.1778C104.513 24.1778 104.656 23.9891 104.656 23.6787C104.656 23.2216 104.007 22.6177 102.964 22.1019L102.939 22.0894L102.721 22.3829L102.746 22.3997C103.236 22.7771 103.575 23.1965 103.764 23.6494Z" fill="white"/>
<path d="M102.315 24.92L103.261 24.8403H104.559C103.973 26.0691 103.194 26.933 102.114 27.5494L102.084 27.5662L102.302 27.8597L102.323 27.8514C103.588 27.302 104.45 26.5597 105.183 25.3771L105.095 28.0149V28.0485L105.803 28.0191L105.949 27.8723L105.895 25.8594V25.6036C106.502 25.96 106.933 26.3375 107.369 26.8952C107.574 27.1552 107.737 27.2726 107.9 27.2726C108.097 27.2726 108.306 27.1552 108.306 26.8239C108.306 26.3039 107.381 25.6791 105.891 25.1884V24.8403H108.93V24.4839L108.172 23.7248H107.963L107.482 24.3371H105.891V22.5087C106.221 22.4374 106.41 22.3619 106.41 22.1858C106.41 21.9887 106.179 21.909 105.032 21.7119H105.015L104.927 21.8168L104.936 21.8335C105.095 22.1648 105.141 22.3997 105.141 22.8861V24.3371H103.253L102.143 24.2574L102.302 24.9242L102.315 24.92Z" fill="white"/>
<path d="M110.71 20.1978H110.501L109.902 20.9275H106.171V19.6778H109.96V19.3213L109.111 18.5119H108.901L108.357 19.1745H106.171V18.449C106.607 18.3232 106.716 18.2478 106.716 18.0884C106.716 17.8703 106.468 17.7906 105.17 17.5894H105.154L105.066 17.6942L105.074 17.711C105.229 18.0339 105.279 18.2939 105.279 18.7887V20.9275H103.148V19.0991C103.584 18.9732 103.692 18.902 103.692 18.7384C103.692 18.5161 103.45 18.4407 102.16 18.2394H102.143L102.055 18.3442L102.064 18.361C102.219 18.6839 102.269 18.9481 102.269 19.4387V20.9275H100.695L99.585 20.8478L99.7566 21.5146L100.69 21.4349H111.564V21.0784L110.723 20.2104L110.714 20.202L110.71 20.1978Z" fill="white"/>
<path d="M109.186 21.8626H109.169L109.081 21.9632V21.98C109.194 22.2903 109.228 22.521 109.228 22.9697V28.3459H101.867V22.7055C102.227 22.6007 102.399 22.5168 102.399 22.3574C102.399 22.1436 102.11 22.0639 100.971 21.8584H100.954L100.866 21.959V21.9758C100.979 22.2861 101.013 22.5252 101.013 22.9655V26.8278L100.946 29.6879V29.7214L101.704 29.6962H101.716L101.863 29.5495V28.8533H109.224V29.6753L109.998 29.6501H110.011L110.157 29.4991L110.094 26.8865V22.7097C110.484 22.6091 110.626 22.5126 110.626 22.3616C110.626 22.1561 110.396 22.0765 109.186 21.8626Z" fill="white"/>
<path d="M106.305 24.1232L106.544 24.3119L106.565 24.2952C107.067 23.8884 107.507 23.4229 107.846 22.949C108.202 22.949 108.407 22.9113 108.407 22.7351C108.407 22.559 108.231 22.45 107.365 22.0684H107.352L107.235 22.1145L107.214 22.1942C107.155 22.4164 107.101 22.6261 106.958 22.9574C106.791 23.36 106.594 23.7123 106.326 24.0939L106.309 24.119L106.305 24.1232Z" fill="white"/>
<path d="M120.922 20.8397C121.061 21.171 121.186 21.2884 121.404 21.2884C121.705 21.2884 121.864 20.999 121.864 20.7097C121.864 20.0177 121.312 19.4348 120.018 18.7555L119.997 18.7471L119.721 18.9903L119.746 19.0155C120.29 19.548 120.642 20.0932 120.922 20.8397Z" fill="white"/>
<path d="M120.587 23.6659C120.843 24.1859 120.981 24.2823 121.161 24.2823C121.37 24.2823 121.622 24.1859 121.622 23.7288C121.622 23.0284 120.981 22.4371 119.537 21.8165L119.516 21.8081L119.269 22.0849L119.294 22.1059C119.855 22.542 120.278 23.0536 120.583 23.6701L120.587 23.6659Z" fill="white"/>
<path d="M118.632 24.4043C118.632 23.9598 118.063 23.2552 116.79 22.6807V21.5233H119.164V21.1668L118.414 20.3658L118.406 20.3574H118.197L117.69 21.02H116.79V18.9987C117.204 18.919 117.581 18.831 117.912 18.7345C118.197 18.8226 118.398 18.8645 118.523 18.8645C118.666 18.8645 118.724 18.8142 118.724 18.7052C118.724 18.5248 118.59 18.3445 117.803 17.7574L117.795 17.749H117.665L117.657 17.7574C117.518 17.9084 117.405 17.9839 117.133 18.1139C116.4 18.4242 115.224 18.6926 113.817 18.8645H113.788L113.834 19.2378H113.859C114.512 19.2461 115.232 19.2084 115.994 19.1119V21.02H114.847L113.737 20.9404L113.909 21.6071L114.843 21.5275H115.802C115.291 23.5194 114.575 25.1423 113.49 26.782L113.474 26.803L113.75 27.0504L113.771 27.0253C114.793 25.9014 115.534 24.7062 116.036 23.381L115.885 29.6379L116.647 29.6127H116.66L116.807 29.466L116.781 26.3208V23.1923C117.192 23.5781 117.539 24.0604 117.719 24.4965C117.837 24.8027 117.975 24.9201 118.201 24.9201C118.393 24.9201 118.624 24.7859 118.624 24.4085L118.632 24.4043Z" fill="white"/>
<path d="M125.021 23.6787L125.009 23.6703L124.795 23.7164L124.326 24.5887L123.602 24.769V18.487C123.987 18.3822 124.159 18.3025 124.159 18.1264C124.159 17.9209 123.895 17.8286 122.664 17.6147H122.647L122.559 17.7154V17.7322C122.672 18.0383 122.706 18.2815 122.706 18.7219V24.9787L119.097 25.8552L118.004 26.0313L118.322 26.652L119.231 26.3584L122.71 25.4987V26.9791L122.643 29.6965V29.7301L123.518 29.7007L123.665 29.5539L123.598 26.8491V25.289L125.834 24.7355L125.859 24.7271L125.813 24.3748L125.013 23.6787H125.021Z" fill="white"/>
<path d="M131.218 22.4121C130.561 22.4121 130.004 22.9615 130.004 23.6157C130.004 24.2699 130.561 24.8318 131.218 24.8318C131.876 24.8318 132.42 24.2741 132.42 23.6157C132.42 22.9573 131.871 22.4121 131.218 22.4121Z" fill="white"/>
<path d="M142.477 18.0928H142.461L142.373 18.1976L142.381 18.2144C142.536 18.5373 142.586 18.8015 142.586 19.2921V27.8723C142.586 28.1281 142.473 28.2455 142.214 28.2455C141.954 28.2455 141.636 28.2161 140.778 28.0777H140.748L140.673 28.43L140.698 28.4384C141.544 28.7403 141.69 28.9249 141.728 29.3736V29.4029H141.761C142.992 29.3652 143.545 28.9836 143.545 28.1616L143.495 25.4945V19.0321C143.951 18.9063 144.094 18.835 144.094 18.6421C144.094 18.3905 143.788 18.3108 142.482 18.0928H142.477Z" fill="white"/>
<path d="M145.036 21.1291L145.011 21.1123L144.78 21.4059L144.801 21.4268C146.116 22.7436 146.911 24.0101 147.376 25.5366C147.552 26.1027 147.703 26.2872 148.004 26.2872C148.343 26.2872 148.528 25.9979 148.528 25.4737C148.528 24.4798 147.447 22.752 145.036 21.1291Z" fill="white"/>
<path d="M141.229 21.829C141.229 21.6109 140.949 21.4516 139.806 21.0322H139.793L139.672 21.0951V21.1119C139.672 21.4097 139.626 21.6738 139.504 22.0639C139.002 23.6406 138.169 25.012 136.954 26.2533L136.929 26.2784L137.206 26.5258L137.226 26.5091C138.822 25.3391 139.693 24.1858 140.551 22.1058C140.886 22.1058 141.225 22.068 141.225 21.829H141.229Z" fill="white"/>
<path d="M152.669 18.9689V21.6193L152.602 24.3703L153.439 24.3451L153.577 24.2067L153.586 24.1984L153.519 21.4935V18.7089C153.921 18.6041 154.051 18.5202 154.051 18.3734C154.051 18.1679 153.745 18.0799 152.623 17.8618H152.606L152.518 17.9667V17.9834C152.631 18.2938 152.665 18.5244 152.665 18.9731L152.669 18.9689Z" fill="white"/>
<path d="M162.42 28.3169C162.286 28.2666 162.232 28.2121 162.232 28.124C162.232 27.9856 162.232 27.6963 162.245 26.8491V26.824L161.876 26.7611V26.7904C161.734 27.6166 161.6 28.0401 161.424 28.2163C161.248 28.3924 160.988 28.4553 159.875 28.4553C158.392 28.4553 158.334 28.363 158.334 27.9814V25.134C158.723 25.0291 158.866 24.9327 158.866 24.7859C158.866 24.5804 158.614 24.5007 157.371 24.312H157.354L157.266 24.4169L157.274 24.4336C157.404 24.7691 157.442 24.9872 157.442 25.3982V26.5682L157.429 28.1282C157.429 29.1598 157.714 29.3024 159.77 29.3024C161.42 29.3024 161.96 29.2018 162.299 29.0927C162.55 29.0088 162.697 28.8495 162.697 28.6608C162.697 28.4721 162.563 28.3798 162.416 28.3211L162.42 28.3169Z" fill="white"/>
<path d="M154.653 24.27H154.636L154.549 24.3707V24.3874C154.632 24.6936 154.632 24.9033 154.628 25.1423V25.2387C154.616 27.2852 153.422 28.6481 151.082 29.2898L151.044 29.3023L151.232 29.6294H151.253C152.648 29.403 153.673 28.9627 154.389 28.2749C155.168 27.5243 155.562 26.501 155.591 25.1465C155.863 25.0752 156.11 24.9829 156.11 24.7816C156.11 24.6181 155.893 24.5007 154.657 24.27H154.653Z" fill="white"/>
<path d="M160.277 24.358L161.051 24.3328H161.064L161.21 24.1818L161.143 21.4266V19.1327C161.512 19.0027 161.637 18.9063 161.637 18.7595C161.637 18.5834 161.474 18.4408 160.766 17.9166L160.758 17.9082H160.553L160.138 18.4156H156.709C156.341 18.2018 156.023 18.0256 155.612 17.8453L155.591 17.8369L155.482 17.9459L155.491 17.9627C155.633 18.3569 155.683 18.6798 155.683 19.2502V21.4057L155.616 24.1189L156.378 24.0938H156.391L156.538 23.947V23.5738H160.277V24.3538V24.358ZM160.277 21.2253V23.0747H156.538V21.2253H160.277ZM156.533 20.7179V18.9231H160.272V20.7179H156.533Z" fill="white"/>
<path d="M175.873 24.0562L175.79 23.9849H175.58L175.166 24.4671H170.217C169.878 24.2784 169.563 24.1065 169.157 23.922L169.136 23.9136L169.032 24.0226V24.0394C169.162 24.4042 169.203 24.7229 169.203 25.3017V27.3691L169.141 29.6714V29.7049L169.873 29.6798H169.886L170.032 29.533V24.9746H175.291V28.3127C175.291 28.5307 175.203 28.6188 174.986 28.6188C174.768 28.6188 174.467 28.5894 173.784 28.5014H173.755L173.679 28.8536L173.704 28.862C174.446 29.1095 174.567 29.2688 174.605 29.6924V29.7217H174.638C175.698 29.684 176.15 29.3317 176.15 28.5475L176.112 26.5472V25.1633C176.434 25.05 176.552 24.9536 176.552 24.8152C176.552 24.6516 176.422 24.5384 175.873 24.0645V24.0562Z" fill="white"/>
<path d="M173.755 20.4831H176.824V20.1266L176.012 19.2837L176.003 19.2753H175.794L175.249 19.9756H172.394L172.595 19.5689C172.955 19.5563 173.152 19.5143 173.152 19.3424C173.152 19.2292 173.051 19.0992 172.373 18.923C173.03 18.8434 173.679 18.7176 174.353 18.5414C174.68 18.6295 174.906 18.6714 175.069 18.6714C175.266 18.6714 175.363 18.6001 175.363 18.4575C175.363 18.2982 175.162 18.1221 174.282 17.535H174.274L174.161 17.5308L174.152 17.5391C173.935 17.7069 173.667 17.8495 173.37 17.9501C172.256 18.3443 170.882 18.6001 169.287 18.7176H169.254L169.283 19.0908H169.312C170.25 19.1034 171.092 19.074 171.879 18.9901C171.833 19.1663 171.783 19.313 171.707 19.5018C171.665 19.6108 171.619 19.7156 171.573 19.8205C171.552 19.8708 171.527 19.9253 171.506 19.9756H170.376L169.27 19.896L169.421 20.5376L169.429 20.5627L170.376 20.4831H171.247C170.778 21.3344 170.129 22.1102 169.254 22.8608L169.229 22.8818L169.476 23.146L169.496 23.1334C170.007 22.7937 170.426 22.4708 170.799 22.1144V22.8063L170.732 24.0686V24.1021L171.389 24.077H171.402L171.548 23.9302V23.6115H173.784V24.0308L174.454 24.0015H174.467L174.613 23.8547L174.546 22.7476V22.2234C174.961 22.6008 175.467 22.9112 176.087 23.167L176.116 23.1795L176.129 23.1502C176.288 22.7644 176.51 22.6092 176.92 22.5966H176.945L177.025 22.2653H176.991C175.513 22.0389 174.542 21.5063 173.755 20.4914V20.4831ZM173.788 22.0431V23.0999H171.552V22.0431H173.788ZM171.582 21.5398C171.54 21.5147 171.502 21.4979 171.456 21.4769C171.443 21.4686 171.427 21.4644 171.414 21.456C171.682 21.1415 171.917 20.7892 172.109 20.4831H173.269C173.441 20.8185 173.629 21.1331 173.834 21.414L173.73 21.5398H171.586H171.582Z" fill="white"/>
<path d="M167.273 25.0374C167.382 24.5383 167.449 24.0309 167.474 23.4857H169.438V23.1293L168.701 22.366L168.693 22.3577H168.483L168.014 22.9825H167.504V20.6005H169.203V20.2441L168.441 19.4557L168.433 19.4473H168.224L167.73 20.0973H166.285C166.478 19.5983 166.633 19.1286 166.758 18.6631C167.198 18.5876 167.336 18.5331 167.336 18.3486C167.336 18.1305 167.072 18.0089 166.017 17.644H166.005L165.883 17.6944V17.7153C165.908 18.055 165.862 18.3737 165.795 18.7889C165.561 20.1392 165.134 21.326 164.527 22.3157L164.51 22.3409L164.815 22.5548L164.832 22.5338C165.33 21.9467 165.732 21.3176 166.063 20.6089H166.637V22.9909H165.799L164.694 22.9112L164.845 23.5528L164.853 23.578L165.799 23.4983H166.624C166.52 25.7419 165.9 27.2013 164.56 28.3713L164.539 28.3881L164.753 28.6984L164.778 28.6816C166.009 27.8471 166.762 26.8364 167.152 25.5071C167.541 25.9264 167.792 26.3625 167.964 26.9119C168.098 27.369 168.207 27.5703 168.475 27.5703C168.73 27.5703 168.923 27.3229 168.923 26.9916C168.923 26.3584 168.324 25.6538 167.277 25.0499L167.273 25.0374Z" fill="white"/>
<path d="M174.081 28.2705H174.094L174.232 28.1321L174.24 28.1237L174.173 27.0208V26.3624C174.429 26.2073 174.512 26.1527 174.512 26.0311C174.512 25.9011 174.462 25.8592 174.077 25.5237L173.893 25.3643H173.683L173.344 25.7543H171.808C171.519 25.5866 171.301 25.4776 170.991 25.3643L170.974 25.356L170.87 25.4608V25.4776C170.962 25.7879 170.991 26.0647 170.991 26.5763V27.3018L170.924 28.497V28.5305L171.552 28.5012H171.565L171.711 28.3544V27.9434H173.428V28.2957L174.073 28.2663L174.081 28.2705ZM173.436 26.2576V27.4444H171.72V26.2576H173.436Z" fill="white"/>
<path d="M189.64 27.4149H189.431L188.744 28.2746H185.428V23.7874H189.246V23.4309L188.304 22.4706L188.296 22.4622H188.087L187.438 23.28H185.432V19.3757H190.159V19.0193L189.217 18.0338L189.209 18.0254H188.999L188.338 18.8725H180.487L179.378 18.7928L179.549 19.4596L180.483 19.3799H184.49V28.2746H182.032V22.6845C182.468 22.5587 182.602 22.4874 182.602 22.2987C182.602 22.0806 182.359 22.0009 180.994 21.7745H180.977L180.889 21.8793L180.897 21.8961C181.052 22.219 181.103 22.4832 181.103 22.9738V28.2746H179.968L178.858 28.1949L179.03 28.8617L179.964 28.782H190.616V28.4255L189.657 27.4275L189.648 27.4191L189.64 27.4149Z" fill="white"/>
<path d="M202.315 21.8626H202.298L202.21 21.9632V21.98C202.323 22.2903 202.357 22.521 202.357 22.9697V28.3459H194.996V22.7055C195.402 22.5839 195.528 22.5042 195.528 22.3574C195.528 22.1436 195.239 22.0639 194.1 21.8584H194.083L193.995 21.959V21.9758C194.108 22.2861 194.142 22.5168 194.142 22.9655V26.8278L194.079 29.6879V29.7214L194.837 29.6962H194.849L194.996 29.5495V28.8533H202.357V29.6753L203.131 29.6501H203.144L203.29 29.4991L203.223 26.8865V22.7097C203.609 22.6091 203.755 22.5126 203.755 22.3616C203.755 22.1561 203.525 22.0765 202.315 21.8626Z" fill="white"/>
<path d="M199.438 24.1232L199.677 24.3119L199.698 24.2952C200.196 23.8884 200.64 23.4229 200.979 22.949C201.335 22.949 201.54 22.9113 201.54 22.7351C201.54 22.559 201.364 22.45 200.497 22.0684H200.485L200.368 22.1145L200.347 22.1942C200.288 22.4164 200.234 22.6261 200.091 22.9574C199.924 23.36 199.727 23.7123 199.459 24.0939L199.442 24.119L199.438 24.1232Z" fill="white"/>
<path d="M203.843 20.1978H203.633L203.035 20.9275H199.304V19.6778H203.093V19.3213L202.252 18.5203L202.243 18.5119H202.034L201.49 19.1745H199.304V18.449C199.739 18.3232 199.848 18.2478 199.848 18.0884C199.848 17.8703 199.601 17.7906 198.303 17.5894H198.287L198.199 17.6942L198.207 17.711C198.362 18.0339 198.412 18.2939 198.412 18.7887V20.9275H196.281V19.0991C196.716 18.9732 196.825 18.902 196.825 18.7384C196.825 18.5161 196.582 18.4407 195.293 18.2394H195.276L195.188 18.3442L195.197 18.361C195.351 18.6839 195.402 18.9481 195.402 19.4387V20.9275H193.827L192.718 20.8478L192.889 21.5146L193.823 21.4349H204.693V21.0784L203.851 20.2104L203.843 20.202V20.1978Z" fill="white"/>
<path d="M195.439 24.8946L195.448 24.9197L196.394 24.8401H197.692C197.106 26.0688 196.327 26.9327 195.247 27.5491L195.217 27.5659L195.435 27.8636L195.46 27.8553C196.725 27.3059 197.587 26.5636 198.32 25.381L198.232 28.0188V28.0524L198.94 28.023L199.078 27.8846L199.086 27.8762L199.036 25.8633V25.6075C199.647 25.9639 200.074 26.3414 200.51 26.8991C200.715 27.1591 200.878 27.2765 201.041 27.2765C201.238 27.2765 201.448 27.1591 201.448 26.8278C201.448 26.3078 200.522 25.683 199.032 25.1923V24.8442H202.067V24.4878L201.318 23.7371L201.309 23.7288H201.1L200.619 24.341H199.032V22.5126C199.362 22.4413 199.551 22.3658 199.551 22.1897C199.551 21.9926 199.321 21.9129 198.173 21.7158H198.157L198.069 21.8207L198.077 21.8374C198.236 22.1687 198.282 22.4036 198.282 22.89V24.341H196.394L195.284 24.2613L195.439 24.903V24.8946Z" fill="white"/>
<path d="M196.892 23.6494C197.039 23.9891 197.16 24.1778 197.403 24.1778C197.646 24.1778 197.784 23.9849 197.784 23.6787C197.784 23.2216 197.135 22.6177 196.093 22.1019L196.068 22.0894L195.854 22.3829L195.879 22.3997C196.365 22.7771 196.708 23.1965 196.897 23.6494H196.892Z" fill="white"/>
<path d="M214.055 20.8397C214.193 21.171 214.319 21.2884 214.536 21.2884C214.834 21.2884 214.997 20.9906 214.997 20.7097C214.997 20.0177 214.444 19.4348 213.151 18.7555L213.134 18.7471L212.857 18.9903L212.883 19.0155C213.427 19.548 213.779 20.0932 214.055 20.8397Z" fill="white"/>
<path d="M213.716 23.6659C213.967 24.1859 214.11 24.2823 214.29 24.2823C214.499 24.2823 214.75 24.1859 214.75 23.7288C214.75 23.0284 214.11 22.4371 212.665 21.8165L212.644 21.8081L212.401 22.0849L212.426 22.1059C212.988 22.542 213.41 23.0536 213.716 23.6701V23.6659Z" fill="white"/>
<path d="M211.765 24.4041C211.765 23.9596 211.195 23.255 209.923 22.6805V21.5231H212.297V21.1666L211.539 20.3531H211.329L210.823 21.0156H209.923V18.9943C210.333 18.9146 210.714 18.8266 211.045 18.7301C211.329 18.8182 211.53 18.8601 211.656 18.8601C211.794 18.8601 211.857 18.8098 211.857 18.7008C211.857 18.5204 211.723 18.3401 210.936 17.753L210.927 17.7446H210.798L210.789 17.753C210.651 17.904 210.538 17.9795 210.266 18.1095C209.533 18.4198 208.357 18.6882 206.95 18.8601H206.916L206.962 19.2334H206.992C207.645 19.2417 208.365 19.204 209.127 19.1076V21.0156H207.98L206.87 20.936L207.042 21.6027L207.976 21.5231H208.934C208.424 23.515 207.708 25.138 206.623 26.7777L206.606 26.7986L206.883 27.046L206.904 27.0209C207.925 25.897 208.666 24.706 209.169 23.3766L209.018 29.6335L209.78 29.6083H209.793L209.939 29.4616L209.914 26.3164V23.1879C210.325 23.5737 210.672 24.056 210.852 24.4921C210.974 24.7983 211.108 24.9157 211.338 24.9157C211.53 24.9157 211.757 24.7815 211.757 24.4041H211.765Z" fill="white"/>
<path d="M216.735 25.289L218.996 24.7313L218.954 24.3916V24.379L218.15 23.6829L218.137 23.6745L217.928 23.7206L217.459 24.5929L216.735 24.7732V18.487C217.12 18.3822 217.292 18.3025 217.292 18.1264C217.292 17.9209 217.028 17.8286 215.797 17.6147H215.78L215.692 17.7154V17.7322C215.805 18.0383 215.839 18.2815 215.839 18.7219V24.9787L212.23 25.8552L211.137 26.0313L211.442 26.6268L211.455 26.652L212.364 26.3584L215.843 25.4987V26.9791L215.776 29.7301L216.651 29.7007L216.798 29.5539L216.731 26.8491V25.289H216.735Z" fill="white"/>
<path d="M11.8494 34.4395C10.7231 34.0117 9.29947 32.6949 8.80958 32.3217C7.76701 31.5249 3.70137 27.7129 1.11377 25.4735C0.65319 25.0751 0.0293182 25.6371 0.267981 26.2326C1.23519 28.6271 2.2024 31.1223 3.23661 33.3701C4.08239 35.2027 5.44737 37.9579 6.44808 39.9918C6.07962 38.7882 5.38457 36.595 5.09566 35.622C4.83606 34.754 4.12426 33.3491 4.8905 32.5104C4.95749 32.4391 5.03286 32.3762 5.13334 32.4014C5.49343 32.4894 12.5277 38.7505 13.5619 39.6521C14.1941 40.1973 15.0022 39.8534 15.3833 39.0608C16.4887 36.7795 20.2779 28.5936 21.1447 25.3184C20.0351 27.6081 15.0274 35.6346 11.8452 34.4353L11.8494 34.4395Z" fill="white"/>
<path d="M21.3039 21.7788C20.7512 19.6149 19.5746 17.1742 17.3722 16.2809C15.5634 15.5513 14.7218 16.39 13.2564 17.1113C12.4566 17.5055 11.569 17.6648 10.6813 17.6481C9.79367 17.669 8.90601 17.5097 8.10628 17.1113C6.64081 16.3858 5.79921 15.5513 3.9904 16.2809C1.79219 17.17 0.611442 19.6107 0.0629376 21.7788C0.0378152 21.8794 -0.0208036 22.0094 0.00850578 22.1101C0.0336281 22.2023 0.117369 22.261 0.171801 22.1562C0.87104 20.8352 1.56191 19.7784 2.89758 18.99C4.0867 18.2897 5.59823 17.9752 6.8041 18.8139C7.79644 19.5016 8.88507 20.0678 10.1119 20.1223C10.3003 20.1307 10.4929 20.1265 10.6813 20.1223C10.8739 20.1307 11.0623 20.1307 11.2508 20.1223C12.4776 20.0636 13.5662 19.5016 14.5585 18.8139C15.7644 17.9794 17.2759 18.2897 18.4651 18.99C19.8007 19.7784 20.4916 20.8352 21.1908 22.1562C21.2453 22.2568 21.329 22.2023 21.3541 22.1101C21.3835 22.0052 21.3248 21.8752 21.2997 21.7788H21.3039Z" fill="white"/>
</g>
<path d="M189.375 1.03516L190.277 1.26616C190.178 1.40916 190.178 1.40916 190.035 1.71716C189.749 2.31116 189.65 2.49816 189.529 2.69616C189.672 2.66316 189.672 2.66316 192.851 2.60816C193.236 2.60816 193.269 2.59716 193.423 2.53116L193.896 2.99316C193.797 3.12516 193.797 3.13616 193.676 3.53216C193.214 5.08316 192.411 6.57916 191.476 7.66816C190.464 8.82316 189.254 9.69216 187.648 10.4182C187.472 10.0992 187.384 9.98916 187.098 9.76916C188.759 9.08716 189.925 8.25116 190.981 6.98616C191.828 5.96316 192.488 4.67616 192.873 3.30116L189.166 3.36716C188.495 4.44516 187.615 5.41316 186.537 6.22716C186.35 5.95216 186.24 5.85316 185.921 5.65516C187.087 4.89616 187.923 3.98316 188.682 2.64116C189.1 1.91516 189.32 1.42016 189.375 1.03516Z" fill="white"/>
<path d="M175.207 4.192L175.9 3.961C176.34 4.72 176.582 5.237 176.989 6.403L176.241 6.656C175.977 5.688 175.669 4.951 175.207 4.192ZM177.473 3.73L178.144 3.521C178.727 4.566 178.925 5.006 179.211 5.886L178.485 6.139C178.287 5.358 177.946 4.555 177.473 3.73ZM181.29 3.719L182.104 3.895C182.038 4.071 182.038 4.071 181.862 4.786C181.686 5.556 181.29 6.568 180.894 7.25C180.113 8.592 178.958 9.604 177.253 10.429C177.088 10.154 177 10.044 176.747 9.813C178.441 9.054 179.475 8.207 180.234 6.942C180.652 6.249 180.971 5.424 181.169 4.577C181.246 4.214 181.29 3.961 181.29 3.829V3.785C181.29 3.752 181.29 3.752 181.29 3.719Z" fill="white"/>
<path d="M163.811 3.62V2.729C164.174 2.784 164.416 2.795 164.988 2.795H169.19C169.762 2.795 170.004 2.784 170.367 2.729V3.62C170.037 3.587 169.74 3.576 169.201 3.576H164.977C164.438 3.576 164.141 3.587 163.811 3.62ZM162.7 8.878V7.954C163.096 8.009 163.327 8.02 163.976 8.02H170.213C170.862 8.02 171.093 8.009 171.489 7.954V8.878C171.126 8.834 170.807 8.823 170.224 8.823H163.965C163.382 8.823 163.074 8.834 162.7 8.878Z" fill="white"/>
<path d="M152.635 1.50781H153.548C153.515 1.77181 153.504 1.91481 153.504 2.42081V5.37981C153.504 5.90781 153.515 6.02881 153.548 6.29281H152.635C152.668 6.03981 152.679 5.80881 152.679 5.36881V2.43181C152.679 1.95881 152.668 1.77181 152.635 1.50781ZM157.497 1.50781H158.421C158.377 1.76081 158.366 1.93681 158.366 2.46481V3.76281C158.366 5.51181 158.289 6.47981 158.091 7.11781C157.772 8.15181 157.079 8.95481 156.001 9.55981C155.462 9.86781 154.934 10.0768 153.999 10.3518C153.878 10.0328 153.812 9.92281 153.537 9.59281C154.527 9.37281 155.055 9.18581 155.627 8.84481C156.65 8.25081 157.178 7.54681 157.387 6.52381C157.508 5.89681 157.541 5.39081 157.541 3.71881V2.47581C157.541 1.90381 157.53 1.74981 157.497 1.50781Z" fill="white"/>
<path d="M143.175 1.03516L144.077 1.26616C143.978 1.40916 143.978 1.40916 143.835 1.71716C143.549 2.31116 143.45 2.49816 143.329 2.69616C143.472 2.66316 143.472 2.66316 146.651 2.60816C147.036 2.60816 147.069 2.59716 147.223 2.53116L147.696 2.99316C147.597 3.12516 147.597 3.13616 147.476 3.53216C147.014 5.08316 146.211 6.57916 145.276 7.66816C144.264 8.82316 143.054 9.69216 141.448 10.4182C141.272 10.0992 141.184 9.98916 140.898 9.76916C142.559 9.08716 143.725 8.25116 144.781 6.98616C145.628 5.96316 146.288 4.67616 146.673 3.30116L142.966 3.36716C142.295 4.44516 141.415 5.41316 140.337 6.22716C140.15 5.95216 140.04 5.85316 139.721 5.65516C140.887 4.89616 141.723 3.98316 142.482 2.64116C142.9 1.91516 143.12 1.42016 143.175 1.03516Z" fill="white"/>
<path d="M128.809 4.91799V9.52699C128.809 10.143 128.831 10.484 128.875 10.759H128.05C128.094 10.451 128.116 10.099 128.116 9.51599V2.37699C128.116 1.83799 128.105 1.51899 128.072 1.16699C128.369 1.19999 128.677 1.21099 129.216 1.21099H130.811C131.361 1.21099 131.625 1.19999 131.933 1.16699C131.911 1.46399 131.9 1.77199 131.9 2.21199V3.93899C131.9 4.41199 131.911 4.65399 131.933 4.95099C131.691 4.92899 131.273 4.91799 130.822 4.91799H128.809ZM128.809 1.77199V2.76199H131.262V1.77199H128.809ZM128.809 3.31199V4.35699H131.262V3.31199H128.809ZM136.85 2.37699V9.62599C136.85 10.407 136.619 10.594 135.662 10.594C135.31 10.594 134.848 10.583 134.386 10.55C134.342 10.253 134.298 10.077 134.188 9.81299C134.705 9.88999 135.189 9.93399 135.53 9.93399C136.069 9.93399 136.157 9.88999 136.157 9.64799V4.91799H134.012C133.539 4.91799 133.143 4.92899 132.901 4.95099C132.923 4.65399 132.934 4.35699 132.934 3.93899V2.21199C132.934 1.82699 132.923 1.49699 132.901 1.16699C133.198 1.19999 133.484 1.21099 134.023 1.21099H135.75C136.289 1.21099 136.597 1.19999 136.905 1.16699C136.861 1.55199 136.85 1.88199 136.85 2.37699ZM133.572 1.77199V2.76199H136.157V1.77199H133.572ZM133.572 3.31199V4.35699H136.157V3.31199H133.572Z" fill="white"/>
<path d="M120.46 2.4102H117.248C116.797 2.4102 116.467 2.4322 116.148 2.4762V1.7502C116.467 1.7942 116.775 1.8162 117.259 1.8162H120.46V1.7172C120.46 1.2882 120.449 1.0572 120.394 0.804199H121.186C121.142 1.0792 121.12 1.3432 121.12 1.7172V1.8162H124.607C125.091 1.8162 125.377 1.7942 125.707 1.7502V2.4762C125.377 2.4322 125.058 2.4102 124.618 2.4102H121.12V3.2242H123.771C124.2 3.2242 124.409 3.2132 124.706 3.1802C124.673 3.4662 124.662 3.6422 124.662 3.9722V6.0292C124.662 6.3482 124.673 6.5132 124.706 6.7992C124.387 6.7662 124.156 6.7552 123.76 6.7552H123.463V7.5362H124.618C125.102 7.5362 125.388 7.5142 125.718 7.4702V8.1962C125.399 8.1522 125.058 8.1302 124.629 8.1302H123.463V9.9232C123.463 10.5282 123.199 10.7042 122.297 10.7042C122.011 10.7042 121.879 10.7042 121.23 10.6712C121.197 10.3962 121.175 10.3082 121.021 9.9782C121.406 10.0442 121.89 10.0772 122.33 10.0772C122.726 10.0772 122.803 10.0332 122.803 9.8022V8.1302H117.248C116.819 8.1302 116.489 8.1522 116.148 8.1962V7.4702C116.467 7.5142 116.775 7.5362 117.259 7.5362H122.803V6.7552H118.073C117.677 6.7552 117.457 6.7662 117.138 6.7992C117.171 6.5132 117.182 6.3262 117.182 6.0292V3.9722C117.182 3.6642 117.171 3.4772 117.138 3.1802C117.424 3.2132 117.644 3.2242 118.073 3.2242H120.46V2.4102ZM120.46 3.7852H117.864V4.6652H120.46V3.7852ZM121.12 3.7852V4.6652H123.98V3.7852H121.12ZM120.46 5.2042H117.864V6.2052H120.46V5.2042ZM121.12 5.2042V6.2052H123.98V5.2042H121.12ZM120.361 9.7472L119.822 10.2422C119.239 9.6042 118.832 9.2412 118.205 8.8012L118.722 8.3832C119.437 8.8782 119.844 9.2192 120.361 9.7472Z" fill="white"/>
<path d="M109.273 9.55995V2.13495H106.16C105.654 2.13495 105.28 2.15695 104.917 2.20095V1.39795C105.258 1.44195 105.621 1.46395 106.138 1.46395H112.584C113.09 1.46395 113.442 1.44195 113.805 1.39795V2.20095C113.442 2.15695 113.057 2.13495 112.584 2.13495H110.032V5.26995H112.221C112.749 5.26995 113.079 5.24795 113.354 5.20395V5.99595C113.079 5.95195 112.727 5.92995 112.221 5.92995H110.032V9.55995H112.914C113.464 9.55995 113.805 9.53795 114.19 9.48295V10.3079C113.827 10.2529 113.442 10.2309 112.925 10.2309H105.764C105.247 10.2309 104.873 10.2529 104.488 10.3079V9.48295C104.829 9.53795 105.159 9.55995 105.753 9.55995H106.303V5.73195C106.303 5.19295 106.281 4.84095 106.226 4.46695H107.128C107.073 4.81895 107.051 5.19295 107.051 5.73195V9.55995H109.273Z" fill="white"/>
<path d="M94.5442 2.94923H94.1042C93.8952 3.57623 93.7522 3.88423 93.3782 4.50023C93.2132 4.31323 93.0812 4.19223 92.8612 4.04923C93.3672 3.30123 93.6422 2.55323 93.8292 1.43123C93.8622 1.20023 93.8732 1.07923 93.8842 0.859227L94.6212 0.991226C94.5662 1.12323 94.5332 1.24423 94.4782 1.53023C94.4232 1.79423 94.3682 2.00323 94.2802 2.34423H95.2482C95.7322 2.34423 95.9082 2.33323 96.1062 2.30023V2.98223C95.7982 2.96023 95.6002 2.94923 95.2922 2.94923H95.1932C95.1712 4.26923 95.1712 4.34623 95.1272 5.09423H95.5012C95.8752 5.09423 96.1062 5.08323 96.3042 5.05023V5.75423C96.1062 5.72123 95.8422 5.71023 95.5012 5.71023H95.0722C95.0392 6.02923 95.0172 6.12823 94.9732 6.46923C95.3142 7.14023 95.7432 7.73423 96.2932 8.27323C96.1172 8.48223 96.1062 8.49323 95.8972 8.85623C95.4352 8.35023 95.1162 7.88823 94.7972 7.29423C94.5002 8.44923 94.0932 9.26323 93.3232 10.2092C93.1582 9.97823 93.0262 9.82423 92.8062 9.65923C93.4112 9.01023 93.7632 8.42723 94.0382 7.59123C94.2472 6.97523 94.3682 6.43623 94.4342 5.71023H93.7962C93.4882 5.71023 93.2132 5.73223 92.9602 5.76523V5.03923C93.2132 5.07223 93.4882 5.09423 93.8292 5.09423H94.4892C94.5222 4.50023 94.5442 4.11523 94.5442 2.94923ZM99.0212 2.60823H101.452C101.936 2.60823 102.31 2.58623 102.585 2.54223V3.21323C102.266 3.18023 101.881 3.15823 101.452 3.15823H100.385C101.1 3.87323 101.793 4.26923 102.882 4.61023C102.717 4.80823 102.596 4.98423 102.497 5.20423C101.87 4.91823 101.452 4.68723 100.99 4.34623V5.06123C100.99 5.46823 100.99 5.55623 101.012 5.76523C100.781 5.75423 100.539 5.74323 100.264 5.74323H98.2182C97.9432 5.74323 97.6902 5.75423 97.4812 5.76523C97.4922 5.53423 97.5032 5.41323 97.5032 5.06123V4.35723C97.0962 4.69823 96.8872 4.85223 96.4252 5.14923C96.3262 4.94023 96.2162 4.79723 96.0182 4.64323C96.9202 4.15923 97.3932 3.78523 97.9322 3.15823H97.3602C96.8432 3.15823 96.5902 3.16923 96.3262 3.21323V2.55323C96.6122 2.59723 96.8652 2.60823 97.3492 2.60823H98.3502C98.5152 2.35523 98.6032 2.20123 98.7682 1.86023C98.0312 1.92623 97.5252 1.94823 96.6672 1.97023C96.5682 1.69523 96.5242 1.60723 96.3922 1.37623C96.6232 1.38723 96.8102 1.38723 96.9202 1.38723C98.6472 1.38723 100.814 1.10123 101.496 0.782227L101.947 1.36523C101.815 1.38723 101.76 1.39823 101.65 1.42023C101.078 1.55223 100.286 1.68423 99.4832 1.78323C99.2852 2.16823 99.2082 2.30023 99.0212 2.60823ZM99.6702 3.15823H98.6252C98.3942 3.45523 98.2292 3.64223 97.9762 3.90623H100.44C100.088 3.59823 99.9672 3.47723 99.6702 3.15823ZM98.1192 4.41223V5.23723H100.363V4.41223H98.1192ZM96.4912 9.57123V7.23923C96.4912 6.76623 96.4802 6.51323 96.4472 6.27123C96.6782 6.30423 96.9972 6.31523 97.4702 6.31523H101.276C101.804 6.31523 102.101 6.30423 102.321 6.26023C102.288 6.52423 102.277 6.88723 102.277 7.28323V9.97823C102.277 10.5832 102.057 10.7262 101.089 10.7262C100.825 10.7262 100.66 10.7262 100.253 10.7042C100.231 10.4402 100.209 10.3412 100.099 10.0222C100.539 10.0662 100.968 10.0992 101.232 10.0992C101.518 10.0992 101.617 10.0332 101.617 9.84623V6.86523H97.1402V9.61523C97.1402 10.3302 97.1512 10.5392 97.1842 10.8252H96.4362C96.4692 10.5282 96.4912 10.0772 96.4912 9.57123ZM100.671 8.16323V8.77923C100.671 9.20823 100.671 9.28523 100.693 9.45023C100.484 9.42823 100.418 9.42823 100.044 9.42823H98.5922V10.0222H97.9872C98.0202 9.73623 98.0202 9.67023 98.0202 9.20823V8.21823C98.0202 7.88823 98.0092 7.64623 97.9872 7.44823C98.1412 7.47023 98.2732 7.48123 98.6802 7.48123H100.022C100.407 7.48123 100.561 7.47023 100.704 7.44823C100.671 7.62423 100.671 7.72323 100.671 8.16323ZM98.5922 7.97623V8.91123H100.099V7.97623H98.5922Z" fill="white"/>
<path d="M83.1259 6.5131H82.2899C82.3339 6.1831 82.3559 5.8531 82.3559 5.2811V2.2781C82.3559 1.7611 82.3339 1.4201 82.2899 1.0791H83.1259C83.0819 1.3981 83.0599 1.6951 83.0599 2.2451V5.3361C83.0599 5.8971 83.0819 6.2491 83.1259 6.5131ZM90.1329 2.2671V5.1931C90.1329 5.6661 90.1439 5.9081 90.1879 6.2711C89.8139 6.2271 89.5059 6.2161 88.9669 6.2161H85.9969C85.4799 6.2161 85.1389 6.2271 84.7759 6.2711C84.8199 5.9191 84.8309 5.5891 84.8309 5.1161V2.3331C84.8309 1.8491 84.8199 1.5411 84.7759 1.2001C85.1499 1.2441 85.4249 1.2551 85.9859 1.2551H88.9339C89.5059 1.2551 89.8249 1.2441 90.1879 1.2001C90.1439 1.4861 90.1329 1.7061 90.1329 2.2671ZM85.5019 1.8931V3.3781H89.4509V1.8931H85.5019ZM85.5019 4.0051V5.5781H89.4509V4.0051H85.5019ZM84.3139 6.6781L85.1279 6.7111C85.0949 6.8431 85.0839 6.9421 85.0619 7.1621C84.9849 8.1301 84.8639 8.6361 84.5559 9.1531C84.2479 9.6701 83.7529 10.1101 83.0379 10.4731C82.7079 10.6491 82.4109 10.7591 81.7069 10.9791C81.5749 10.7261 81.5309 10.6601 81.2559 10.3301C82.0479 10.1431 82.4769 9.9781 82.9499 9.7141C83.8849 9.1751 84.3359 8.3501 84.3359 7.1841C84.3359 6.9861 84.3249 6.8101 84.3139 6.6781ZM87.4819 7.7231V9.5821C87.4819 9.8681 87.6799 9.9231 88.7469 9.9231C90.0009 9.9231 90.2319 9.8571 90.3309 9.5161C90.4079 9.2741 90.4519 8.7791 90.4519 8.2401C90.4519 8.2071 90.4519 8.0751 90.4519 7.9651C90.7269 8.1081 90.8369 8.1521 91.1449 8.2511C91.1119 9.3621 91.0129 9.8791 90.7819 10.1981C90.5619 10.4951 90.0779 10.5831 88.5929 10.5831C87.8559 10.5831 87.3719 10.5391 87.1409 10.4511C86.8659 10.3411 86.7889 10.2091 86.7889 9.8131V7.7451C86.7889 7.2611 86.7669 6.9861 86.7229 6.6891H87.5369C87.4929 6.9531 87.4819 7.1731 87.4819 7.7231Z" fill="white"/>
<path d="M74.26 1.00195H75.151C75.107 1.29895 75.085 1.62895 75.085 2.12395V9.69195C75.085 10.396 74.832 10.594 73.919 10.594C73.468 10.594 73.028 10.572 72.401 10.517C72.368 10.176 72.324 10.022 72.203 9.70295C72.907 9.83495 73.391 9.88995 73.831 9.88995C74.227 9.88995 74.326 9.83495 74.326 9.61495V2.11295C74.326 1.63995 74.304 1.32095 74.26 1.00195ZM76.834 3.61995L77.615 3.39995C77.703 4.03795 77.879 4.64295 78.297 5.67695C78.726 6.75495 79.188 7.54695 79.936 8.47095C79.65 8.66895 79.496 8.80095 79.309 9.02095C78.374 7.76695 77.956 6.96395 77.439 5.52295C77.428 5.51195 77.263 4.95095 76.911 3.83995C76.867 3.70795 76.867 3.70795 76.834 3.61995ZM71.598 3.46595L72.412 3.66395C72.357 3.83995 72.324 3.97195 72.093 4.87395C71.664 6.54595 71.158 7.67895 70.234 8.98795C70.014 8.78995 69.838 8.66895 69.563 8.53695C70.41 7.43695 70.861 6.53495 71.268 5.11595C71.455 4.45595 71.565 3.90595 71.598 3.46595Z" fill="white"/>
<path d="M63.7442 2.70693C63.5792 4.23593 63.1612 5.91893 62.6662 7.07393C62.0282 8.52593 61.3792 9.18593 60.5872 9.18593C59.5422 9.18593 58.7612 8.04193 58.7612 6.50193C58.7612 5.37993 59.1792 4.29093 59.9162 3.46593C60.7962 2.49793 61.9952 2.00293 63.4692 2.00293C64.7012 2.00293 65.7792 2.38793 66.4942 3.09193C67.1872 3.76293 67.5612 4.71993 67.5612 5.77593C67.5612 7.48093 66.6372 8.88893 65.0422 9.57093C64.5472 9.77993 64.1292 9.91193 63.3702 10.0769C63.2602 9.71393 63.1942 9.60393 62.9852 9.33993C63.7882 9.20793 64.3052 9.06493 64.8222 8.82293C66.0322 8.27293 66.7692 7.09593 66.7692 5.74293C66.7692 4.48893 66.1312 3.47693 65.0202 2.98193C64.6132 2.80593 64.2942 2.72893 63.7442 2.70693ZM62.9522 2.71793C62.2922 2.77293 61.8192 2.92693 61.3132 3.23493C60.2022 3.90593 59.5202 5.14893 59.5202 6.51293C59.5202 7.56893 59.9822 8.38293 60.5762 8.38293C61.0382 8.38293 61.4782 7.86593 61.9512 6.78793C62.4022 5.75393 62.8092 4.12593 62.9522 2.71793Z" fill="white"/>
<path d="M51.1051 2.45414V1.78314C51.1051 1.43114 51.072 1.07914 51.028 0.848145H51.9081C51.8531 1.12314 51.8311 1.40914 51.8311 1.78314V2.45414H55.285C55.824 2.45414 56.2091 2.43214 56.5391 2.37714V3.16914C56.2531 3.12515 55.9341 3.10314 55.2961 3.10314H47.948C47.409 3.10314 47.0461 3.12515 46.7271 3.16914V2.37714C47.0901 2.43214 47.453 2.45414 47.959 2.45414H51.1051ZM51.1051 4.62114V4.25814C51.1051 3.91714 51.0941 3.66414 51.0501 3.38914H51.875C51.842 3.58714 51.8201 3.87314 51.8201 4.26915V4.62114H54.427C54.867 4.62114 55.142 4.61014 55.472 4.57714C55.439 4.85214 55.4281 5.10514 55.4281 5.46814V8.63614C55.4281 9.35114 55.2081 9.53815 54.3061 9.53815C53.8551 9.53815 53.6681 9.52714 53.1621 9.49414C53.1291 9.20814 53.0851 9.02114 52.975 8.75714C53.4811 8.83414 53.9101 8.86714 54.2621 8.86714C54.6141 8.86714 54.7021 8.80115 54.7021 8.55914V5.24815H51.8201V9.62615C51.8201 10.0771 51.8421 10.4511 51.8971 10.8251H51.028C51.083 10.4071 51.1051 10.0551 51.1051 9.62615V5.24815H48.4981V8.55914C48.4981 9.06515 48.5201 9.42814 48.5641 9.74714H47.695C47.739 9.39514 47.761 9.05415 47.761 8.55914V5.47915C47.761 5.13814 47.7501 4.86314 47.7171 4.57714C48.0361 4.61014 48.3221 4.62114 48.7731 4.62114H51.1051Z" fill="white"/>
<path d="M39.5991 2.91617V1.97017C39.5991 1.43117 39.5771 1.16717 39.5221 0.826172H40.4021C40.3471 1.16717 40.3251 1.47517 40.3251 1.94817V2.91617H43.5481C43.9221 2.91617 44.1311 2.90517 44.3841 2.87217C44.3401 3.15817 44.3291 3.38917 44.3291 3.74117V6.74417C44.3291 7.10717 44.3511 7.39317 44.3951 7.72317H43.6031V6.97517H40.3251V9.53817C40.3251 10.1652 40.3361 10.4402 40.4021 10.7922H39.5221C39.5771 10.4182 39.5991 10.1322 39.5991 9.53817V6.97517H36.4971V7.72317H35.7051C35.7491 7.40417 35.7711 7.09617 35.7711 6.74417V3.74117C35.7711 3.40017 35.7491 3.15817 35.7161 2.87217C35.9801 2.90517 36.1891 2.91617 36.5411 2.91617H39.5991ZM39.5991 3.57617H36.4971V6.31517H39.5991V3.57617ZM40.3251 6.31517H43.6031V3.57617H40.3251V6.31517Z" fill="white"/>
<path d="M29.9962 1.57411H31.3602C31.8772 1.57411 32.2072 1.56311 32.5592 1.51911C32.5262 1.76111 32.5152 1.95911 32.5152 2.38811V4.10411C32.5152 4.54411 32.5262 4.73111 32.5592 4.97311C32.1852 4.94011 31.9212 4.92911 31.3932 4.92911H25.7062C25.0352 4.92911 24.8812 4.94011 24.5402 4.97311C24.5732 4.73111 24.5842 4.53311 24.5842 4.10411V2.38811C24.5842 1.98111 24.5732 1.77211 24.5402 1.51911C24.8922 1.56311 25.2222 1.57411 25.7282 1.57411H26.9712C26.9712 1.12311 26.9602 0.980106 26.9052 0.683105H27.6862C27.6312 0.936105 27.6092 1.18911 27.6092 1.51911V1.57411H29.3582C29.3582 1.13411 29.3472 0.969106 29.2922 0.683105H30.0732C30.0182 0.980106 29.9962 1.17811 29.9962 1.57411ZM26.9712 2.11311H25.2442V2.96011H26.9712V2.11311ZM27.6092 2.11311V2.96011H29.3582V2.11311H27.6092ZM29.9962 2.11311V2.96011H31.8552V2.11311H29.9962ZM26.9712 3.46611H25.2442V4.41211H26.9712V3.46611ZM27.6092 3.46611V4.41211H29.3582V3.46611H27.6092ZM29.9962 3.46611V4.41211H31.8552V3.46611H29.9962ZM24.8482 9.97811H26.8942C26.7072 9.65911 26.5312 9.40611 26.3002 9.15311L26.9272 8.91111C27.1692 9.23011 27.3782 9.57111 27.5762 9.97811H29.5232C29.7872 9.61511 29.9632 9.31811 30.1172 8.91111L30.7662 9.16411C30.5572 9.53811 30.4472 9.70311 30.2382 9.97811H32.2402C32.7352 9.97811 33.0762 9.95611 33.3952 9.91211V10.6491C33.0542 10.5941 32.7352 10.5721 32.2402 10.5721H24.8482C24.3202 10.5721 23.9902 10.5941 23.6382 10.6491V9.91211C23.9902 9.95611 24.3312 9.97811 24.8482 9.97811ZM33.2742 5.53411V6.24911C32.9442 6.20511 32.5812 6.18311 32.0532 6.18311H24.9472C24.4412 6.18311 24.0892 6.20511 23.7702 6.24911V5.53411C24.0782 5.58911 24.4082 5.61111 24.9472 5.61111H32.0532C32.6142 5.61111 32.9552 5.58911 33.2742 5.53411ZM25.0682 8.14111V7.53611C25.0682 7.21711 25.0572 6.99711 25.0132 6.76611C25.3762 6.81011 25.7612 6.82111 26.2892 6.82111H30.7222C31.2392 6.82111 31.6132 6.81011 31.9762 6.76611C31.9322 6.98611 31.9212 7.20611 31.9212 7.53611V8.14111C31.9212 8.43811 31.9322 8.66911 31.9762 8.90011C31.6022 8.86711 31.2502 8.85611 30.7442 8.85611H26.2672C25.6072 8.85611 25.3762 8.86711 25.0132 8.90011C25.0572 8.65811 25.0682 8.43811 25.0682 8.14111ZM25.7722 7.36011V8.31711H31.2282V7.36011H25.7722Z" fill="white"/>
<defs>
<clipPath id="clip0_10392_4">
<rect width="219" height="24" fill="white" transform="translate(0 16)"/>
</clipPath>
</defs>
</svg>
