<svg width="381" height="434" viewBox="0 0 381 434" fill="none" xmlns="http://www.w3.org/2000/svg">
<g opacity="0.1">
<path d="M211.265 333.351C191.183 325.619 165.801 301.815 157.066 295.068C138.477 280.664 65.9879 211.753 19.8515 171.271C11.6395 164.069 0.51606 174.227 4.77135 184.992C22.0165 228.279 39.2616 273.386 57.7012 314.02C72.7814 347.149 97.1187 396.955 114.961 433.723C108.391 411.966 95.9989 372.317 90.8477 354.73C86.2192 339.037 73.5279 313.641 87.1897 298.479C88.3842 297.19 89.7279 296.053 91.5196 296.508C97.9399 298.1 223.359 411.283 241.799 427.583C253.071 437.438 267.48 431.221 274.273 416.893C293.982 375.653 361.544 227.673 376.998 168.466C357.214 209.858 267.928 354.957 211.19 333.276L211.265 333.351Z" fill="#6A4735"/>
<path d="M379.835 104.483C369.98 65.3649 349.002 21.2438 309.734 5.09639C277.484 -8.09446 262.478 7.06743 236.349 20.1067C222.09 27.2327 206.263 30.1135 190.437 29.8103C174.61 30.1893 158.783 27.3086 144.524 20.1067C118.395 6.99162 103.39 -8.09446 71.1392 5.09639C31.9457 21.168 10.8932 65.2891 1.11346 104.483C0.66553 106.302 -0.37963 108.652 0.14295 110.472C0.590876 112.139 2.08396 113.201 3.05447 111.305C15.5217 87.4255 27.8397 68.3215 51.6544 54.0693C72.8562 41.4091 99.8064 35.7234 121.307 50.8853C139 63.3181 158.41 73.5523 180.284 74.5378C183.643 74.6895 187.077 74.6137 190.437 74.5378C193.871 74.6895 197.23 74.6895 200.59 74.5378C222.463 73.4765 241.874 63.3181 259.567 50.8853C281.067 35.7992 308.017 41.4091 329.219 54.0693C353.034 68.3215 365.352 87.4255 377.819 111.305C378.789 113.125 380.283 112.139 380.73 110.472C381.253 108.576 380.208 106.226 379.76 104.483H379.835Z" fill="#6A4735"/>
</g>
</svg>
