<svg xmlns="http://www.w3.org/2000/svg" width="269.232" height="1011.608" viewBox="0 0 269.232 1011.608">
  <path id="vertical-txt_message" d="M45.156-193.12c-.568,5.112-1.136,10.224-1.7,14.484-.852,5.964-3.408,23.288-7.1,52.256C28.684-67.876,22.436-26.7,17.04,1.136A55.278,55.278,0,0,1,26.7,0c2.272,0,3.976.284,10.224,1.136-.284-17.892,6.816-88.892,13.916-141.148l2.556,4.544C90.312-68.16,90.88-67.024,122.972-1.7h2.272c11.928-28.4,48.564-98.264,73.84-140.864l.568,5.68c7.668,60.208,12.5,114.168,12.78,138.024C219.816.284,222.656,0,225.78,0s5.964.284,13.632,1.136c-2.84-15.9-9.372-68.16-15.336-126.38L220.1-160.46c-.852-9.372-1.7-18.46-2.84-27.832l-.568-4.828H213c-24.992,44.02-46.008,82.36-63.048,113.6-11.644,21.3-14.768,26.98-20.448,36.636-17.04-29.252-52.256-95.708-79.8-150.236Zm239.98,90.88c7.1-12.78,19.88-19.88,34.648-19.88,14.2,0,25.56,7.384,29.536,19.6,2.272,6.532,2.272,7.384,2.272,22.72v.568c-7.384,4.828-13.632,6.816-34.08,10.224-19.6,3.124-27.832,5.964-35.216,11.36-7.952,5.68-12.5,15.9-12.5,27.832,0,21.3,14.768,34.648,38.34,34.648,16.472,0,30.388-6.532,42.884-20.164,1.7,11.36,7.952,16.756,19.312,16.756,5.964,0,11.076-1.136,18.744-4.26v-5.4c-2.84.284-4.26.568-5.964.568-4.828,0-8.236-2.556-9.656-7.384-1.136-3.408-1.42-9.94-1.42-27.264,0-10.792.284-18.176.568-28.968.284-7.384.568-13.632.568-18.744,0-27.264-17.04-43.452-45.44-43.452-15.9,0-29.252,4.544-45.44,15.336a54.2,54.2,0,0,1,.852,7.952,54.2,54.2,0,0,1-.852,7.952Zm66.74,34.364v2.556l-.568,17.04v6.816c-.284,5.68-.284,7.384-.284,14.768C343.64-14.768,330.86-7.1,318.364-7.1c-15.052,0-25.56-10.508-25.56-25.56,0-10.792,4.26-18.46,13.064-23.288,5.68-3.124,6.816-3.408,42.884-11.36Zm65.036,42.884c-1.988,8.236-3.976,15.62-5.964,20.448,9.372,5.964,22.436,9.372,35.5,9.372,29.252,0,51.12-18.744,51.12-44.02,0-18.46-9.088-28.116-33.228-34.648C449-78.1,444.744-79.8,439.916-83.212c-5.4-3.692-8.8-10.508-8.8-17.892,0-13.632,10.508-23.288,25.276-23.288s24.708,7.1,27.832,19.6h2.84c2.272-8.8,2.272-9.372,7.384-21.868-13.064-5.112-21.584-6.816-33.512-6.816-29.82,0-48.564,15.336-48.564,39.76,0,10.792,4.544,21.3,11.928,26.98,5.68,4.544,11.36,7.1,27.832,11.928,19.88,5.68,26.7,12.212,26.7,24.992,0,13.916-11.644,24.708-26.98,24.708-13.916,0-23.856-6.248-32.66-19.88Zm106.5,0c-1.988,8.236-3.976,15.62-5.964,20.448,9.372,5.964,22.436,9.372,35.5,9.372,29.252,0,51.12-18.744,51.12-44.02,0-18.46-9.088-28.116-33.228-34.648-15.336-4.26-19.6-5.964-24.424-9.372-5.4-3.692-8.8-10.508-8.8-17.892,0-13.632,10.508-23.288,25.276-23.288s24.708,7.1,27.832,19.6h2.84c2.272-8.8,2.272-9.372,7.384-21.868-13.064-5.112-21.584-6.816-33.512-6.816-29.82,0-48.564,15.336-48.564,39.76,0,10.792,4.544,21.3,11.928,26.98,5.68,4.544,11.36,7.1,27.832,11.928,19.88,5.68,26.7,12.212,26.7,24.992,0,13.916-11.644,24.708-26.98,24.708-13.916,0-23.856-6.248-32.66-19.88ZM643.828-102.24c7.1-12.78,19.88-19.88,34.648-19.88,14.2,0,25.56,7.384,29.536,19.6,2.272,6.532,2.272,7.384,2.272,22.72v.568c-7.384,4.828-13.632,6.816-34.08,10.224-19.6,3.124-27.832,5.964-35.216,11.36-7.952,5.68-12.5,15.9-12.5,27.832,0,21.3,14.768,34.648,38.34,34.648,16.472,0,30.388-6.532,42.884-20.164,1.7,11.36,7.952,16.756,19.312,16.756,5.964,0,11.076-1.136,18.744-4.26v-5.4c-2.84.284-4.26.568-5.964.568-4.828,0-8.236-2.556-9.656-7.384-1.136-3.408-1.42-9.94-1.42-27.264,0-10.792.284-18.176.568-28.968.284-7.384.568-13.632.568-18.744,0-27.264-17.04-43.452-45.44-43.452-15.9,0-29.252,4.544-45.44,15.336a54.2,54.2,0,0,1,.852,7.952,54.2,54.2,0,0,1-.852,7.952Zm66.74,34.364v2.556L710-48.28v6.816c-.284,5.68-.284,7.384-.284,14.768-7.384,11.928-20.164,19.6-32.66,19.6C662-7.1,651.5-17.608,651.5-32.66c0-10.792,4.26-18.46,13.064-23.288,5.68-3.124,6.816-3.408,42.884-11.36Zm179.488-55.1a30.939,30.939,0,0,1-.568-5.68,12.555,12.555,0,0,1,.568-4.26c-6.816.568-13.916.852-24.424.852a92.489,92.489,0,0,1-10.792-.284c-24.14-1.136-24.14-1.136-30.1-1.136-18.46,0-30.388,3.408-40.044,11.644a46.83,46.83,0,0,0-15.9,35.5c0,19.6,10.792,34.364,29.536,40.044-16.188,5.964-22.152,12.5-22.152,23.856,0,11.928,7.384,19.312,20.448,20.732C773.048,5.68,763.108,15.9,763.108,33.8c0,14.768,7.952,26.412,22.152,33.512,11.644,5.68,26.128,8.8,40.612,8.8,40.612,0,69.58-23.572,69.58-56.8,0-13.916-5.4-24.708-15.9-31.524-9.088-5.68-16.756-7.1-44.3-7.1-23,0-28.968-.568-33.8-2.84-4.828-1.988-7.384-5.68-7.384-9.94,0-6.532,7.1-11.36,16.756-11.36a57.234,57.234,0,0,1,6.532.284c2.84.284,6.248.284,8.236.284,30.1,0,50.836-18.46,50.836-45.44,0-17.324-5.4-26.7-20.164-34.648ZM823.6-125.244c19.88,0,30.672,12.78,30.672,36.068,0,24.708-11.076,38.056-31.808,38.056-19.88,0-30.956-12.5-30.956-34.932C791.508-111.612,802.584-125.244,823.6-125.244ZM828.144-.852c31.24,0,46.292,9.372,46.292,29.536,0,23.288-18.744,38.908-46.576,38.908-28.684,0-47.428-13.916-47.428-34.932S798.324-.852,828.144-.852Zm193.972-25.56C1010.472-13.348,995.7-6.532,978.38-6.532c-28.4,0-47.144-21.016-47.144-52.824V-65.6c19.312-.568,33.228-.852,50.836-.852,23.856,0,37.2.284,46.292.852.284-3.408.284-6.816.284-8.8,0-37.488-20.732-59.072-56.8-59.072-21.016,0-36.068,5.68-47.428,18.176-11.928,12.78-17.892,30.388-17.892,51.972,0,41.748,25.844,68.16,66.74,68.16,19.028,0,30.672-3.976,48.28-16.472a30.441,30.441,0,0,1,1.7-11.644l.568-2.556Zm-15.9-50.836c-9.656,1.136-12.5,1.136-31.24,1.136-21.868,0-34.932-.284-43.452-.568,1.988-29.252,17.608-48,39.76-48,14.484,0,24.992,7.384,30.388,21.3C1004.224-97.128,1005.36-90.028,1006.212-77.248Z" transform="translate(76.112 -17.04) rotate(90)" fill="#ddb763" opacity="0.607"/>
</svg>
