<svg xmlns="http://www.w3.org/2000/svg" width="270.652" height="1150.2" viewBox="0 0 270.652 1150.2">
  <path id="vertical-txt_company" d="M180.34-29.82C161.312-13.348,141.716-5.68,119-5.68,96.56-5.68,77.248-14.2,63.616-30.1,49.984-45.724,43.452-66.74,43.452-94c0-26.7,6.248-47.144,19.028-62.764,13.916-17.324,34.08-26.98,57.084-26.98a73.86,73.86,0,0,1,54.812,23.572l1.988-.852a95.939,95.939,0,0,1,5.68-21.584c-15.9-7.668-36.636-11.644-59.924-11.644-65.6,0-106.784,38.908-106.784,101.1,0,59.356,38.908,97.98,98.832,97.98,25.56,0,47.144-5.68,63.616-17.04l.568-2.272,1.42-5.964,1.42-5.964.568-2.556ZM275.2-133.48c-43.168,0-69.864,26.412-69.864,69.3,0,42.032,26.7,69.012,67.876,69.012,40.9,0,68.16-27.264,68.16-67.592C341.368-107.352,316.944-133.48,275.2-133.48Zm-1.7,8.8c28.116,0,43.168,21.584,43.168,61.344,0,36.352-16.756,59.356-43.168,59.356-26.98,0-43.452-22.72-43.452-60.492C230.04-101.956,246.228-124.676,273.492-124.676Zm122.12,14.484c0-5.964.284-17.608.568-21.3a50.639,50.639,0,0,1-11.644,1.136,50.6,50.6,0,0,1-11.076-1.136c1.7,15.336,2.272,33.512,2.272,63.332,0,26.7-.568,48.28-2.272,69.3A71.2,71.2,0,0,1,385.1,0c2.84,0,5.4.284,12.5,1.136-1.136-12.212-1.7-27.548-1.7-51.688,0-30.672.568-39.192,3.976-48.28,4.544-13.348,16.188-21.3,31.24-21.3,13.064,0,21.584,5.112,26.412,15.62,2.84,6.532,3.408,13.632,3.408,39.476,0,22.152-1.42,53.392-2.84,66.172A93.12,93.12,0,0,1,470.588,0a66.11,66.11,0,0,1,11.644,1.136c-.568-10.224-1.136-36.92-1.136-63.048,0-22.152,2.272-36.636,6.816-43.736,5.68-8.8,16.472-14.484,27.832-14.484,9.088,0,17.892,3.692,23.288,10.224,5.112,5.964,6.816,12.78,6.816,26.98,0,20.164-1.136,61.344-2.556,84.064a64.681,64.681,0,0,1,24.14,0c-.852-13.348-1.42-24.992-1.42-39.76,0-10.224.284-21.3.852-31.808.284-9.372.568-18.46.568-23,0-13.064-3.124-21.584-10.792-28.684-7.668-7.384-19.028-11.36-31.808-11.36-20.448,0-35.784,9.656-45.156,27.832-5.68-18.744-18.744-27.832-40.328-27.832-19.6,0-32.092,7.668-43.736,26.7ZM608.044-9.94c0,4.828-.284,13.916-.568,28.968-.284,9.94-.284,16.472-.568,24.992-.284,17.608-.568,23.288-1.136,31.808a63.065,63.065,0,0,1,12.212-1.136,70.155,70.155,0,0,1,12.5,1.136c-1.136-29.252-1.42-40.612-1.7-70.148L628.492-12.5v-6.816C636.16-4.828,652.348,3.976,672.228,3.976c36.068,0,61.06-28.968,61.06-71.284,0-40.044-23.572-66.74-59.072-66.74-22.436,0-39.76,11.076-46.86,30.388a33.517,33.517,0,0,1-.284-4.544,229.738,229.738,0,0,1,.852-23.288,93.53,93.53,0,0,1-10.792.852c-2.556,0-5.112-.284-11.644-.852,1.42,28.968,2.272,55.1,2.272,92.016ZM669.672-122.4c24.424,0,38.908,21.584,38.908,57.936,0,36.636-15.336,58.5-40.9,58.5-25.276,0-40.044-20.448-40.044-55.664,0-18.744,2.556-31.524,8.236-41.748C642.692-115.3,654.9-122.4,669.672-122.4ZM775.036-102.24c7.1-12.78,19.88-19.88,34.648-19.88,14.2,0,25.56,7.384,29.536,19.6,2.272,6.532,2.272,7.384,2.272,22.72v.568c-7.384,4.828-13.632,6.816-34.08,10.224-19.6,3.124-27.832,5.964-35.216,11.36-7.952,5.68-12.5,15.9-12.5,27.832,0,21.3,14.768,34.648,38.34,34.648,16.472,0,30.388-6.532,42.884-20.164,1.7,11.36,7.952,16.756,19.312,16.756,5.964,0,11.076-1.136,18.744-4.26v-5.4c-2.84.284-4.26.568-5.964.568-4.828,0-8.236-2.556-9.656-7.384-1.136-3.408-1.42-9.94-1.42-27.264,0-10.792.284-18.176.568-28.968.284-7.384.568-13.632.568-18.744,0-27.264-17.04-43.452-45.44-43.452-15.9,0-29.252,4.544-45.44,15.336a54.2,54.2,0,0,1,.852,7.952,54.2,54.2,0,0,1-.852,7.952Zm66.74,34.364v2.556l-.568,17.04v6.816c-.284,5.68-.284,7.384-.284,14.768C833.54-14.768,820.76-7.1,808.264-7.1c-15.052,0-25.56-10.508-25.56-25.56,0-10.792,4.26-18.46,13.064-23.288,5.68-3.124,6.816-3.408,42.884-11.36Zm85.2-52.256c.284-4.828.284-6.816.568-11.36a40.325,40.325,0,0,1-10.224,1.136,65.893,65.893,0,0,1-12.5-1.136c1.7,19.88,2.556,36.352,2.556,54.244,0,29.82-1.136,67.592-2.556,78.384A80.043,80.043,0,0,1,916.752,0a90,90,0,0,1,12.212,1.136c-1.136-20.448-1.42-26.412-1.42-44.02,0-38.624.852-47.712,4.544-57.652,4.828-11.928,16.756-19.028,31.808-19.028,12.5,0,21.868,4.828,27.548,14.768,3.976,6.816,5.4,14.768,5.4,33.228,0,21.584-1.42,54.812-2.84,72.7A92.249,92.249,0,0,1,1005.644,0c2.84,0,3.976,0,12.5,1.136-.568-8.52-.852-19.88-.852-41.464,0-8.52,0-16.472.284-23.288.568-11.36.852-21.868.852-23.856,0-15.336-3.408-24.992-11.644-33.228s-20.164-12.78-34.08-12.78c-20.164,0-35.216,8.52-45.724,26.412Zm178.068,94.288c-13.916-30.388-35.5-85.2-41.464-105.648a57.6,57.6,0,0,1-11.644,1.136,110.075,110.075,0,0,1-14.768-1.136c4.544,9.088,6.816,14.484,15.9,36.068q5.538,13.632,13.632,32.376c21.584,51.4,22.152,52.54,26.128,63.9-3.976,10.508-13.064,28.116-26.128,50.268-7.1,12.212-12.212,20.448-14.484,24.708a46.483,46.483,0,0,1,10.792-1.136,30.084,30.084,0,0,1,11.076,1.7c7.668-22.436,26.7-66.74,57.084-134.332,7.668-16.756,14.2-30.388,22.436-47.712,6.532-14.768,8.236-18.176,11.928-25.844a52.572,52.572,0,0,1-9.94,1.136,32.04,32.04,0,0,1-8.52-1.136A1121.5,1121.5,0,0,1,1105.044-25.844Z" transform="translate(76.396 -15.336) rotate(90)" fill="#ddb763" opacity="0.607"/>
</svg>
