<svg xmlns="http://www.w3.org/2000/svg" width="270.652" height="1404.948" viewBox="0 0 270.652 1404.948">
  <path id="vertical-txt_ourhistory" d="M120.132-194.256c-64.468,0-104.8,38.056-104.8,99.4,0,61.628,40.044,99.684,105.08,99.684,64.468,0,105.364-38.056,105.364-97.98C225.78-156.484,186.3-194.256,120.132-194.256Zm.284,9.088c25.844,0,48.564,11.076,61.628,30.388,10.792,15.62,15.62,34.932,15.62,61.344,0,55.1-29.252,89.176-77.248,89.176-25.844,0-48.28-11.076-61.344-30.388C48.564-49.7,43.452-69.58,43.452-94.856c0-24.992,5.112-45.156,15.62-59.924C72.7-174.376,94.572-185.168,120.416-185.168ZM261.848-65.036c-.284,9.372-.568,17.892-.568,21.868,0,16.188,3.976,26.98,13.064,35.5,8.236,8.236,19.6,12.5,32.376,12.5,20.448,0,37.2-10.508,46.008-28.684-.284,16.472-.284,18.744-.852,24.992A60.281,60.281,0,0,1,362.668,0,76.98,76.98,0,0,1,374.6,1.136c-1.42-11.644-1.988-28.116-1.988-62.2,0-25.56.852-54.528,1.988-70.432a69.5,69.5,0,0,1-12.212,1.136,62.3,62.3,0,0,1-11.928-1.136c.568,7.384.852,9.656,1.136,24.424l.284,20.448c-.284,44.02-.284,44.02-3.124,52.824C343.64-19.028,331.428-9.94,316.092-9.94c-12.212,0-22.436-5.964-28.116-16.472-3.976-7.1-5.112-15.052-5.112-36.636,0-21.3,1.136-53.392,2.272-68.444a74.877,74.877,0,0,1-12.5,1.136A61.615,61.615,0,0,1,261-131.492c.852,9.94,1.136,15.62,1.136,31.808Zm218.68-44.588c-.284-2.556-.568-4.544-.568-5.68a71.326,71.326,0,0,1,2.272-16.188,17.9,17.9,0,0,0-8.52-1.988c-14.484,0-28.4,11.644-38.056,31.24,0-7.668,0-8.52.284-14.768l.284-11.36v-3.124a65.583,65.583,0,0,1-10.792,1.136c-3.124,0-5.4-.284-11.928-1.136,2.272,38.624,2.272,42.316,2.272,63.332,0,33.228-.852,58.5-2.272,69.3A86.4,86.4,0,0,1,425.716,0a76.979,76.979,0,0,1,11.928,1.136c-.852-9.656-1.7-31.24-1.7-46.576,0-29.82.568-40.328,2.556-46.576,3.976-12.5,14.768-21.016,26.412-21.016,5.112,0,9.088,1.42,13.632,4.544ZM607.192-95.992c7.952-.284,9.088-.284,30.1-.568H665.98c46.008.284,46.576.284,54.528.284l4.26.284a116.461,116.461,0,0,1,.568,13.632c0,32.66-1.136,67.024-3.124,83.5A116.957,116.957,0,0,1,736.7,0a93.033,93.033,0,0,1,13.632,1.136c-1.988-23.856-2.556-44.3-2.556-98.264,0-48.848.568-73.272,2.556-93.436a75.688,75.688,0,0,1-13.632,1.136,89.829,89.829,0,0,1-14.484-1.136c1.42,13.064,2.84,50.836,2.84,74.408,0,.852,0,4.26-.284,7.384a35.917,35.917,0,0,1-4.544.284l-25.56.284-28.684.284-28.4-.284-25.844-.284s-1.7,0-4.544-.284v-7.384c0-23.572,1.42-61.628,2.556-74.408a84.191,84.191,0,0,1-14.2,1.136,75.687,75.687,0,0,1-13.632-1.136c1.988,20.732,2.84,44.02,2.84,93.436,0,54.528-.568,74.408-2.84,98.264A93.032,93.032,0,0,1,595.548,0a113.346,113.346,0,0,1,14.2,1.136c-1.42-15.62-2.556-51.688-2.556-82.076Zm186.02-35.5c1.42,16.188,2.272,39.476,2.272,71.284,0,29.252-.568,45.44-2.272,61.344A83.289,83.289,0,0,1,805.992,0a59.553,59.553,0,0,1,11.644,1.136c-.852-12.5-1.7-45.724-1.7-63.9,0-23.572.852-57.652,1.7-68.728a53.138,53.138,0,0,1-11.36,1.136A73.9,73.9,0,0,1,793.212-131.492ZM806.56-193.12a14.128,14.128,0,0,0-14.484,14.2,14.062,14.062,0,0,0,14.2,14.2,14.062,14.062,0,0,0,14.2-14.2C820.476-186.588,813.944-193.12,806.56-193.12ZM853.988-24.992c-1.988,8.236-3.976,15.62-5.964,20.448,9.372,5.964,22.436,9.372,35.5,9.372,29.252,0,51.12-18.744,51.12-44.02,0-18.46-9.088-28.116-33.228-34.648-15.336-4.26-19.6-5.964-24.424-9.372-5.4-3.692-8.8-10.508-8.8-17.892,0-13.632,10.508-23.288,25.276-23.288s24.708,7.1,27.832,19.6h2.84c2.272-8.8,2.272-9.372,7.384-21.868-13.064-5.112-21.584-6.816-33.512-6.816-29.82,0-48.564,15.336-48.564,39.76,0,10.792,4.544,21.3,11.928,26.98,5.68,4.544,11.36,7.1,27.832,11.928,19.88,5.68,26.7,12.212,26.7,24.992,0,13.916-11.644,24.708-26.98,24.708-13.916,0-23.856-6.248-32.66-19.88ZM994.852-168.7c-7.384,4.26-15.9,7.952-23.572,9.656.852,9.656,1.7,22.72,1.7,26.98v3.692H954.24a21.213,21.213,0,0,1,.852,5.68,19.3,19.3,0,0,1-.852,5.4c3.124-.284,7.952-.568,18.176-.568a91.825,91.825,0,0,1,.284,9.94c0,16.188-.568,48.564-1.136,59.356C971.28-40.9,971-33.228,971-30.672c0,21.016,12.5,34.364,32.376,34.364,7.384,0,12.78-1.136,24.14-4.544V-7.384a42.143,42.143,0,0,1-12.5,1.988c-8.8,0-15.336-3.976-18.744-10.792-3.124-6.532-3.692-11.928-3.692-29.82V-71c.568-38.056.568-38.34,1.136-46.86H1024.1a16.5,16.5,0,0,1-1.136-5.4,22.606,22.606,0,0,1,1.136-5.964l-30.672.568c.284-8.52.284-13.632.852-19.028l1.136-16.472.284-3.408Zm113.316,35.216c-43.168,0-69.864,26.412-69.864,69.3,0,42.032,26.7,69.012,67.876,69.012,40.9,0,68.16-27.264,68.16-67.592C1174.34-107.352,1149.916-133.48,1108.168-133.48Zm-1.7,8.8c28.116,0,43.168,21.584,43.168,61.344,0,36.352-16.756,59.356-43.168,59.356-26.98,0-43.452-22.72-43.452-60.492C1063.012-101.956,1079.2-124.676,1106.464-124.676Zm166.992,15.052c-.284-2.556-.568-4.544-.568-5.68a71.323,71.323,0,0,1,2.272-16.188,17.9,17.9,0,0,0-8.52-1.988c-14.484,0-28.4,11.644-38.056,31.24,0-7.668,0-8.52.284-14.768l.284-11.36v-3.124a65.584,65.584,0,0,1-10.792,1.136c-3.124,0-5.4-.284-11.928-1.136,2.272,38.624,2.272,42.316,2.272,63.332,0,33.228-.852,58.5-2.272,69.3A86.4,86.4,0,0,1,1218.644,0a76.979,76.979,0,0,1,11.928,1.136c-.852-9.656-1.7-31.24-1.7-46.576,0-29.82.568-40.328,2.556-46.576,3.976-12.5,14.768-21.016,26.412-21.016,5.112,0,9.088,1.42,13.632,4.544Zm86.336,83.78c-13.916-30.388-35.5-85.2-41.464-105.648a57.6,57.6,0,0,1-11.644,1.136,110.075,110.075,0,0,1-14.768-1.136c4.544,9.088,6.816,14.484,15.9,36.068q5.538,13.632,13.632,32.376c21.584,51.4,22.152,52.54,26.128,63.9-3.976,10.508-13.064,28.116-26.128,50.268-7.1,12.212-12.212,20.448-14.484,24.708a46.483,46.483,0,0,1,10.792-1.136,30.084,30.084,0,0,1,11.076,1.7c7.668-22.436,26.7-66.74,57.084-134.332,7.668-16.756,14.2-30.388,22.436-47.712,6.532-14.768,8.236-18.176,11.928-25.844a52.572,52.572,0,0,1-9.94,1.136,32.04,32.04,0,0,1-8.52-1.136A1121.5,1121.5,0,0,1,1359.792-25.844Z" transform="translate(76.396 -15.336) rotate(90)" fill="#ddb763" opacity="0.607"/>
</svg>
