<svg xmlns="http://www.w3.org/2000/svg" width="641.896" height="256.776" viewBox="0 0 641.896 256.776">
  <path id="fv_maintext-all_sp" d="M-180.652-40.432h19.76c20.064,0,33.44-13.528,33.44-33.44,0-20.368-13.224-32.528-33.44-32.528h-52.44v.76c6.688,2.888,9.88,8.664,9.88,20.824v63.232c0,12.16-3.192,17.936-9.88,20.824V0h42.56V-.76c-6.688-2.888-9.88-8.664-9.88-20.824Zm0-62.928h.3c17.024-1.52,26.752,13.984,29.488,27.968,5.016,24.472-6.232,32.376-29.792,31.92Zm57,103.36h42.56V-.76c-6.688-2.888-9.88-8.664-9.88-20.824V-84.816c0-12.16,3.192-17.936,9.88-20.824v-.76h-42.56v.76c6.688,2.888,9.88,8.664,9.88,20.824v63.232c0,12.16-3.192,17.936-9.88,20.824ZM-25.46-10.792c-10.488,3.344-24.168-18.7-29.488-36.024-4.256-13.832-6.688-25.992-6.232-35.72s3.5-16.872,10.184-19.912a13.021,13.021,0,0,1,6.232-1.52c15.352,0,27.816,25.08,30.7,42.864h.76l11.7-40.584h-1.52A4.822,4.822,0,0,1-7.22-99.1a11.373,11.373,0,0,1-4.56-1.216l-6.688-2.736a46.121,46.121,0,0,0-20.824-4.864c-26.6,0-38,29.488-38,54.72a73.254,73.254,0,0,0,1.216,12.312A73.461,73.461,0,0,0-67.26-16.264a40.233,40.233,0,0,0,7.448,9.728C-54.34-.912-47.348,2.28-39.292,1.52-31.54.76-28.2-3.5-24.092-7.6a5.232,5.232,0,0,1,2.736-1.216c1.824,0,5.016,3.192,8.208,4.864C-9.044-1.52-2.508.608,8.588,0V-.76C1.9-3.648-1.292-9.424-1.292-21.584V-26.6c0-12.16,3.192-17.936,9.88-20.824v-.76h-42.56v.76c6.688,2.888,9.88,8.664,9.88,20.824v13.68A2.152,2.152,0,0,1-25.46-10.792Zm86.792-92.872c0,6.84,4.56,11.4,11.4,11.4s11.4-4.56,11.4-11.4-4.56-11.4-11.4-11.4S61.332-110.5,61.332-103.664ZM51.148-76v.76c6.688,2.888,9.88,8.664,9.88,20.824v32.832c0,12.16-3.192,17.936-9.88,20.824V0h42.56V-.76c-6.688-2.888-9.88-8.664-9.88-20.824V-79.04C79.724-76.76,68.78-76,61.028-76Zm82.384-.456c18.088.76,24.928,14.44,19.608,31.464h.76l15.96-16.264c-7.448-9.272-20.976-17.48-38.152-17.48-13.984,0-29.336,6.232-30.856,20.216-1.216,11.7,6.536,19,17.176,23.712,7.3,3.344,23.256,8.36,29.488,12.464,9.424,6.08,1.064,21.736-13.528,21.736a25.873,25.873,0,0,1-9.576-1.824c-10.64-3.952-13.832-20.52-10.184-31.92h-.76L97.508-18.088c8.208,9.576,18.7,19.456,36.632,20.216C153.292,3.04,176.548-7.6,172.6-26.144c-1.824-8.816-16.872-17.024-25.232-20.064-8.512-2.888-23.408-8.512-25.536-15.048C119.092-69.616,125.324-76.912,133.532-76.456ZM-311.448,140h.3c12.768,0,21.28-7.9,22.344-20.064,3.344,12.464,10.488,22.5,23.1,21.736,17.936-.76,30.248-21.28,30.248-41.04,0-25.384-12.616-39.52-31.008-39.52-10.944,0-18.392,5.32-22.192,12.616V26c-4.1,2.28-15.048,3.04-22.8,3.04h-9.88v.76c6.688,2.888,9.88,8.664,9.88,20.824Zm22.8-59.584c3.192-8.208,11.1-15.96,18.7-15.96a10.4,10.4,0,0,1,4.408.912c8.36,3.8,11.1,18.7,7.3,35.264a128.291,128.291,0,0,1-5.776,18.392c-2.584,6.232-6.688,13.376-11.4,13.376a7.5,7.5,0,0,1-4.712-2.28c-5.776-5.776-7.752-16.72-8.512-26.144ZM-201.7,61.568c-17.48,2.584-31.464,19-31.464,40.432,0,22.192,15.808,39.52,37.848,39.52,15.808,0,29.336-8.968,35.112-21.736h-3.344c-5.32,9.576-11.248,14.288-17.936,14.288-14.592,0-28.576-24.624-32.832-38.456,10.792,9.272,21.736,13.224,31.312,13.224,17.632,0,28.272-13.072,19.456-29.792C-169.48,67.192-185.136,59.288-201.7,61.568Zm-13.984,28.12c-1.976-11.552,1.976-20.672,8.512-23.56a9.18,9.18,0,0,1,4.56-1.064c7.752,0,14.9,8.208,18.392,21.584,2.888,11.1-1.672,15.656-8.36,15.656C-200.184,102.3-210.216,96.68-215.688,89.688Zm58.216,29.792c-2.432,13.072,6.384,22.192,19.912,22.192,13.984,0,27.208-9.424,33.44-21.888C-103.056,132.1-94.544,140-81.776,140h10.184v-.76c-6.688-2.888-9.88-8.664-9.88-20.824V93.488c0-3.648-1.824-10.944-5.624-17.024-3.952-6.08-16.872-13.984-27.056-15.048-15.5-1.52-29.032,6.384-38.152,17.48l15.96,16.264h.76c-4.712-15.808,1.064-29.944,11.7-30.4,12.768-.76,17.632,12.464,18.848,26.3-6.992,1.064-22.648,5.168-30.4,8.36C-143.336,102.608-155.952,111.88-157.472,119.48Zm53.2-7.9c-1.672,8.664-13.984,24.016-23.256,24.016-6.536,0-8.208-8.664-5.928-16.568,3.04-11.4,14.288-20.976,28.728-25.08.456,5.472.456,10.64.456,14.744Zm29.488-13.224c-.456,21.888,9.12,43.016,30.856,43.016,12.16,0,19.912-10.944,22.5-21.736C-20.368,131.944-11.7,140,1.064,140H11.1v-.76c-6.688-2.888-9.88-8.664-9.88-20.824V85.584c0-12.16,3.192-17.936,9.88-20.824V64h-42.56v.76c6.688,2.888,9.88,8.664,9.88,20.824v21.432c-1.064,9.576-7.9,30.856-19.456,30.856a13.912,13.912,0,0,1-3.8-.76c-8.36-3.04-7.144-22.8-7.144-38.76V85.584c0-12.16,3.192-17.936,9.88-20.824V64h-42.56v.76c6.688,2.888,9.88,8.664,9.88,20.824ZM12.616,41.5v.76c6.688,2.888,9.88,8.664,9.88,20.824V64H16.264v3.04H22.5v41.04c0,15.5,6.536,32.072,20.824,32.832,9.272.456,18.848-4.408,26.144-17.176L50.008,111.728v.76c1.52,3.5,3.5,10.488,3.5,15.5-.3,6.384-3.648,10.488-11.248,9.88-11.7-.912-11.552-21.28,3.04-31.768V67.04H59.128V64H45.3V38.464c-2.888,1.672-14.44,3.04-19.912,3.04Zm70.072-5.168c0,6.84,4.56,11.4,11.4,11.4s11.4-4.56,11.4-11.4-4.56-11.4-11.4-11.4S82.688,29.5,82.688,36.336ZM72.5,64v.76c6.688,2.888,9.88,8.664,9.88,20.824v32.832c0,12.16-3.192,17.936-9.88,20.824V140h42.56v-.76c-6.688-2.888-9.88-8.664-9.88-20.824V60.96c-4.1,2.28-15.048,3.04-22.8,3.04Zm88.312-8.056,19.456-12.008c-8.056-13.984-18.24-18.544-27.36-17.784-16.72,1.216-24.928,16.72-24.928,33.44V64h-7.9v3.04h7.9v51.376c0,12.16-3.192,17.936-9.88,20.824V140h42.56v-.76c-6.688-2.888-9.88-8.664-9.88-20.824V67.04H167.5V64h-16.72V61.568C133.3,49.256,138.472,27.216,153.672,29.5c10.032,1.216,11.1,16.872,7.144,25.688Zm28.272,42.408c-.456,21.888,9.12,43.016,30.856,43.016,12.16,0,19.912-10.944,22.5-21.736C243.5,131.944,252.168,140,264.936,140h10.032v-.76c-6.688-2.888-9.88-8.664-9.88-20.824V85.584c0-12.16,3.192-17.936,9.88-20.824V64h-42.56v.76c6.688,2.888,9.88,8.664,9.88,20.824v21.432c-1.064,9.576-7.9,30.856-19.456,30.856a13.912,13.912,0,0,1-3.8-.76c-8.36-3.04-7.144-22.8-7.144-38.76V85.584c0-12.16,3.192-17.936,9.88-20.824V64h-42.56v.76c6.688,2.888,9.88,8.664,9.88,20.824Zm88.92-69.312v.76c6.688,2.888,9.88,8.664,9.88,20.824v67.792c0,12.16-3.192,17.936-9.88,20.824V140h42.56v-.76c-6.688-2.888-9.88-8.664-9.88-20.824V26c-4.1,2.28-15.048,3.04-22.8,3.04Z" transform="translate(321.328 115.064)" fill="#ddb763"/>
</svg>
