<svg xmlns="http://www.w3.org/2000/svg" width="734" height="56" viewBox="0 0 734 56">
  <g id="fv_subtext-all" transform="translate(-2292 -325)">
    <rect id="長方形_28730" data-name="長方形 28730" width="59" height="56" transform="translate(2292 325)" fill="#3c3129" opacity="0.943"/>
    <rect id="長方形_28731" data-name="長方形 28731" width="59" height="56" transform="translate(2569 325)" fill="#3c3129" opacity="0.943"/>
    <rect id="長方形_28732" data-name="長方形 28732" width="28" height="43" transform="translate(2352 335)" fill="#3c3129" opacity="0.943"/>
    <rect id="長方形_28733" data-name="長方形 28733" width="29" height="39" transform="translate(2629 338)" fill="#3c3129" opacity="0.943"/>
    <rect id="長方形_28734" data-name="長方形 28734" width="37" height="43" transform="translate(2664 335)" fill="#3c3129" opacity="0.943"/>
    <rect id="長方形_28735" data-name="長方形 28735" width="37" height="43" transform="translate(2704 335)" fill="#3c3129" opacity="0.943"/>
    <rect id="長方形_28736" data-name="長方形 28736" width="37" height="37" transform="translate(2743 340)" fill="#3c3129" opacity="0.943"/>
    <rect id="長方形_28737" data-name="長方形 28737" width="35" height="43" transform="translate(2783 335)" fill="#3c3129" opacity="0.943"/>
    <rect id="長方形_28738" data-name="長方形 28738" width="47" height="53" transform="translate(2820 325)" fill="#3c3129" opacity="0.943"/>
    <rect id="長方形_28739" data-name="長方形 28739" width="49" height="52" transform="translate(2869 327)" fill="#3c3129" opacity="0.943"/>
    <rect id="長方形_28740" data-name="長方形 28740" width="47" height="51" transform="translate(2922 327)" fill="#3c3129" opacity="0.943"/>
    <rect id="長方形_28741" data-name="長方形 28741" width="37" height="43" transform="translate(2971 335)" fill="#3c3129" opacity="0.943"/>
    <rect id="長方形_28742" data-name="長方形 28742" width="16" height="19" transform="translate(3010 359)" fill="#3c3129" opacity="0.943"/>
    <rect id="長方形_28743" data-name="長方形 28743" width="40" height="43" transform="translate(2387 335)" fill="#3c3129" opacity="0.943"/>
    <rect id="長方形_28744" data-name="長方形 28744" width="46" height="52" transform="translate(2429 326)" fill="#3c3129" opacity="0.943"/>
    <rect id="長方形_28745" data-name="長方形 28745" width="47" height="52" transform="translate(2478 326)" fill="#3c3129" opacity="0.943"/>
    <rect id="長方形_28746" data-name="長方形 28746" width="19" height="19" transform="translate(2525 359)" fill="#3c3129" opacity="0.943"/>
    <path id="パス_23919" data-name="パス 23919" d="M-337.6-23.9a2.822,2.822,0,0,1,2.35.9,3.057,3.057,0,0,1,1,1.2,1.33,1.33,0,0,0,1.2.8c.45,0,.8-.45,1.1-.6a3.33,3.33,0,0,0,1.45-.95c.5-.35.9-.6.85-1.45a3.811,3.811,0,0,0-1-1.9,6.51,6.51,0,0,1-1.1-1.45c-.5-.3-.85-1.05-1.35-1.5a7.992,7.992,0,0,1-1.3-1.3c-.55-.6-1.15-.75-1.35-1.05a2.881,2.881,0,0,0-2.05-1.2,5.1,5.1,0,0,0-1.05.45c-.3.15-.4.35-.85.7a1.7,1.7,0,0,0-.75,1.25,1.222,1.222,0,0,0,.35,1c.55.5.1.95-.5,1a16.152,16.152,0,0,1-3.3.3c-1.05,0-2.2.35-3.25.3-1.3.1-1.65-1.05-1.1-1.95a19.079,19.079,0,0,0,1.1-1.85,1.907,1.907,0,0,1,.8-.9c.8-.15,1.1-.5,1.85-.55a8.438,8.438,0,0,0,2.25,0c.7-.15,1.75.2,2.2,0a23.388,23.388,0,0,0,3.25,0,15.162,15.162,0,0,0,3.25.15,19.114,19.114,0,0,0,3.8-.1c.65,0,1.25-.6,1.35-1.7a8.024,8.024,0,0,0,0-1.55,1.754,1.754,0,0,0-1.55-1.55,32.4,32.4,0,0,0-3.8.05c-.9.1-1.85-.15-2.5,0a20.776,20.776,0,0,0-2.5,0,23.426,23.426,0,0,0-2.65,0c-.95-.05-2-.45-2-1,0-.25-.05-.5-.05-.95-.1-.4.3-1,.65-1.55.3-.1.35-.25.4-.6s-.3-.5-.95-.6c-.6-.05-.95-.2-1.4-.2a1.876,1.876,0,0,0-.5.05c-.8,0-1.15-.1-2-.1a1.527,1.527,0,0,0-1.35,1.25c-.2.7.1,1.25,0,1.95.15.5-.1.6,0,.9,0,.5-1.2,1.05-2.1.85-.85.25-1.4-.2-2.3,0a6.061,6.061,0,0,1-2.15,0c-.7-.1-1.65.2-2.15,0-1.25-.05-2.35.1-3.75-.05a1.269,1.269,0,0,0-1.2,1.55,3.9,3.9,0,0,1,0,1.55c.05,1.05.15,1.7,1.4,1.7,1.4-.05,2.75,0,3.75-.05.5.1,1.35-.05,2.1,0a2.914,2.914,0,0,1,1.75.55c.45.5.6,1.15.2,1.45-.15.55-.35.3-.35.8-.1.4-.65.7-.8,1.6a4.04,4.04,0,0,1-1.15,1.05,2.459,2.459,0,0,1-2.25.5c-.75-.2-1.5.3-2.5.15-.65-.1-.95.4-1.15.75-.35.6.15.8.05,1.2a7.98,7.98,0,0,1,.65,1.85A2.2,2.2,0,0,0-360-21.5a.751.751,0,0,0,1.1.85c.6-.25,1.05-.8,1.45-.85,1.15-.2,1.85-.25,2.3-.35,1-.2,1.55-.15,2.55-.3a14.686,14.686,0,0,1,2.55-.25,17.441,17.441,0,0,0,2.55-.25c.85-.2,1.8-.15,3-.35,1.15.05,1.55-.3,2.8-.25.45-.2,1.25-.1,2.15-.35A8.431,8.431,0,0,0-337.6-23.9Zm-32.35-11.05c.2.35.4,1,.9,1.15a1.288,1.288,0,0,0,.9,1.1c.25.55.4.45,1.1.55A1.929,1.929,0,0,0-366-32.6c.55-.1.85-.8,1.45-1.1a1.2,1.2,0,0,0,.75-1.3,6.193,6.193,0,0,0-.95-1.75c-.35-.85-1.2-1.25-1.4-1.55-.5-.35-.7-.85-1.45-1.5a4.114,4.114,0,0,0-1.8-1c-.7.15-.8.5-1.15.5-.25.5-1,.4-1.1.9a2.042,2.042,0,0,0-.7,1.2c-.25.4.3.9,1,1.7C-370.7-35.9-370.4-35.15-369.95-34.95Zm-3.9,8.9a4.215,4.215,0,0,1,1.35,1.45,6.755,6.755,0,0,1,1.3,1.5,1.707,1.707,0,0,0,1,1.3c.6.35.65.9,1.4.8.4-.2.85-.15,1.05-.45.3-.4.9-.5,1.4-1.15.3-.35.8-.75.75-1.3-.1-.75-.65-1.1-1.1-1.95-.65-.55-1.35-1.05-1.55-1.6-.65-.45-.7-.95-1.5-1.45-.7-.3-1.35-1.2-1.75-1a4.111,4.111,0,0,0-1.15.55c-.55.4-.7.65-1.1.95a1.477,1.477,0,0,0-.65,1.2A1.068,1.068,0,0,0-373.85-26.05Zm46.5,21v-.1a1.577,1.577,0,0,0-1.35-1.4c-.75-.1-1.35-.45-2.2-.5-.5.15-.8.2-1,.7-.45.7-.1,2.1-.2,2.7-.25,1.5-.5,1.95-1.55,1.95-.8,0-1.4-.35-1.4-1.55l-.05-3.2v-3.8a19.764,19.764,0,0,0,0-3.85,23,23,0,0,0-.05-3.7,2.273,2.273,0,0,1,.55-1.35c.4-.35.75-.65.5-1.1a1.241,1.241,0,0,0-.95-.65,28.961,28.961,0,0,0-3.6-.2c-.55-.1-1.7.55-1.5,1.25a4.245,4.245,0,0,1,.05,1.95,7.107,7.107,0,0,1,.1,2,13.183,13.183,0,0,0,0,2c-.05.7.05,1.5,0,2a6.7,6.7,0,0,0,0,2,9.357,9.357,0,0,1,0,2.05c-.2.55.1,1.2,0,2a5.262,5.262,0,0,0,0,2c.15.75-.1,1.2,0,2.05a6.217,6.217,0,0,0,.25,2.3c.35.45.2,1.05.8,1.5a1.8,1.8,0,0,0,1.5.8c.4,0,1.25.2,2.3.25.55.2,1.05-.1,1.9,0,.75-.2,1.45.1,2-.15.6-.2,1.25-.15,1.75-.65A7.568,7.568,0,0,0-328.2.8a20.692,20.692,0,0,0,.7-2.8C-327.4-3.15-327.4-4.35-327.35-5.05Zm-24.3-15.65a3.7,3.7,0,0,0-1.9-.15c-.75-.1-1.15-.15-1.8-.25a1.213,1.213,0,0,0-1.4,1.3c-.25,1.2.3,2.05.15,3.1a7.592,7.592,0,0,1-.05,3,19.816,19.816,0,0,0-.25,3.05,6.846,6.846,0,0,1-.7,2.85c-.05.4-.25,1.15-.6,1.35l-.8,1.3a3.824,3.824,0,0,1-1.2,1.3,5.251,5.251,0,0,1-1.35,1.15c-.45.25-.95.5-1.55.9-.6.25-1.2.55-1.7.75-.9.3-1.55.7-1.35,1.35-.15.8.55,1.5.75,1.85.45.65.55,1.7,1.6,1.7h.15c.05.05.1.05.2.05a6.92,6.92,0,0,0,1.4-.5,9.35,9.35,0,0,0,2-1,5.617,5.617,0,0,0,1.85-1.2c.6-.6,1.15-.6,1.25-.95A5.2,5.2,0,0,1-355.3-1.4c.4-.5.8-1.1,1.3-1.75a6.457,6.457,0,0,0,.9-1.9c.15-.55.45-1.4.65-2a10.992,10.992,0,0,0,.45-2.1,7.9,7.9,0,0,1,.25-2.15,7.645,7.645,0,0,1,.1-2.2,5.656,5.656,0,0,1,0-2.25c-.15-.35.1-.9,0-1.35-.2-1.05.05-1.4.4-1.7.3-.25.75-.8.65-1.2C-350.6-20.4-350.9-20.5-351.65-20.7Zm8.2,0a13.693,13.693,0,0,0-3.65-.2,1.272,1.272,0,0,0-1.45,1.3,23.038,23.038,0,0,1,.1,2.65c0,.85.05,1.75.05,2.55a12.1,12.1,0,0,1,0,2.35c.1,1.3-.2,1.65,0,2.35a6.185,6.185,0,0,0,0,2.35,3.994,3.994,0,0,0,0,2.3c-.2,1.2.15,2.1,0,3a20.7,20.7,0,0,0,0,3.05,1.289,1.289,0,0,0,1.65,1.4c.65-.05.95.1,1.6,0,1.05,0,1.75-.15,1.65-1.35a9.185,9.185,0,0,1,0-3.1,7.518,7.518,0,0,1,0-3c-.2-.6.15-1.3,0-2.3a9.127,9.127,0,0,1,0-2.35c-.1-.9.15-1.75,0-2.35a18.432,18.432,0,0,0,0-2.35c.1-.75-.15-1.45,0-2.4a2.538,2.538,0,0,1,.4-2.25c.25-.3.65-.4.55-1.05C-342.65-20.7-343.2-20.45-343.45-20.7Zm-20.6,9.85c.25-.7.6-1.45.9-2.2.5-1.5.95-2.3.85-2.95-.2-.85-.5-.95-.95-1.4-.35-.15-.4-.55-1.05-.55-.45,0-.6-.45-1-.5-.5-.05-.8.05-1.1.7a10.232,10.232,0,0,0-1.25,2.7,13.665,13.665,0,0,1-1.15,2.7c-.3.7-.9,1.8-1.1,2.4a11.941,11.941,0,0,0-1.2,2.4,21.078,21.078,0,0,1-1.25,2.4,14.488,14.488,0,0,1-1.3,2.3c-.55.75-1.3,1.6-1.3,2.35v.4a1.178,1.178,0,0,0,.7,1.1A9.921,9.921,0,0,0-373,2c.2.6.5.65,1,1.1.35.3.65.55,1.05.5a.835.835,0,0,0,.65-1,1.765,1.765,0,0,1,.35-1.25c.15-.45.85-1.2,1.1-1.95.25-.15.3-.8.6-1.15a4.574,4.574,0,0,0,.9-1.85c.4-.9.5-1.2,1.05-2.25a8.257,8.257,0,0,0,1.15-2.5C-365-9.3-364.35-9.8-364.05-10.85Zm68.77-14.27c-.2-.48-.52-.96-.76-1.44a1.263,1.263,0,0,0-1.08-.84c-.56.04-.84.48-1.48.56s-.48.4-1,.32a14.824,14.824,0,0,1-1.84.6,2.73,2.73,0,0,1-2,.12c-.64-.12-.88-.72-1.12-1.12a5.263,5.263,0,0,1-.56-1.48c-.08-.64-.52-1.12-.56-1.72s-.24-.72-.16-1.16c.04-.32.48-.52.4-1a.742.742,0,0,0-.64-.48h-.08a3.028,3.028,0,0,0-.6-.04,11.4,11.4,0,0,0-1.16.12,6.713,6.713,0,0,0-1.8.12.984.984,0,0,0-.96,1.24c.08.64.6,1.36.68,1.84.12.6.56.92.68,1.68a17.892,17.892,0,0,0,.72,2.08c.28.68-.32,1.68-1,1.64a10.987,10.987,0,0,1-2.6.36,12.434,12.434,0,0,0-2.2.28,4.814,4.814,0,0,1-1.56.12,8.976,8.976,0,0,1-2.2.16l-.68.12c-.44,0-.88.2-.88,1.2v.12a5.2,5.2,0,0,0,.32,1.64c.24.6.56,1.32,1.08,1.28a2.233,2.233,0,0,0,1.24-.16c.84,0,1.52-.28,2.28-.28a15.161,15.161,0,0,0,2.64-.36c.32.04.84-.28,1.32-.2a13.434,13.434,0,0,0,2.16-.32c1.2-.16,2.56.08,2.88.72.16.44.6.8.76,1.44.08.36.44.6.56,1.08.32.64.6.92.4,1.32-.24.4-.52.36-1,.4-.64,0-1.32-.2-2-.16l-.8.04a4.619,4.619,0,0,1-1.8.08c-.6.24-1.36.04-1.8.28-.72.36-1,.16-1.72.56-.72.08-.92.6-1.56.76-.52.24-.76.8-1.24,1.04-.48.6-.92.68-1.04,1.36a5.138,5.138,0,0,0-.68,1.6A5.294,5.294,0,0,0-318-7.64c.08.96.32,1.84.44,2.68.24.44.24.92.56,1.16a2.877,2.877,0,0,0,.72,1.04c.32.52.52.52.92.92.2.36.68.52,1,.76.28.24.72.68,1.16.68a2.3,2.3,0,0,0,1.28.52l2.08.56c.68,0,1.4.24,2.12.28a15.109,15.109,0,0,1,2.16.12c.52.04.96.08,1.4.08a4.841,4.841,0,0,0,.76-.04h1.96c.36,0,.76.04,1.16.04.36,0,.68-.04.76-.2a2.062,2.062,0,0,0,.84-1.32c-.08-.72.72-1.88.6-2.28,0-.52-.24-.64-.72-.72-.32-.04-1.12.16-1.44.16a7.448,7.448,0,0,0-1.6-.04,7.509,7.509,0,0,1-1.6.08,5.578,5.578,0,0,1-1.48-.08,4.458,4.458,0,0,1-1.68-.08c-.52.12-1.04-.24-1.68-.16-.4.12-.92-.2-1.64-.36-.64-.32-1-.28-1.36-.6a2.822,2.822,0,0,1-1.2-.76,2.826,2.826,0,0,1-.72-1.24,3.809,3.809,0,0,1-.28-1.52,2.471,2.471,0,0,1,.6-1.76,8.385,8.385,0,0,1,1.36-1.12,7.606,7.606,0,0,1,2-.52,8.278,8.278,0,0,1,1.96-.16c.72.12,1.52-.04,2.08.12a18.693,18.693,0,0,0,1.96.4c.6.36,1.48.32,1.92.64a14.038,14.038,0,0,1,1.92.88,1.186,1.186,0,0,0,.84.28.966.966,0,0,0,1.04-.52A8.2,8.2,0,0,0-296.44-11a1.066,1.066,0,0,0,.52-1,1.771,1.771,0,0,0-.8-1.36c-.4-.24-.48-.84-.84-1-.4-.16-.44-.52-1.08-1.36a3.143,3.143,0,0,1-.72-1.12c-.12-.56-.6-.64-.72-1.16-.2-.52-.64-.76-.72-1.16-.36-.48-.64-.68-.6-1.04-.32-.4-.04-1.44.48-1.52.96-.28,1.36-.36,2.36-.68a5.057,5.057,0,0,0,1.16-.44c.48.04.8-.28,1.28-.44.52-.28.96-.4,1.04-.84a.994.994,0,0,0,.04-.32C-295.04-24.76-295.12-25.04-295.28-25.12Zm47.08,16.4c-.24-.2-.84-1.2-1.52-1.12-.8.12-1.08,1.04-1.36,1.56-.16.56-.64.72-.92,1.28-.32.6-.84.72-1.2,1.2a6.445,6.445,0,0,1-1.4.92,3.918,3.918,0,0,1-1.48.4c-.8,0-1.08-.52-1-1.24A4.92,4.92,0,0,1-257-6.84c.24-.44,0-.68.16-1.44.16-.72.08-1.52.24-2.08l.12-1.52a13.546,13.546,0,0,0,.16-1.48c.08-.48,0-.88.12-1.48.12-.64.04-.96.12-1.48,0-.68.24-1.6.24-2.6a12.942,12.942,0,0,0,.16-2.6,7.106,7.106,0,0,0-.4-1.92,4.133,4.133,0,0,0-1-1.36c-.56-.4-.8-.76-1.56-.84a5.854,5.854,0,0,0-1.92-.32c-.44.04-1.04.12-1.44.16-.6.16-.92.4-1.36.48-.48.32-.72.36-1.24.72a3.672,3.672,0,0,0-1.12.96,7.814,7.814,0,0,1-1.4,1.52c-.64.6-.84,1.08-1.4,1.6-.6.52-.8,1.04-1.32,1.52-.36.36-.44.52-.88.92-.28.24-.72.36-.76.08a2.449,2.449,0,0,1,.24-1.2A6.188,6.188,0,0,1-270-20.8c.2-.2.24-.44.8-.6.28-.08.6,0,.72-.48.12-.24-.12-.64-.28-.76a14.775,14.775,0,0,0-1.04-1.52c-.08-.24-.6-.88-1-.72-.36.16-.68-.12-.64-.56a5.982,5.982,0,0,0,0-1.2,11.6,11.6,0,0,1,.04-1.6c0-.6-.04-1.48.24-1.76.24-.28.48-.36.4-.8a.685.685,0,0,0-.64-.6c-.72-.04-1.12-.08-1.56-.12-.44.12-.88-.12-1.44-.12-.12,0-.2.04-.32.04-.68.16-1.16.36-1.12,1.04.04,1.16.08,1.84.12,2.48a23.309,23.309,0,0,0,.04,2.44c-.08.72.04,1.08,0,1.84a2.887,2.887,0,0,1-1.08,1.88c-.36.12-.64.36-1.04.32-.28-.04-.48.28-1.04.24-.48-.04-.72.36-1.16.28-.28-.04-.48.12-.76.24-.56.08-2.04.12-1.92,1.16.04.44-.04.76.24,1.08a8.46,8.46,0,0,0,.44,1.16.952.952,0,0,0,1.08.96,1.134,1.134,0,0,0,.76-.24c.44-.36.8-.32,1.36-.48a3.794,3.794,0,0,1,1.56-.52,1.546,1.546,0,0,1,1.48.8,1.93,1.93,0,0,0,.08.96,7.683,7.683,0,0,1-.28,1.64,3.74,3.74,0,0,1-.84,1.68,8.375,8.375,0,0,0-.88,1.12,4.312,4.312,0,0,1-1.12,1.36c-.64.44-.68,1.08-1.16,1.36-.36.2-.72,1.08-1.08,1.32-.76.52-.92,1.08-1.36,1.4a2.033,2.033,0,0,0-.92,1.2,1.183,1.183,0,0,0-.08.4,1.07,1.07,0,0,0,.48.92,12.013,12.013,0,0,1,1,1.52,1.252,1.252,0,0,0,1,.64c.48.04.6-.12.68-.32a2.662,2.662,0,0,0,1-1.2c.28-.32.48-.72.88-1.12.28-.28.4-.68.76-.96.4-.28.16-.44.8-.88.28-.28.84-.2.84.48a10.059,10.059,0,0,0,0,1.56c.04.48.08.84-.04,1a7.5,7.5,0,0,0-.04,1.64,3.751,3.751,0,0,0-.04,1.64c0,.52.36,1.08,1.32,1.16a10.14,10.14,0,0,0,1.04.04,3.752,3.752,0,0,0,.88-.08c.68-.08,1.08-.04,1.28-.92a5.169,5.169,0,0,0-.04-1.92c-.2-.64.2-1.04.08-1.4-.2-.6.12-.92-.04-1.56a6.659,6.659,0,0,1,0-1.56,5.3,5.3,0,0,1-.04-1.6c-.16-.36.08-1.2,0-1.56a5.566,5.566,0,0,1,.08-2.12c.08-.56.68-1.16,1.08-1.8.28-.28.4-.72.84-1.04.44-.28.52-.8.92-1.08.32-.2.32-.64.84-1.04.24-.2.4-.84.88-1.04.36-.32.52-.72,1.16-1.4.48-.64.92-.96,1.52-1.68a5.157,5.157,0,0,1,1.64-1.4,2.033,2.033,0,0,1,1.72-.48,1.2,1.2,0,0,1,.72,1.08,13.872,13.872,0,0,1-.08,1.76,11.682,11.682,0,0,0-.2,2,3.627,3.627,0,0,0-.16,1.52c.04.56-.2,1.04-.16,1.48l-.16,1.52a9.8,9.8,0,0,0-.16,1.52c.04.44-.28,1.24-.2,1.6a14.193,14.193,0,0,0-.16,1.64c.08.72-.24,1.08-.12,1.64.08.48-.08.92-.04,1.64-.2.64.24,1.6.32,2a3.375,3.375,0,0,0,.88,1.4c.32.56.76.48,1.48.84a6.954,6.954,0,0,0,2.04.28c.68.12,1.44-.28,2.12-.2.52.08,1.08-.52,1.84-.64.56-.08,1-.72,1.72-.96.44-.2,1-1.04,1.6-1.32a9.194,9.194,0,0,0,1.48-1.72,3.471,3.471,0,0,0,.76-1.12c.04-.32.28-.44.32-.84,0-.08.04-.2.04-.28C-247.04-7.76-247.52-8.12-248.2-8.72Zm18.15-9.93a16.7,16.7,0,0,0,.85-1.95,10.851,10.851,0,0,1,.85-2l.85-1.95c.55-.75.7-1.65,1.5-2.25a3.517,3.517,0,0,1,1.35-.75l.6-.15a3.354,3.354,0,0,1,1.75-.4c.35-.05,1.2-.6,1.75-.55.4.05,1-.5,1.7-.6.75-.25,1.75-.6,1.8-1.5a3.114,3.114,0,0,0-.15-1.05,16.3,16.3,0,0,0-.75-1.6c-.25-.75-.6-1.2-1.3-1.1-.75-.05-.95.4-2.4.8-1,.45-1.3.35-1.75-.1-.65-.65-.2-1.05-.15-1.9.25-.25.45-1.2.85-1.95.35-.7,1.4-.9,1.2-1.55-.05-.35-.15-.3-.65-.65a9.225,9.225,0,0,1-2-.6c-.55,0-1.05-.45-1.45-.45s-.7-.35-1.1-.35h-.15a1.3,1.3,0,0,0-1.15.95,10.573,10.573,0,0,0-.4,1.9,11.917,11.917,0,0,1-.3,1.75,7.832,7.832,0,0,1-.4,1.55,8.965,8.965,0,0,1-.8,1.85c-.1.45-.8.8-1.25,1.05-1.05.55-2.35.25-3.15.4-.7.2-1.45-.2-2.35-.05-.7,0-1.6-.2-2.6-.2a1.331,1.331,0,0,0-1.25,1.55,5.865,5.865,0,0,0,.05,1.95c-.05.8,0,1.55,1,1.65.5.05,1.2.2,2.3.25a12.288,12.288,0,0,0,2.35,0c1.45-.15,2.1.7,1.9,1.65-.2,1.05-.65,1.5-.65,1.85,0,.6-.4.8-.55,1.25-.2.7-.55.75-.7,1.4s-.65.8-.75,1.4c-.1.7-.6,1-.75,1.55a6.52,6.52,0,0,1-.8,1.55,5.731,5.731,0,0,1-.8,1.55,6.636,6.636,0,0,0-.9,1.5c-.45.5-.45,1.1-.9,1.45-.4.75-.65.8-.95,1.5a4.878,4.878,0,0,0-.8,1.05,1.843,1.843,0,0,0-.65,1.35v.1a1.649,1.649,0,0,0,1.35,1.45c.7.25.7.8,1.5.95.25.05.6.5,1.3.3.9-.25,1-.85,1.45-1.4.6-.75,1.2-2.4,1.85-3.05.6-.6.55-1.55,1.05-2,.6-.5.6-.95,1-1.7a15.834,15.834,0,0,1,.85-1.9,9.2,9.2,0,0,0,.85-1.85C-230.65-17.3-230.45-17.8-230.05-18.65Zm28.9-5.7c-.3-.55-.4-.65-1.15-1.1-.55-.4-1-.65-1.3-.9l-1.45-.7a7.57,7.57,0,0,0-1.5-.65,10.459,10.459,0,0,0-1.5-.55c-.95-.15-1.65-.6-2.6-.8a4.535,4.535,0,0,0-2.65-.55,1.392,1.392,0,0,0-1.45,1.3,5.616,5.616,0,0,0-.4,1.5c.05.4-.4.55-.15,1.2a1.2,1.2,0,0,0,1.15.9c.55-.05,1,.35,1.9.4.8.05,1.25.75,1.95.65.35-.05,1.05.65,1.8.75s.75.5,1.5.7c.6.25.75.6,1.5.95a3.286,3.286,0,0,0,1.7.65c.85-.05.95-.4,1.2-.85a17.023,17.023,0,0,0,1-1.7.957.957,0,0,0,.5-.9A.634.634,0,0,0-201.15-24.35ZM-203.4-3.9c-.35-.55-1.3-.6-1.8-1.25-.6-.8-1.35-.55-1.8-1.15-.4-.6-1.3-.6-1.7-1.05a5.137,5.137,0,0,0-1.65-.85c-.45-.35-1.3-.6-1.65-1.05a3.618,3.618,0,0,1-.7-2.05c.15-.7-.3-1.35-.2-1.85.1-.65-.35-1.65-.25-2.3.05-.45-.2-1.1,0-1.55a2.4,2.4,0,0,1,.65-2.05c.3-.3.7-.55.7-.95a1.375,1.375,0,0,0-.55-1.35,4.842,4.842,0,0,0-1.05-1c-.6-.45-.85-.9-1.5-.8-.6-.15-1.2.45-1.6.95a6.046,6.046,0,0,0-1.3,2.3,5.025,5.025,0,0,0-.5,2.7,5.385,5.385,0,0,0,.05,2,11.761,11.761,0,0,1,.2,2.35,1.776,1.776,0,0,1-1.7,1.9,5.789,5.789,0,0,1-1.95-.15,16.664,16.664,0,0,0-2.3.15,10.163,10.163,0,0,0-2.2.6c-.75.1-1.25.9-1.85,1.1-.85.3-1.05.8-1.5,1.6a3.521,3.521,0,0,0-1,1.9c-.15.7-.25,1.6-.35,2.15a3.842,3.842,0,0,0,.25,1.8c.25.5.3.95.6,1.5a1.807,1.807,0,0,0,.9,1.25c.4.25.8.85,1.2.95.4.35,1.1.8,1.4.75a3.779,3.779,0,0,1,1.55.5,10.532,10.532,0,0,0,3.25.4c1-.1,2.15-.15,3-.25a16.25,16.25,0,0,0,2.9-.95A5.061,5.061,0,0,0-213.9.85a4.221,4.221,0,0,0,1.15-2.15c.15-.75,1.1-1.85,1.95-1.35a9.153,9.153,0,0,1,1.25.75,5.148,5.148,0,0,1,1.35,1A4.87,4.87,0,0,1-206.65.35c.45.45.95.9,1.5.85.6-.05,1.15-.6,1.8-1.4.25-.3.85-.7,1.05-1.15.4-.65.4-1.15.05-1.5C-202.7-3.4-203.05-3.35-203.4-3.9Zm-14.2-.4c-.15.7-.3,1.85-1,2.25-.7.7-1.55.7-3,.8a7.415,7.415,0,0,1-2.8-.45,2.165,2.165,0,0,1-1.45-2.05,2.3,2.3,0,0,1,1.25-2.1c.3-.1.5-.45.85-.45.55,0,.95-.25,1.5-.2a6.854,6.854,0,0,1,2.05,0,7.206,7.206,0,0,1,2,.65A1.811,1.811,0,0,1-217.6-4.3Zm44.25-7.65c-.35-.05-.9-.6-1.5-1a2.743,2.743,0,0,0-1.55-.7c-1.15.15-1.15,1.1-1.2,1.5-.2.45-.15,1.55-.55,2.7-.25,1-.7,2.05-1.3,2.05a2.451,2.451,0,0,1-1.9-1.2,10.593,10.593,0,0,1-1.2-2,18.232,18.232,0,0,1-1-2.7,4.716,4.716,0,0,1-.55-2.75,7.661,7.661,0,0,1-.4-2.85c.15-.9-.3-1.8-.1-2.85.1-.45-.15-1.4,0-2.05s-.1-1.9.1-2.7-.15-1.65.15-2.5c.15-.5-.1-1.05.3-1.7.35-.5,1.15-.6,1.2-1.4.1-.75-.5-.95-1.15-1.1l-2.25-.35a7.033,7.033,0,0,0-2-.3,3.075,3.075,0,0,0-.7.05c-1.2.4-.9,1.2-1.05,1.8a23.968,23.968,0,0,0-.1,2.55,5.489,5.489,0,0,0-.1,1.25v.8c0,.15-.05.3-.05.45v.3a7.539,7.539,0,0,1-.05,2.15,6.45,6.45,0,0,1,0,2.4v.35c0,1.1.4,2.2.15,3.2a1.7,1.7,0,0,0-.05.5c0,1,.5,2.2.4,3.15-.1.85.5,1.35.45,2.1-.05,1,.55,1.45.55,2.1,0,.8.6,1.45.75,2.2a4.981,4.981,0,0,0,1,1.9c.35.6.95,1.35,1.45,2.05a5.169,5.169,0,0,0,1.8,1.8c.55.3,1.35.9,2.15,1.25a17.206,17.206,0,0,0,2.5.45,5.858,5.858,0,0,0,1.8-.3,4.194,4.194,0,0,0,1.4-.9,6.217,6.217,0,0,0,1.1-1.35,6.318,6.318,0,0,0,.8-1.65,14.321,14.321,0,0,0,.95-2.7,5.548,5.548,0,0,0,.6-2.75A2,2,0,0,0-173.35-11.95ZM-150.4-15a9.329,9.329,0,0,1-.9-2.25,6.072,6.072,0,0,1-.7-1.5,4.593,4.593,0,0,0-.8-1.35c-.55-.35-.6-1.15-1-1.55-.55-.6-.4-.9-.9-1.35-.6-.55-.45-.9-.95-1.4-.6-.6-.5-.9-.9-1.3a7.526,7.526,0,0,1-.95-1.3,14.961,14.961,0,0,0-1.1-1.25c-.1-.4-1-.8-1.25-1.35a12.351,12.351,0,0,0-1.55-.9c-.4.2-.85.2-1.15.55a5.789,5.789,0,0,1-1.5,1.35c-.25.35-.8.85-.65,1.2-.2.35,0,.55.35.9a8.558,8.558,0,0,0,1.65,1.95c.7.5.7,1.25,1.15,1.45.75.35.55,1.25,1.1,1.55.4.25.45,1,1.05,1.55.25.55.7,1,.95,1.65.25.7.7.9.9,1.65.45.8.5,1.35.75,1.7a18.062,18.062,0,0,0,.7,1.75c.2.45.25,1.5.55,1.85a1.525,1.525,0,0,0,1.2,1.45.933.933,0,0,0,.95-.2c1.05-.4,1.85-1,2.55-1.2s.9-.45,1.1-1.35A4.732,4.732,0,0,0-150.4-15Zm17.85,7.15a2.661,2.661,0,0,0-.95-1.2c-.4-.3-.7-.65-1.15-.95-.3-.25-1.05-.45-1.3-.7a6.784,6.784,0,0,0-2.9-.55h-.65a11.986,11.986,0,0,0-2.45.55c-.7.1-.7.4-1.35.7-.8.35-.5.55-1.15.95-.6.4-.4.7-1.1,1.3-.5.45-.4.95-.7,1.35a6.2,6.2,0,0,0-.5,2.85,6.633,6.633,0,0,0,.45,2.6c.3.65.25,1.25.9,1.75s.55.8,1.05,1.15c.7.5.45.6,1.05.95a5.115,5.115,0,0,0,1.8.75,13.074,13.074,0,0,0,2.55.45A10.551,10.551,0,0,0-136,3.55a3.034,3.034,0,0,0,1.35-.65,7.5,7.5,0,0,1,1.15-.95c.25-.35.6-.65.95-1.2.05-.35.45-.65.75-1.3a6.255,6.255,0,0,0,.6-3V-4a7.765,7.765,0,0,0-.6-2.55C-132.15-6.95-132.15-7.5-132.55-7.85ZM-135.1-3.5a2.916,2.916,0,0,1-.15,1.1c-.3.6-.5,1.3-1,1.6A3.155,3.155,0,0,1-139,.3a2.75,2.75,0,0,1-2.7-1.1,3.491,3.491,0,0,1-1.15-2.7,4.162,4.162,0,0,1,1.1-2.85,3.055,3.055,0,0,1,2.55-1.2,2.82,2.82,0,0,1,1.7.35c.4.2.85.1,1.25.85.25.45.75.6.8,1.15C-135.4-4.55-135-4.5-135.1-3.5Zm84.75-19.05c-.05-.55-.3-1.6-1.35-1.55a6.565,6.565,0,0,1-2.25-.05,10.527,10.527,0,0,1-2.2.05l-2.15.05a10.227,10.227,0,0,0-2.15.05,24.1,24.1,0,0,1-2.7-.05,12.527,12.527,0,0,1-2.75.15,30.712,30.712,0,0,0-3.1-.05c-.75.05-2.05,0-2.05-1.1,0-.3.85-.9,1.85-.75a10.706,10.706,0,0,0,2.2,0c.75-.1,1.25.2,2.1,0,.5-.1,1.35.15,2.05,0a17.471,17.471,0,0,0,2.3.05,6.8,6.8,0,0,1,2.25,0,11.275,11.275,0,0,0,2.25,0c.85.15,1.4-.9,1.35-1.6a8.673,8.673,0,0,1,0-1.2c-.2-.85-.35-1.4-1.35-1.65a11.266,11.266,0,0,1-2.25,0c-.65-.1-1.4.1-2.25,0-1.05.15-1.45-.15-2.3.05a9.317,9.317,0,0,0-2.05,0,14.6,14.6,0,0,1-2.1,0,16.147,16.147,0,0,0-2.2,0c-.9,0-1.8-.15-1.8-1,0-.7,1.4-.6,2.25-.75a25.185,25.185,0,0,1,2.75,0c.8,0,1.65.05,2.6,0,1.1-.1,1.9.05,2.6,0l3.85.05a16.694,16.694,0,0,0,3.9.05,1.448,1.448,0,0,0,1.35-1.7,13.791,13.791,0,0,1,0-1.45c-.1-.9-.45-1.7-1.35-1.55-1.1.15-2-.1-3.35.05a8.1,8.1,0,0,1-2.2,0c-.95.2-1.4-.2-2.2,0a18.386,18.386,0,0,0-2.3-.05c-.8,0-1.15-.55-.65-1.2a6.982,6.982,0,0,1,.8-1.2,3.11,3.11,0,0,1,1-.6c.35-.1.55-.05.55-.45a.969.969,0,0,0-.45-.85c-.5-.35-1.1-.35-1.65-.7-.55-.2-1.2-.55-1.65-.65-.45-.05-.55-.2-.75-.2H-66a1.351,1.351,0,0,0-1.2.85,7.768,7.768,0,0,1-.95,2.25,11.7,11.7,0,0,1-1.3,2.15,2.309,2.309,0,0,1-1.85.7c-1.1-.1-2.45.15-3.3,0a6.592,6.592,0,0,1-1,0c-1.25-.05-2.5-.45-2.35-1.25.2-.5.05-.6-.2-.9a15.908,15.908,0,0,0-1.7-2.3,4.085,4.085,0,0,0-2.2-1.6A1.666,1.666,0,0,0-83.1-42c-.5.1-.45.6-.9.6a4.663,4.663,0,0,0-.75,1.2c.2.3.05,1,.65,1.5a3.651,3.651,0,0,1,.95,1.45c.1.9-.95.85-2.1.85a4.7,4.7,0,0,0-1.45,0c-1.3.15-2.1-.15-3.8-.05-1.55-.05-2.85.15-3.95,0-1.1.05-1.2.6-1.3,1.5a13.569,13.569,0,0,0,0,1.45c-.05.8.55,1.8,1.35,1.7,1.2.25,2.5-.2,3.95-.05,1.05-.2,2.4.15,3.8-.05a8.155,8.155,0,0,1,2.7,0,7.858,7.858,0,0,1,2.65,0c.85-.15,2.15.15,2.9.05.95-.15,2.4,0,2.3.65.05.95-1,1-1.7,1.1-.8,0-1.55,0-2.25.05-.65-.2-1.4.05-2.25-.1a4.955,4.955,0,0,1-2.1,0,17.111,17.111,0,0,1-3.2-.05,24.768,24.768,0,0,1-3.35,0c-.8-.05-1.5.55-1.55,1.65.15.45.05.5,0,1.2-.1,1.05.7,1.45,1.55,1.65a24.955,24.955,0,0,1,3.35,0,11.112,11.112,0,0,1,3.2-.05,5.92,5.92,0,0,1,2.1,0,7.189,7.189,0,0,1,2.1-.05,6.8,6.8,0,0,0,2.25,0c.95,0,1.9.25,1.85,1,.1.85-1.1.7-2.45.8-.9.05-1.9-.1-2.8,0a24.15,24.15,0,0,1-2.7,0,12.1,12.1,0,0,1-2.7,0,5.1,5.1,0,0,0-2.15-.05,14.071,14.071,0,0,1-2.15-.05c-.55.15-1.7-.2-2.2-.05-.85-.1-1.7.15-2.25.05a1.4,1.4,0,0,0-1.35,1.55c-.2.5.05.8,0,1.5.1.9.3,1.85,1.35,1.65a4.782,4.782,0,0,0,2.25,0c.8.05,1.55-.05,2.2,0a10.917,10.917,0,0,1,2.25-.05h1.75a1.384,1.384,0,0,1,.65,1.7A8.612,8.612,0,0,1-87-16.7a3.426,3.426,0,0,1-1,1.45c-.4.3-.5,1.15-1.05,1.4-.3.7-.6.8-1.15,1.3-.55.25-.7.65-1.15,1.3a13.875,13.875,0,0,1-1.25,1.2c-.35.65-.8.7-1.25,1.2-.3.55-1.3.75-1.55,1.25A7.032,7.032,0,0,1-97-6.35a.793.793,0,0,0-.55.85,2.166,2.166,0,0,1,.05.25c0,.05-.05.1-.05.2,0,.55.8,1.1,1.05,1.75a2.243,2.243,0,0,0,1.55,1.35,3.787,3.787,0,0,0,1.95-1c.5-.6,1.5-1,1.6-1.35a20.317,20.317,0,0,1,1.85-1.6c.5-.55,1-.9,1.75-1.7.2-.35.5-.35.7-.8.55-.3.9-.8,1.5-.55.3,0,.45.75.7,1.55,0,.55-.25.7,0,1.1.2.7-.2,1.65,0,2.6a9.031,9.031,0,0,0,0,2.6l-.05,3.85c.15,1,.35,1.65,1.2,1.65a1.384,1.384,0,0,0,.45-.05,1.11,1.11,0,0,0,.45.05c.3,0,.7-.05,1-.05h.35a1.11,1.11,0,0,0,.45.05c.5,0,1.1-.15,1.25-.55.15-.45,1.05-.7,1.95-.8.8.2,1.8-.2,2.45,0a4.284,4.284,0,0,0,2.25,0,4.782,4.782,0,0,0,2.25,0c.6.1,1.35-.15,2.25,0a11.026,11.026,0,0,1,2.25,0,4.939,4.939,0,0,0,2.7,0c.5.05,1.65-.05,1.8.4a1.407,1.407,0,0,0,1.55.6c.8.05,1.05,0,1.85,0,.9,0,1.7-.35,1.6-1.6a15.191,15.191,0,0,1,0-3.7,15.532,15.532,0,0,0,0-3.05c0-1.1.05-1.9,0-3.05a12.448,12.448,0,0,1,0-3.05v-3c0-1.1.05-2,.05-3,.1-1.05-.35-1.55-1.4-1.45-.45.2-.6.25-.85,0a4.186,4.186,0,0,1-1.4,0,8.993,8.993,0,0,0-2.6,0c-.65-.1-1.75.25-2.55,0a5.493,5.493,0,0,1-2.55,0,5.7,5.7,0,0,1-2.6,0,8.715,8.715,0,0,0-2.55,0c-.95-.15-1.5.15-2.55,0a7.8,7.8,0,0,1-1.9,0c-1.5.15-2.75-.25-2.5-.65.35-.8.85-1,1.85-1,.9,0,2.15-.1,3.2,0a6.847,6.847,0,0,1,2.5,0,19.953,19.953,0,0,0,2.45,0,19.91,19.91,0,0,1,2.45,0c.7.1,1.6-.05,2.5,0a10.042,10.042,0,0,0,2.45,0c.55-.05,1.55.1,2.45,0a14.28,14.28,0,0,0,2.15.05c.9-.1,1.2.25,2.15.05.75-.1,1.3.25,2.2,0,.7.2,1.3-.1,2.25,0,1,.1,1.1-.65,1.35-1.65a.976.976,0,0,0,.05-.35c0-.3-.1-.5-.1-.75v-.1A.634.634,0,0,1-50.35-22.55Zm-29.25,9.9c0-.7.95-.85,1.35-.85,1.2.05,2.1-.05,3.6,0a19.192,19.192,0,0,0,3.75-.1c1.1.1,2.2-.05,3.6.1h3.65c1.3.1,1.5.5,1.5.85,0,.8-.95.6-2.05.7-.75.15-1.45-.1-2.3,0A17.27,17.27,0,0,1-68.75-12a16.52,16.52,0,0,0-2.2.05c-.65.05-1.75-.05-2.25,0a11.278,11.278,0,0,1-2.25,0h-2.3C-78.65-11.95-79.6-12.1-79.6-12.65Zm1.9,4.4c.6,0,1.55-.05,2.35,0a5.657,5.657,0,0,0,2.25,0,5.675,5.675,0,0,0,2.25,0,8.475,8.475,0,0,0,2.25,0c.6.1,1.45-.05,2.2,0a7.32,7.32,0,0,0,2.35,0c1.1.05,1.95.25,1.95.65,0,.9-1,1.15-1.95.95a7.394,7.394,0,0,1-2.35,0,16.077,16.077,0,0,0-2.2,0c-1.05,0-1.4-.05-2.25,0s-1.45,0-2.25,0a16.889,16.889,0,0,0-2.25,0,9.221,9.221,0,0,1-2.35,0c-.95.05-1.9.15-2-.6C-79.85-8.25-78.9-8.2-77.7-8.25Zm-.05,5.35a16.111,16.111,0,0,1,2.15.05,10.18,10.18,0,0,0,2.45-.05,8.417,8.417,0,0,0,2.25,0c.9.1,1.45-.15,2.25,0a10.706,10.706,0,0,0,2.2,0,7.832,7.832,0,0,1,2.35.1c.6.05,2.05-.1,2.05.85,0,.9-.9.8-2.05.65a18.259,18.259,0,0,1-2.35,0c-.7-.05-1.7.25-2.2,0a5.657,5.657,0,0,1-2.25,0c-.95-.1-1.45.25-2.25,0a8.466,8.466,0,0,1-2.25,0,9.2,9.2,0,0,1-2.35,0c-1.05.2-1.9.05-1.95-.6C-79.8-3.05-79-2.85-77.75-2.9Zm40.11-21.5a5.858,5.858,0,0,0,1.68,1.12,4.4,4.4,0,0,0,1.8.8,5.852,5.852,0,0,0,1.92.36c.52-.08,1.32.2,2.04.12.68.04,1.48-.04,2.44-.04.72,0,1.8-.16,2.48-.16.48.12.76-.16,1.48-.16.4.12.88-.16,1.4-.12a5.353,5.353,0,0,0,1.8-.32l.76-.24c.56-.16,1.16-.28,1.28-.8.16-.32-.12-.6-.04-.96-.04-.48-.4-.96-.4-1.52-.2-.68-.56-1.16-1.08-1.08-.44-.04-1.2.44-1.84.4a8.169,8.169,0,0,0-1.28.24c-.48-.12-1.16.28-1.52.16-.64,0-1.2.2-1.6.2a12.153,12.153,0,0,1-3,.16,16.576,16.576,0,0,1-2.4-.08c-.44-.12-1.04,0-1.4-.28-.4-.32-.88-.28-1.16-.68-.16-.24-.44-.32-.68-.68-.2-.28-.32-.32-.48-.32h-.32a1.146,1.146,0,0,0-.84.32,5.135,5.135,0,0,1-1.04.68,1.2,1.2,0,0,0-.76,1.4A2.924,2.924,0,0,0-37.64-24.4ZM-16-4.8c-.08-.28-.2-.92-.8-.92a2.593,2.593,0,0,0-1.16.28,6.5,6.5,0,0,0-1.48.28c-.8.36-1.72.2-2.28.44s-.92-.08-1.52.2c-.48.24-1.12-.04-1.48.08a6.437,6.437,0,0,1-1.6.08c-.68.04-1.04,0-1.76.04a5.734,5.734,0,0,1-1.44-.04,4.255,4.255,0,0,1-1.88-.16,8.74,8.74,0,0,1-1.72-.2,5.166,5.166,0,0,1-1.64-.4c-.68.08-.96-.44-1.28-.52-.44-.32-.64-.32-.92-.76a2.709,2.709,0,0,1-.8-2.4,4.633,4.633,0,0,1,.28-1.68c0-.36.28-.52.36-1.2.12-.68-.2-.88-.68-1.16s-.64-.28-1.16-.6a1.6,1.6,0,0,0-.92-.32c-.6-.08-.84.4-1.08.72a3.872,3.872,0,0,0-.76,1.88,9.4,9.4,0,0,0-.36,2,2.663,2.663,0,0,0-.12.88v.64A7.58,7.58,0,0,0-42-6.08c.2.64.4,1.2.52,1.6.2.72.56.8.84,1.32.24.48.76.4,1.16,1,.24.36.8.48,1.4.72.52.36,1.04.24,1.52.6.68.36,1.16.16,1.6.4a11.869,11.869,0,0,0,1.72.28,12.022,12.022,0,0,0,2.16.2,11.735,11.735,0,0,0,1.64.12,6.193,6.193,0,0,0,.88-.04c.4.04.88.08,1.32.08a4.058,4.058,0,0,0,1-.08A23.312,23.312,0,0,1-23.88,0a6.167,6.167,0,0,0,1.64-.08A4.722,4.722,0,0,0-20.6-.16a4.239,4.239,0,0,0,1.68-.28,6.134,6.134,0,0,0,1.64-.28c.76-.24,1.08-.32,1.24-1.28a1.237,1.237,0,0,0,.08-.32c0-.16-.08-.32-.08-.48,0-.52.08-.88.08-1.4A3.027,3.027,0,0,0-16-4.8ZM4.64-14.92a13.355,13.355,0,0,0,.68-1.56A8.68,8.68,0,0,1,6-18.08l.68-1.56c.44-.6.56-1.32,1.2-1.8a2.814,2.814,0,0,1,1.08-.6l.48-.12a2.683,2.683,0,0,1,1.4-.32c.28-.04.96-.48,1.4-.44.32.04.8-.4,1.36-.48.6-.2,1.4-.48,1.44-1.2a2.492,2.492,0,0,0-.12-.84,13.044,13.044,0,0,0-.6-1.28c-.2-.6-.48-.96-1.04-.88-.6-.04-.76.32-1.92.64-.8.36-1.04.28-1.4-.08-.52-.52-.16-.84-.12-1.52.2-.2.36-.96.68-1.56.28-.56,1.12-.72.96-1.24-.04-.28-.12-.24-.52-.52a7.38,7.38,0,0,1-1.6-.48c-.44,0-.84-.36-1.16-.36S7.64-33,7.32-33H7.2a1.037,1.037,0,0,0-.92.76,8.458,8.458,0,0,0-.32,1.52,9.534,9.534,0,0,1-.24,1.4,6.266,6.266,0,0,1-.32,1.24,7.172,7.172,0,0,1-.64,1.48c-.08.36-.64.64-1,.84a7.379,7.379,0,0,1-2.52.32c-.56.16-1.16-.16-1.88-.04-.56,0-1.28-.16-2.08-.16a1.065,1.065,0,0,0-1,1.24,4.692,4.692,0,0,0,.04,1.56c-.04.64,0,1.24.8,1.32.4.04.96.16,1.84.2a9.83,9.83,0,0,0,1.88,0C2-21.44,2.52-20.76,2.36-20c-.16.84-.52,1.2-.52,1.48,0,.48-.32.64-.44,1-.16.56-.44.6-.56,1.12s-.52.64-.6,1.12c-.08.56-.48.8-.6,1.24A5.216,5.216,0,0,1-1-12.8a4.585,4.585,0,0,1-.64,1.24,5.309,5.309,0,0,0-.72,1.2c-.36.4-.36.88-.72,1.16-.32.6-.52.64-.76,1.2a3.9,3.9,0,0,0-.64.84A1.474,1.474,0,0,0-5-6.08V-6A1.319,1.319,0,0,0-3.92-4.84c.56.2.56.64,1.2.76.2.04.48.4,1.04.24.72-.2.8-.68,1.16-1.12C-.04-5.56.44-6.88.96-7.4c.48-.48.44-1.24.84-1.6.48-.4.48-.76.8-1.36a12.668,12.668,0,0,1,.68-1.52,7.363,7.363,0,0,0,.68-1.48C4.16-13.84,4.32-14.24,4.64-14.92Zm23.12-4.56c-.24-.44-.32-.52-.92-.88-.44-.32-.8-.52-1.04-.72l-1.16-.56a6.056,6.056,0,0,0-1.2-.52,8.367,8.367,0,0,0-1.2-.44c-.76-.12-1.32-.48-2.08-.64a3.628,3.628,0,0,0-2.12-.44,1.114,1.114,0,0,0-1.16,1.04,4.493,4.493,0,0,0-.32,1.2c.04.32-.32.44-.12.96a.96.96,0,0,0,.92.72c.44-.04.8.28,1.52.32.64.04,1,.6,1.56.52.28-.04.84.52,1.44.6s.6.4,1.2.56c.48.2.6.48,1.2.76a2.629,2.629,0,0,0,1.36.52c.68-.04.76-.32.96-.68a13.618,13.618,0,0,0,.8-1.36.766.766,0,0,0,.4-.72A.507.507,0,0,0,27.76-19.48ZM25.96-3.12c-.28-.44-1.04-.48-1.44-1-.48-.64-1.08-.44-1.44-.92-.32-.48-1.04-.48-1.36-.84a4.11,4.11,0,0,0-1.32-.68c-.36-.28-1.04-.48-1.32-.84a2.894,2.894,0,0,1-.56-1.64c.12-.56-.24-1.08-.16-1.48.08-.52-.28-1.32-.2-1.84.04-.36-.16-.88,0-1.24a1.917,1.917,0,0,1,.52-1.64c.24-.24.56-.44.56-.76a1.1,1.1,0,0,0-.44-1.08,3.874,3.874,0,0,0-.84-.8c-.48-.36-.68-.72-1.2-.64-.48-.12-.96.36-1.28.76a4.837,4.837,0,0,0-1.04,1.84,4.02,4.02,0,0,0-.4,2.16,4.308,4.308,0,0,0,.04,1.6,9.408,9.408,0,0,1,.16,1.88,1.421,1.421,0,0,1-1.36,1.52,4.631,4.631,0,0,1-1.56-.12,13.331,13.331,0,0,0-1.84.12,8.131,8.131,0,0,0-1.76.48c-.6.08-1,.72-1.48.88-.68.24-.84.64-1.2,1.28a2.817,2.817,0,0,0-.8,1.52c-.12.56-.2,1.28-.28,1.72a3.073,3.073,0,0,0,.2,1.44c.2.4.24.76.48,1.2a1.446,1.446,0,0,0,.72,1c.32.2.64.68.96.76.32.28.88.64,1.12.6a3.024,3.024,0,0,1,1.24.4,8.426,8.426,0,0,0,2.6.32c.8-.08,1.72-.12,2.4-.2A13,13,0,0,0,16,1.88,4.049,4.049,0,0,0,17.56.68a3.377,3.377,0,0,0,.92-1.72c.12-.6.88-1.48,1.56-1.08a7.322,7.322,0,0,1,1,.6,4.118,4.118,0,0,1,1.08.8,3.9,3.9,0,0,1,1.24,1c.36.36.76.72,1.2.68C25.04.92,25.48.48,26-.16c.2-.24.68-.56.84-.92.32-.52.32-.92.04-1.2C26.52-2.72,26.24-2.68,25.96-3.12ZM14.6-3.44c-.12.56-.24,1.48-.8,1.8-.56.56-1.24.56-2.4.64a5.932,5.932,0,0,1-2.24-.36A1.732,1.732,0,0,1,8-3,1.84,1.84,0,0,1,9-4.68c.24-.08.4-.36.68-.36.44,0,.76-.2,1.2-.16a5.483,5.483,0,0,1,1.64,0,5.765,5.765,0,0,1,1.6.52A1.449,1.449,0,0,1,14.6-3.44ZM68.24-25.56a1.125,1.125,0,0,0-1.16-1.24,11.813,11.813,0,0,1-2.16.24,18.832,18.832,0,0,1-2.12.12c-.6-.08-1.04.2-1.52.08-.44-.16-1.16.2-1.52.08a8.369,8.369,0,0,1-2.24.16c-.56.04-2.12-.8-2.08-1.8-.08-.36.12-.88,0-1.4-.04-1.04.08-1.64.04-2.36.08-.72.6-.56.64-1.2a.732.732,0,0,0-.84-.76,12.308,12.308,0,0,0-1.32-.08H53.6a7.081,7.081,0,0,0-.92-.04h-.76a1.082,1.082,0,0,0-1.08.96c-.12.84.28,1.6.12,2.4-.12.64.28.8.04,1.52a6.362,6.362,0,0,0,0,1.24c0,.52-.84,1.64-1.28,1.64a5.475,5.475,0,0,1-1.64.12c-1.12.2-1.32-.04-2.2.12-.52.16-.88-.08-1.6,0-.92.04-1.64.08-2.4.08a17.084,17.084,0,0,1-2.48,0,10.011,10.011,0,0,1-1.52.04,17.445,17.445,0,0,0-2.04-.12c-.88.12-1.28-.08-2.08,0-.56-.04-1.08.4-1.08,1.32v.88a2.437,2.437,0,0,0,.12.96c.12.68.36,1.24,1.24,1.24a9.347,9.347,0,0,0,2.08-.12c.76.12,1.16-.24,2.04-.12.72.2,1.28-.12,2-.08.56.04,1.4-.28,2.04-.08a6.942,6.942,0,0,0,1.56-.04,10.458,10.458,0,0,0,1.56-.08c.92-.12,1.32.04,2.28-.08a7.323,7.323,0,0,1,2.04-.12,1.584,1.584,0,0,1,1.36,1,3.7,3.7,0,0,1,.04.96c0,.44-1.12.76-1.52.68a6.369,6.369,0,0,0-1.56-.24,6.7,6.7,0,0,0-2.6.56,2.768,2.768,0,0,0-1.04.68c-.32.28-.8.6-.84.88-.32.48-.64.84-.64,1.04a1.853,1.853,0,0,0-.48,1.16,11.844,11.844,0,0,0-.4,2.6,11.7,11.7,0,0,0,.4,2.64,2.269,2.269,0,0,1,.52,1.08,2.692,2.692,0,0,0,.68.96,3.332,3.332,0,0,1,.88.8,1.968,1.968,0,0,0,1.04.56,4.94,4.94,0,0,0,2.6.52c.24,0,.36-.08.52-.04.72-.08,1.16.64.32,1.4a3.239,3.239,0,0,1-.68.64,7.67,7.67,0,0,1-1.08.6,3.06,3.06,0,0,1-1.4.68c-.6.24-.92.6-1.4.64a10.737,10.737,0,0,1-1.48.48,10.574,10.574,0,0,1-1.4.28c-.6.28-1,.04-1.44.36a.816.816,0,0,0-.6.8c0,.48.28.6.44,1.24.16.56.6.88.6,1.24a1.044,1.044,0,0,0,1.08.84c.96-.16,1.88-.44,2.52-.6a8.39,8.39,0,0,1,1.32-.44c.44-.08.88-.44,1.32-.52C47,1.36,47.48.92,48,.8c.36-.08.68-.56,1.24-.68.28-.04.96-.76,1.16-.8a2.178,2.178,0,0,0,1.12-.88c.28-.36.76-.48,1-1a5.738,5.738,0,0,0,.88-1.12c.24-.6.68-1.08,1.04-1.84a4.913,4.913,0,0,0,.68-2.04,6.606,6.606,0,0,0,.44-2.28,18.082,18.082,0,0,1,.08-2.08,7.381,7.381,0,0,0-.12-1.56,7.553,7.553,0,0,0-.12-1.64c-.04-.72.04-1.44,0-2.08v-1.96a4.21,4.21,0,0,1,.28-1.6,3.133,3.133,0,0,1,2.08-1.56,12.148,12.148,0,0,0,1.84-.12c.72-.16.96.12,1.68-.08.24.08.68-.04.88.04.56,0,.96.12,1.28-.04.48-.08.6.24,1.32.08a8.051,8.051,0,0,1,2.2,0c.72,0,1.32-.28,1.32-1.08,0-.12-.04-.2-.04-.32a2.008,2.008,0,0,0,.08-.48C68.32-24.72,68.24-25.12,68.24-25.56ZM51.16-12.96a4.629,4.629,0,0,1-.68,2.16,2.059,2.059,0,0,1-1.92.96,2.4,2.4,0,0,1-2.08-.92,1.686,1.686,0,0,1-.56-1.04,5.168,5.168,0,0,1-.12-1.16c.08-.36-.08-1.04.16-1.32.24-.24.24-.68.52-.88a2.879,2.879,0,0,1,1.96-.96,1.8,1.8,0,0,1,1.4.48c.16.2.52.16.6.48s.48.52.48.84C50.92-13.84,51.28-13.48,51.16-12.96Zm54-2.4c-.2-.56-.08-.92-.32-1.48-.16-.4-.08-.96-.36-1.44-.16-.4-.04-.76-.56-1.36-.36-.44-.48-1.04-.72-1.28-.36-.36-.56-1.04-.88-1.2-.4-.2-.36-.76-.92-1.04-.6-.28-.84-.8-1.28-1.08-.48-.32-.8-.76-1.12-.8-.36-.04-.8-.64-1.32-.72a8.117,8.117,0,0,1-1.36-.56,4.121,4.121,0,0,0-1.36-.44,4.759,4.759,0,0,0-1.44-.36c-.64-.16-1.12-.36-1.44-.24a26.467,26.467,0,0,0-2.88-.16c-.96,0-1.64.08-2.64.16a10.854,10.854,0,0,0-2.6.56,4.355,4.355,0,0,1-1.28.4c-.4.04-.64.44-1.24.48-.32.04-.6.48-1.2.6-.4.08-.68.52-1.08.64-.76.24-.92.6-1.64,1.12s-.96,1-1.44,1.32c-.4.6-1.04,1.08-1.28,1.52a6.1,6.1,0,0,0-1.12,1.6c-.32.4-.56,1.24-.88,1.76a7.4,7.4,0,0,0-.68,1.84c-.2.72-.28,1.24-.44,1.92a8.871,8.871,0,0,0-.12,1.48v.96a7.481,7.481,0,0,0,.08,1.08,14.505,14.505,0,0,0,.28,1.56A3.349,3.349,0,0,0,72.36-7,7.885,7.885,0,0,0,73-5.6c.2.28.52.76.84,1.2a2.774,2.774,0,0,0,1.28.96,3.924,3.924,0,0,0,1.8.84l.68.08a4.3,4.3,0,0,0,2.36-.24c.4-.28,1.16-.32,1.52-.76s1.04-.56,1.36-1.12c.2-.36.64-.56,1.08-1.24a4.569,4.569,0,0,0,1.04-1.44,8.078,8.078,0,0,0,.92-1.52c.12-.56.68-1.12.76-1.6.24-.76.52-.84.64-1.52.12-.6.6-1.28.72-1.88s.52-1.2.64-1.92c.12-.6.44-1.28.52-1.92s.4-1.16.56-2a3.862,3.862,0,0,1,.6-1.84c.08-.2.6-.44.6-.8.12-.32-.08-.52-.28-.72s-.36-.64.2-.68a8.13,8.13,0,0,1,1.72.28,11.674,11.674,0,0,1,1.68.56,10.074,10.074,0,0,1,1.36.6c.48.16.72.64,1.28.84.48.16.64.84,1.2,1.08.4.16.36.56.8.96.56.48.4.88.8,1.16a12.906,12.906,0,0,1,.6,1.36,12.863,12.863,0,0,1,.48,1.48c0,.4.08,1.04.12,1.6a10.406,10.406,0,0,1-.28,2.24,7.69,7.69,0,0,1-.76,1.92A15.891,15.891,0,0,0,98.68-8a7.256,7.256,0,0,1-1.4,1.36c-.52.24-.88,1-1.76,1.2a20.6,20.6,0,0,0-2.04.96c-.76.28-1.36.56-2,.76-.56.16-.88.2-1.64.4-.2.08-.56.12-.72.2-.28.16-.48.04-.68.6-.12.36.24.84.4,1.08a6.507,6.507,0,0,1,.64,1.2C89.8.52,90.12,1,90.72,1a.881.881,0,0,0,.32-.04c.36-.04.64-.2,1.16-.32.6-.12.84-.36,1.28-.44a6.9,6.9,0,0,0,1.28-.44c.6-.16.68-.44,1.08-.52.64-.16.6-.44,1.16-.56.68-.16.64-.44,1.16-.6a2.789,2.789,0,0,0,1.08-.68c.36-.08.52-.64,1.04-.72.2-.04.84-.72,1-.84a7,7,0,0,1,.96-1,5.136,5.136,0,0,0,.8-1.04,3.258,3.258,0,0,0,.72-1.16c.28-.32.28-.64.56-1.2.04-.56.4-.76.44-1.24,0-.24.2-.8.28-1.48.04-.44.16-.84.16-1.28,0-.48.04-.96.04-1.36A11.186,11.186,0,0,0,105.16-15.36Zm-19.44-6.4c-.08.52-.24.96-.36,1.48a4.907,4.907,0,0,1-.44,1.72c-.28.44-.16.96-.4,1.32s-.28,1.2-.56,1.68c-.32.56-.6,1.84-.92,2.36l-.36.8c-.4.72-.44,1.4-.92,1.76-.32.24-.32.96-.6,1.16-.24.16-.4.72-.88,1.2a6.664,6.664,0,0,1-.92.92,2.12,2.12,0,0,1-1.16.4,1.267,1.267,0,0,1-1.12-.52c-.36-.28-.4-.48-.72-1.12a6.424,6.424,0,0,1-.32-1.52c.08-.6-.28-.88-.08-1.36A3.284,3.284,0,0,1,76.08-13c.2-.44.04-.96.32-1.52.12-.52.36-.96.52-1.48.28-.48.6-1.12.76-1.44a12.648,12.648,0,0,0,.84-1.32c.28-.56.76-.84.92-1.24.24-.2.76-.68,1.16-1.08a4.532,4.532,0,0,1,1.2-.96c.48-.2.36-.44,1.04-.6a1.955,1.955,0,0,1,1.08-.52C84.56-23.4,85.88-22.64,85.72-21.76ZM143.68-4.28c-.36-.24-.64-.72-1.16-.84s-.36-.64-1-.72c-.24-.04-.52-.56-1.08-.64-.48-.08-.68-.36-1.12-.6a6.964,6.964,0,0,1-1.4-.76,3.405,3.405,0,0,1-1.04-1.92c.08-.64-.2-.92-.04-1.72a11.477,11.477,0,0,1-.04-2.36,21.755,21.755,0,0,1-.08-2.4c-.04-.44,0-.6-.04-1.08a1.92,1.92,0,0,1,1.48-1.92,13.53,13.53,0,0,1,2.16-.12c.92.04,1.6-.32,2.2-.28a1.224,1.224,0,0,0,1.28-1.48c-.12-.48.04-.96-.04-1.6a1.4,1.4,0,0,0-1-1.2,7.341,7.341,0,0,0-1.88.24c-.6-.08-.52.12-1.28.16-.56.04-.8.08-1.2.12a2.128,2.128,0,0,1-1.96-1.6c-.12-.68.08-.56-.12-1.44a14.4,14.4,0,0,0-.08-2.16c-.04-1,.92-1,.76-1.68.08-.36-.36-.52-.76-.56a11.735,11.735,0,0,0-1.64-.12,9.393,9.393,0,0,0-1.08-.04h-.2a1.5,1.5,0,0,1-.44-.04c-.64.08-1.24.44-1.04.96a2.271,2.271,0,0,0,.08,1.56c.12.52,0,.88.16,1.56a17.9,17.9,0,0,0,.04,2.16,2.116,2.116,0,0,1-1.48,1.68c-.32-.04-.6.08-1,.04a6.166,6.166,0,0,1-1.48-.04c-.56-.16-.8.08-1.36-.04-.44-.08-1.16.08-1.6-.04a7.889,7.889,0,0,0-1.68-.08c-.6,0-.96.44-1.08,1.28a7.558,7.558,0,0,1,.04,1.64c.04.92.32,1.36,1.08,1.36a1.793,1.793,0,0,0,.92,0,4.395,4.395,0,0,0,1.76.04,7.092,7.092,0,0,0,1.32,0,1.98,1.98,0,0,0,1.08,0c.6.16.72-.04,1.28,0a3.282,3.282,0,0,1,1.8.52,2.272,2.272,0,0,1,.64,1.88,7.278,7.278,0,0,1,.08,1.6c-.12.64.16,1.08,0,1.68-.12.48.08.68,0,1.08-.08.52.16.76,0,1.16a1.668,1.668,0,0,1-.72,1.04,3.3,3.3,0,0,1-2,.08c-.64-.2-1.08.16-1.76-.04a6.871,6.871,0,0,0-2.32.2,4.1,4.1,0,0,0-1.24.4c-.48.16-.96.56-1.16.6a2.768,2.768,0,0,0-1,.76c-.32.48-.56.48-.76.96a5.065,5.065,0,0,0-.68,2.52,3.3,3.3,0,0,0,.52,2.36,10.24,10.24,0,0,1,.64,1c.04.44.6.48.84.88.28.24.8.84,1.44.88a4.937,4.937,0,0,1,1.6.52,5.934,5.934,0,0,0,1.64.2,2.228,2.228,0,0,0,1.68.08,14.978,14.978,0,0,0,2.2-.16A4.151,4.151,0,0,0,133.6.68a2.956,2.956,0,0,0,1.84-1.2c.6-.4.72-.84.96-1.68a1.233,1.233,0,0,1,1.76-.72,9.43,9.43,0,0,1,.84.64c.48.2.64.6.92.68.24.08.36.64.96.8.36.52.8.76,1.04.56.68.08.68-.28,1.16-.88.52-.32.44-.76.8-1,.24-.36.52-.56.52-1V-3.2A1.309,1.309,0,0,0,143.68-4.28ZM117.6-30.32c-.68-.08-1-.24-1.72-.28-.68,0-1.12-.32-1.96-.28a.828.828,0,0,0-1,.92,6.775,6.775,0,0,0-.24,1.52c-.16.4,0,.68-.16,1.04a10.3,10.3,0,0,0-.28,1.72c-.2.52-.08,1.36-.28,2a12.449,12.449,0,0,0-.24,2,7.533,7.533,0,0,0-.24,2l-.2,1.96a12.358,12.358,0,0,1-.12,2c.04.68-.16,1.52-.08,2a2.221,2.221,0,0,0-.08.68c0,.44.08.8.04,1.36a4.483,4.483,0,0,0-.12.96,1.855,1.855,0,0,0,.16.84c-.16.76.16,1.28.08,1.8a13.092,13.092,0,0,0,.16,1.8,3.939,3.939,0,0,0,.24,1.8,4.788,4.788,0,0,0,.4,2.48A14.013,14.013,0,0,0,112.6.48c.36.44.24,1.2,1,1.2h.12A6.341,6.341,0,0,0,115.6.92C116.2.64,117.16.6,117-.4c.16-.28,0-.8-.28-1.32a12.158,12.158,0,0,0-.44-1.32,14.2,14.2,0,0,1-.44-2.2,10.071,10.071,0,0,1-.32-2.2,5.185,5.185,0,0,1-.16-2.2,3.731,3.731,0,0,1-.08-2.2c.12-.56-.08-.96.04-1.68.12-.4-.12-1.2.04-1.64.12-.36-.04-1.12.08-1.68a3.507,3.507,0,0,1,.12-1.64c.16-.44-.04-1.08.16-1.68.2-.56-.04-.92.2-1.64.24-.6,0-1.08.24-1.64.28-.68.04-1,.28-1.64.08-.44.16-1,.28-1.56.12-.68.08-.92.48-1.32a2,2,0,0,1,.64-.76,1.115,1.115,0,0,0,.48-.72C118.48-29.84,117.84-30.32,117.6-30.32ZM132.28-4.24c-.2.6-.48,1.36-.92,1.44-.36.08-.8.44-1.2.4-.56-.04-.96.24-1.52.12a9.4,9.4,0,0,1-2.2-.32c-.72-.32-1.6-.96-1.44-1.8.08-.4.08-.8.36-1.04.32-.28.4-.44.8-.56.36-.12.56-.28.76-.24.36.08.76-.2,1.2-.12.76.12,1.32.08,2.04.2a4.069,4.069,0,0,1,1.32.36A1.669,1.669,0,0,1,132.28-4.24ZM161.3-40a5.352,5.352,0,0,0-.7-.8c-.6-.35-1.35-.3-1.65-.7a11.883,11.883,0,0,1-1.6-.6c-.35,0-.4-.2-.8-.2-1.25,0-1.1,1.5-1.4,2.15a15.955,15.955,0,0,0-.5,1.95,9,9,0,0,1-.55,1.95,5,5,0,0,0-.6,1.9c-.05.65-.55,1.45-.6,1.9l-1.05,3.05a3.251,3.251,0,0,0-.55,1.5c0,.7-.6.85-.55,1.55-.3,1.1-.85,1.75-1.2,2.8a4.465,4.465,0,0,0-.7,1.5,8.071,8.071,0,0,0-.75,1.45,4.425,4.425,0,0,0-.85,2c0,.8,1.05,2,1.25,2.5.55.5.55,1.8,1.55,1.75.5,0,.6-.1.75-.4a2.664,2.664,0,0,0,.6-1c.55-.8.7-.3.9,0a4.7,4.7,0,0,1,.2,2.4c.05.35-.15.65,0,.95a21.962,21.962,0,0,1,0,3.15,22.7,22.7,0,0,1,0,3.2,10.274,10.274,0,0,0,0,2.15,8.111,8.111,0,0,1-.05,2.2c0,.6-.05,1.6,0,2.2.05.65,0,1.65,0,2.25.2,1.3.7,1.5,1.65,1.6a2.486,2.486,0,0,0,.8.15,8.3,8.3,0,0,0,1.1-.15c.95.15,1.6-.6,1.65-1.6A3.854,3.854,0,0,1,157.7.5c.2-.85-.2-1.4-.05-2.2a10.632,10.632,0,0,0,0-2.2,5.191,5.191,0,0,0,0-2.15,9.7,9.7,0,0,1,0-2.95,6.7,6.7,0,0,1,0-3v-3a19.355,19.355,0,0,1,0-2.95c-.25-1.15.1-2.2-.05-3.45v-2.05a9.633,9.633,0,0,0,0-1.7c.2-.45.1-.75.4-1.25.2-.3.6-.4.55-1.15-.05-.5-.65-.5-1.1-.6-.7-.25-.5-1-.3-1.7a13.187,13.187,0,0,0,.75-2.25,7.012,7.012,0,0,1,.75-2.25,6.762,6.762,0,0,1,.7-2.3c.2-.65.4-1.35.8-2.4C160.75-39.4,161.5-39.4,161.3-40Zm33.2,2.5v-.15a1.8,1.8,0,0,0-1.35-1.55c-1.25,0-2.1-.05-3.4,0a14.811,14.811,0,0,0-3.35.05,16.11,16.11,0,0,1-2.2,0c-.6-.1-1.6.05-2.2,0a5.643,5.643,0,0,0-2.25,0,10.706,10.706,0,0,1-2.2,0c-.55-.1-1.75.25-2.2,0-.75-.1-1.65.25-2.25,0a16.035,16.035,0,0,1-2.2,0c-.65-.2-1.35.15-2.2,0-1.25.2-2.05-.2-3.2,0a29.6,29.6,0,0,1-3.1.1c-.85-.05-1.7,0-1.75,1.1.1.7-.1,1.5-.05,1.85-.1,1.4.65,1.9,1.55,1.65.95-.2,2.1.15,3.3,0,1.05.2,2.25-.25,3.25-.05.4.2.8.05,1.3.35a1.76,1.76,0,0,1,.8,1.15,10.3,10.3,0,0,1,.05,2.45,3.067,3.067,0,0,1-.55,1.7,1.876,1.876,0,0,1-1.5.65h-2.35a5.148,5.148,0,0,1-1.75.05,2.015,2.015,0,0,1-1.2-.1c-1,.2-1.45.85-1.35,1.35.1,1.35-.05,2.25,0,3.4.1,1.3-.05,2.45.05,3.3a29.523,29.523,0,0,1,0,3.65c.1,1.2-.1,2.65,0,3.65-.2,1.45.1,2.25,0,3.7a21.639,21.639,0,0,1,0,3.6,13.506,13.506,0,0,0-.05,3.75c.15,1.05-.3,2.4,0,3.8a1.557,1.557,0,0,0,1.65,1.4,2.95,2.95,0,0,0,1.75,0c1.25-.2,2-.4,1.8-1.6,0-.8,1.05-1,2.2-1.05a12.073,12.073,0,0,0,2.7,0c.85-.1,1.75.15,2.55.05.8-.15,1.6.1,2.6,0A22.122,22.122,0,0,0,180,.8a7.3,7.3,0,0,1,2.55.1,13.509,13.509,0,0,1,2.8.15A2.146,2.146,0,0,1,187.8,2.3a1.477,1.477,0,0,0,1.45.5,6.834,6.834,0,0,0,1.75,0,1.816,1.816,0,0,0,1.65-1.35c-.2-1.1.15-2.45,0-3.85-.15-1.2,0-2.5-.05-3.75-.25-1,.1-2.5,0-3.5-.15-1.1.15-2.2,0-3.5a28.029,28.029,0,0,1,0-3.55,20.452,20.452,0,0,1,0-3.5,10.518,10.518,0,0,1,.05-3.3,11.01,11.01,0,0,1,0-3.4c-.25-.85-.55-1.4-1.35-1.3-.35-.1-.45-.15-.7,0a16.894,16.894,0,0,0-2.25,0,4.667,4.667,0,0,1-2.35,0,1.96,1.96,0,0,1-2-1.5,18.724,18.724,0,0,0,.05-2.9,1.86,1.86,0,0,1,1.45-1.8,2.78,2.78,0,0,0,1.45-.15c.9.15,1.7-.1,2.8.1.9.05,2.1-.15,3.4,0,.9-.15,1.35-.5,1.35-1.5v-.4c0-.3-.05-.5-.05-.8A.851.851,0,0,1,194.5-37.5Zm-17.65,3c.3.25.8-.2,1.05,0,.7-.1,1.05.75,1.2,1.35,0,.45-.3,1.95-.05,2.35-.1.5.15,1.6-.35,2-.35.75-.7,1-1.25.75-.35-.3-.65.05-.95-.15-.5-.2-.55-.95-.7-1.5a7.225,7.225,0,0,1,0-1.8C175.65-32.8,175.55-34.8,176.85-34.5Zm2.1,28.2c.1,1.05,0,2.1-.7,2.15a2.018,2.018,0,0,1-1.35.1c-.8.15-1-1.15-1.1-2.25a7.281,7.281,0,0,0,0-2.55,13.338,13.338,0,0,0,0-2.45,13.364,13.364,0,0,1,0-2.45,13.355,13.355,0,0,0,0-2.45,7.71,7.71,0,0,0,0-2.4c0-.55-.05-1.85,0-2.55s.15-1.9.7-2.15c.15-.4.55.15.95,0,.8-.25,1.6,1.25,1.5,2.15a21.463,21.463,0,0,0,0,2.55,18.915,18.915,0,0,0,0,2.4v2.45a19.99,19.99,0,0,1,0,2.45,7.984,7.984,0,0,1,0,2.45C178.8-7.85,179.05-7.25,178.95-6.3Zm5.95-17c.3.2.7-.2,1.15,0a1.523,1.523,0,0,1,1.5,1.45,4.675,4.675,0,0,1,0,2.2,6.78,6.78,0,0,0,0,2.25,6.789,6.789,0,0,1,0,2.25,16.135,16.135,0,0,0,0,2.2,6.8,6.8,0,0,0,0,2.25c-.1.95.05,1.55,0,2.25.05.6-.05,1.5,0,2.3.05.85.1,2-.85,2.1a5.059,5.059,0,0,1-1.75,0C184.3-4.1,183.8-5.4,184-6.3a4.425,4.425,0,0,1,0-2.55c-.1-.6.15-1.75,0-2.45a4.506,4.506,0,0,1,0-2.45,10.021,10.021,0,0,1,0-2.45,6.455,6.455,0,0,1,0-2.4,21.654,21.654,0,0,1,0-2.55C183.95-21.85,184.5-23.2,184.9-23.3ZM170.8-8.85c0,.6-.05,1.85,0,2.55.05,1.25-.2,1.85-.8,2.15-.35.2-1.15,0-1.4.1-.9.15-1.25-.75-1.3-2.1a11.78,11.78,0,0,0,0-2.3,6.8,6.8,0,0,1,0-2.25,8.472,8.472,0,0,0,0-2.25c-.1-.55.05-1.35,0-2.2-.15-.9.1-1.65,0-2.25a16.724,16.724,0,0,0,0-2.25,10.772,10.772,0,0,1,0-2.2c.2-1.1.55-1.55,1.45-1.45a2.939,2.939,0,0,1,1.15,0c.4.15.85,1.35.9,2.15a21.674,21.674,0,0,0,0,2.55,19.178,19.178,0,0,0,0,2.4c-.05.75,0,1.65,0,2.45a19.954,19.954,0,0,0,0,2.45A20.021,20.021,0,0,1,170.8-8.85ZM245-36.15a1.243,1.243,0,0,0,.05-.4,1.181,1.181,0,0,0-1.45-1.25c-.35-.1-.5.1-1.1,0a14.305,14.305,0,0,0-3.6.05c-1.25-.1-2.55.2-3.6,0a19.285,19.285,0,0,1-2.3.05c-.85-.05-1.65-.25-1.55-.9a2.548,2.548,0,0,1,.45-1.35c.25-.5,1.15-.6,1.15-1.05a.777.777,0,0,0-.95-.75c-.45-.05-1.2-.2-2-.25a8.26,8.26,0,0,0-2.2-.25h-.25a1.026,1.026,0,0,0-1.15,1.2,9.537,9.537,0,0,1-.3,1.85c-.2.85-.95,1.65-1.75,1.45-.6.05-1.55,0-2.45,0-.5-.1-1.65.25-2.05,0-.7-.1-1.55.25-2.1,0a4.908,4.908,0,0,1-2.3-.05,6.455,6.455,0,0,1-2.4,0c-1.35,0-1.35,1.2-1.4,1.65s.05,1.05,0,1.65c.05,1.1.45,1.6,1.4,1.65a18.989,18.989,0,0,1,2.4,0,7.01,7.01,0,0,0,2.3,0,12.524,12.524,0,0,0,3.35,0,6.58,6.58,0,0,0,2.5.1c1.05.05,1.25.7,1,1.65-.1.45-1,1.55-1.3,1.3-.9,0-1.45.1-2.25.05-.4.2-.5-.1-.7,0-1,.15-1.45.8-1.35,1.15a19.655,19.655,0,0,0,.05,3.4,24.229,24.229,0,0,0,0,3.3,11.781,11.781,0,0,1,0,2.3c.15.65-.15,1.55,0,2.25a7.054,7.054,0,0,0,0,2.3,5.92,5.92,0,0,0,0,2.3,15.254,15.254,0,0,1,0,3.7c-.15,1.25.15,2.5,0,3.85a1.429,1.429,0,0,0,1.55,1.35c.3.15,1.2-.05,1.6,0,.5,0,1.55-.1,1.8-.7a3.787,3.787,0,0,1,2.45-.75,20.389,20.389,0,0,0,3.05,0c.8,0,2.3.1,3.25,0,1.25-.1,2.05.1,2.2.55.1.35,1.1.6,1.7.55.55.2.85-.1,1.65,0,1,.15,1.75-.3,1.65-1.35.2-1.15-.25-2.6,0-3.8A22.618,22.618,0,0,1,240-13.1c0-.85.05-1.3,0-2.2a6.5,6.5,0,0,1,0-2.2c.05-.85-.1-1.25,0-2.2.2-.95-.2-1.55,0-2.2l.05-3.3c-.2-1.2.2-2.15,0-3.4a1.285,1.285,0,0,0-1.35-1.2c-.25-.05-.3.2-.7.05a6.7,6.7,0,0,0-2.25-.05,7.8,7.8,0,0,1-2.85,0c-.85.05-1.3,0-2.05,0-.5-.05-1.4-.45-1.25-1.1-.2-.15.1-.7.45-1.05.05-.6,1.2-.75,2.05-.85a9.592,9.592,0,0,1,2.4-.05c.65.2,1.25-.1,2.2,0,.85-.2,1.55.15,2.2,0,.65.05,1.6,0,2.35,0,.75-.1,1.35.15,2.4,0,1.15-.05,1.15-.7,1.35-1.65Zm-33.45-3.8c-.2-.4-.3-.4-.75-.8-.5-.3-1.15-.3-1.7-.65a3.49,3.49,0,0,0-1.65-.6,1.714,1.714,0,0,0-.8-.15h-.1c-1,0-1.1,1.45-1.35,2.05-.4.75-.2,1.05-.45,1.9-.35.65-.2,1.35-.55,1.85a14.574,14.574,0,0,0-.55,1.8,6.66,6.66,0,0,0-.6,1.85,2.614,2.614,0,0,1-.55,1.5c-.05.25-.3.75-.5,1.45a18.277,18.277,0,0,1-1.2,2.95,2.793,2.793,0,0,1-.65,1.45c-.4.35-.4,1.15-.65,1.4l-.75,1.35a2.9,2.9,0,0,1-.75,1.4c-.55.7-.85,1.05-.85,1.75v.3a1.546,1.546,0,0,0-.1.4,1.138,1.138,0,0,0,.65.95,1.845,1.845,0,0,1,.9,1.25c.35.75.8,1.35,1.35,1.45.65.05,1-.85,1.45-1.6.1-.5.75-1.05.85-.2a14.944,14.944,0,0,0,0,3.35,6.528,6.528,0,0,0,0,1,14.568,14.568,0,0,0,0,3.3,17.638,17.638,0,0,1,0,3.25,4.674,4.674,0,0,0,0,2.2c.15.85-.3,1.25-.05,2.15a5.679,5.679,0,0,0,0,2.25,4.84,4.84,0,0,0,0,2.25,1.37,1.37,0,0,0,1.45,1.55h.2a.634.634,0,0,1,.3-.05c.35,0,.7.1,1.05.1h.1a1.384,1.384,0,0,0,.45-.05.976.976,0,0,0,.35.05,1.389,1.389,0,0,0,1.3-1.65,10.918,10.918,0,0,0,.05-2.25,10.708,10.708,0,0,1-.05-2.2,10.189,10.189,0,0,0,0-2.15,14.981,14.981,0,0,0-.05-2.2,18.921,18.921,0,0,1,0-2.4v-2.4a20.007,20.007,0,0,0,0-2.45,8.021,8.021,0,0,0,0-2.45,12.8,12.8,0,0,0,0-2.4c-.2-.7.15-1.4,0-2.45a9.524,9.524,0,0,1,0-2.4c-.1-.85.1-1.65-.05-2.3a2.136,2.136,0,0,1,.5-1.2c.2-.25.6-.25.6-1a.9.9,0,0,0-1-.9c-.45-.05-.4-1.1.15-2.15a15.84,15.84,0,0,0,.65-1.8,12.117,12.117,0,0,1,.8-2.2,5.62,5.62,0,0,1,.7-2.25,6.477,6.477,0,0,1,.7-2.1C210.7-39.15,211.6-39.35,211.55-39.95Zm33.3,38.8a1.606,1.606,0,0,0-1.4-1.7,9.635,9.635,0,0,0-2.4,0,7.063,7.063,0,0,0-2.35.05,8.767,8.767,0,0,1-2.8,0,9.08,9.08,0,0,0-2.85,0,9.075,9.075,0,0,0-2.85,0c-1,0-2,.05-2.85,0-.8-.1-1.8.05-2.9,0a18,18,0,0,0-2.85,0c-.75-.1-2.3,0-3,0-.65-.05-1.45,0-1.9-.7a3.5,3.5,0,0,1-.6-1.75c-.15-.85.15-2.05,0-2.85a12.64,12.64,0,0,1,0-2.75,8.453,8.453,0,0,1,0-2.75,17.439,17.439,0,0,0,0-2.8,16.226,16.226,0,0,1,0-2.7,16.834,16.834,0,0,0,0-2.75c.05-.65-.05-1.45,0-2.2.05-.65-.2-1.1.65-1.75a.767.767,0,0,0,.3-.8.988.988,0,0,0-.9-.6,10.259,10.259,0,0,0-1.85-.15,5.108,5.108,0,0,1-2-.1c-1,.05-1.45.7-1.4,1.25a32.342,32.342,0,0,0,.05,3.9,31.684,31.684,0,0,0,.05,3.85c.05,1-.1,2.5,0,3.4a10.265,10.265,0,0,0,0,3.5,13.257,13.257,0,0,0,0,3.45c.2.95-.1,2.5,0,3.45A14.9,14.9,0,0,0,210.95-1a9.934,9.934,0,0,0-.1,3.65,1.458,1.458,0,0,0,1.75,1.6,4.114,4.114,0,0,0,1.75,0c.6-.2,1.4.05,1.6-.65a2.453,2.453,0,0,1,1.15-1.1c.7-.35,1.2-.15,1.5-.4.95-.1,1.95.1,3,0a26.977,26.977,0,0,0,2.85,0,28.01,28.01,0,0,0,2.9,0c.75-.1,1.85.15,2.85,0a10.875,10.875,0,0,0,2.85,0c.85.25,2.05-.1,2.85,0a10.381,10.381,0,0,0,2.8,0,9.242,9.242,0,0,0,2.35,0,9.524,9.524,0,0,0,2.4,0,1.314,1.314,0,0,0,1.4-1.65C244.75.1,244.9-.5,244.85-1.15ZM229.6-25.2a31.362,31.362,0,0,1,3.8.05c.95,0,1.55.4,1.6.9.05.9-1.3,1.05-2.55,1.1-1.15,0-2.1-.05-2.9-.05-1.15.05-2.65,0-3.85,0s-1.45-.3-1.5-.85c-.05-.65.4-1.05,1.45-1.15A26.039,26.039,0,0,0,229.6-25.2Zm5.4,7.65c.05.65-.45,1-1.75.95-1.25.1-2.5.05-3.15.1a22.908,22.908,0,0,0-3.2-.05,3.207,3.207,0,0,1-2.7-.5c-.3-.25-.05-.8.2-1.1.55-.65,1.25-.4,2.25-.5,1.05-.15,2.1.1,2.95,0a18.564,18.564,0,0,0,2.9,0c.75.05,1.2.1,1.85.1C234.75-18.55,235.05-18,235-17.55Zm.05,6.85c-.05.6-.8.8-2.45.75a14.045,14.045,0,0,1-2.9,0,8.342,8.342,0,0,1-2.95,0c-1.1.2-2.55.1-2.55-.8,0-1,.5-1.2,2.45-1.25a28.952,28.952,0,0,0,2.95,0,18.268,18.268,0,0,0,2.9,0C233.8-11.95,235.15-11.95,235.05-10.7Zm46.35.75c-.45-.15-.75-.1-1.45-.3a7.063,7.063,0,0,0-2-.4c-.8.15-1.15.35-1.25,1.3-.2.75-.35,1.75-.5,2.6,0,.75-.65,1.45-.8,2.25a9.539,9.539,0,0,1-1.2,2.05,7.465,7.465,0,0,1-1.85,2.1c-.25.3-.8-.2-.6-.6a1.461,1.461,0,0,0-1.3-1.8,14.683,14.683,0,0,1-3.25.1c-.5-.25-.95.05-1.45,0-.5-.1-.75,0-1.25-.55-.35-.35-.1-.6-.2-.8a.8.8,0,0,1,.45-.95c.45,0,.55-.1.65,0a19.479,19.479,0,0,0,3.8.05c.75,0,1.4-.55,1.35-1.65-.2-.3.1-.45,0-.9-.05-.9-.3-1.45-1.35-1.6-1.1-.1-2.75.05-3.8,0-.25.15-.3-.1-.65,0-.35-.15-.6-.25-.4-.45-.15-.15,0-.3,0-.65-.15-.4.1-1.1.4-.95.35.2.4.05.65,0a31.965,31.965,0,0,1,3.8,0c1.05-.05,1.55-.7,1.35-1.6.3-.1,0-.45,0-.9a1.513,1.513,0,0,0-1.35-1.65c-1.25.15-2.05-.05-3.2.05a1.822,1.822,0,0,1-1.35-.2c-.2-.2-.2-.45-.35-.85-.05-.55.45-.95,1.1-1a2.818,2.818,0,0,0,1.3,0,31.228,31.228,0,0,1,3.75,0c1.1-.05,1.45-.55,1.4-1.65a1.4,1.4,0,0,0,0-1.1c-.05-1-.35-1.55-1.4-1.65a8.754,8.754,0,0,1-2.8,0,10,10,0,0,0-1.5.1c-.7-.1-1.15-.15-1.45-.45-.2-.2,0-.45.35-1.05.35-.4,1.2-.85,1.2-1.3,0-.4-.3-.35-.85-.7-.35-.35.05-.55,2.15-.4a31.025,31.025,0,0,1,3.75,0c.4.05,1.15-.45,1.25-1.55a2.939,2.939,0,0,1,0-1.15c0-.95-.6-1.95-1.25-1.85-1.1.15-2.4-.1-3.75,0a8.6,8.6,0,0,1-3,0c-1.75-.05-3,.4-3.35-.35-.25-.55.1-.65.05-1.25-.05-.25.35-.6.45-1.25.15-.5,1.1-.7,1.9-.85a5.1,5.1,0,0,0,2.3,0,18.79,18.79,0,0,1,3.75,0c1.15,0,1.3-.4,1.4-1.2a12.263,12.263,0,0,0-.05-1.85c0-1-.4-1.55-1.35-1.45-1.3.05-2.5-.05-3.75,0a9.6,9.6,0,0,1-2.4,0,7.725,7.725,0,0,1-2.4,0c-.4.05-2.05,0-2.7,0-1.3.1-1.9-.2-1.6-.85a2.507,2.507,0,0,0,.45-.9c.5-.3,1.15.1,1.05-.8-.2-.4-.2-.75-.7-.8a8.813,8.813,0,0,1-2.7-.8c-.45.1-.6-.15-.9-.15h-.1a1.438,1.438,0,0,0-1,1c-.5.6-.3,1.05-.7,1.7-.1.75-.7,1-.75,1.65-.1.5-.75,1.2-.85,1.5a9.79,9.79,0,0,0-.95,1.5c-.55.75-1.15,1.5-1.1,1.95-.2.75.3,1.1.95,1.4a3.607,3.607,0,0,0,1.85,1.25,1.209,1.209,0,0,0,1.15-.5,3.213,3.213,0,0,1,.85-1.2c.4-.55.75-1.25,1.4-1.35l1.2-.05c.4,0,1,.2.8.55-.25,1.1-.7,1.65-.65,2.1a2.226,2.226,0,0,1-1.1,1c-.6-.1-1.25.1-1.6,0a31.265,31.265,0,0,1-3.75,0c-1.05.1-1.25.4-1.4,1.2-.05.55.25,1,.05,1.65-.05,1.05.35,1.65,1.25,1.8.8,0,1.2.15,1.55-.1.55.1,1.35,0,1.7.55a1.68,1.68,0,0,1-.3,1.8c-.4.75-.7,1-.9,1.4a7.116,7.116,0,0,1-1.35,1.9,5.777,5.777,0,0,0-1.5,1.75c-.4.7-1.5,1.2-1.5,1.95,0,.05.05.1.05.2v.1a8.523,8.523,0,0,0,.65,2c0,.9.3,1.5,1.3,1.65a1.387,1.387,0,0,0,1.25-.75,7.787,7.787,0,0,0,1.1-1.3c.15-.3.15,2.25.05,3.8a2.621,2.621,0,0,1,0,1.25c.15.8-.2,2,0,2.75a8.4,8.4,0,0,0,0,2.75,19.681,19.681,0,0,1-.05,3,12.383,12.383,0,0,1,0,3.05c.05,1.15.95,1.3,1.65,1.4a1.188,1.188,0,0,0,.6.15.8.8,0,0,0,.55-.15c1.05-.05,1.6-.2,1.65-.8s.2-.75.8-1.05c.65-.35.95,0,1.7-.25h2.85a16.116,16.116,0,0,1,2.7,0,23.427,23.427,0,0,1,2.65,0c1.45-.1,2.1.1,3.75,0a1.978,1.978,0,0,1,1.55.85c.55.8,1.15,1.4,1.8,1.45a2.469,2.469,0,0,0,2-1.15c.55-.7,1.3-1.05,1.75-1.8a12.48,12.48,0,0,0,1.35-2c.6-.55.5-1.3,1.05-2.15a18,18,0,0,1,.75-2.4,6.565,6.565,0,0,1,.7-2.8c.05-.5.65-.05.75-.8C282.4-9.65,281.7-9.95,281.4-9.95ZM294.8-4.5a3.277,3.277,0,0,0-1.5-.65,6.11,6.11,0,0,0-1.25-.35c-1,.2-1.25.35-1.2,1.45,0,.45.15.85.15,1.25,0,1.5-.45,1.5-2,1.55-.85,0-1.05-.3-1.2-.85a12.814,12.814,0,0,1,0-2.4c.15-.7-.2-1.7,0-2.45a15.02,15.02,0,0,1,0-2.6c0-1-.2-1.9.45-2,.25-.05.4.15.7.45a1.711,1.711,0,0,0,1.25.4,12.134,12.134,0,0,1,1.8-.1c.95.1,1.4-.4,1.3-1.4a8.486,8.486,0,0,1,0-1.15,23.63,23.63,0,0,0-.1-2.45,19.347,19.347,0,0,0-.05-2.35,5.42,5.42,0,0,0,0-2.2,13.563,13.563,0,0,0,0-2.85,9.4,9.4,0,0,1,0-2.9,13.574,13.574,0,0,0,0-2.85c-.15-.9.15-1.75,0-2.9-.2-.6.15-1.85.05-2.45-.05-.75.1-2.15.05-2.95-.2-.7,0-.9.05-1.45-.25-.65-.5-1.25-1.25-1.25a24.217,24.217,0,0,0-3.3,0,21.132,21.132,0,0,0-3.2.1c-.6.2-1.65-.1-2.15,0a4.468,4.468,0,0,1-2.15,0L278-39.9a24.719,24.719,0,0,1-3.35-.05,1.049,1.049,0,0,0-1.15,1.15c-.1,1.25.2,2.45.05,3.5.1.95-.05,2.4.1,3.45a9.363,9.363,0,0,0,0,2.9c.05.8,0,2.05,0,2.85a18.715,18.715,0,0,0,0,2.9,13.574,13.574,0,0,0,0,2.85,5.1,5.1,0,0,0,0,2.3,7.469,7.469,0,0,1-.05,2.35,20.976,20.976,0,0,0-.1,2.35,4.2,4.2,0,0,1,0,1.15c-.1.95.8,1.3,1.65,1.4.65.2.9-.05,1.55,0,.45.05.6-.15,1.15-.3a2.716,2.716,0,0,1,2.3-.65c.6.05,1.05,0,1.55.05a2.813,2.813,0,0,1,1.15,2.3,20.026,20.026,0,0,1,0,3,11.741,11.741,0,0,0,0,2.65,12.151,12.151,0,0,1,0,2.7,3.027,3.027,0,0,0,.25,2.5,2.22,2.22,0,0,0,1.75,1.75,2.553,2.553,0,0,0,1.75.35c.5-.1,1.05.1,1.85.05a21.587,21.587,0,0,0,3.45-.15,6.466,6.466,0,0,0,2.15-.9,4.656,4.656,0,0,0,1.05-2,15.872,15.872,0,0,0,.3-3.6v-.2A1.341,1.341,0,0,0,294.8-4.5ZM278.5-34.05c.05-.85.45-1.25,1.45-1.3h3.45a15.909,15.909,0,0,0,3.45,0c.85.15,1.4.1,1.55,1.15a4.709,4.709,0,0,1-.05,1.45,1.028,1.028,0,0,1-1.2.9c-.9.25-2.55,0-3.3.2-.95-.1-2.85-.15-3.65-.2a1.426,1.426,0,0,1-1.75-.9A2.931,2.931,0,0,1,278.5-34.05Zm.05,7.15c.3-.55,1-.55,2.15-.65.65.2,2-.2,2.7,0,.9-.1,2,.1,2.7,0,1.1,0,1.85,0,2.25.8a5.046,5.046,0,0,1,.1,1.45c-.1,1-.3,1.1-1.4,1.2-1.05.15-2.75-.15-3.65.05a12.185,12.185,0,0,1-2.7,0c-1.1-.2-1.45.25-2.05-.45A2.536,2.536,0,0,1,278.55-26.9ZM260.4-23.65c-.35,1.05-.95,2.25-1.6,2-.3,0-.4.1-.65,0-.5-.2-.45-.9-.15-1.6.1-.35.1-.6.5-.85.45-.7.95-1.55,1.35-1.5C260.5-25.6,260.7-24.4,260.4-23.65Zm25.95,7.7a17.559,17.559,0,0,0-2.8-.05c-.7,0-2-.1-2.85-.15-1-.15-1.7.3-2.25-.8a4.021,4.021,0,0,1,0-1.55,1.271,1.271,0,0,1,1.3-1.2,17.78,17.78,0,0,0,3.65,0c.85-.1,1.9.15,2.7,0,.75-.2,2.2-.05,2.25.8a4.994,4.994,0,0,1-.05,1.95C288.15-16.1,287.3-16.1,286.35-15.95Zm-30.2-.9c.15-.45.65-.45,1.05-.35.3.05.85-.2,1.2-.15.55.25.9.05,1.25.3s.25.85.25,1.05c.05.7-.3.95-.85.8-.55.2-1.5.35-1.8.05-.85.2-1.05,0-1.2-.5A1.691,1.691,0,0,1,256.15-16.85ZM259.9-9.6c-.2.7-.55.5-.85.55-.55.15-.75-.15-1.15,0-.85.25-1.9-.2-1.75-.45a3.258,3.258,0,0,1-.1-.9c.15-.55.4-.9,1.3-.8a4.211,4.211,0,0,1,1.7.1c.4.05.75-.05.85.45A1.28,1.28,0,0,1,259.9-9.6Zm0,6.2c-.1.45-.1.8-1.05.75a5.528,5.528,0,0,1-1.6.05c-.35-.1-.65,0-1.1-.55-.15-.05-.1-.6-.1-1.05a.974.974,0,0,1,.95-.75,7.04,7.04,0,0,1,1.45.05c.6-.1,1.25-.1,1.3.2A2.19,2.19,0,0,1,259.9-3.4Zm66.62-27.28a3.379,3.379,0,0,1,1.08.84,12.459,12.459,0,0,0,1.2,1.04c.6.6.96,1.12,1.56,1.2.36.04.6-.08.92-.56.08-.2.24-.24.36-.4a1.364,1.364,0,0,0,.4-.84,1.906,1.906,0,0,0-.72-1.28,7.575,7.575,0,0,0-1.2-1c-.4-.2-.68-.64-1.2-.96a2.945,2.945,0,0,0-1.44-.64c-.04-.04-.08-.04-.16-.04-.24,0-.52.28-.96.72a1.244,1.244,0,0,0-.44.92C325.92-31.36,326.04-30.68,326.52-30.68ZM314.04-21c.52.12.88-.28,1.44-.28.44,0,1.16-.36,2-.48a17.183,17.183,0,0,1,1.76-.56.992.992,0,0,0,.72-1.04c0-.36-.16-.48-.12-.68a12.294,12.294,0,0,1-.44-1.24c-.16-.76-.72-1.2-1.28-.96-.8.24-1,.32-1.64.56-.56.04-.6.2-1.2.28-.52.08-1.4-.68-1.12-1.16a9.551,9.551,0,0,1,.52-1.88c.16-.28.04-.56.28-1,.16-.2.96-.48.88-1.2-.04-.28-.36-.4-.56-.52a7.033,7.033,0,0,0-1.6-.44,5.885,5.885,0,0,1-1.32-.28,1.69,1.69,0,0,0-1.12-.12,1.369,1.369,0,0,0-.76,1.4,2.663,2.663,0,0,0-.16,1.24,6.6,6.6,0,0,0-.36,1.88A12.713,12.713,0,0,0,309.6-26a2.613,2.613,0,0,1-1.88,1.76,6.552,6.552,0,0,1-1.92.16c-.8-.08-1.16.16-1.84,0-.6-.12-1.36.16-1.76.08-.64-.12-1.16.32-1,1.28a3.185,3.185,0,0,0,0,1.4c-.04.84.36,1.48,1.16,1.36a4.418,4.418,0,0,0,1.24.04c.72.04,1.16-.08,1.6-.04.48.04.88-.08,1.28,0,.76.08,1.16,1.04,1,1.2a3.446,3.446,0,0,1-.24,1.2,2.058,2.058,0,0,0-.4,1.12c-.2.52-.36.92-.48,1.32-.24.68-.4,1.04-.48,1.32a7.54,7.54,0,0,1-.52,1.32c-.12.56-.52,1.08-.52,1.32a10.1,10.1,0,0,0-.56,1.28,3.031,3.031,0,0,1-.6,1.6c-.44.8-.44,1.44-.8,1.8-.44.44-.28,1.12-.72,1.48-.4.32-.44,1-.72,1.32a4.88,4.88,0,0,0-.84,1.64,2.071,2.071,0,0,0-.44,1.12c0,.72.8,1.12,1.2,1.28.64.24,1.04,1,1.72,1,.44,0,.52-.24.72-.36.32-.2.24-.4.56-.76.08-.28.6-.72.72-1.28a6.986,6.986,0,0,1,.6-1.32,1.633,1.633,0,0,1,.44-.92,13.067,13.067,0,0,1,1-2.2c.2-.6.6-1.32.92-2.2a21.685,21.685,0,0,1,.88-2.24,11.557,11.557,0,0,0,.84-2.28,11.008,11.008,0,0,1,.72-2c.12-.48.6-1.48.68-2,0-.8.56-1.2.64-2a6.75,6.75,0,0,1,.52-1.52C312.48-19.96,313.36-21.08,314.04-21Zm9.68-5.72.76.52a7.21,7.21,0,0,0,1.2,1.04c.6.56.72,1.08,1.56,1.16a.856.856,0,0,0,.92-.52c.08-.28.36-.24.44-.48.16-.36.36-.44.36-.8,0-.52-.72-.88-.92-1.28-.16-.28-.72-.6-1-1a10.691,10.691,0,0,1-1.24-.96,2.639,2.639,0,0,0-1.44-.64c-.44,0-.6.12-1.24.88a.949.949,0,0,0-.32,1C322.8-27.28,323.24-26.96,323.72-26.72ZM318-18.32c-.44.12-.8.2-1.52.44-.56.2-1.64.64-1.44,1.36-.12.36.04.36.08.6.12.52,0,.68.32,1.16a1.149,1.149,0,0,0,1.08,1.04c.52.08,1.32-.36,1.76-.36.6,0,1.2-.48,2.04-.48.68,0,1.48-.4,2.04-.36.52.04,1.16-.4,2.08-.24a17.855,17.855,0,0,0,2.04-.04c.96.12,2.08-.04,3.08.04a1.116,1.116,0,0,0,1.12-1.32c-.04-.28.08-.76.08-1.44.04-1-.6-1.16-1.08-1.28a6.2,6.2,0,0,0-1.92-.08c-.88,0-1.56-.08-2.52,0a15.821,15.821,0,0,0-2.48.16,10.273,10.273,0,0,0-1.6.24c-.72.2-1.08.12-1.56.24C319.08-18.48,318.4-18.48,318-18.32ZM332.16-2.84v-.08c0-.32-.56-.64-.76-.68a4.314,4.314,0,0,0-1.92.28c-.6.12-1.4.12-2.36.24a15.3,15.3,0,0,1-2.4.12A27.938,27.938,0,0,1,321.6-3a4.34,4.34,0,0,1-1.6-.12,6.145,6.145,0,0,1-1.4-.4c-.72-.44-1-.6-1-1.28a1.839,1.839,0,0,1,.36-1.64c.2-.2.12-.64.4-.88a1.031,1.031,0,0,0,.28-.88c-.04-.28-.44-.6-.76-.84-.4-.28-.56-.32-.72-.44-.28-.04-.64-.32-1-.28a1.109,1.109,0,0,0-1,.56,5.055,5.055,0,0,0-.6,1.04,9.058,9.058,0,0,0-.68,1.2c-.12.48-.48,1.08-.4,1.4a4.783,4.783,0,0,0-.12,1.36,2.718,2.718,0,0,0,.24,1.6,4.814,4.814,0,0,0,.68,1.36c.32.56.84.64,1.12,1.08.4.24,1.12.4,1.44.64.44.32,1.24.12,1.88.4.56.24,1.44.04,1.92.2a9.414,9.414,0,0,0,2.24.12c.6.04,1.08-.2,1.6,0,.44.16.96-.12,1.72,0,.48.16,1-.24,1.68-.08.64.16,1.16-.16,1.92-.08a5.134,5.134,0,0,0,1.36-.28A1.6,1.6,0,0,0,332-.56c-.16-.56.2-1.32.2-1.96A.881.881,0,0,0,332.16-2.84Zm17.28-3.44a2.129,2.129,0,0,0-.76-.96c-.32-.24-.56-.52-.92-.76-.24-.2-.84-.36-1.04-.56A5.427,5.427,0,0,0,344.4-9h-.52a9.588,9.588,0,0,0-1.96.44c-.56.08-.56.32-1.08.56-.64.28-.4.44-.92.76-.48.32-.32.56-.88,1.04-.4.36-.32.76-.56,1.08a4.956,4.956,0,0,0-.4,2.28,5.307,5.307,0,0,0,.36,2.08c.24.52.2,1,.72,1.4s.44.64.84.92c.56.4.36.48.84.76a4.092,4.092,0,0,0,1.44.6,10.46,10.46,0,0,0,2.04.36,8.44,8.44,0,0,0,2.36-.44,2.427,2.427,0,0,0,1.08-.52,6,6,0,0,1,.92-.76c.2-.28.48-.52.76-.96.04-.28.36-.52.6-1.04a5,5,0,0,0,.48-2.4V-3.2a6.212,6.212,0,0,0-.48-2.04C349.76-5.56,349.76-6,349.44-6.28ZM347.4-2.8a2.332,2.332,0,0,1-.12.88c-.24.48-.4,1.04-.8,1.28a2.524,2.524,0,0,1-2.2.88,2.2,2.2,0,0,1-2.16-.88,2.792,2.792,0,0,1-.92-2.16,3.329,3.329,0,0,1,.88-2.28,2.444,2.444,0,0,1,2.04-.96,2.256,2.256,0,0,1,1.36.28c.32.16.68.08,1,.68.2.36.6.48.64.92C347.16-3.64,347.48-3.6,347.4-2.8Z" transform="translate(2672 371)" fill="#fff"/>
  </g>
</svg>
